<?xml version="1.0" encoding="utf-8"?>
<!-- Generator: Adobe Illustrator 25.0.1, SVG Export Plug-In . SVG Version: 6.00 Build 0)  -->
<svg version="1.1" id="Layer_1" xmlns="http://www.w3.org/2000/svg" xmlns:xlink="http://www.w3.org/1999/xlink" x="0px" y="0px"
	 viewBox="0 0 207.8 160.18" style="enable-background:new 0 0 207.8 160.18;" xml:space="preserve">
<style type="text/css">
	.st0{fill:#C7D0CA;}
	.st1{fill:#F8B772;}
	.st2{fill:#DDAD76;}
	.st3{fill:#FBBE69;}
	.st4{fill:#77869B;}
	.st5{fill:#99938D;}
	.st6{fill:#575757;}
	.st7{fill:#C3A480;}
	.st8{fill:#F1CCB1;}
	.st9{fill:#D5D0C8;}
	.st10{fill:#31302F;}
	.st11{fill:#F4BB95;}
	.st12{fill:#373430;}
	.st13{fill:#494644;}
	.st14{fill:#6A655D;}
	.st15{fill:#EEBDA8;}
	.st16{fill:#363534;}
	.st17{fill:#615144;}
	.st18{fill:#FAB88E;}
	.st19{fill:#4C463F;}
	.st20{fill:#FFFFFF;}
	.st21{fill:#574B37;}
	.st22{fill:#453E33;}
	.st23{fill:#4A4133;}
	.st24{fill:#69563D;}
</style>
<path class="st0" d="M125.35,110.36c0.26,0.55,0.77,1.1,0.75,1.64c-0.55,13.94,6.36,25.94,10.13,38.74
	c3.31,11.24,5.21,9.82-6.89,9.87c-27.62,0.12-55.23,0.16-82.85,0.22c-1.08,0-2.16-0.17-3.24-0.26c-0.06-0.93,0.56-1.35,1.27-1.71
	c2.07-0.63,3.55-1.7,3.83-4.1c1.18-9.99,2.31-20,3.71-29.96c0.11-0.77-0.26-1.52-0.42-2.28c-0.33-2.97,0.19-5.8,1.46-8.51
	c0.77-0.88,1.74-1.38,2.89-1.57c11.57,0.29,23.07,1.64,34.58,2.75c8.07,0.77,15.99-1.34,24.02-0.63c2.6,0.23,5.26-0.16,7.78,0.7
	c1.11,0.46,1.66,0.16,1.73-1.13C124.19,112.77,124.05,111.32,125.35,110.36z"/>
<path class="st1" d="M49.69,95.44c1.77-5.89,4.35-11.42,7.25-16.82c2.01-1.42,4.15-1.23,6.19-0.24c3.19,1.55,6.58,1.41,9.98,1.69
	c31.55,2.58,63.17,1.6,94.76,1.87c2.27,0.02,4.78-0.15,6.05,2.48c-15.27,4.41-30.94,7.1-46.35,10.92c-1.73,0.43-3.41,0.47-3.54,2.75
	c-4.25-0.18-8.28,0.28-11.3,3.79c-7.54,1.22-15.12,0.47-22.68,0.59c-7.72,0.13-15.45,0.05-23.18,0.01c-2-0.01-4.03,0.06-5.88-0.9
	c-3.27-3.37,1.21-5.37,1.27-7.88c-1.78,1.38-0.79,5.48-4.65,5.53c-1.55-1.07-3.28-1.49-5.13-1.73C51.3,97.35,49.53,97.6,49.69,95.44
	z"/>
<path class="st2" d="M173.94,84.42c-1.95-1.28-4.15-1.05-6.31-1.05c-21.7,0-43.41,0.27-65.1-0.11c-11.85-0.2-23.62-2.43-35.56-1.89
	c-3.39,0.15-6.15-3.61-10.01-2.75c3.01-7.93,5.77-16.03,14.08-20.29c3.95,1.44,7.15,4.34,11.17,5.65c2.34,1.37,5.14,1.22,7.58,2.27
	c6.27,3.99,13.13,5,20.46,4.61c10.52-0.55,21.1,0.65,31.61-0.76c0.86-0.05,1.72-0.04,2.57,0.07c12.49,1.21,25,0.3,37.49,0.53
	c1.68,0.03,3.41-0.38,4.98,0.56C185.41,78.44,181.02,82.75,173.94,84.42z"/>
<path class="st3" d="M88.87,66.58c-2.81,0.31-5.44-0.08-7.7-1.94c-2.52-1.95-1.67-4.31-0.8-6.66c0.85-2.3,2.66-4.11,3.44-6.56
	c-1.86-0.93-3.45,1.41-5.22,0.36c-6.51,1.97-12.67,2.31-17.76-3.39c-1.8-2.02-2.79-4.38-3.7-6.84c-1.91-5.11-3.22-10.46-6.01-15.23
	c-1.35-0.8,0.89-2.09-0.4-2.9c0.02-1.82,0.04-3.63,0.07-5.45c4.7-0.63,8.84-2.5,12.71-5.24c4.69-3.32,6.62-2.68,9.39,2.53
	c1.22,2.3,2.05,4.85,4.01,6.83c1.21-0.46,0.61-1.56,0.8-2.31c0.47-1.82,1.39-3.11,3.35-3.35c1.89-0.23,3.34,0.64,4.32,2.17
	c1.27,1.98,2.03,4.18,2.04,6.55c0.03,6.57,2.56,9.38,9.16,10.03c0.79,0.08,1.53,0.18,2.11,0.79c2.59,6.56,4.25,13.41,6.37,20.11
	c0.86,5.31,0.41,6.31-4.62,7.68C96.61,64.82,93.13,67.34,88.87,66.58z"/>
<path class="st4" d="M116.88,12.61c19.69,12.35,39.39,24.71,59.08,37.06c-1.57,2.94-4.44,2.5-7,2.52
	c-12.12,0.1-24.24,0.06-36.36,0.03c-3.73-0.01-7.46,0.09-11.16,0.51c-1.09,0.02-2.21-0.12-3.09-0.77
	c-6.53-4.87-13.25-9.51-18.58-15.79c1.77-5.12,5.84-8.67,8.9-12.9C111.31,19.64,113.8,15.89,116.88,12.61z"/>
<path class="st5" d="M119.78,51.66c16.45-1.95,32.96-0.41,49.44-0.88c2.31-0.07,4.65,0.2,6.75-1.11c4.78,2,8.61,4.95,10.08,10.21
	c-0.82,3.51-3.94,3.05-6.32,3.3c-4.93,0.53-9.91,0.17-14.87,0.21c-9.14,0.07-18.29-0.14-27.42,0.16c-4.18,1-6.25-2.23-8.83-4.44
	c-0.15-0.61-0.3,0.13-0.15,0.24c1.07,0.84,0.98,1.75-0.19,2.52c-4.6,2.38-9.19,0.81-13.76-0.05c-1.17-0.22-1.83-1.05-1.22-2.36
	c1.34-1.75,3.42-1.94,5.33-2.38c2.6-0.59,4.32-1.28,1.42-3.83C119.58,52.86,119.32,52.28,119.78,51.66z"/>
<path class="st6" d="M97.87,35.83c-6.68,1.6-12.39-3.31-11.47-9.85c0.37-2.6-0.86-4.81-1.98-6.97c-0.67-1.29-1.97-2.03-3.52-1.65
	c-1.74,0.44-2.51,1.71-2.4,3.47c0.06,1.05,0.24,2.09,0.38,3.24c-2.54,0.12-3.64-1.49-4.56-3.3c-1.05-2.06-2.17-4.1-3.06-6.23
	c-1.51-3.61-3.75-3.79-6.45-1.45c-2.5,2.16-5.34,3.69-8.34,4.92c-1.85,0.76-3.81,1.46-5.7-0.03c0.14-8.68,6.37-15.86,15.74-18.11
	c8.27-1.99,17.5,2.09,21.34,9.42c0.27,0.52,0.59,1.01,0.89,1.51c2.07,1.2,2.52,3.43,3.21,5.4c2.19,6.19,5.04,12.15,6.66,18.55
	C98.62,35.27,98.37,35.64,97.87,35.83z"/>
<path class="st7" d="M135.27,62.93c1.83-1.03,3.83-1.01,5.85-1.01c12.21,0.02,24.42,0.01,36.63,0.01c2.94,0,5.81-0.25,8.29-2.06
	c2.26,3.65,2.2,7.47,0.85,11.39c-1.55,0.82-3.21,0.94-4.93,0.94c-11.11-0.03-22.23-0.03-33.34,0c-1.73,0.01-3.38-0.17-4.91-1.03
	C140.73,68.6,136.33,67.48,135.27,62.93z"/>
<path class="st3" d="M98.2,34.91c-3.81-7.78-6.35-16.06-9.45-24.12c7.86-6.84,11.75-7.26,20.88-2.21c2.16,1.2,4.23,2.55,6.34,3.83
	c-0.95,4.36-4.45,7.1-6.86,10.49c-3.02,4.24-6.14,8.44-9.69,12.28C98.97,35.32,98.55,35.24,98.2,34.91z"/>
<path class="st8" d="M44.02,159.81c-0.26,0.25-0.51,0.5-0.77,0.75c-4.66,0.01-9.32,0-13.97,0.06c-2.26,0.03-3.1-0.65-2.27-3.07
	c2.39-6.99,4.6-14.04,6.89-21.07c3.85-2.44,8.04-1.52,12.11-1.03c2.7,0.32,3.08,2.63,3.16,4.9
	C48.17,147.02,47.94,153.9,44.02,159.81z"/>
<path class="st9" d="M48,141.35c0.35-3.6-0.88-5.4-4.89-4.95c-3.04,0.34-6.14,0.07-9.22,0.06c2.8-10.29,6.86-20.11,11.23-29.81
	c3.23-1.96,6.38-1.97,9.41,0.42c1.11,2.53,0.33,4.78-1.04,6.94c-0.32,2.8-0.64,5.61-0.96,8.41c-0.37,5.63-1.76,11.09-2.65,16.64
	C49.72,140.13,49.32,141.18,48,141.35z"/>
<path class="st10" d="M114.15,101.06c-0.34-1.34-1.4-3.1,1.27-3.06c2.88,0.04,5.8-3.21,8.63,0.09c0.44,4.09,0.87,8.18,1.31,12.27
	c0.03,2,0.14,4.01,0.07,6.01c-0.06,1.8-0.99,0.92-1.73,0.44c-2.93-2.38-4.31-5.87-6.4-8.85
	C116.4,105.59,114.17,103.82,114.15,101.06z"/>
<path class="st11" d="M54.66,107.6c-3.06-1.54-6.34-0.75-9.54-0.94c1.21-3.87,2.55-7.68,4.57-11.22c1.31,1.54,3.1,0.92,4.7,0.94
	c2.08,0.03,3.59,0.57,3.81,2.92C58.72,102.79,57.91,105.72,54.66,107.6z"/>
<path class="st12" d="M78.59,51.77c2.16-1.5,4.64-2.07,8.15-3.08c-2.02,3.6-3.43,6.4-5.11,9.03c-1.47,2.3-1.74,4.51-0.46,6.92
	c-3.58-1.79-7.64-2.79-10.15-6.3c1.57-1.56,3.48-2.57,5.59-3.16C78.44,54.66,79.22,53.65,78.59,51.77z"/>
<path class="st13" d="M98.95,34.99c5.67-7.53,11.35-15.05,17.02-22.58c0.3,0.07,0.61,0.13,0.91,0.2c-2.2,6.01-7.03,10.24-10.5,15.39
	c-1.87,2.77-4.18,5.24-6.28,7.84C99.26,36.17,98.92,35.83,98.95,34.99z"/>
<path class="st14" d="M50.71,23.42c0.55-0.02,1.27-0.66,1.59,0.11c0.52,1.24-0.94,1.79-1.19,2.79c-0.89,0.6-1.02,2.39-2.84,1.76
	C48.16,26.03,50.07,25.04,50.71,23.42z"/>
<path class="st15" d="M118.06,107.5c2.22,2.9,4.1,6,5.63,9.31c-6.58-1.73-13.43-1.48-19.87-0.55c-7.71,1.11-15.13-0.16-22.64-0.48
	c-7.38-0.31-14.72-1.64-22.15-1.76c-1.21-0.02-2.4-0.55-3.6-0.84c-1.73-3.08-0.24-5.02,2.32-6.6c3.35-0.83,6.76-0.47,10.14-0.48
	c14.35-0.04,28.7-0.03,43.05-0.01C113.39,106.09,115.9,105.93,118.06,107.5z"/>
<path class="st16" d="M48,141.35c1.99-6.19,2.16-12.81,4.54-18.91c1.41,6.16-0.87,12.07-1.21,18.12c-0.27,4.9-1.34,9.75-1.63,14.65
	c-0.23,3.93-1.63,5.71-5.68,4.6C45.34,153.66,46.67,147.51,48,141.35z"/>
<path class="st17" d="M57.15,107.57c-1.13,1.7-1.83,3.53-1.73,5.61c-0.44,0.74-1.14,0.9-1.93,0.86c-0.4-2.28,0.54-4.33,1.16-6.43
	c1.18-2.77,2.37-5.54,3.55-8.3c1.76-3.18,3.53-6.36,5.29-9.54c0.49,4.11-2.32,6.95-3.25,10.46
	C60.55,103.22,59.3,105.58,57.15,107.57z"/>
<path class="st18" d="M57.15,107.57c0.48-2.68,1.85-4.99,3.09-7.36c1.82,1.21,3.87,0.85,5.85,0.85c16.02,0.01,32.04,0,48.05,0
	c1.68,1.92,2.98,4.07,3.91,6.45C97.76,107.53,77.45,107.55,57.15,107.57z"/>
<path class="st7" d="M114.08,59.34c-0.23,0.71-0.67,1.61,0.59,1.64c4.81,0.13,9.63,1.88,14.44-0.03c5.28,2.22,9.76,5.43,12.9,10.32
	c-3.76,1.36-7.66,0.89-11.52,0.9c-9.32,0.04-18.65-0.16-27.96,0.08c-5.53,0.14-9.51-2.82-13.65-5.68c3.88-1.33,7.7-2.88,11.65-3.93
	c3.6-0.95,5.04-2.61,3.32-6.2C107.64,56.08,110.53,58.85,114.08,59.34z"/>
<path class="st19" d="M142.01,71.27c-4.3-3.44-8.6-6.88-12.9-10.32c-0.81-1.65-3.04-2.09-3.67-4.52c4.19,1.22,6.27,5.05,9.83,6.5
	c2.16,3.42,6.72,4.38,8.45,8.24C143.15,71.2,142.58,71.24,142.01,71.27z"/>
<path class="st20" d="M114.08,59.34c-4.21,1.85-6.87-1.76-10.23-2.89c-1.99-6.87-3.98-13.75-5.98-20.62
	c0.11-0.3,0.22-0.61,0.33-0.91c0.24,0.14,0.49,0.16,0.75,0.08c0.38,0.29,0.77,0.57,1.15,0.86c6.56,5.27,13.12,10.54,19.68,15.81
	c1.09,1.85,4.65,2.6,4.02,4.56c-0.66,2.04-3.98,1.53-6.13,2.14C116.47,58.69,115.27,59.01,114.08,59.34z"/>
<path class="st21" d="M58.72,29.34c1.42,2.24-3.19,5.66,3.15,6.38c-2.68,1.49-4.06,1.03-4.84-0.39
	C55.73,32.95,57.58,31.22,58.72,29.34z"/>
<path class="st22" d="M67.51,27.93c-0.19,1.2-0.82,2.08-2.05,2.04c-1.38-0.05-2.29-0.92-2.17-2.36c0.1-1.13,0.75-2.06,2.05-2.01
	C66.77,25.65,67.53,26.47,67.51,27.93z"/>
<path class="st23" d="M68.56,44.87c-2.09,0.38-4.19,0.74-6.09,1.73C63.82,43.81,65.79,43.02,68.56,44.87z"/>
<path class="st24" d="M58.56,20.31c3.44-0.59,5.57-0.47,8,1.34C63.77,22.28,61.7,22.16,58.56,20.31z"/>
<path class="st22" d="M56.59,30.95c-0.19,1.2-0.82,2.08-2.05,2.04c-1.38-0.05-2.29-0.92-2.17-2.36c0.1-1.13,0.75-2.06,2.05-2.01
	C55.84,28.67,56.6,29.5,56.59,30.95z"/>
</svg>
