<?xml version="1.0" encoding="utf-8"?>
<!-- Generator: Adobe Illustrator 25.0.1, SVG Export Plug-In . SVG Version: 6.00 Build 0)  -->
<svg version="1.1" id="Layer_1" xmlns="http://www.w3.org/2000/svg" xmlns:xlink="http://www.w3.org/1999/xlink" x="0px" y="0px"
	 viewBox="0 0 207.8 160.18" style="enable-background:new 0 0 207.8 160.18;" xml:space="preserve">
<style type="text/css">
	.st0{fill:#EED4E7;}
	.st1{fill:#BE6461;}
	.st2{fill:#FCBF69;}
	.st3{fill:#9FBAE1;}
	.st4{fill:#2B2C2B;}
	.st5{fill:#2D2E2D;}
	.st6{fill:#68C398;}
	.st7{fill:#FCC06B;}
	.st8{fill:#383430;}
	.st9{fill:#585059;}
	.st10{fill:#FFFAF5;}
	.st11{fill:#65533C;}
	.st12{fill:#4C4435;}
</style>
<path class="st0" d="M81.79,118.37c3.9-1.87,3.39-4.04,1.53-7.59C77.58,99.85,67.74,93.12,58.89,85.3
	c-9.4-8.3-17.93-17.53-26.13-26.97c-8.98-10.34-17.49-21.1-25.39-32.31c1.64-3,4.8-4.15,7.43-5.87c4.08-2.67,8.24-5.21,12.24-8.02
	C33.56,19.54,40.51,26.5,47.96,33c6.63,5.77,12.35,12.51,19.23,18.03c5.64,4.52,10.4,10.06,16.4,14.18
	c2.84,2.81,3.92,6.45,4.86,10.17c-0.04,3.32-2.26,6.06-2.48,9.33c0.51,6.19,3.56,9.94,8.84,10.83c5.85,0.99,9.33-1,12.07-6.93
	c0.45-0.98,0.8-2.02,1.59-2.81c2.86-0.09,8.03-2.09,10.52-4.06c0.21,0.93,0.52,1.71,1.56,2.09c7.79,2.82,13.01,8.51,17.26,15.35
	c8.04,12.94,16.15,25.82,24.24,38.73c-11.31,8.13-22.71,16.13-35.27,22.28c-4.12,0-8.25-0.01-12.37-0.01
	c-3.73-4.85-7.67-9.57-9.51-15.57c5.29-6.05,11.33-11.37,16.84-17.21c-5.66,5.84-11.62,11.37-17.15,17.34
	c-6.52,5.55-12.96,11.21-20.53,15.35c-17.54,0.02-35.08,0.05-52.62,0.07c-2.21-3.72-4.61-7.36-4.64-11.92
	c5.06-1.92,10.11-3.84,15.17-5.77c0.5-1.28,1.58-1.85,2.79-2.24c2.36-0.76,4.55-2.03,6.95-2.62c9.56-2.34,16.76-8.35,23.66-14.87
	C77.28,120.93,79.08,118.99,81.79,118.37z"/>
<path class="st1" d="M129.57,33.43c7.58-12.41,20.01-16.67,36.4-12.63c14.47,3.57,21.82,13.23,24.06,27.48
	c0.72,4.58,1.31,9.19,2.74,13.65c1.95,6.09,5.98,9.7,12.24,10.64c1.78,0.27,3.04,0.51,2.75,2.65c-1.66,12.35-7.16,22.98-16.6,30.77
	c-8.18,6.75-18.39,8.2-28.67,5.07c-13.29-4.05-17.34-15.01-19.03-27.22c-1.42-10.25-1.07-20.8-5.69-30.44
	c-0.86-1.81-1.86-3.55-2.8-5.32c-0.76-0.65-1.12-1.58-1-2.46C134.63,40.77,131.16,37.45,129.57,33.43z"/>
<path class="st2" d="M87.65,75.22c-1.35-3.34-2.71-6.68-4.06-10.01c0.42-6.53-0.7-13.23,2.15-19.5c6.6-0.52,13.16-0.85,19.29-4.07
	c3.2-1.68,5.52,1.02,6.24,3.78c1.22,4.63,2.37,8.02,8.42,8.48c4.33,0.33,6.28,6.13,4.75,10.48c-1.58,4.49-6.23,7.1-10.69,5.97
	c-5.46-1.38-5.95-0.82-6.45,4.81c-0.33,3.7,1.85,6.82,1.69,10.38c-2.49,8.5-6.01,11.59-12.66,11.56
	c-5.67-0.03-12.29-5.24-11.5-12.32c4.6-2.34,9.57-2.34,14.08-2.33C94.39,81.85,90.32,79.64,87.65,75.22z"/>
<path class="st1" d="M109,85.55c-3.77-5.64-3.98-11.48-1.18-17.6c0.72-1.57,1.27-1.94,2.62-0.75c3.53,3.14,7.23,3.33,10.76,0.15
	c2.83-2.55,3.59-5.77,1.76-9.24c-2.29-4.34-6.07-4.78-10.36-3.61c-0.27,0.07-0.58,0.01-1.29,0.01c0.86-3.64,0.05-7.01-1.72-10.16
	c-1.24-2.22-2.6-2.89-5.23-1.38c-5.76,3.29-11.97,4.93-18.63,2.74c4.69-11.28,13.99-16.13,25.73-13.41c1.65,0.38,3.3,0.78,4.95,1.17
	c8.38,1.92,14.85,13.29,12.27,21.57c-0.6,8.2-4.85,15.13-7.89,22.48c-0.58,1.42-1.21,2.81-1.82,4.22c-0.26,0.36-0.57,0.7-0.77,1.09
	C115.05,89.22,115.06,89.23,109,85.55z"/>
<path class="st3" d="M126.77,160.18c11.53-7.78,23.03-15.61,35.27-22.28c2.86,5.84,6.24,11.43,8.29,17.66
	c1.1,3.35,0.71,4.84-3.5,4.76C153.49,160.04,140.13,160.19,126.77,160.18z"/>
<path class="st4" d="M81.79,118.37c-10.86,12.02-24.28,19.82-39.83,24.1C45.6,125.55,63.39,109.77,81.79,118.37z"/>
<path class="st2" d="M27.03,12.13c0.05,1.25-0.71,1.96-1.67,2.56c-6,3.77-12,7.55-18,11.33c-1.94-3.15-4.01-6.23-5.8-9.47
	c-3-5.45-1.6-11.2,3.36-14.67c4.6-3.21,11.09-2.21,15.05,2.29C22.32,6.83,24.68,9.48,27.03,12.13z"/>
<path class="st5" d="M105.54,144.46c1.51,4.2,4.6,7.47,6.74,11.29c0.8,1.42,2.29,2.53,2.12,4.42c-10.12-0.03-20.23-0.06-30.35-0.09
	c6.23-5.89,13.32-10.66,20.24-15.66C104.72,144.02,105.14,144.03,105.54,144.46z"/>
<path class="st6" d="M128.69,55.04c-0.24-9.38-4.01-16.75-12.27-21.57c4.38-3.04,8.76-2.06,13.15-0.03
	c5.02,3.7,6.18,8.82,5.41,14.65C133.24,50.73,132,53.81,128.69,55.04z"/>
<path class="st7" d="M26.8,148.23c1.91,3.83,4.02,7.59,4.64,11.92c-4.64,0-9.28-0.07-13.91,0.03c-2.91,0.06-3.11-1.13-1.95-3.38
	C17.97,152.16,22.76,150.7,26.8,148.23z"/>
<path class="st8" d="M87.65,75.22c4.07,2.67,7.62,6.27,12.78,7.73c-5.2,0.61-10.39,1.22-15.59,1.83C84.77,81.3,87,78.49,87.65,75.22
	z"/>
<path class="st9" d="M105.54,144.46c-0.42-0.01-0.83-0.02-1.25-0.03c6.28-7,12.83-13.74,19.64-20.2c0.32,0.32,0.65,0.63,0.97,0.95
	C118.45,131.6,112,138.03,105.54,144.46z"/>
<path class="st10" d="M94.59,63.78c-0.64,2.07-1.87,3.18-3.55,3.75c-2.23,0.75-3.83-0.44-5.29-1.91c-1.21-1.22-1.7-2.93-0.88-4.23
	c1.13-1.77,2.89-0.25,4.13,0.22C90.85,62.32,93.31,61.88,94.59,63.78z"/>
<path class="st11" d="M91.88,59.45c-4.43-3.33-4.37-3.74,0.55-6.83C92.95,55.08,88.1,56.75,91.88,59.45z"/>
<path class="st12" d="M101.23,52.55c1.09,0.09,1.84,0.57,2.03,1.61c0.24,1.32-0.54,2.11-1.71,2.27c-1,0.14-1.76-0.5-1.95-1.55
	C99.36,53.55,100.15,52.92,101.23,52.55z"/>
<path class="st12" d="M87.42,48.73c1.09,0.09,1.84,0.57,2.03,1.61c0.24,1.32-0.54,2.11-1.71,2.27c-1,0.14-1.76-0.5-1.95-1.55
	C85.54,49.72,86.33,49.09,87.42,48.73z"/>
</svg>
