<?xml version="1.0" encoding="utf-8"?>
<!-- Generator: Adobe Illustrator 25.0.1, SVG Export Plug-In . SVG Version: 6.00 Build 0)  -->
<svg version="1.1" id="Layer_1" xmlns="http://www.w3.org/2000/svg" xmlns:xlink="http://www.w3.org/1999/xlink" x="0px" y="0px"
	 viewBox="0 0 207.8 160.18" style="enable-background:new 0 0 207.8 160.18;" xml:space="preserve">
<style type="text/css">
	.st0{fill:#F8D3FD;}
	.st1{fill:#F6CFE2;}
	.st2{fill:#E550DF;}
	.st3{fill:#F3C4A1;}
	.st4{fill:#E54FDF;}
	.st5{fill:#F5CAC3;}
	.st6{fill:#FCBF68;}
	.st7{fill:#2D2D2D;}
	.st8{fill:#DAB78C;}
	.st9{fill:#F8D3F5;}
	.st10{fill:#2E2E2E;}
	.st11{fill:#585755;}
	.st12{fill:#F0B868;}
	.st13{fill:#3C3834;}
	.st14{fill:#716D67;}
	.st15{fill:#505050;}
	.st16{fill:#FEFDFE;}
	.st17{fill:#FEFBFD;}
	.st18{fill:#5B4D38;}
	.st19{fill:#7B6442;}
	.st20{fill:#FBFBFA;}
	.st21{fill:#F4B965;}
	.st22{fill:#4C4334;}
</style>
<path class="st0" d="M38.76,135.59c-2.1-6.81-0.75-13.79-1.02-20.69c-0.08-1.9,1.17-3.19,2.99-3.63c1.25-0.3,2.49-0.39,2.58-2.05
	c1.29-0.71,2.71-0.57,4.09-0.55c1.86,0.02,3.72,0.08,5.58,0.03c25.27-0.65,50.5,1.45,75.76,0.99c2.54-0.05,5.44-0.43,6.83,2.7
	c0.34,2.12,0.82,4.28-1.68,5.54c-14.72-1.46-29.48-0.38-44.22-0.65c-2.73-0.05-3.77,1.3-3.95,3.98c-0.49,7.26,0.09,8.01,7.49,7.99
	c11.65-0.02,23.3,0.1,34.95-0.07c1.24-0.02,2.49-0.13,3.68,0.39c1.65,2.54,0.93,4.63-1.25,6.43c-2.19,1.04-4.55,0.86-6.87,0.86
	c-25.93,0.02-51.86,0.03-77.79-0.01C43.49,136.84,40.93,137.26,38.76,135.59z"/>
<path class="st1" d="M176.56,84.11c0.01,5.7,0.04,11.4-0.01,17.09c-0.01,1.48,0.47,3.12-0.87,4.36c-7.67-4.23-16.31-2.9-24.49-4.21
	c-1.36-0.22-2.79-0.04-4.18-0.19c-6.46-0.67-6.92-1.09-8.16-7.51c-0.15-0.8-0.54-1.43-1.21-1.89c-9.51-1.34-19.06-0.25-28.57-0.62
	c-2.41-0.1-4.98,0.46-7.05-1.39c4.51-9.66,7.87-19.96,15.38-27.96c0.71-0.76,1.35-1.72,2.6-1.71c3.54,2.03,7.25,3.75,10.94,5.5
	c3.32,1.96,6.46,0.93,9.8-0.19c3.81-1.28,7.35-4.13,11.8-2.66c0.18,1.45-0.83,2.25-1.74,3.08c-0.92,0.83-1.91,1.59-2.72,2.53
	c-2.03,2.36-4.67,5.01-3.57,8.1c1.14,3.2,4.97,2.42,7.79,2.64c6.32,0.51,12.65,0.82,18.92,1.84
	C173.39,81.29,175.48,81.86,176.56,84.11z"/>
<path class="st2" d="M102.02,89.75c10.85,0.03,21.69,0.05,32.54,0.12c1.65,0.01,3.44-0.51,4.9,0.8c0.37,0.72,0.31,1.46,0.06,2.2
	c-0.69,1.66,0.74,4.67-2.86,4.5c-5.7-1.21-11.47-0.55-17.2-0.62c-7.92-0.1-15.85-0.05-23.77-0.01c-2.41,0.01-4.32,0.49-4.26,3.56
	c0.05,2.88,1.71,3.73,4.22,3.75c11.19,0.09,22.38,0,33.56,0.05c2.31,0.01,4.68-0.26,6.88,0.8c1.88,2.92,1.72,5.51-1.21,7.67
	c-0.32-0.72-0.7-1.43-1.58-1.52c-0.92-0.09-1.86-0.08-2.79-0.09c-26.97-0.21-53.95-0.41-80.92-0.62c-2.16-0.02-4.36,0.23-6.28-1.14
	c-1.77-4.97-1.17-10.13-0.59-15.12c0.45-3.89,4.08-4.13,7.29-4.13c14.56-0.02,29.12,0,43.67-0.02
	C96.45,89.94,99.23,89.82,102.02,89.75z"/>
<path class="st3" d="M174.77,136.33c-0.35,6.64,0.61,13.32-0.85,19.93c-0.83,3.76-2.67,5.36-6.75,5.27
	c-12.42-0.27-24.85-0.15-37.27-0.19c0.85-6.59,4.55-11.66,8.82-16.41c0.73-0.81,1.35-0.92-0.31-1.45c-1.37-0.44-1.22-2.36-1.24-3.74
	c-0.08-7.29-0.18-14.58,0.08-21.86c0.05-1.35-1.02-4.53,2.69-3.37c0.14,0.28,0.29,0.56,0.35,0.86c1.43,7.92,1.44,7.84,9.48,8.37
	c5.7,0.38,11.4,0.8,17.06,1.59C175.85,126.59,176.1,126.99,174.77,136.33z"/>
<path class="st4" d="M38.76,135.59c16.11-0.07,32.21-0.16,48.32-0.2c14.56-0.04,29.12-0.01,43.68-0.01c1.73,2.14,1.1,3.77-1.08,5.08
	c-12.86,0.2-25.72,0.03-38.58,0.07c-3.12,0.01-5.54,0.4-5.32,4.48c0.2,3.57,2.5,3.79,5.13,3.8c10.23,0.04,20.47-0.02,30.7,0.04
	c2.3,0.01,4.69-0.27,6.73,1.26c1.18,2.19,1.19,4.15-1.14,5.63c-1.92,0.81-3.96,0.7-5.97,0.7c-24.86,0.02-49.72,0.03-74.58-0.01
	c-2.43,0-5.03,0.44-7.08-1.51C35.99,148.6,36.96,142.11,38.76,135.59z"/>
<path class="st5" d="M174.77,136.33c-0.02-0.93-0.2-1.89-0.05-2.79c0.84-4.99-1.72-6.33-6.22-6.66c-8.45-0.62-16.84-1.99-25.28-2.54
	c-3.53-0.23-4.12-1.67-3.92-4.6c0.14-2-0.09-4.03-0.15-6.04c-2.52-4.63-1.08-9.58-0.93-14.36c0.07-2.18,0.4-4.52,0.99-6.72
	c0.08-0.65,0.16-1.3,0.23-1.94c0.26,0.7,0.69,1.39,0.75,2.1c0.53,6.46,0.86,6.96,7.5,7.12c7.68,0.18,15.27,1.25,22.9,1.95
	c2.36,0.22,4.65,0.75,5.08,3.72c-0.02,8.64-0.02,17.27-0.09,25.91C175.57,133.11,176.11,134.89,174.77,136.33z"/>
<path class="st6" d="M152.35,62.69c-4.36,1.51-8.77,2.88-13.06,4.56c-3.29,1.29-6.28,1.35-9.14-0.88c-2.26-2.63-1.2-5.34,0.18-7.74
	c1.79-3.11,0.53-4.02-2.39-4.23c-3.55-0.07-7.11,0.42-10.53-1.18c-5.31-2.48-6.71-7.33-7.92-12.36c-0.11-1.34,0.65-2.16,1.7-2.81
	c2.55-0.67,5.03-0.97,7.69-0.13c3.13,0.99,6.43,0.09,7.33-3.03c1-3.45,3.52-5.18,5.63-7.48c0.53-2.66,1.72-4.8,4.81-4.64
	c3.23,0.16,3.61,2.89,4.25,5.28c0.54,2.02,0.01,3.95-0.32,5.94c-0.83,4.99,2.52,8.3,7.44,7.58c1.04,6.21,2.3,12.37,4.42,18.32
	C153.08,60.84,153.19,61.78,152.35,62.69z"/>
<path class="st7" d="M107.34,19.96c-1.47-6.47-0.11-13.06-0.77-19.56c-0.04-2.14,1.62-1.48,2.66-1.49
	c10.68-0.05,21.35,0.02,32.03-0.07c2.38-0.02,3.29,0.67,3.2,3.16c-0.17,4.94-0.22,9.9,0.01,14.84c0.14,3.2-1.45,4.56-4.21,4.98
	c-3.53,0.54-7.09,0.52-10.64,0.2c-0.57-0.07-1.13-0.18-1.69-0.32c-3.21-0.92-6.38-0.51-9.64-0.04
	C114.56,22.2,110.56,23.24,107.34,19.96z"/>
<path class="st8" d="M39.56,154.9c26.78,0.04,53.55,0.07,80.33,0.12c2.48,0,4.95,0.07,7.43,0.11c1.52,2.13,1.45,4.2-0.24,6.21
	c-1.2-0.86-2.22-1.76-3.98-1.74c-10.37,0.13-20.95-1.24-31.07,0.35c-18.6,2.92-37.16,0.53-55.71,1.4c-1.8,0.08-5.21,1.75-5.13-2.41
	c0.07-3.6,2.74-4,5.6-3.93C37.7,155.03,38.63,154.94,39.56,154.9z"/>
<path class="st9" d="M152.35,62.69c0.03-0.94,0.06-1.87,0.09-2.81c7.75,4.35,15.85,8.23,21.42,15.53c1.91,2.5,2.85,5.47,2.69,8.7
	c-3.73-2.08-7.83-2.5-12-2.83c-6.27-0.49-12.51-1.24-18.78-1.78c-3.22-0.28-3.64-1.84-2.93-4.73
	C144.22,69.24,148.53,66.19,152.35,62.69z"/>
<path class="st10" d="M127.07,161.34c0.08-2.07,0.16-4.14,0.24-6.21c0.97-1.49,0.8-3.17,0.82-4.82c-0.94-3.8-0.01-7.28,1.85-10.59
	c0.92-1.33,0.9-2.83,0.78-4.35c0.8-1.77,1.14-3.63,0.99-5.57c-0.62-4.23-0.17-8.27,2.08-12c1.11-1.59,0.66-3.48,1.03-5.22
	c0.42-2.29,0.83-4.58,1.25-6.87c-1.15-3.29-0.75-6.32,1.54-9.02c1.31-1.05,0.01-3.11,1.57-4.07c-0.02,7.03-0.04,14.05-0.06,21.08
	c-1.37,9.81-0.52,19.67-1.19,29.55c2.5,0.22,2.6-2.45,5.41-2.65c-5.96,6.51-9.96,13.48-13.47,20.75
	C128.96,161.34,128.01,161.34,127.07,161.34z"/>
<path class="st11" d="M128.03,20.84c3.72-0.05,7.43-0.04,11.15-0.18c3.19-0.12,5.09-1.29,4.78-5.1c-0.35-4.31-0.15-8.66-0.05-12.99
	c0.05-2.04-0.39-3.17-2.77-3.15c-10.84,0.08-21.68,0.03-32.53,0.09c-0.68,0-1.35,0.58-2.03,0.89c-3.59,0-7.18,0-11.71,0
	c1.78-2.17,3.09-1.75,4.2-1.76c17.55-0.03,35.1-0.05,52.65,0.03c1.22,0.01,3.36-1.15,3.49,1.59c-0.41,0.51-0.85,0.55-1.34,0.12
	c-9.09-0.28-8.8-0.27-9.16,8.64c-0.45,11.04,1.58,21.76,3.34,32.55c-0.19,1.63-0.8,2.52-2.73,2.13c-4.05-0.81-7.57-7-5.8-10.8
	c1.29-2.76,0.12-5.17-0.57-7.62c-0.42-1.48-1.93-2.04-3.45-1.56c-2.23,0.7-2.51,2.47-2.14,4.48c-1.24,0.37-2.27,1.79-3.79,0.73
	C128.63,26.31,126.9,23.84,128.03,20.84z"/>
<path class="st12" d="M128.03,20.84c0.58,2.75,2.35,5.23,1.82,8.23c-1.66,1.54-2.72,0.22-3.94-0.75c-4.48-3.58-6.74-3.34-10.55,1.04
	c-1.5,1.72-2.75,4.18-5.54,1.72c-0.82-0.98-2.12-1.62-2.23-3.11c0.07-2.13,0.14-4.25,0.22-6.38c3.86,2.77,7.57,2.29,11.42-0.22
	c2.74-1.78,5.84-1.35,8.85-0.52L128.03,20.84z"/>
<path class="st13" d="M127.95,54.4c0.87-0.27,1.73-0.68,2.61-0.78c0.98-0.11,2.33-0.76,2.86,0.44c0.27,0.61-0.36,1.71-0.76,2.5
	c-1.57,3.09-4,5.94-2.51,9.81c-2.88-1.32-5.76-2.64-8.63-3.97c-0.99-0.46-1.94-0.94-1.52-2.32c2-0.78,3.95-1.75,6.01-2.28
	C128.06,57.28,128.3,56.1,127.95,54.4z"/>
<path class="st14" d="M107.58,27.97c0.88,0.71,1.77,1.42,2.65,2.13c-0.16,1.77,0.94,3.65-0.45,5.31c-1.96,0.94-1.96-0.82-2.24-1.8
	c-0.62-2.12-1.61-3.55-3.95-2.31c-2.31,1.23-2.81,3.32-1.52,5.53c1.2,2.07,3.05,2.57,5.12,1.1c0.88-0.62,1.39-1.66,2.3-2.3
	c2.12,0,1.84,1.52,1.83,2.87c-0.61,0.78-1.21,1.55-1.82,2.33c-5.54,1.9-8.83,1.05-10.7-2.81c-1.25-2.58-1.05-5.1,0.6-7.42
	C101.44,27.75,104.33,27.23,107.58,27.97z"/>
<path class="st11" d="M128.07,20.85c-3.63-0.63-6.72-0.08-9.87,2.37c-4.48,3.48-7.15,2.76-10.4-1.63c-0.15-0.55-0.3-1.09-0.46-1.64
	c3.95,1.09,7.88,0.88,11.9,0.27C122.16,19.78,125.27,18.72,128.07,20.85z"/>
<path class="st15" d="M153.85,0.37c0.45-0.04,0.89-0.08,1.34-0.12c0.54,3.39,1.09,6.77,1.63,10.16
	C154.29,7.37,154.45,3.78,153.85,0.37z"/>
<path class="st16" d="M133.83,117.8c-0.22,4.08-0.91,8.08-2.08,12c-1.39,0.82-2.92,0.91-4.49,0.9c-12.89-0.02-25.78-0.09-38.67,0.04
	c-3.1,0.03-4.36-0.71-4.37-4.12c-0.05-10.84-0.19-10.84,10.64-10.84c11.49,0,22.99-0.02,34.48,0.02
	C131.04,115.82,133.24,115.07,133.83,117.8z"/>
<path class="st16" d="M137.65,96.69c-0.51,3.01-1.03,6.01-1.54,9.02c-14.12,0.01-28.23-0.16-42.34,0.13
	c-4.5,0.09-4.19-2.34-4.1-5.24c0.09-2.71-0.75-5.51,3.94-5.42c13.49,0.27,26.99,0.09,40.48,0.1
	C135.44,95.28,136.96,94.95,137.65,96.69z"/>
<path class="st17" d="M129.97,139.72c-0.06,3.63-0.72,7.15-1.85,10.59c-13.17-0.01-26.34-0.26-39.5,0.08
	c-5.08,0.13-4.34-2.73-4.45-5.84c-0.12-3.28-0.05-5.51,4.47-5.34C102.41,139.73,116.2,138.8,129.97,139.72z"/>
<path class="st18" d="M111.31,38.52c-0.61-0.93-1.21-1.87-1.82-2.8l-0.07-0.11c0.36-1.83-0.71-3.86,0.81-5.51
	c1.23,1.38,2.18,1.9,3.57-0.09c4.77-6.86,7.42-7.14,13.5-1.63c0.82,0.74,1.61,0.77,2.54,0.69c1.16-0.29,2.32-0.58,3.47-0.87
	c-2.49,2.33-5.57,3.94-6.3,7.98c-0.38,2.12-3,3.47-5.56,3.3C118.07,39.27,114.69,38.85,111.31,38.52z"/>
<path class="st19" d="M118.57,43.21c-2.88,4.37-4.02,4.4-6.78,0C114.44,44.71,116.54,44.97,118.57,43.21z"/>
<path class="st20" d="M109.49,35.73c0.22,3.64-2.13,4.64-5.03,4.3c-3.24-0.37-4.85-2.6-4.47-5.86c0.36-3.05,2.36-4.57,5.37-4.64
	c4.47-0.09,2.2,4.39,4.06,6.09C109.42,35.62,109.49,35.73,109.49,35.73z"/>
<path class="st21" d="M120.24,26.52c3.95,0,6.37,2.56,6.24,5.99c-0.13,3.6-2.39,5.26-5.64,5.52c-3.07,0.25-5.83-2.83-5.61-6.05
	C115.47,28.53,117.47,26.75,120.24,26.52z"/>
<path class="st22" d="M120.82,30.23c1.34,0.11,2.01,0.9,2,2.1c-0.01,1.35-0.99,1.8-2.18,1.74c-1.06-0.05-1.69-0.74-1.72-1.76
	C118.88,31.07,119.65,30.4,120.82,30.23z"/>
<path class="st22" d="M105.35,33.46c1.34,0.11,2.01,0.9,2,2.1c-0.01,1.35-0.99,1.8-2.18,1.74c-1.06-0.05-1.69-0.74-1.72-1.76
	C103.41,34.29,104.17,33.63,105.35,33.46z"/>
</svg>
