<?xml version="1.0" encoding="utf-8"?>
<!-- Generator: Adobe Illustrator 25.0.1, SVG Export Plug-In . SVG Version: 6.00 Build 0)  -->
<svg version="1.1" id="Layer_1" xmlns="http://www.w3.org/2000/svg" xmlns:xlink="http://www.w3.org/1999/xlink" x="0px" y="0px"
	 viewBox="0 0 679 722.6" style="enable-background:new 0 0 679 722.6;" xml:space="preserve">
<style type="text/css">
	.st0{fill:#E3A0C1;}
	.st1{fill:#FEFEFE;}
	.st2{fill:#4C7CDF;}
	.st3{fill:#F8D4FE;}
	.st4{fill:#C9CCF4;}
	.st5{fill:#4C7DDF;}
	.st6{fill:#539FED;}
	.st7{fill:#FCBF68;}
	.st8{fill:#90AEEB;}
	.st9{fill:#E3A1C1;}
	.st10{fill:#F8D5FE;}
	.st11{fill:#36332E;}
	.st12{fill:#2D2C2B;}
	.st13{fill:#5C4E3A;}
	.st14{fill:#DEA9C2;}
	.st15{fill:#D9B2C4;}
	.st16{fill:#DCAEC3;}
	.st17{fill:#DCADC3;}
	.st18{fill:#B3B7F0;}
	.st19{fill:#BEE6D0;}
	.st20{fill:#BEE5D0;}
	.st21{fill:#C8D3CC;}
	.st22{fill:#CFC5C8;}
	.st23{fill:#CCCCCA;}
	.st24{fill:#CBCDCA;}
	.st25{fill:#D2C0C8;}
	.st26{fill:#CEC7C9;}
	.st27{fill:#C4DBCD;}
	.st28{fill:#C9D1CB;}
	.st29{fill:#D4BBC6;}
	.st30{fill:#C1E0CF;}
	.st31{fill:#D2BFC7;}
	.st32{fill:#C6D6CC;}
	.st33{fill:#D7B6C5;}
	.st34{fill:#C0E1CF;}
	.st35{fill:#C2E0CF;}
	.st36{fill:#C9CDDF;}
	.st37{fill:#CBCFDC;}
	.st38{fill:#D1D3D3;}
	.st39{fill:#CDD0D9;}
	.st40{fill:#D4BBC7;}
	.st41{fill:#5CB4F3;}
	.st42{fill:#4C80E0;}
	.st43{fill:#4C83E2;}
	.st44{fill:#2D2D2D;}
	.st45{fill:#CED1D8;}
	.st46{fill:#D1D3D2;}
	.st47{fill:#3A352F;}
	.st48{fill:#514635;}
	.st49{fill:#4C4334;}
	.st50{fill:#8F78AF;}
	.st51{fill:#4AA3D0;}
	.st52{fill:#837FB4;}
	.st53{fill:#E59BBF;}
	.st54{fill:#6F8CBE;}
	.st55{fill:#8B7AB0;}
	.st56{fill:#5C97C7;}
	.st57{fill:#7488BB;}
	.st58{fill:#E3A0C0;}
	.st59{fill:#579ACA;}
	.st60{fill:#E1A4C1;}
	.st61{fill:#887CB2;}
	.st62{fill:#6592C2;}
	.st63{fill:#7886B9;}
	.st64{fill:#94A5B4;}
	.st65{fill:#A7A5AE;}
	.st66{fill:#6A8FC0;}
	.st67{fill:#7D83B7;}
	.st68{fill:#4F9FCE;}
	.st69{fill:#529DCC;}
	.st70{fill:#94B5FB;}
	.st71{fill:#8BB2FB;}
	.st72{fill:#A7BBFB;}
	.st73{fill:#B4A3B1;}
	.st74{fill:#82B0FB;}
	.st75{fill:#7BAEFA;}
	.st76{fill:#82B0F7;}
	.st77{fill:#8BB4F2;}
	.st78{fill:#9DB8FB;}
	.st79{fill:#7D83B8;}
	.st80{fill:#86A5B9;}
	.st81{fill:#58A6CB;}
	.st82{fill:#B1BEFB;}
	.st83{fill:#D09EB9;}
	.st84{fill:#C79FB6;}
	.st85{fill:#BDA2B3;}
	.st86{fill:#D89CBB;}
	.st87{fill:#6194C4;}
	.st88{fill:#6195C5;}
	.st89{fill:#92B6EF;}
	.st90{fill:#75A6C0;}
	.st91{fill:#66A5C6;}
	.st92{fill:#9AB9EB;}
	.st93{fill:#60A5C8;}
	.st94{fill:#A2BBE7;}
	.st95{fill:#B8C1F8;}
	.st96{fill:#BCC4F2;}
	.st97{fill:#BEC5F1;}
	.st98{fill:#BBC3F6;}
	.st99{fill:#C6CBE3;}
	.st100{fill:#B8C1F9;}
	.st101{fill:#C1C8EB;}
	.st102{fill:#C2C8E9;}
	.st103{fill:#C6CBE5;}
	.st104{fill:#424652;}
	.st105{fill:#D7B7C6;}
	.st106{fill:#FEDFC1;}
	.st107{fill:#E2A2C1;}
	.st108{fill:#BBC3F4;}
	.st109{fill:#BFC6ED;}
	.st110{fill:#7DAEFA;}
	.st111{fill:#A3BAFB;}
	.st112{fill:#EED9C8;}
	.st113{fill:#D5D0D3;}
	.st114{fill:#C3A0B5;}
	.st115{fill:#C5CADA;}
	.st116{fill:#ADBDFB;}
	.st117{fill:#91B4FB;}
	.st118{fill:#87B1FB;}
	.st119{fill:#F6DCC4;}
	.st120{fill:#E6D6CB;}
	.st121{fill:#8DB4F2;}
	.st122{fill:#9CBAEC;}
	.st123{fill:#A5BEE7;}
	.st124{fill:#B5C4E0;}
	.st125{fill:#84B1F5;}
	.st126{fill:#67A5C5;}
	.st127{fill:#ADC0E4;}
	.st128{fill:#83A5BA;}
	.st129{fill:#A6A5AD;}
	.st130{fill:#BBA1B3;}
	.st131{fill:#8AA5B8;}
	.st132{fill:#559DCA;}
	.st133{fill:#35444E;}
	.st134{fill:#DAB1C4;}
	.st135{fill:#53A0ED;}
	.st136{fill:#9475AC;}
	.st137{fill:#867DB3;}
	.st138{fill:#373941;}
	.st139{fill:#313236;}
	.st140{fill:#343941;}
	.st141{fill:#344752;}
	.st142{fill:#31444E;}
	.st143{fill:#2D3437;}
	.st144{fill:#8181B6;}
	.st145{fill:#9CB7F9;}
	.st146{fill:#445065;}
	.st147{fill:#3E414C;}
	.st148{fill:#313338;}
	.st149{fill:#7CA5BD;}
	.st150{fill:#6EA6C3;}
	.st151{fill:#CE9EB8;}
	.st152{fill:#ACA5AF;}
	.st153{fill:#9FA5AF;}
	.st154{fill:#75A5C0;}
	.st155{fill:#6EA5C2;}
	.st156{fill:#B0BDFA;}
	.st157{fill:#A7BAFA;}
	.st158{fill:#323336;}
	.st159{fill:#698FC1;}
	.st160{fill:#7389BC;}
	.st161{fill:#6D8DBF;}
	.st162{fill:#708BBD;}
	.st163{fill:#6691C2;}
	.st164{fill:#5E96C6;}
	.st165{fill:#5999C8;}
	.st166{fill:#6194C5;}
	.st167{fill:#9FB9FB;}
	.st168{fill:#A8BBFB;}
	.st169{fill:#DFA7C2;}
	.st170{fill:#99B7FB;}
	.st171{fill:#96B6FB;}
	.st172{fill:#84B0FB;}
	.st173{fill:#8FB3FA;}
	.st174{fill:#89B2FB;}
	.st175{fill:#7786BA;}
	.st176{fill:#7687BA;}
	.st177{fill:#7B84B8;}
	.st178{fill:#DED3CF;}
	.st179{fill:#CDCCD6;}
	.st180{fill:#BDC6DD;}
	.st181{fill:#87B2F4;}
	.st182{fill:#94B7EF;}
	.st183{fill:#49A4D0;}
	.st184{fill:#91A5B5;}
	.st185{fill:#98A5B2;}
	.st186{fill:#4EA0CE;}
	.st187{fill:#559BCA;}
	.st188{fill:#529ECC;}
	.st189{fill:#7CAEFA;}
</style>
<path class="st0" d="M534.6,142c-12.5-12.7-27.1-16.5-44.1-10.8c-21.4,7.1-41.2,3.8-58.1-11.1c-11.8-10.3-17.9-23.8-19.1-39.8
	c-2-29,19.8-55.7,49.9-59.9c8.5-1.2,17-0.4,25.1,2.6c16.2,5.9,30,2.5,43.8-7.7c41.8-31.1,101.4-12.5,118.6,36
	c11.4,32.2,1,68.2-28.8,89.6c-0.5,0.4-1,0.8-1.5,1.3c-0.8,1.9-2.5,2.7-4,3.8c-3.5,2-7.3,3.4-11,5c-1.2,0.4-2.4,0.9-3.6,1.3
	c-21.4,6.6-42,4.5-61.9-5.9C538.1,144.9,535.8,144.1,534.6,142z"/>
<path class="st1" d="M645.4,77.4c-0.1,33.2-23.2,60.8-56,66.7c-20.3,3.6-38.5-1.9-54.7-14.4c-14.8-11.5-31.1-13.3-48.5-7.3
	c-15.1,5.2-29.2,3.2-42.4-5.3c-16.3-10.5-24.4-31.5-20.1-50.6c4.4-19,21-33.9,40.4-36.5c7.1-0.9,14-0.6,20.6,1.8
	c19.5,7.2,36.7,3.9,53.2-8.8c19.5-15,41.6-17.3,64.5-8.7C628.7,24.3,645.4,49.2,645.4,77.4z"/>
<path class="st2" d="M72.5,250.1c-7.2-9.4-12-19.8-13-31.8c-1.3-15.2,3.3-28.4,13-40c1.1-1,2.1-2,3.2-3c0.7-2.9,3.3-4.1,5.5-5.5
	c13.8-9,29-12.1,45.2-10.7c9.6,0.8,18.9,3.5,27.9,7.1c1.8,0.7,3.8,1.2,4.9,3.2c1.3,1,2.7,1.6,4.4,1.8c4.6-0.2,8.5,2.5,12.8,3.6
	c4.5,1.1,8.8,1.4,13.2,0.1c6.9-2,13.5-4.6,20-7.6c8.8-4.1,18-7,27.6-8.1c3.3-0.4,7-1.4,10,1.2c2.1,0.6,4.2,1.1,6.3,1.7
	c2.6-0.8,4.9,0.5,7.2,1.4c3.2,1.3,6.5,2.6,9.7,4c11,4.7,22.1,5.5,33.5,1.7c7.4-2.5,15-4.3,22.8-5c3.2-0.3,6.6-1.3,9.5,1.2
	c1.7,1,3.5,0.8,5.3,0.7c4.3-1.3,7.8,1,11.1,3c3.6,2.1,7.4,3.7,11.4,4.8c6.2,1.7,11.6,4.8,16,9.6c6.2,6.8,8.2,14.6,6,23.5
	c-2.4,2-4,0-5.6-1.2c-5.5-4-9.8-9.4-15.3-14.5c-0.7,9.6-5,17.1-10.4,24c-10.3,13.2-24,21.2-39.7,26.4c-10.1,3.1-20.1,3.5-30.4,0
	c-12.4-4.3-24.9-3-37.3,0.3c-9,2.5-17.8,5.6-26.7,8.4c-11.5,4-23.4,4.8-35.4,4.2c-7.4-0.4-14.1,1.5-20.4,5.2
	c-1.4,0.8-2.8,1.7-4.2,2.6c-17.1,8.9-35.2,11.2-54.1,8.1c-11.9-2-22.3-7.2-30.9-15.8C74.1,253.3,73.5,251.6,72.5,250.1z"/>
<path class="st3" d="M452.3,306.1c-0.1,1.8,0.5,3.3,2,4.3c10.4,6.9,19,16.3,30.1,22.4c9.8,5.4,20,9.3,30.9,11.2c0.7,0,1.3,0,2,0
	c6.7,1.3,13.4,2.4,20.1,1.7c22.3-2.3,43.9,0.1,64.8,8.2c1,0.3,2,0.7,3,1c14,5.6,26.8,13,37.8,23.4c9.8,9.2,19.1,18.9,25.2,31.2
	c6.3,12.5,10.7,25.5,12.1,39.6c1.4,13.6,0.4,26.8-3.3,39.8c-4.4,15.7-12.7,29.4-23.2,41.8c-10.1,11.9-22.5,20.9-35.9,28.7
	c-4.2,2.4-9.1,3.2-12.8,6.4c-1,0.9-2.1,1.7-3.4,2.2c-17.3,6.6-35.3,9.3-53.8,9.4c-0.8-0.1-1.5-0.5-2.1-1.1c-0.9-1.3-1-2.9-1.5-4.3
	c-0.4-1.2-0.8-2.4-1-3.6c-0.1-1.1,0-2.1,0.9-2.8c15.3-0.6,30.6-1.5,45.3-6.2c34.9-11.3,61.3-32.3,75-67.2c9.1-23.1,8-46.5-1.9-69
	c-14.6-33.4-41.3-53-75.7-62.8c-15-4.2-30.3-5.2-45.9-4.2c-29.5,1.9-55.8-7-78.9-25.4c-3.1-4.9-4.5-10.9-9.7-14.5
	c-1.3-0.9-2.7-1.9-3.1-3.6C449.7,310.2,448.9,307.3,452.3,306.1z"/>
<path class="st4" d="M452.3,306.1c-1.3,2.2-1.7,4.5-2,7c-1.4,1.2-2.8,0.2-4.2-0.1c-9.6-2.5-17.7,0-24.3,7.5
	c-1.3,1.4-2.4,3.4-4.9,2.5c-2.1-2.2-2-4.8-1.3-7.5c1.2-4.2,2.2-8.4,3.6-12.5c1.6-3.6,1.1-7.9,4-11.1c1.9-4.8,3.5-9.7,4.1-14.9
	c1.1-1.1-0.1-2.9,1-4c1.3-1.4,1.6-3.3,1.9-5.1c1-3.3,1.9-6.7,2.9-10c1.2-4,4.2-5.6,8-4.8c5.8,1.3,11.5,3.1,17.1,4.9
	c4,1.2,5.1,4.2,4.3,8.2c-2.3,11.9-6.5,23.2-9.3,34.9C453.1,302.9,452.7,304.5,452.3,306.1z"/>
<path class="st3" d="M161.4,607c-31.5-4.4-60.6-15-87-33c-0.9,0.1-1.5-0.4-2-1c-7.3-6.7-15.4-12.5-22.3-19.7
	c-21-21.5-35.2-46.7-39.3-76.5c-3.8-27.7-1.9-55,11.5-80.4C33,376.1,47.9,359.8,67,347.3c1.9-1.3,4.2-2.1,5.4-4.2
	c0.8-0.7,1.4-1.7,2.3-2.2c16.4-9.6,34.2-15.1,52.9-18.1c7.9-1.3,15.9-0.8,23.8-2c3.3-0.5,6.6-0.1,9.9,0.8c0.8,0.1,1.6,0.1,2.4,0.1
	c8,0.3,15.8,2,23.8,2.1c20.8,0.3,39.8-5.4,56.9-17.1c1.1-0.8,2.2-1.5,3.3-2.2c1.7-1,3.4-2.1,5-3.2c3.2-1.5,5.8-4.2,9.6-4.4
	c0.5,0.6,0.6,1.2,0.5,2c-0.8,1.9-2.1,3.6-3,5.5c-1.7,2.2-2.9,4.7-4,7.3c-1,1.8-1.8,3.7-3.8,4.6c-12.4,8.1-25.6,14.1-40.1,17.3
	c-15.7,3.4-31.4,2.4-47.2,0.7c-25.1-2.7-49.1,1.4-72.2,11.3c-25.7,11.1-45.4,28.9-59.2,53.1c-8.1,14.2-12.8,29.6-12.7,46.2
	c0.1,14.6-0.7,29.3,3.4,43.7c7.2,25.3,20.9,46.4,40.3,63.7c28.6,25.5,62.5,39.6,100.4,44.1c22.7,2.7,45.2,0.7,67.3-4.9
	c12.3-3.1,24.1-7.8,36.6-9.9c22-3.7,43.5-1.6,64.7,4.3c11.4,3.2,22.9,5.8,34.8,6.8c1.2,0.1,2.3,0.3,3.3,1c1.8,2.5,2.2,5.3,1.9,8.3
	c-0.1,0.9-0.5,1.7-1.1,2.3c-3.9,2.1-7.8,0.2-11.7-0.1c-6.3-0.4-12.5-1.6-18.6-3.4c-0.8-0.4-1.3-1.2-1.7-1.9c-0.3,0-0.7,0-1,0
	c-0.5,0.4-1,0.6-1.6,0.6c-9.9-1.8-19.5-5.3-29.6-6.4c-16.6-1.8-33.1-1.2-49.3,3.3c-1.9,0.5-3.8,1.2-5.8,1.2
	c-0.6-0.1-1.1-0.3-1.6-0.7c-0.7,0.3-1.3,0.6-2,1c-12.4,4.2-25.2,7-38.1,8.7c-6.9,0.9-13.9,0.3-20.9,0.3c-9,0-18,0-26.9,0
	C162.8,607,162.1,607,161.4,607z"/>
<path class="st5" d="M603.3,691.1c-26.9-6.2-53.8-12.5-80.7-18.7c-1.4-0.3-2.8-1-4.2-1.5c-1.2-0.4-2.7-0.5-2.9-2.3
	c-4-5.1-6.1-11.3-9.4-16.8c1.7-3.6,4.8-2.2,7.4-1.8c17.1,2.6,34.1,5.2,51.2,7.8c2.1,0.3,4.3,0.6,6.4,0.8c2.3,0.3,4.4,1.5,6.2,2.8
	c7.8,5.8,16.1,10.9,24.1,16.4c1.6,1,2.9,2.3,3.9,3.9c3.4,3,3.3,6-0.1,9c-0.2,0.6-0.5,0.7-0.9,0.3C604,691.1,603.7,691.1,603.3,691.1
	z"/>
<path class="st6" d="M537,45.2c15.6,0,31.3,0.1,46.9-0.1c2.9,0,4.5,0.4,4.9,3.8c2.3,17.8,5.1,35.5,7.4,53.3c0.9,7,0.6,7-6.6,7
	c-30.1,0-60.2-0.1-90.3,0.1c-3.8,0-5.2-1.2-5.7-4.8c-2.5-18.8-5.2-37.5-7.9-56.2c-0.6-3.8,1.8-3.1,3.9-3.1
	C505.4,45.2,521.2,45.2,537,45.2z"/>
<path class="st7" d="M382.4,224.5c-1,5.2-1.8,10.4-3,15.5c-3,13.4-12.6,20.2-26.1,18.3c-3.4-0.5-2.8,1.8-3.6,3.3
	c-2-3.7-5.6-4.8-9.5-5.4c2.3,5,7,8.4,8.3,13.8c0,2,0.1,3.9,0.1,5.9c0.3,0.5,0.4,1,0.4,1.6c-0.5,6.6,0.5,13.3-2.7,19.5
	c-2.8,3.8-6.7,4.5-11,4.1c-0.5-0.1-1-0.2-1.5-0.3c-4.9-2.3-8.9-6-13.7-8.3c-4.5-3.8-10.3-6.1-12.4-12.3c-0.5-1.4-2.8-1-3.3-2.7
	c5.4-3,5-8.6,6.1-13.5c0.5-2.1,0.7-4.2,1-6.3c0.8-4.2,1.4-8.5,2.2-12.7c0.3-1.8,0.5-3.6,2.1-4.9c12.4-4.3,23.7-10.7,32.9-20.1
	c8.5-8.7,15.4-18.4,15.3-32.1c7.5,6.8,12.9,14.8,21.4,19.1c0.1,3.8-0.5,7.5-1.8,11.1c-0.8,0.7-1,1.8-1.4,2.7
	C381.5,222.2,381.5,223.4,382.4,224.5z"/>
<path class="st8" d="M315.6,240.2c-1.1,6-2.1,12-3.2,18c-1,1.7-2.7,2.3-4.4,3c-18.5,7.1-36.9,6.7-55.2-0.9c-1.3-0.5-2.4-1.3-3.3-2.4
	c-9.3-4.3-18.4-9.1-29.1-9c14.6-4.9,29-10.3,44.5-11.7c6-0.5,12.2,0.2,17.6,2.3C293.6,243.7,304.5,243.2,315.6,240.2z"/>
<path class="st0" d="M510.5,167.5c0,11.6-8.2,19.7-19.8,19.6c-11.1,0-19.2-8.7-19.4-20.2c-0.2-12,9.9-19.6,19.7-19.5
	C501.2,147.5,510.9,155,510.5,167.5z"/>
<path class="st9" d="M443.1,196.1c-7,0-11.6-4.4-11.7-11.2c-0.1-6.1,5.5-11.7,11.7-11.8c6.2-0.1,12.3,5.9,12.1,12.1
	C455.1,191.8,450.2,196.1,443.1,196.1z"/>
<path class="st10" d="M348.3,277.1c0.1-0.4,0.1-0.7,0.2-1.1c25.9,0.6,51.1,5.1,74.8,16c-0.5,3.8-1.3,7.5-2.9,11.1
	c-21.3-10.3-43.8-15.2-67.3-15.8C347.7,285.4,347.3,284.6,348.3,277.1z"/>
<path class="st11" d="M348.5,270.2c-0.8-1-1.7-2-2.5-3c-2.8-4.1-5.5-8.2-8.4-12.5c9.8,1.2,11.7,2.3,12.1,7.1
	C349.3,264.5,349.6,267.4,348.5,270.2z"/>
<path class="st12" d="M382.4,224.5c-2.5-1-2.4-2.7-1.2-4.6c2.7,0.3,1.6,2,1.3,3.4C382.5,223.7,382.4,224.1,382.4,224.5z"/>
<path class="st13" d="M382.5,223.3c-0.3-1.2,0.1-2.6-1.3-3.4c0.4-1,1.3-1.4,2.2-1.7C383.7,220,383.7,221.8,382.5,223.3z"/>
<path class="st1" d="M462.4,330c8.6,4.9,16.3,11.3,25.5,15.4c18.8,8.2,38.2,10.7,58.8,9.1c12.6-1,25.5,0.6,37.9,3.8
	c24,6.1,44.8,17.7,61.4,36.1c14.9,16.6,23.8,36.1,25.4,58.7c2.5,35.3-12.2,62.6-38.4,84.8c-19.2,16.3-41.9,24.9-66.5,27.8
	c-7.2,0.8-14.8,3-22.2,0.4c-2.5-0.1-2-2.5-3-3.7c-1.3-2.2-1-4.8-1.8-7.1c-0.7-2.3-1.2-4.7-1.9-7c-0.6-2-1.2-4-1.9-6
	c-0.4-1.3-0.6-2.7-1-4c-0.3-1.1-0.7-2.1-1-3.2c-0.4-1.3-0.6-2.6-1-3.9c-0.3-1.1-0.7-2.1-1-3.2c-0.4-1.3-0.6-2.6-1-3.9
	c-0.3-1.1-0.7-2.1-1.2-3.2c-1.1-2.1-1.2-4.4-1.8-6.6c-0.3-1.3-0.5-2.6-0.9-3.9c-0.3-1-0.6-2.1-1.2-3c-0.4-0.8-0.9-1.6-1.1-2.4
	c-0.1-0.4-0.2-0.9-0.2-1.3c-0.1-1.4-0.3-2.7-0.8-4c-0.5-2.5-1.4-5-2.1-7.5c-0.4-2.4-1.3-4.6-2-6.8c-0.4-1.4-0.9-2.7-1.2-4.1
	c-0.4-2.1-1.3-4.1-1.8-6.1c-0.6-2.5-1.2-5-1.9-7.5c-0.3-1.4-1.2-2.5-1.7-3.8c-0.3-0.9-0.5-1.8-0.6-2.8c-0.1-2.1-1.5-3.9-1.9-5.9
	c-0.3-2.1-0.9-4-1.6-5.9c-0.5-1.7-1.1-3.4-2-4.9c-1.5-2.7-3.1-5.3-5-7.7c-0.8-2-2.4-3.5-3.7-5.1c-0.9-1.4-1.8-2.8-3.3-3.6
	c-1.5-1-2.7-2.2-4-3.4c-2.7-2.7-5.7-5-9-6.9c-4.4-2.4-8.9-4.6-13.9-5.8c-5.9-1.9-12-2.8-18-4.3c-7.4-1.9-15-2.7-22.1-5.7
	c-1.6-2.1,0.1-3.7,0.7-5.5c0.9-1.8,2.1-3.4,3.1-5.2c0.4-0.8,0.8-1.5,1.2-2.3c0.9-1.7,2-3.2,2.9-4.8c0.6-1.1,1.2-2.2,1.9-3.2
	c0.4-0.7,0.9-1.4,1.2-2.1c0.9-1.7,1.7-3.4,2.8-4.9c0.9-1.2,1.5-2.5,2.1-3.9c0.6-1.1,1.3-2.2,2-3.3c1.2-1.8,2-3.8,3.1-5.7
	c1.2-1.6,2.1-3.4,3.1-5.1c0.4-0.6,0.7-1.2,1.1-1.8c4-7,8.4-13.8,8.5-22.2C461.4,331,461.9,330.4,462.4,330z"/>
<path class="st7" d="M462.4,330c0.9,9.9-4,17.7-9.3,25.4c-3,0.6-4.8-1.6-7.1-2.7c-5-3.5-10.1-6.8-15.2-10c-3.9-2.9-8-5.7-12.3-8
	c-2.4-1.3-5-2.5-5.8-5.6c0.2-3.2,1.9-5.1,4.9-6c3.2-2.3,5.1-5.9,8.4-8.2c7.9-5.3,16-5.1,24.4-1.8C456.6,317.1,460.7,322.7,462.4,330
	z"/>
<path class="st14" d="M542.4,561.9c0.6,1.4,1.3,2.8,1.9,4.1c0,1,0,1.9,0.1,2.9c-0.6,3.1-3.2,2.5-5.2,2.5c-21,0-42,0.2-63-0.1
	c-1-0.1-1.9-0.3-2.7-0.8c-1.7-2.7-4.6-5.3-1.6-8.8c11,1.4,22.1,0.6,33.2,0.7C517.6,562.4,530,563,542.4,561.9z"/>
<path class="st15" d="M547.4,577c0,1,0,2,0,3c1,2.4-0.8,2.8-2.4,3.3c-1.6,0.4-3.3,0.3-4.9,0.3c-19,0.1-38.1-0.2-57.1,0.1
	c-1.5,0-3-0.1-4.4-0.8c-0.1-0.6-0.2-1.3-0.3-1.9c-2.2-1.9-4.3-3.8-1-6.5c20.7,0,41.3,0,62,0c2.5,0,5-0.4,7.2,1.5
	C546.7,576.3,547.1,576.7,547.4,577z"/>
<path class="st16" d="M546.4,576c-21.4,0-42.8,0-64.3,0c-2,0-4,0.1-5.8-1c-1.9,0.3-2.1-1.4-2.8-2.5c-0.3-0.9-0.8-1.7,0.1-2.6
	c0.6,0,1.2,0,1.8,0c1.8,2,4.3,1.5,6.6,1.5c19.2,0,38.3,0,57.5,0c2,0,4-0.2,6,0.4C546.7,573.1,546.3,574.6,546.4,576z"/>
<path class="st17" d="M545.4,572c-1.5,1.7-3.4,1-5.1,1c-20.5,0.1-41.1,0-61.6,0.2c-2.8,0-2.8-1.5-3.2-3.2c21.1,0,42.2,0,63.4,0
	c1.9,0,4,0.8,5.7-1C545.5,569.7,545.4,570.9,545.4,572z"/>
<path class="st1" d="M417.6,323.1c-1.2,2.3-3.7,3.5-4.5,6c-2.5,5.7-7.7,9.3-11.1,14.4c-2.8,2.3-4.3,5.8-7.3,7.9
	c-0.4,0.2-0.9,0.3-1.3,0.4c-0.5,0-0.9-0.1-1.3-0.4c-1.7-1.3-2.6-3.2-3.7-4.9c-1-2-2.5-3.8-3.2-5.9c-0.8-2.6-2.5-4.7-3.7-7.2
	c-0.7-2.1-1.7-4.1-2.8-6.1c-0.8-2.1-2.5-3.6-3.4-5.6c-0.7-1.8-1.5-3.6-2.6-5.2c-0.6-0.9-1.1-1.9-1.5-2.9c-0.8-1.8-2.1-3.4-2.7-5.3
	c-0.7-2.1-1.7-4.1-2.7-6c-1.1-2.4-2.5-4.6-4.1-6.7c-2.3-3.5-6.7-5.2-8.2-9.5c22.5,0,43.8,5.3,64.4,13.9c1.6,0.7,2.6,1.4,2.7,3.1
	c-1,3.6-1.7,7.4-3,10.9C416.4,317.1,416.1,320,417.6,323.1z"/>
<path class="st18" d="M453.3,278c0,4.7-3.4,9.2-6.6,9c-4-0.3-5.1-3.3-5.3-6.6c-0.2-4,3.7-8.6,6.9-8.3
	C452.1,272.5,452.8,275.6,453.3,278z"/>
<path class="st5" d="M430.4,710c-1.1-1.1-2.5-1.7-4-1.9c-4,0.6-6.8-2.2-10.1-3.6c-12.3-5.4-24.5-10.9-36.5-16.9
	c-7.4-3.7-9.3-8.7-5.8-16.3c1.6-3.3,1.7-7.5,5.3-9.8c2.6-0.2,4.9,0.9,7.2,1.8c14.5,5.7,29.2,11.1,43.8,16.5c2.1,0.8,4.5,1.3,5.9,3.4
	c8.8,10.1,17.7,20.3,26.6,30.3c1.8,2.1,3.7,4.2,1.7,7c-2,2.8-5.1,2.3-7.7,1.2C447.9,717.9,439.2,713.9,430.4,710z"/>
<path class="st19" d="M436.2,683.2c-16.1-6-32.2-12-48.4-18c-2.8-1-5.6-2.1-8.4-3.1c-2-3-3.5-5.9-0.7-9.2c3.1,2.2,6.5,2.7,10.3,2.7
	c13.7-0.1,27.5-0.1,41.3,0c2.5,0,5-0.2,7.1,1.6C437.9,665.8,436.2,674.4,436.2,683.2z"/>
<path class="st20" d="M566.4,642c2,6,4,12.1,6,18.1c-11.1-0.6-21.9-3-32.8-4.6c-9.5-1.3-18.9-3-28.3-4.4c-1.7-0.2-3.7-0.9-5.1,0.8
	c-0.9-2.3-1.8-4.6-2.7-6.9c2.2-2.1,5-1.5,7.6-1.6c15.4-0.1,30.8-0.1,46.2,0C560.3,643.4,563.4,643.2,566.4,642z"/>
<path class="st21" d="M559.3,619c1.3,3.2,2.7,6.5,3,10c-1.9,1.9-4.3,1.6-6.6,1.6c-17.3,0.1-34.6,0-51.8,0c-2.3,0-4.7,0.1-6.6-1.6
	c-2.2-4.1-4.1-8.4-5.1-13c6,3.2,12.5,2.4,18.9,2.4c14.8,0,29.6,0.2,44.4-0.2C556.8,618.2,558.2,618.2,559.3,619z"/>
<path class="st22" d="M372.4,604c0-0.7,0.1-1.3,0.1-2c0.6-0.2,1.2-0.1,1.6,0.4c0.4,0.5,0.7,1,1,1.5c1.2,3.8,4.3,3.6,7.3,3.6
	c16.7,0,33.5,0,50.2,0c2.6,0,5.4-0.4,7.6,1.5c0,1.7-0.1,3.4-0.1,5c0,4.3-2.4,5.6-6.3,5.6c-17.8,0-35.6,0-53.3,0
	c-3.2,0-5.9-0.8-7.1-4.2C372,611.7,371.3,607.9,372.4,604z"/>
<path class="st23" d="M374.4,614c1,3.2,3.1,4.1,6.5,4.1c17.6-0.2,35.2-0.2,52.9,0c3.4,0,5.6-0.7,6.5-4.1c0.6,4.7-0.8,9.3-1,14
	c-1.1,0.9-2.3,1.3-3.7,1.2c-17.8-1.3-35.5-0.3-53.3-0.5c-4.2-0.1-7.1-1.3-8.2-5.6C373,620,372.1,617,374.4,614z"/>
<path class="st24" d="M559.3,619c-2.7,0.9-5.5,1-8.3,1c-16.7-0.1-33.5-0.2-50.2,0.1c-3.9,0.1-6.7-0.8-8.6-4.1
	c-1.2-1.1-1.8-2.4-1.8-4c1.6-2.1,4-2.4,6.3-2.5c19.3-0.3,38.5-0.2,57.8-0.1c0.7,0,1.3,0.3,1.9,0.4
	C558.7,612.5,557.8,616.2,559.3,619z"/>
<path class="st25" d="M551.4,592.9c1.5,2.1,2,4.5,2,7c1.1,2.5,0,3.8-2.4,4.4c-1.8,0.4-3.6,0.4-5.4,0.4c-16.9,0-33.8,0-50.7,0
	c-2.6,0-5.4,0.3-7.6-1.6c-2.1-3-3.3-6.4-4-10c18.4,0.9,36.8,0.2,55.2,0.4C542.8,593.5,547.1,593.4,551.4,592.9z"/>
<path class="st26" d="M487.3,603c20.4,0,40.9,0,61.3,0c2.2,0,5,0.7,4.8-3.1c2.3,2.9,1.7,6.8,3,10c-1.4,1.7-3.4,1.1-5.1,1.1
	c-15.4,0-30.8,0-46.2,0c-4.9,0-9.9-0.3-14.8,1C489.4,609,487.5,606.3,487.3,603z"/>
<path class="st27" d="M497.3,629c21.7,0,43.4,0,65,0c1.3,2.1,1.8,4.5,2,6.9c-1,3.3-3.9,2.5-6.1,2.5c-15.8,0.1-31.5,0-47.3,0
	c-1.3,0-2.7-0.3-4,0.1c-4.2,1.1-6.6-0.5-7.7-4.5C498,632.6,497.7,630.8,497.3,629z"/>
<path class="st28" d="M375.3,622c0.7,4.8,4,5.1,8.1,5.1c12.1-0.2,24.2-0.1,36.2-0.1c6.6,0,13.2-0.2,19.7,1c0,0.7,0,1.3,0,2
	c-1.1,6.4-1.1,6.5-7.8,6.5c-15.9,0.1-31.9,0-47.8,0c-3.7,0-7-0.4-8.5-4.5C373.8,628.7,373.1,625.3,375.3,622z"/>
<path class="st29" d="M551.4,592.9c-0.3,2.4-2.1,2.1-3.8,2.1c-19.9,0-39.7,0-59.6,0.1c-2,0-3.5-0.7-4.8-2.1c-1.3-2.5-2.8-5-3-8
	c8.8,2.4,17.8,1.4,26.7,1.4c14.1,0,28.3,0.6,42.4-0.5C550.9,588,551.4,590.4,551.4,592.9z"/>
<path class="st30" d="M437.4,657c-17.6,0-35.3-0.1-52.9,0.1c-3.5,0-5.1-1.1-6-4.1c-2-2.6-3.3-5.2-0.8-8.2c3.6,2.6,7.6,2.8,11.8,2.7
	c16.3-0.3,32.6,0.4,48.8-0.5C438.5,650.4,438.5,653.7,437.4,657z"/>
<path class="st31" d="M440.4,609c-19.4,0-38.9-0.2-58.3,0.1c-4.9,0.1-8.3-0.4-8.7-6.1c2-2.6,4.9-2.5,7.8-2.5c17.2,0,34.3,0,51.5,0
	c1.9,0,4,0.6,5.8-0.7c0.4-0.7,0.5-1.5,0.8-2.3c0.3-0.7,0.7-1.4,1.5-1.7c0.3,0,0.5,0.1,0.8,0.1C441.1,600.3,441.9,604.7,440.4,609z"
	/>
<path class="st32" d="M376.3,631c1.1,3.2,3.1,4.1,6.6,4.1c16.3-0.2,32.6-0.3,48.9,0c4.1,0.1,6.9-0.6,7.6-5.1c0.2,4-0.1,8-0.9,12
	c-1.8,1.6-4,1.6-6.1,1.6c-16.1,0-32.3,0.1-48.4,0c-2.3,0-4.7-0.1-6.7-1.6C374.4,638.5,374,634.9,376.3,631z"/>
<path class="st27" d="M377.4,641c2,1.2,4.1,1,6.3,1c18.2,0,36.5,0,54.7,0c0,1.7,0,3.3-0.1,5c-1.2,1.5-2.8,2-4.8,2
	c-16.7-0.1-33.5-0.1-50.2,0c-3.3,0-4.8-1.4-5.8-4.1C376.2,643.7,376.2,642.4,377.4,641z"/>
<path class="st33" d="M549.4,585.9c-0.3,2.4-2.2,2.1-3.8,2.1c-19.9,0-39.7-0.1-59.6,0.1c-2.8,0-4.2-1.5-5.8-3.1
	c-0.8-0.5-1.6-1-1.7-2.1c2.7-0.8,5.5-1,8.3-0.9c18.6,0,37.1,0,55.7,0c1.8,0,4.2,1,4.8-2C548.9,581.7,549.3,583.7,549.4,585.9z"/>
<path class="st3" d="M474.3,572c0.7,1,1.3,2,2,3c-0.2,2.3,1.3,4,1.9,6c-7.8,0.6-14.5,4.3-21.4,7.4c-5.2,2.3-11.2,3-15.4,7.5
	c0,0-0.2,0.1-0.2,0.1c-2.6-4.3,0.1-8.4,0.4-12.6c9.4-4.9,19.3-8.7,29.3-12.1C472.2,571,473.3,571.3,474.3,572z"/>
<path class="st34" d="M566.4,642c0.2,3.9-2.7,3-4.8,3c-19.4,0-38.8,0-58.2,0c-0.3-1-0.7-2-1-3c0.4-3.2,3-3.4,5.2-3.4
	c18.1-0.2,36.1-0.1,54.2,0c1.9,0,3.6,0.7,4.6,2.4C566.4,641.3,566.4,641.6,566.4,642z"/>
<path class="st35" d="M566.3,641c-1.8-1.1-3.8-1-5.8-1c-17.1,0-34.2,0-51.3,0c-2.5,0-5-0.2-6.9,2c-1.3-2.6-2.9-5-3-8
	c1.8,4.6,5.5,3.1,9,3.1c17-0.2,34-0.1,51-0.1c1.7,0,3.7,0.7,5.2-1C565.6,637.4,565.9,639.2,566.3,641z"/>
<path class="st1" d="M371.4,594c-15.6,0-30.4-4.8-45.3-8.6c-14.1-3.6-28.5-5.2-42.9-4.2c-14.9,0.9-29.3,5-43.6,9.5
	c-13.6,4.3-27.6,6.4-41.9,7.5c-35.5,2.8-68.7-4.8-99.9-21.2c-34-18-59.8-44.1-72.8-81.1c-4.4-12.5-5.8-25.4-5.7-38.7
	c0.1-14.9,0.5-29.5,5.8-43.7c7.6-20.5,20.5-37,37.1-51c20-16.7,43.4-25.4,68.7-29.3c14.5-2.2,29-1.3,43.6,0.5
	c19.4,2.3,38.3-0.1,56.5-7.4c5.9-2.4,11.3-5.6,16.6-9c1.6-1,3-2.1,4.9-2.3c0.5,0.5,0.6,1.2,0.5,1.9c-0.2,0.9-0.6,1.7-1,2.6
	c-1.7,3.4-3.6,6.7-4.8,10.4c-0.3,0.8-0.7,1.7-1.1,2.5c-1.2,2.2-2.2,4.5-3,6.8c-1.4,2.9-3,5.8-3.9,8.9c-1.4,3-3,5.8-4,8.9
	c-1.1,2.3-2.3,4.6-3,7c-1.1,2.3-2.2,4.5-3,6.9c-0.8,1.6-1.5,3.3-2,5c-0.7,1.6-1.4,3.2-2,4.9c-0.3,0.8-0.7,1.6-1,2.4
	c-0.4,1-0.7,2-1.1,3c-0.8,1.6-1.4,3.2-1.9,4.9c-0.8,1.6-1.4,3.3-1.9,5c-0.7,1.9-1.3,3.8-1.9,5.8c-0.4,1.1-0.7,2.1-1.1,3.2
	c-0.4,1.1-0.7,2.2-1,3.3c-0.5,1.4-0.6,2.9-1,4.3c-0.8,3.6-0.3,7.2-0.4,10.9c-0.2,2.3,0.1,4.5,0.8,6.7c0.3,1.9,0.9,3.7,1.6,5.5
	c0.4,1.1,0.7,2.2,1.2,3.3c3.3,6.7,7.4,12.8,13.4,17.4c1.5,1.2,4.5,1.9,3.4,5.1c-9.3,3.4-19,6.2-28.1,10.2c-2,0.9-4.3,0.3-6.4,0
	c-17.7-2.6-32.8,3.3-46.1,14.6c-0.8,0.6-1.5,1.4-2.1,2.2c-1.1,1.4-1.6,3-0.2,4.5c1.3,1.3,2.7,1,4.1,0.2c1.7-1,3.3-2.3,4.8-3.5
	c16.9-13.6,35.2-15.3,54.7-6.3c3.2,1.5,6.2,3.2,9.4,4.6c1.8,0.8,4,1.7,5.2-0.8c1-2.2-0.4-3.8-2.1-5c-2.1-1.4-4.5-2.3-6.6-3.6
	c-1.1-0.7-2.4-1.5-2.3-3c0.1-1.5,1.5-2.2,2.8-2.5c8.1-2.4,16.1-5.5,24.8-5.2c6.4,2,11.5,6.5,17.1,9.9c11.9,7.2,23.1,15.6,35.7,21.5
	c6,2.4,11.8,5.3,17.9,7.7c6.1,2.4,12.1,0.9,18.1-0.3c3.7,1.2,5.2,4.5,7.3,7.2c2.8,3.5,5.3,7.3,8.2,10.7c1.4,1.8,3.1,4.1,5.8,2.1
	c2.3-1.8,0.8-3.9-0.3-5.8c-3.3-5.2-7.1-10.1-10.8-15c-1.2-1.6-2.6-3.1-2.5-5.3c3.1-6,4.2-12.5,4.4-19.1c1.6-1.5,2.8,0,3.8,0.8
	c2.7,2.1,5.6,4,8.1,6.4c0.9,1.2,1.8,2.4,2.4,3.8c0.6,2.2,0.6,4.6,1.3,6.8c0.3,2.6,0.1,5.2,1,7.8c0.5,2.6-0.1,5.3,0.8,7.9
	c0.2,0.8,0.3,1.6,0.4,2.4c-0.1,2.9,0.2,5.8,1,8.7c0.2,2.4-0.1,4.8,0.7,7.2c0.2,0.8,0.3,1.6,0.4,2.5c0.2,8.2,1.8,16.3,2.7,24.5
	c0.4,6,1.2,11.9,2,17.8c0.6,3.4,0,6.9,1.1,10.2C372.7,590.2,373.1,592.3,371.4,594z"/>
<path class="st36" d="M252.4,317.1c0-0.7,0.1-1.3,0.1-2c1-1.3,1.9-2.7,2.9-4c2.1-1.8,4.7-1.5,7.1-1.5c16,0,31.9,0,47.9,0
	c3.1,0,5.8-0.1,7.3-3.7c1.4-3.4,4.8-2.9,7.8-2.4c9.8,1.7,19.6,3.7,29.4,5.7c3.2,0.6,6.1,1.1,9-1.2c1.7-1.4,3.7-1.3,5.5,0.1
	c1,1.7,2,3.3,2.9,5c-3,2.3-7.2,2.3-10,5.2c-1.4,1.4-3.9,0.4-5.8,0c-9.4-2.1-19-3.6-28.4-5.6c-3.4-0.7-6.8-1.6-8.4,3.3
	c-0.7,2.2-3.4,2.4-5.6,2.4c-18.8,0.1-37.7,0.2-56.5,0C255.8,318.4,253.9,318.2,252.4,317.1z"/>
<path class="st37" d="M369.4,308.1c-2.5,0-5-0.4-6.4,2.6c-0.8,1.7-2.3,1.2-3.9,0.9c-11.6-2.3-23.3-4.4-35-6.8
	c-3.5-0.7-5.7-0.5-5.7,3.6c-0.1,3.6-2.7,2.7-4.7,2.7c-19.4,0-38.9,0-58.3,0c0.8-2.7,1.6-5.3,4-7c17.2,1.2,34.5,0.3,51.7,0.5
	c1.9,0,3.7-0.2,3.9-2.7c0.3-4,3.2-4.1,6.2-3.9c4.1,0.4,8.1,1.8,12.2,2.1c0.3,0.1,0.7,0.1,1,0.2c5.6,0.3,11.1,1.7,16.6,2.8
	c4,0.8,8,2.4,11.6-1.5c1-1.1,2.8-1.1,3.8,0.6C368,303.8,369,305.8,369.4,308.1z"/>
<path class="st38" d="M262.5,297.1c5.9-5.9,12.6-10.5,21-12.1c10.2-3.3,18.9,0.3,27.1,6c1.6,2.6,4.8,5,3.2,8.3
	c-1.7,3.4-5.6,2.2-8.6,2.2c-11.9,0.1-23.8,0.1-35.8,0c-2.6,0-5.4,0.4-7-2.5C262.4,298.4,262.4,297.8,262.5,297.1z"/>
<path class="st39" d="M262.4,299.1c1.8,1.1,3.8,1,5.8,1c13.4,0,26.8,0,40.3,0c1.5,0,3.7,0.9,4.5-1c0.9-1.9-0.7-3.4-1.9-4.8
	c-0.9-1-1.8-2-1.6-3.5c4-2.6,7.6-0.2,11.2,1.1c4.8,1.9,8.6,5.2,12.7,8.1c-3.5,2.8-6.9-0.4-10.4-0.2c-3,0.1-8.9-4.1-5.9,4.3
	c0.6,1.8-1.2,2-2.6,2c-17.4,0-34.9,0-52.3,0c-1.5,0-2.6-0.3-2.8-2.1C259.8,302,260.5,300.2,262.4,299.1z"/>
<path class="st40" d="M371.4,594c0-2,0-4,0-6c0.6-0.3,1.2-0.2,1.6,0.4c0.3,0.5,0.6,1.1,0.7,1.7c0.5,4.4,3.8,4.3,7,4.3
	c17.4,0,34.7,0,52.1,0.1c2.7,0,5.8-0.6,7.5,2.5c0,0.7,0,1.3,0,2c-2.1,1.9-4.7,1.5-7.1,1.5c-17.8,0-35.5,0-53.3,0
	c-2.3,0-4.7-0.3-6.6,1.5H373c0,0-0.4,0-0.4,0C372.2,599.3,371.8,596.7,371.4,594z"/>
<path class="st41" d="M530.3,70c0-6.7,4.1-11.1,10.2-10.8c6.9,0.2,13.8,7.2,13.8,14c0,5.7-4.6,9.6-10.8,10
	C537.5,83.7,528.9,76.5,530.3,70z"/>
<path class="st42" d="M524.8,69.1c-14.5-1-23.5-11.3-34.5-18.3c0.3-0.6,0.7-1.1,1-1.7C502.5,55.7,513.6,62.4,524.8,69.1z"/>
<path class="st43" d="M583.8,50c-4.5,9.2-12.9,13.6-21.5,17.9C568.7,60.9,576,55.2,583.8,50z"/>
<path class="st44" d="M320.7,291.9c-3.7-0.4-7.5-0.7-11.2-1.1c-8.3-3.3-16.5-7.4-26-5.8c6.6-3.8,13.9-6,21.3-7.3
	c2.3,0.1,4.6-0.3,4.7,3.3c0.2,3.1,3,4.5,5.3,6.2C316.9,288.7,319.3,289.7,320.7,291.9z"/>
<path class="st45" d="M366.4,302.1c-1.6-0.9-3.4-0.5-4,0.8c-1.8,3.7-4.4,2.9-7.5,2.3c-6.9-1.4-13.7-3-20.5-4.9
	c4,0.4,7.8-0.3,10.8-3.1c1.1-1.6,2.5-1.9,4.3-1.2c3.9,1.4,7.6,1.7,11-1.1c0.5-0.4,1.2-0.1,1.8,0.4
	C364.3,297.1,365.9,299.2,366.4,302.1z"/>
<path class="st46" d="M362.4,295.1c-4.6,4-9.5,4.1-14.8,1.4c-0.5-0.3-1.5,0.4-2.3,0.6c1.5-4.8,2.2-9.6,2.2-14.7
	c0-1.8-0.5-3.7,0.8-5.3c0.1,3.9-0.9,8.4,5.1,8.9C356.6,288.8,360,291.5,362.4,295.1z"/>
<path class="st47" d="M363.7,221.3c-2.2-0.3-3.4-1.5-3.2-3.7c0.2-2,1.6-3,3.4-3c2,0,3.6,1.2,3.4,3.4
	C367.2,220.3,365.8,221.3,363.7,221.3z"/>
<path class="st48" d="M372.3,229.8c9.1-3,0-7.7,1.7-12c2.8,3.1,5.5,5.8,4.7,9.7C378.1,230,375.4,230.4,372.3,229.8z"/>
<path class="st49" d="M374.1,238.8c-3.9,3.5-6.9,3.3-9.8,0.8c-0.5-0.4-0.9-1.1-0.4-1.7c0.2-0.3,1.1-0.5,1.2-0.4
	C367.3,240.3,370.3,238.6,374.1,238.8z"/>
<path class="st50" d="M427.5,400.9c7.6,1.8,15.2,3.6,22.8,5.4c-0.7,3.4-3.5,3.1-5.9,3.2c-5.5,0.2-10.9,0.1-16.4,0.1
	c-19.1,0-38.1-0.1-57.2,0c-1.8,0-3.6,0-5.4,0.5c-1.9,0.1-3.6-0.4-5.2-1.5c-1.6-4.2-5-5.5-9.2-6.2c-18.2-3-36.3-6.4-54.4-9.5
	c-2.7-0.5-5.6-0.6-8-2.5c-1.1-4.1,1.2-6.4,4.5-8.2c7.5,0.3,14.8,2.3,22.1,3.5c14.7,2.6,29.5,5.1,44.2,7.9c3,0.6,6.5,0.7,7,5
	c0.2,1.7,1.7,1.8,3.1,1.8c17.1,0.1,34.2,0,51.3,0c0.9,0,1.6-0.4,2.3-0.8C424.8,399.1,426.3,399.5,427.5,400.9z"/>
<path class="st10" d="M454.4,399.9c-0.3-2.2,0.9-3.6,2.4-4.7c14-11.4,29.4-19.3,47.8-21.4c13.3-1.5,26.1-0.2,38.7,3.4
	c2.9,0.8,5.4,2.5,4.3,6c-1.1,3.4-3.4,4.3-7.1,3.1c-25.4-8.3-49-4.1-71,10.7c-3,2-5.7,4.5-8.6,6.7c-1.4,1-2.9,1.4-4.6,0.4
	C454.7,403,454.2,401.6,454.4,399.9z"/>
<path class="st51" d="M522.3,492c1.2,2.5,2.1,5.1,2.2,7.8c-0.4,2.9-2.7,2.6-4.6,2.6c-21.9,0.1-43.8,0.1-65.8,0
	c-1.4,0-2.6-0.3-3.8-1.1c-2.1-3.8-1.9-7.7-0.2-11.6c1.8-1.4,4-1.4,6.2-1.4c19.6,0,39.1-0.1,58.7,0C518,488.5,521.2,488.2,522.3,492z
	"/>
<path class="st52" d="M482.5,417c3.6,1.6,6.6,4,9.3,6.9c-2,3.5-5.4,2.7-8.5,2.7c-22.6,0.1-45.2,0-67.8,0.1c-3,0-6-0.4-8.9,0.4
	c-6.8,0.3-11.8-3.8-17-7.3c-0.7-0.5-0.5-1.5,0.1-2.2c2.1-2.1,4.9-2,7.5-2c25.7-0.1,51.3,0,77,0C477,415.4,479.8,416.1,482.5,417z"/>
<path class="st53" d="M536.5,542c1.2,1.8,1.8,3.8,1.8,6c1.2,3.2-0.4,4.7-3.3,5.3c-1.5,0.3-3,0.3-4.5,0.3c-18.6,0-37.1-0.1-55.7,0.1
	c-4.5,0-8.1-1.1-10.4-5.3c-1.3-2.2-3.1-4.4-0.6-7c2-1.1,4.2-0.8,6.3-0.8c19.7,0,39.4,0,59.1,0C531.9,540.5,534.4,540.2,536.5,542z"
	/>
<path class="st54" d="M507.4,444c1.3,1.4,2,3.1,2.1,5c-2.2,3.1-5.6,2.6-8.7,2.6c-17,0.1-34,0-50.9,0c-3.2,0-6.3,0-9.4,0.7
	c-5-1.1-7.8-4.9-6.9-9.6c1.9-1.4,4.1-1.3,6.2-1.3c20.1,0,40.3,0,60.4,0C502.9,441.5,505.7,441.4,507.4,444z"/>
<path class="st55" d="M364.4,409.1c2.7-0.9,5.5-1,8.3-1c23.9,0.1,47.8,0,71.7,0c2.1,0,4.4,0.7,5.9-1.7c6.1,1.4,12.4,2.1,18.2,4.5
	c0.1,2.5-1.9,2.8-3.6,3.4c-1.1,0.4-2.3,0.4-3.5,0.4c-29.2-0.1-58.4,0.4-87.7-0.2C370.3,413.2,365.9,413.6,364.4,409.1z"/>
<path class="st56" d="M515.2,467c1.1,2.6,1.9,5.2,2.1,8c-1.7,0.9-3.6,0.6-5.4,0.6c-18.2,0-36.5,0.1-54.7-0.1c-3.9,0-6.4,1.1-7.3,5
	c-0.4,0.6-0.9,0.8-1.6,0.7c-2.9-3.8-2.6-8.1-2.2-12.5c0.2-1,0.7-1.8,1.6-2.4c1.9-1,3.9-0.8,5.9-0.8c18.3,0,36.6,0,55,0
	C510.9,465.6,513.3,465.2,515.2,467z"/>
<path class="st57" d="M507.4,444c-1.7-0.9-3.5-1-5.3-1c-21.4,0-42.9,0-64.3,0c-1.6,0-3.4-0.5-4.5,1.3c-4.1-0.4-6.7-2.2-6.3-6.8
	c1.5-2.1,3.7-2,5.9-2c22.2-0.2,44.5,0,66.7-0.1c1,0,2,0.2,2.9,0.6C504.8,438.3,506.4,440.9,507.4,444z"/>
<path class="st58" d="M465.3,547c1.9,4.5,5.4,5.2,10,5.1c19.3-0.3,38.5-0.1,57.8-0.1c2.9,0,5.5-0.2,5.2-4.1c1.3,2.2,1.8,4.5,2,7
	c1.1,2.5,0,3.8-2.4,4.3c-1.6,0.4-3.3,0.4-5,0.4c-18.6,0-37.2,0-55.8,0c-2.5,0-5,0.1-7.3-1C466.1,555.7,464,552,465.3,547z"/>
<path class="st59" d="M449.3,481.2c0.2-7.1,0.2-7.1,7.4-7.1c18.1,0,36.3,0,54.4,0c2.2,0,4.3-0.2,6.3,1c1,1.9,1.6,3.9,1.8,6
	c-1.9,1-3.9,0.6-5.9,0.6c-18.2,0-36.5,0-54.7,0.1c-2.6,0-6-0.8-6.8,3.2c-0.1,1.8-0.2,3.7-1.5,5.2c0,3.7,0,7.3,0,11
	c-0.6,0.3-1,0.2-1.5-0.3c-1-1.5-0.8-3.2-0.9-4.9c0-1.1,0-2.3,0-3.4C448.4,488.7,446.9,484.7,449.3,481.2z"/>
<path class="st60" d="M469.3,557c1.5,0.8,3.1,1,4.8,1c20.6,0,41.3,0,61.9,0c2.2,0,4.6,0.3,4.3-3.1c1.9,2,0.3,4.9,2,7
	c-0.3,2.4-2.2,2.1-3.8,2.1c-20.8,0-41.7,0-62.5,0.1c-2,0-3.5-0.8-4.8-2C468.4,561.2,468.1,559.4,469.3,557z"/>
<path class="st61" d="M372.4,413c29.6,0,59.2,0,88.8,0c2.6,0,5.4,0.4,7.3-2.2c5.1,1,9.7,3.2,14,6.1c-28.7,0-57.4,0-86.1,0
	c-2.5,0-5-0.1-7,1.8c-3,1.4-5.4-2.5-8.4-1c-3.4,0.2-6.1-1.5-8.7-3.5C372,414,372.1,413.5,372.4,413z"/>
<path class="st62" d="M511.5,455c0.1,2.2,2.4,3.6,1.9,6c-2.1,1.9-4.7,1.5-7.1,1.5c-17.7,0-35.5,0-53.2,0c-2.5,0-5,0.1-7.4,0.8
	c-1.7,0.1-2.2-1.2-2.5-2.5c-0.7-5.6,0.3-7.2,5.8-7.2c19.3-0.2,38.6-0.2,57.9,0C508.5,453.5,510.1,453.9,511.5,455z"/>
<path class="st63" d="M502.4,436c-2,1.2-4.1,1-6.3,1c-21.3,0-42.6,0-63.9,0c-1.8,0-4.2-1.1-4.9,2c-0.5,0.4-1,0.5-1.5,0.3
	c-2.6-2-7.5-1.8-6.7-7.1c1.5-1.7,3.5-1.7,5.5-1.7c24.1-0.2,48.1,0.4,72.2-0.3c0.7,0,1.3,0.3,1.9,0.6
	C500.3,432.4,502.1,433.6,502.4,436z"/>
<path class="st64" d="M528.5,513.8c0.7,2.4,1.4,4.8,2,7.2c-1.5,1.6-3.6,1.6-5.6,1.6c-21.7,0.1-43.5,0.1-65.2,0
	c-1.3,0-2.7-0.1-3.9-0.5c-2.8-1.4-4.2-3.4-2.3-6.5c2.1-1.4,4.5-1.1,6.8-1.1c20.5,0,40.9,0,61.4,0
	C523.9,514.5,526.3,514.7,528.5,513.8z"/>
<path class="st65" d="M455.1,521.1c25.1,0,50.3-0.1,75.4-0.1c0.9,0.8,0.9,1.9,0.9,2.9c0.9,2-0.4,2.7-1.9,3.2c-1.4,0.5-3,0.5-4.4,0.5
	c-21,0-41.9,0-62.9,0c-1.3,0-2.7-0.1-4-0.4C455.3,526.1,453.9,524.2,455.1,521.1z"/>
<path class="st66" d="M511.5,455c-20.6,0-41.2,0-61.8,0c-6.2,0-6.2,0-5.3,5.9c-4-1.7-5-5.1-5-9c1.3-2.5,3.6-1.9,5.7-1.9
	c18.7,0,37.4,0,56.1,0c2.8,0,5.6-0.3,8.3-1.1C510.8,450.8,511.5,452.8,511.5,455z"/>
<path class="st67" d="M405.4,426.9c0.8-2.9,3.2-1.8,5-1.8c24.9-0.1,49.8-0.1,74.6,0c2.3,0,4.7,0.1,6.7-1.2c1.2,1.1,2.4,2.2,3.6,3.4
	c0.9,2.6-1.2,2.7-2.7,3.1c-1.6,0.4-3.3,0.2-5,0.2c-21.3,0-42.6,0-64,0c-3,0-6,0-8.9,0.8C410.8,431.7,407.5,430.5,405.4,426.9z"/>
<path class="st68" d="M450.4,490c0-1.7,0-3.3,0-5c1.9-1.7,4.3-1.6,6.6-1.6c18.9,0,37.8,0,56.7,0c2.3,0,4.7-0.1,6.6,1.6
	c1.1,2.2,1.9,4.5,2,7c-1.5-2.4-3.9-2-6.2-2C494.2,490,472.3,490,450.4,490z"/>
<path class="st69" d="M520.3,485c-23.3,0-46.6,0-69.9,0c-0.6-3.8,0.8-5.1,4.9-5.1c19.6,0.2,39.1,0.1,58.7,0.1c1.8,0,3.7-0.1,5.3,1
	C519.6,482.3,519.9,483.7,520.3,485z"/>
<path class="st70" d="M446.4,367.1c-0.6,1-1.3,2.1-1.9,3.1c-0.5,0.1-1,0.3-1.5,0.3c-23.6,0.3-47.2,0.2-70.8,0
	c-3.1,0-5.6-1.2-5.2-5.1c4-3.4,8.8-1.5,13.2-1.7c2.2,1,4.3-0.6,6.6-0.3c17.6-0.1,35.2,0,52.8,0c1.7,0,3.3-0.1,4.9,0.5
	C445.9,364.4,447.4,365,446.4,367.1z"/>
<path class="st71" d="M367.4,365.1c0.3,3.5,2.5,4.1,5.6,4c22-0.1,44-0.1,65.9,0c1.9,0,4-0.8,5.6,1.1c-0.3,1.5-0.9,2.8-2.1,3.8
	c-2,0.5-3.9,0.6-5.9,0.6c-19.8,0-39.6,0-59.4,0c-2.8,0-5.7,0.3-8.2-1.6c-0.7-0.6-1.2-1.2-1.7-2c-0.7-1.1-1.2-2.3-1.5-3.6
	c-0.1-0.5,0-1,0.1-1.5C366.1,365.3,366.5,364.8,367.4,365.1z"/>
<path class="st72" d="M452.4,356.1c-0.3,2-1.1,3.8-2.8,5c-1.8,1.4-4,1.5-6.2,1.5c-15.9,0-31.9,0.1-47.8-0.1c-2.6,0-6.6,1.2-6.4-3.9
	c0.7-2.5,2.1-4.1,4.8-4.3c16.6,0.1,33.2,0,49.7,0.1C446.7,354.5,449.7,354.5,452.4,356.1z"/>
<path class="st73" d="M457.2,526.1c23,0,45.9,0,68.9-0.1c1.9,0,4.6,1.2,5.3-2c1.2,1.1,1,2.5,1,3.9c0.9,2-0.3,2.7-1.9,3.3
	c-1.3,0.5-2.6,0.4-4,0.4c-20.8,0-41.6,0-62.4,0c-2,0-4-0.1-5.8-1.2C456.9,529.2,456.2,527.9,457.2,526.1z"/>
<path class="st74" d="M368.5,371.1c1.4,2.2,3.6,2,5.8,2c21,0,42,0,63,0c1.8,0,3.7-0.7,5.2,1c-1,1.7-2,3.4-3,5.1
	c-20.5-1.1-41.1-0.2-61.6-0.5c-3.1,0-6.4,0.4-8.8-2.4C367.9,374.6,366.9,373,368.5,371.1z"/>
<path class="st75" d="M369.4,375.1c1.6,2.3,4,2,6.3,2c19.6,0,39.3,0,58.9,0c1.8,0,4.2-1,4.8,2.1c-0.4,0.6-0.7,1.3-1.1,1.9
	c-1.7,1.2-3.6,1.6-5.7,1.6c-20.4,0.1-40.8-0.1-61.2,0.1c-0.7,0-1.3-0.2-1.9-0.4C367.6,379.9,367.5,377.5,369.4,375.1z"/>
<path class="st76" d="M369.9,382.1c1.7-1.5,3.8-1,5.7-1c20.9,0,41.8,0,62.7,0c-0.6,1-1.2,2-1.8,3c-2,2.7-4.9,2.5-7.7,2.5
	c-16.6,0-33.2,0-49.9,0.1c-2.6,0-5.4-0.7-7.5,1.6c-0.7,0.6-1.4,1.4-2.4,0.6C367.9,386.4,367.2,384,369.9,382.1z"/>
<path class="st77" d="M370.4,387.8c-0.1-3.6,2.6-2.7,4.6-2.7c18.4,0,36.8,0,55.2,0c2.2,0,4.3,0.1,6.3-1c-0.4,2-1.7,3.5-3,5
	c-2.2,1.6-4.7,1.4-7.2,1.4c-16.4,0-32.8,0-49.2-0.1C374.5,390.6,372,390.3,370.4,387.8z"/>
<path class="st78" d="M390.4,358.1c-1.1,3.8,1.7,2.9,3.6,2.9c18.5,0,37.1,0.1,55.6,0.1c-0.7,2.2-1.5,4.3-3.2,5.9
	c-0.6-3.1-3.1-2-4.9-2c-17-0.1-33.9,0-50.9-0.1c-1.8,0-3.7,0.7-5.2-0.9C385.7,360.9,386.9,358.6,390.4,358.1z"/>
<path class="st79" d="M413.4,430.9c1.9-2.1,4.5-1.9,7-1.9c23.3,0,46.6,0,70,0c1.7,0,4.2,1.2,5-1.7c1.8,0.6,2.6,2.1,3.4,3.7
	c-2.9,0.9-5.8,1.2-8.8,1.2c-21.9-0.1-43.8-0.1-65.7,0c-1.7,0-4.2-1.1-4.9,1.9C416.6,434.6,414.6,433.5,413.4,430.9z"/>
<path class="st80" d="M528.5,513.8c-0.7,3.3-3.3,2.2-5.2,2.2c-23.4,0.1-46.8,0.1-70.1,0.1c-2.7-1.2-3.3-2.9-1.5-5.4
	c0.6-0.1,1.2,0,1.7,0.2c1.7,0.8,3.6,0.7,5.4,0.7c20.6,0,41.2,0,61.8,0c1.8,0,3.7,0.2,5.3-0.9c0.5-0.4,1-0.7,1.6-0.8
	C528.5,511,528.5,512.4,528.5,513.8z"/>
<path class="st81" d="M449.3,501c0.3,0,0.7,0,1.1,0c22.8,0,45.7,0,68.5,0c1.9,0,4.1,0.8,5.6-1.1c1.1,1.2,1.2,2.7,0.8,4.2
	c-1.2,1.1-2.6,1.4-4.1,1.4c-23.4,0-46.8,0.3-70.2-0.2c-1.3-0.3-2.3-0.9-2.9-2c-0.2-0.5-0.3-1.1-0.1-1.7
	C448.3,500.9,448.7,500.7,449.3,501z"/>
<path class="st82" d="M452.4,356.1c-17.9,0-35.8,0-53.7-0.1c-1.9,0-4.1,0.8-5.5-1.3c-0.8-1.2-0.5-2.3,0.1-3.5c0.3-0.1,0.6-0.2,1-0.3
	c7.4-1.1,14.9-0.3,22.3-0.5c7.3-0.1,14.6,0,21.9,0c2.9,0,5.6,0.5,8.3,1.5c2.1,1.2,4.3,2.3,6.4,3.5
	C452.9,355.7,452.6,355.9,452.4,356.1z"/>
<path class="st83" d="M534.5,534.9c1,0.8,1,2,0.9,3.1c-0.2,2.3-2.1,2.5-3.6,2.5c-23-0.1-45.9,0.6-68.9-0.3c-2.8-1.3-4.2-3.2-2.4-6.3
	c3.1,0.7,6.2,0.7,9.3,0.7c19.6,0,39.2,0,58.7,0C530.5,534.5,532.5,534.4,534.5,534.9z"/>
<path class="st84" d="M534.5,534.9c-1.1,1.5-2.6,1.2-4.1,1.2c-21.6,0-43.2,0-64.8,0c-2.1,0-3.9-0.3-5.3-2c-2.3-0.8-2-2-0.4-3.3
	c1.6,0.6,3.2,0.8,4.9,0.8c21.4,0,42.8,0,64.3,0c1.5,0,3-0.1,4.4-0.6C534.6,532,534.4,533.5,534.5,534.9z"/>
<path class="st85" d="M533.4,530.9c-0.3,2.4-2.1,2.1-3.8,2.1c-21.9,0-43.7,0-65.6,0.1c-2,0-3.4-0.9-4.8-2c-1.3-0.3-1.5-1-0.8-2.1
	c1.8,1.1,3.8,1,5.8,1c21,0,42.1,0,63.1-0.1c1.9,0,4.6,1.1,5.2-2.1C533.4,528.7,533.5,529.8,533.4,530.9z"/>
<path class="st86" d="M462.3,539c22.5,0,45,0,67.5-0.1c1.9,0,4,0.8,5.6-1.1c1.2,1.1,0.9,2.6,1.1,4c-24.4,0-48.9,0.1-73.3,0.1
	C461.3,541.6,461.5,540.4,462.3,539z"/>
<path class="st87" d="M445.3,463.1c0.7-3.3,3.4-2,5.3-2.1c20.9-0.1,41.8-0.1,62.8-0.1c0.1,1,0.2,1.9,0.2,2.9c-1.8,2-4.3,1.5-6.5,1.6
	c-17.9,0-35.8,0-53.6,0c-2.1,0-4.4-0.3-6,1.5c0,0.7-0.1,1.4-0.1,2.1C444.3,467.9,444,465.8,445.3,463.1z"/>
<path class="st88" d="M447.4,467c0.4-3.9,3.4-3,5.7-3c20.2-0.1,40.3-0.1,60.5-0.1c1.4,0.6,1.6,1.8,1.6,3.1
	C492.6,467,470,467,447.4,467z"/>
<path class="st89" d="M376.3,389.1c19.1,0,38.2,0,57.2,0c-0.4,0.7-0.7,1.3-1.1,2c-1.9,2.7-4.8,2.5-7.6,2.5
	c-11.6,0.1-23.1-0.1-34.7-0.1c-4,0.1-7.8-1.2-11.6-2.2C377.5,391,376.3,390.6,376.3,389.1z"/>
<path class="st90" d="M527.4,509.9c0,0.4-0.1,0.7-0.1,1.1c-1.6,1.3-3.5,1-5.3,1c-21.5,0-42.9,0-64.4,0c-1.8,0-3.7,0.3-5.3-1l-0.5,0
	l-0.5,0c-1.3-0.9-1.8-1.8-0.1-2.8c2.3-0.9,4.6-0.6,6.9-0.6c20,0,40,0,60,0c2.5,0,5,0.2,7.5-0.5c0.3-0.1,0.6-0.1,0.9-0.2
	C527.4,507.7,527.5,508.8,527.4,509.9z"/>
<path class="st91" d="M525.3,505c0.4,0.6,0.8,1.3,1.2,1.9c0,0-0.2,0.2-0.2,0.2c-1.8,1.4-3.8,0.9-5.8,0.9c-21.5,0-42.9,0-64.4,0
	c-2,0-4.4,0.8-6-1.4c-0.2-0.7,0-1.3,0.4-1.8c24.5-0.4,48.9-0.1,73.4-0.2C524.4,504.6,524.8,504.8,525.3,505z"/>
<path class="st92" d="M389.3,392.1c12.3,0,24.6,0,36.8,0c2.2,0,4.3,0.1,6.3-1c-0.4,2-1.7,3.5-3,5c-2.8,2.1-6,1.5-9.1,1.5
	c-4.1,0-8.2-0.2-12.3-0.1c-5.5-0.1-10.8-1.8-16.1-3C390.8,394.1,389.3,393.9,389.3,392.1z"/>
<path class="st93" d="M525.3,505c-25,0-49.9,0-74.9,0c-0.9,0.3-1.2-0.1-1-1c25.3,0,50.6,0,75.9,0C525.3,504.4,525.3,504.7,525.3,505
	z"/>
<path class="st94" d="M407.3,396.1c7.4,0,14.8,0,22.2,0c-0.7,1.6-1.4,3.2-2,4.8c-1.4-0.2-2.7-0.5-4.1-0.7
	C417.3,401.6,411.9,400.5,407.3,396.1z"/>
<path class="st95" d="M446.7,351.9c-15.9,0-31.8,0.1-47.7,0.1c-1.7,0-3.3-0.2-4.8-1.1c2.5-2.5,3.9-6,7.1-7.9
	c1.7-1.1,3.6-1.6,5.6-1.5c8.2,0.1,16.4-0.3,24.6,0.3C436.7,345,442.1,347.9,446.7,351.9z"/>
<path class="st96" d="M431.5,341.8c-1.3,1.9-3.3,1.3-5,1.3c-8.4,0.1-16.8,0-25.2,0c3.4-5.1,7.3-9.8,11.8-14
	c3.6,4.5,9.5,5.7,13.8,9.2C428.4,339.5,430,340.6,431.5,341.8z"/>
<path class="st1" d="M450.4,509c0.3,0.7,0.7,1.3,1,2c0,1.9,0.5,3.6,1.7,5.1c0.5,1.7,0.7,3.6,2,5c0.4,1.8,0.8,3.6,2.1,4.9
	c0.1,1.1,0.1,2.2,1.1,3c0.3,0.7,0.6,1.4,0.8,2.1c0.2,1.1,0.1,2.2,1.1,3c0.1,1.9,0.6,3.6,2,5c0.1,1.1-0.1,2.3,1,3
	c0.6,1.7,0.8,3.6,2.1,5c0.6,3.6,1.9,7,3.9,10c0.1,1.9,0.6,3.6,2,5c0.8,2.7,1.6,5.3,2.3,8c0.3,0.7,0.5,1.3,0.8,2
	c-9.4,1.8-17.8,6.5-26.6,9.9c-1.7,0.7-3.4,1.3-5.2,1.1c-0.7-0.4-1.1-1.1-1.3-1.8c-0.6-2.6,0-5.1,0.5-7.7c0.7-3.2,0.3-6.4,0.3-9.6
	c0-2,0-3.9,0.3-5.9c1-3.8,0.7-7.7,0.8-11.6c0-1.3,0-2.7,0.2-4c0.5-2.4,1.1-4.9,0.8-7.4c-0.1-1-0.3-1.9-0.3-2.8
	c0-1.2,0.4-2.3,0.4-3.5c0-0.9,0.1-1.9,0.1-2.8c0-0.7,0.2-1.4,0.4-2.2c0.8-2.4,0.4-4.8,0.5-7.2c0-1,0-1.9,0-2.9c0-0.5,0-1,0-1.5
	c0-0.7,0-1.5,0.1-2.2c0.1-0.7,0.2-1.4,0.4-2.1c0.5-1.3,0.5-3.1,1.9-3.7c1.2-0.5,1.3,1.1,1.9,1.7C449.8,506.9,451,507.7,450.4,509z"
	/>
<path class="st97" d="M382.4,333.1c1.3,2.3,2.6,4.7,3.9,7c-2.1,1.8-4.7,1.3-7.1,1.4c-7.7,0.4-15.6-1.3-23,2.2
	c-1.8,0.9-3.9,0-5.9-0.3c-9-1.7-17.9-3.7-26.9-5.2c-2.8-0.5-5.6-0.7-8.4-0.7c-2.7-2.1,0.2-3.9,0.3-5.9c0.7-1.8,1.3-3.8,3.5-4.5
	c7.1-0.5,13.7,2.3,20.7,3.1c3.5,0.4,6.9,1.2,10.3,2c4.6,1.1,8.9,1.2,13.6-0.7c5-2,10.5-0.9,15.8-0.6
	C380.6,331,381.7,331.9,382.4,333.1z"/>
<path class="st98" d="M314.4,337.1c4.5-3.2,9-0.1,13.3,0.4c8.6,1.1,17.1,3.3,25.6,5c0.8,0.2,1.8,0.6,2.4,0.2
	c8.8-5.2,18.5-1.6,27.7-2.7c1-0.1,2,0,3,0c1,2,2,4,3,6c-1.6,2.4-4.2,2.4-6.7,2.4c-5.5,0.1-11.1-0.8-16.4,0.2
	c-14,2.6-27.2-1.7-40.6-4.2c-4.1-0.8-8.1-1.6-12.3-1.7c-1.9-0.6-1.4-2.1-1.1-3.4C312.7,338.3,313.3,337.4,314.4,337.1z"/>
<path class="st99" d="M252.4,317.1c19.9,0,39.8,0,59.8,0c3.8,0,7.3,0.3,7.9-5c0.3-2.3,2.4-2,4.4-1.6c11.7,2.3,23.3,4.5,35,6.7
	c1.1,0.2,2.5,1.1,3.1-0.2c2.1-4.4,6-3.8,9.7-4c0.4,1,0.7,1.9,1.1,2.9c0,0.2,0.1,0.5,0.1,0.5c-5.6,1.9-10.4,6.6-17.1,5
	c-9.3-2.2-18.8-3.6-28.2-5.5c-3.1-0.6-6-0.9-7.1,3.2c-0.3,0.5-0.7,1-1.1,1.4c-2.2,2-4.8,2-7.5,2c-17.8,0-35.6,0.1-53.4-0.1
	c-2.9,0-6.6,0.8-7.7-3.5C251.4,318.2,251.6,317.5,252.4,317.1z"/>
<path class="st100" d="M312.4,342.1c7.1-2.1,13.6,1.5,20.3,2.4c6.9,0.9,13.7,2.4,20.3,4.1c3.3,0.9,5.3-1.9,8.5-1.7
	c6.6,0.5,13.3,0.1,19.9,0.2c2.7,0,5.3-0.3,7.8-1c1,1.7,2.1,3.5,3.1,5.2c-0.1,1.1-0.9,1.5-1.8,1.8c-9.4,0.8-18.8,0.4-28.2,0.2
	c-1.3,0-2.5-1-3.9-0.3c-0.7,1-0.7,2.6-2.3,2.9c-4.1,0.7-7.8-1.1-11.7-1.6c-11.5-1.7-22.8-4.1-34-6.9
	C309,344.9,310.2,343.3,312.4,342.1z"/>
<path class="st101" d="M382.4,333.1c-7.3-1.2-14.7-2.7-21.7,1.2c-2.1,1.1-4.1,0.8-6.2,0.4c-12-2.3-23.9-5.1-36-6.5
	c-1.3-1.9-0.2-3.3,0.9-4.7c2.8-2.4,5.9-1.7,9-1c8.6,1.8,17.3,3.3,25.9,5.2c3,0.7,5.6,0.7,8.4-1.3c4.1-2.9,13.3-2,16.8,0.9
	C381,328.8,382,330.8,382.4,333.1z"/>
<path class="st102" d="M379.4,327.1c-6.1-0.7-12.5-3.6-17.9,2.2c-1,1.1-2.4,0.8-3.7,0.5c-10.3-2.2-20.7-4.3-31.1-6.4
	c-2.5-0.5-5-0.6-7.3,0.7c-0.2-0.2-0.3-0.4-0.5-0.5c-0.8-1.9,0.7-3.1,1.5-4.5c1.6-2.9,4.2-2,6.6-1.6c9.4,1.7,18.8,3.9,28.2,5.5
	c2.7,0.5,5,0.2,7.6-1c4.3-1.9,8.9-2,13.5-0.9C376.8,323.3,379.5,324.5,379.4,327.1z"/>
<path class="st103" d="M376.4,321.1c-2.4,0.7-4.8,1.2-7.3,1c-2.6-0.1-4.9,0-7.2,2.2c-2.9,2.6-6.7,0-10-0.4
	c-8.8-1.3-17.5-3.3-26.2-5.2c-1.9-0.4-3.6-0.4-5.2,0.5c-0.6-5.1,2.7-5.6,6.3-4.9c10.4,1.9,20.8,3.9,31.1,6.3
	c2.6,0.6,4.7,0.8,6.2-1.4c2.5-3.5,6.9-0.4,9.5-3C374.4,317.7,375.4,319.4,376.4,321.1z"/>
<path class="st104" d="M391.5,352.1c0.3-0.3,0.6-0.5,1-0.8c0.3,0,0.6,0,0.9-0.1c1.4,1.2,0.3,2.3-0.1,3.5c-1.3,0.9-2.2,2-2.8,3.4
	c-2.1,1.7-3.7,3.7-5,6c-1.3,0.6-2.2,2.6-4,0.9c-0.8-1.8,0.8-2.8,1.4-4.2c1.4-1.9,3.4-3.4,4.7-5.4C388.4,353.8,389.9,353,391.5,352.1
	z"/>
<path class="st29" d="M373.4,602c-0.2-3.9,2.7-3,4.9-3c20.7,0,41.4,0,62.1,0c0.2,3.9-2.8,3-4.9,3c-18.1,0-36.2,0.1-54.3,0
	c-2.7,0-5.3,0.3-7.8,1C373.4,602.7,373.4,602.3,373.4,602z"/>
<path class="st105" d="M442.3,581c0,0.7,0.1,1.3,0.1,2c-0.4,4.3-0.8,8.7-1.2,13c-0.3,0.3-0.6,0.6-0.9,1c-2-1.2-4.1-1-6.3-1
	c-18.3,0-36.6,0-54.9,0c-6.8,0-6.8,0-6.8-7c2.2-1.9,5-1.5,7.6-1.5c17.7,0,35.4-0.1,53.1,0c3.6,0,6.6-0.4,7.2-4.8
	C440.7,581.8,441.1,580.9,442.3,581z"/>
<path class="st106" d="M234.4,461c-7.6-6-15-12.2-18-22c1.3-1.4,2.9-1.5,4.6-1.5c28.3,0.1,56.5-0.2,84.8,0.1
	c1.2,0.1,2.2,0.4,3.2,1.1c2.1,1.6,3.8,3.7,5.8,5.5c1.4,1.5,2.8,2.9,4.3,4.3c1.7,1.9,3.8,3.3,5,5.6c0.2,0.5,0.2,0.9,0.2,1.4
	c-3.8,9.5-9.5,17.9-14.4,26.7c-2.5,4.5-4.9,9.1-7.5,13.5c-1,1.7-1.7,3.7-4,4.2c-8.2-2.7-14.8-8.1-22-12.5
	c-10.1-6.1-20-12.4-29.9-18.6C242,467,237.8,464.7,234.4,461z"/>
<path class="st7" d="M298.4,500c8.6-14.8,17.3-29.6,25.1-44.9c1.8-0.8,2.8,0.8,4.1,1.3c0.9,0.6,1.7,1.4,2.5,2.1
	c1.4,1.4,2.8,2.8,4.5,3.8c0.9,0.7,1.7,1.4,2.5,2.2c2.6,2.8,5.6,5.3,8,8.4c1.1,2.1,2.3,4.1,3,6.4c0.1,0.7,0.1,1.5-0.5,2.1
	c0.9,7-0.6,13.5-4.4,19.4c-1.4,3.6-3.8,6-7.8,6.3c-8.2,3.4-16.1,3-24-1.1C307.2,503.9,302.7,502,298.4,500z"/>
<path class="st3" d="M234.4,461c4.5,2,8.4,4.6,12,7.9c-9.6,0-18.5,3.3-28.1,6.3c2.9,2.7,5.9,3.5,8.6,5c4.1,2.2,5.8,5.6,3.9,8.3
	c-2.4,3.5-5.2,1.7-7.8,0.3c-10.2-5.5-20.6-10.1-32.5-9.9c-10.7,0.2-20,4.4-28.4,10.7c-2.1,1.6-4.1,3.4-6.2,4.9
	c-2.2,1.6-4.2,1.5-6.1-0.7c-1.9-2.2-1.9-4.1,0.2-6.1c14.3-13.6,30.8-20.6,50.8-17.2c2.8,0.5,5.1,0,7.7-1.2
	C216.9,465.9,225.4,462.6,234.4,461z"/>
<path class="st100" d="M234.3,357c0.4-3.4,2-6.3,4-9c1.5-1.2,3.3-1.5,5.2-1.5c20.6-0.1,41.2-0.1,61.8,0c1,0,2,0.2,2.9,0.5
	c0.9,0.4,1.6,0.9,1.8,1.9c0.1,2.2-1.1,3.9-2,5.7c-0.9,1.6-2,3-4,3.5c-5.1,0.9-10.3,0.4-15.4,0.5c-15.6,0.1-31.2,0.1-46.8,0
	C239.3,358.6,236.5,359.1,234.3,357z"/>
<path class="st107" d="M443.4,558c0,2-0.1,4-0.1,6c-0.6,1-0.6,2.5-2,2.9c-1.9,0.7-3.9,0.6-5.9,0.6c-21.1,0.3-42.3-0.6-63.4,0.5
	c-0.7,0-1.3-0.2-1.9-0.4c-2.5-2.1,0-5.3-1.7-7.6c-1.5-8.3-2.7-16.6-2.9-25c2-0.1,1.8,1.6,2.2,2.7c0.1,1.6,0.4,3.2,0.8,4.8
	c0.4,1.4,0.4,2.8,0.5,4.3c1.8,9.6,1.8,9.6,11.5,9.6c18.5,0,37,0,55.5,0C438.4,556.5,441.2,556,443.4,558z"/>
<path class="st17" d="M368.3,560c2.1,2,0.6,4.7,1.1,7c2.8,5.6,7.7,5.6,13,5.5c17.3-0.2,34.7-0.1,52-0.1c2.5,0,5-0.3,7.4,0.9
	c0.2,0.2,0.4,0.4,0.7,0.7c0,2.3-0.1,4.6-0.1,7c-0.3,0.3-0.6,0.7-1,1c-1.6,1.5-3.6,1.6-5.6,1.6c-19.7,0.1-39.4,0.1-59.1,0
	c-1.5,0-3-0.1-4.4-0.7c-2.3-1-0.7-3.5-2-4.9C368.9,572.1,368.3,566.1,368.3,560z"/>
<path class="st108" d="M309.4,348.1c-23.7,0-47.4,0-71.1,0c0.4-3.4,2-6.3,4-9c1-0.7,2.2-0.8,3.3-0.8c21.3,0.4,42.6,0.2,63.9,0.2
	c1.3,0,2.7-0.1,3.9,0.6c-0.3,1-0.7,2-1,3c-0.7,1.7-1.3,3.3-2,5C310.6,348,310.3,348.3,309.4,348.1z"/>
<path class="st109" d="M313.4,339.1c-2,1.2-4.2,1-6.3,1c-19,0-37.9,0-56.9,0c-2.7,0-5.3-0.3-7.8-1.1c0.2-2.7,1.3-5,3-7
	c2.1-1.7,4.6-1.6,7.1-1.6c18.9,0,37.9,0,56.8,0c2.4,0,5-0.4,7.1,1.6c-0.7,1.7-1.3,3.3-2,5C314.1,337.7,313.7,338.4,313.4,339.1z"/>
<path class="st110" d="M223.4,383c0.3-0.7,0.5-1.3,0.8-2c1.2-2.8,3.1-4.5,6.4-4.5c20.3,0,40.6-0.2,60.9,0.1c2,0.8,1.7,2.5,0.9,3.7
	c-1.6,2.6-2.5,5.9-6,6.9c-19.7,0.6-39.4,0.2-59.2,0.2C224.6,387.4,222,386.8,223.4,383z"/>
<path class="st102" d="M316.4,332.1c-23.7,0-47.3,0-71,0c0-0.8,0.2-1.5,1-2c1.5-5.1,4.9-6.7,10.1-6.6c19.7,0.2,39.4,0.2,59.1,0
	c1.3,0,2.7,0,3.9,0.6l0,0c-0.3,1.3-0.7,2.7-1,4C317.7,329.4,317.1,330.7,316.4,332.1z"/>
<path class="st111" d="M228.3,371c0.3-2.6,1.4-4.9,3-7c1.5-4.3,5.1-4.5,8.9-4.5c20.5,0,41.1,0.1,61.6-0.1c0.6,0,1.2,0.2,1.7,0.5
	c0.8,1.1,0.5,2.2-0.1,3.3c-0.4,0.8-0.9,1.5-1.4,2.1c-0.7,1-1.7,1.6-2.9,1.9c-9.3,0.9-18.6,0.3-27.9,0.4c-11,0.1-21.9,0-32.9,0.1
	c-2.8,0-5.8-0.3-7.6,2.5C230.1,370.8,229.3,371.4,228.3,371z"/>
<path class="st112" d="M215.4,436.1c-1.2-1.4-1.6-3.2-1.8-5c0.6-0.3,1.2-0.5,1.9-0.5c27.9,0.1,55.7-0.3,83.6,0.2
	c1.3,0.1,2.5,0.6,3.5,1.4c1.2,1.1,2.5,2.1,2,4c-0.5,0.5-1,0.8-1.6,1c-1.6,0.5-3.3,0.4-4.9,0.4c-25.4,0-50.7,0-76.1,0
	C219.7,437.5,217.3,437.8,215.4,436.1z"/>
<path class="st113" d="M212.5,424.1c0.2-4-1-8.1,0.9-12c1.7,1.6,1.3,3.9,1.7,5.9c1.1,2.5,3.4,1.6,5.3,1.6c20.5,0.1,40.9,0,61.4,0
	c2.3,0,4.7-0.1,7,0.3c2.5,1.2,5.9,1.7,4,5.9c-1.7,0.9-3.5,0.8-5.4,0.9c-22.6,0-45.3,0-67.9,0c-1.7,0-3.3,0-4.9-0.6
	C213.6,425.7,213,425,212.5,424.1z"/>
<path class="st114" d="M366.4,538c-0.1-1.1,0.2-2.2-1-3c0-0.7-0.1-1.4-0.1-2c1.1-0.7,2.2-0.4,3.4-0.4c22.9,0.1,45.7,0,68.6,0
	c2.4,0,5-0.5,7.2,1.3c0.4,4.8-0.1,5.6-5.4,5.7c-10.8,0.2-21.5,0.1-32.3,0.1c-11.1,0-22.2,0-33.3,0C371,539.6,368.5,539.9,366.4,538z
	"/>
<path class="st103" d="M319.4,324.1c-2,1.2-4.1,1-6.3,1c-18.8,0-37.5,0.1-56.3-0.1c-4.6-0.1-8.4,0.4-10.5,5.1
	c0.7-4.1,2.7-7.6,5.1-11c1.7,2.1,4,2,6.4,2c18.7,0,37.5-0.1,56.2,0c2.5,0,4.5-0.6,6.4-2.1C320.1,320.7,319.7,322.4,319.4,324.1z"/>
<path class="st115" d="M213.4,418c0-2,0-4,0-6c0.1-1.4-0.4-2.9,1-4c1,0.8,1.4,1.9,1.7,3.1c1.3,2.4,3.5,1.4,5.4,1.4
	c17.8,0.1,35.6,0,53.5,0c2.2,0,4.3-0.1,6.5,0.2c2,0.3,3.5,1.3,4.7,2.9c0.7,1.3,0.9,2.4-0.7,3.2c-1.9,0.8-3.9,0.6-5.9,0.6
	c-19.6,0-39.3,0-58.9,0C218.1,419.5,215.5,419.9,213.4,418z"/>
<path class="st116" d="M303.4,360.1c-1.9,1.2-4.1,1-6.3,1c-19.5,0-39.1,0.1-58.6-0.1c-3,0-5.5,0.5-7.3,3c0.3-2.6,1.4-4.9,3.1-7
	c23.7,0,47.4,0,71.1,0c0.3,0.3,0.4,0.7,0.3,1.1C305.2,359.2,304.5,359.9,303.4,360.1z"/>
<path class="st117" d="M228.3,371c0.4-0.3,0.8-0.6,1.1-1c1.7-1.2,3.6-1.6,5.6-1.6c19.2,0,38.4-0.1,57.7,0c1.3,0,2.6,0.2,3.9,0.7
	c2,1.2,1.4,2.7,0.4,4.2c-0.7,0.8-1.5,1.3-2.4,1.6c-3.4,0.8-7,0.5-10.4,0.6c-19.3,0.2-38.6-0.4-57.9,0.4
	C226.4,374.2,227,372.4,228.3,371z"/>
<path class="st118" d="M226.3,376.1c1.7-2.1,3.9-2,6.3-2c20.9,0,41.9,0,62.8,0c1.2,2.4-0.6,2.7-2.1,3.2c-0.2,0-0.5,0-0.7,0
	c-2.1,0.7-4.2,0.8-6.4,0.8c-18.2,0-36.5,0.1-54.7-0.1c-3,0-5.5,0.6-7.3,3C224.4,379.2,225,377.4,226.3,376.1z"/>
<path class="st119" d="M215.4,436.1c29.6,0,59.3,0,88.9,0c2.3-0.3,3.3,0.7,3,3c-30.3,0-60.6,0-90.9,0
	C215.3,438.3,215.5,437.2,215.4,436.1z"/>
<path class="st10" d="M335.4,507.2c2.6-2.1,5.2-4.2,7.8-6.3c3.4,6.6,9.1,11.6,12.7,18.1c0.6,1.2,1.4,2.2,2.1,3.3
	c1.6,2.5,0.5,4.4-1.5,6c-1.9,1.5-3.8,0.9-5.2-0.9c-3.8-4.7-7.5-9.6-11.3-14.4C338.5,511.1,336.9,509.1,335.4,507.2z"/>
<path class="st120" d="M212.5,424.1c0.3,0.3,0.6,0.7,0.9,1c2.5,3,6,2.4,9.3,2.4c22,0.1,43.9,0,65.9,0c2.5,0,5-0.1,7.5,0.3
	c1.2,0.1,2.3,0.5,3.3,1.3c0.8,0.8,1.6,1.7,0.9,3c-26.8,0-53.6,0-80.4,0c-2.1,0-4.4,0.3-6.3-1C212.8,428.8,212.1,426.5,212.5,424.1z"
	/>
<path class="st121" d="M220.4,390.9c0.1-1.9,0.7-3.6,2-5.1c1.6,2,3.8,1.7,5.9,1.7c16.7,0,33.5,0,50.2,0c2.6,0,5.5-0.5,6.8,2.8
	c0.3,2.3-0.7,3.8-3,4.3c-18.2-0.3-36.4,0-54.7-0.1c-2.3,0-4.7,0.3-6.8-1C219.8,392.8,219.9,391.9,220.4,390.9z"/>
<path class="st122" d="M220.4,390.9c0,0.7,0,1.4,0.1,2.1c1.3,2.1,3.5,1.5,5.4,1.5c16.2,0.1,32.4,0,48.6,0.1c2.5,0,5.5-0.5,6.7,2.8
	c0,2.2-0.8,3.8-3.1,4.2c-17.9,0-35.8,0.1-53.8,0c-5.8,0-6.4-0.8-5.8-5.6C218.4,394.1,219,392.4,220.4,390.9z"/>
<path class="st123" d="M218.4,396c-0.5,3.5,1.3,4.1,4.4,4.1c16.7-0.1,33.5-0.1,50.2,0c1.9,0,4-0.8,5.5,1.2c0.8,2.8-0.4,4.1-3.1,4.3
	c-17.7-0.1-35.4,0.1-53.2-0.1c-2.3,0-6.1,1.3-5.8-3.5C216.5,399.8,217,397.8,218.4,396z"/>
<path class="st124" d="M214.4,411c0-1,0-2,0-3c0-1.1-0.1-2.3,1-3.1c1.9,0.8,3.9,0.6,5.9,0.6c15.3,0,30.6,0,46,0
	c2.3,0,4.7-0.1,6.9,0.7c0.6,0.2,1.1,0.5,1.7,0.8c1,1.6,6,1.2,2.4,5c-1.3,0.5-2.6,0.5-3.9,0.5c-18.1,0-36.2,0-54.2,0
	C218,412.5,216,412.5,214.4,411z"/>
<path class="st125" d="M284.4,391.1c-0.6-3-3-2-4.8-2c-17.5-0.1-35.1,0-52.6,0c-2.3,0-4.9,0.4-4.7-3.2c0.1-1.1,0.1-2.1,1.1-2.9
	c-0.2,3.8,2.6,3.1,4.8,3.1c19.7,0,39.5,0,59.2,0C287.8,388.6,287.3,390.5,284.4,391.1z"/>
<path class="st126" d="M449.3,506c-4.1-3.7-1.1,2.5-2.8,2c-1.4,1.1-3,1.3-4.7,1.3c-25,0-49.9,0.1-74.9,0c-0.8,0-1.7-0.1-2.5-0.4
	c-1-0.3-1.6-1.1-2.1-2c-1.1-2.6-1-5.3-0.9-8c0.5-0.3,0.9-0.3,1.3,0.1c0.5,0.6,0.7,1.3,0.9,2.1c0.3,1,0.4,2,1.2,2.8
	c1.4,0.8,2.9,0.6,4.4,0.6c23.6,0,47.2,0,70.9,0c1.3,0,2.7,0.1,3.9-0.5c0.8-0.6,1.1-1.7,1.6-2.5c0.3-0.4,0.6-0.7,1.1-0.9
	c0.8,0,1.3,0.5,1.6,1.2c0.4,0.7,0.7,1.4,1.1,2.2c0.3,0.3,0.7,0.7,1,1c0,0.3,0,0.7,0,1C450,506.5,449.7,506.5,449.3,506z"/>
<path class="st127" d="M275.4,408c-2-1.2-4.2-1-6.3-1c-16.3,0-32.6,0-48.9,0c-1.8,0-4.2,1-4.8-2c0-1.1,0-2.2,1-3c0.6,3,3,2,4.8,2.1
	c16.7,0.1,33.4,0,50.1,0.1c1.7,0,3.7-0.7,5.2,1C277.1,406.4,276.5,407.3,275.4,408z"/>
<path class="st128" d="M362.4,507.1c0.4,0.3,0.7,0.6,1.1,1c0.5,0.6,1,1.2,1.2,2c0.2,0.8,0.6,1.5,1.3,2c2.1,1,4.3,0.6,6.4,0.6
	c23,0,46.1,0,69.1,0c1.6,0,3.3-0.3,4.9,0.4c0,1-0.1,2-0.1,3c-0.5,0.5-1,0.8-1.7,1c-5.8,0.8-11.6,0.3-17.4,0.3
	c-18.9,0.1-37.8,0-56.7,0c-2.6,0-5.4,0.4-7.2-2.4C362,512.5,362.5,509.7,362.4,507.1z"/>
<path class="st129" d="M445.5,524.1c0,0.7-0.1,1.3-0.1,2c-1.5,1.3-3.3,1.5-5.1,1.5c-23.8,0-47.5,0-71.3,0c-1,0-2-0.1-2.9-0.4
	c-0.6-0.3-1.2-0.6-1.7-1.1c-0.9-2.9-1.2-5.9-1-9c0.9-0.3,1.3,0.3,1.7,0.9c0.3,0.7,0.5,1.4,0.6,2.2c0.2,0.8,0.6,1.4,1.3,1.9
	c2.1,0.8,4.3,0.5,6.4,0.5c21.6,0,43.3,0,64.9,0C440.8,522.7,443.5,522,445.5,524.1z"/>
<path class="st130" d="M364.4,526c0.3,0,0.6,0,1,0c0.8,0.9,1.4,1.9,1.8,3.1c1.5,2.3,3.9,1.4,5.9,1.4c21.4,0.1,42.8,0,64.1,0.1
	c2.4,0,5-0.6,7.1,1.5c0.3,0.7,0.6,1.3,0.9,2c-0.3,0.5-0.6,0.5-0.9,0c-24.3,0-48.5,0-72.8,0c-2.2,0-4.3,0.2-6.3-1
	C363.9,530.8,364.6,528.4,364.4,526z"/>
<path class="st131" d="M364.4,518c-0.3-0.3-0.6-0.6-1-1c-0.1-0.7-0.1-1.3-0.2-2c2.1,1.2,4.5,1,6.8,1c25.1,0,50.2,0,75.3,0
	c0.6,1,0.5,1.9-0.5,2.6c-1.9,1-3.9,0.8-5.9,0.8c-22.7,0-45.3,0-68,0C368.8,519.4,366.4,519.8,364.4,518z"/>
<path class="st132" d="M347.7,481.4c-0.1-0.7-0.2-1.4-0.4-2.1c-0.2-1.9-2.3-4.2,0.6-5.6c3.1-1.6,6.1-1.4,8.2,1.8
	c1.3,4.4,4.3,8.6,2.2,13.6C354.7,486.6,351.2,484,347.7,481.4z"/>
<path class="st133" d="M358.3,489.1c-1-4.4-2-8.8-3-13.2c-0.4-1.1-0.9-2.3,0.4-3.1c1.3-0.8,2.1,0.1,2.9,1c0.3,0.4,0.5,0.8,0.7,1.3
	c0.4,1.6,0.4,3.2,1,4.8c0.3,1.3,0.6,2.6,1,3.9c0.3,1.3,0.5,2.6,0.9,3.8c0.3,1.1,0.4,2.2,0.2,3.3c-0.1,0.4-0.4,0.8-0.7,1.2
	c-0.4,0.2-0.8,0.2-1.3,0C358.9,491.7,358.8,490.3,358.3,489.1z"/>
<path class="st105" d="M370.3,578c1.5,1,0.9,2.6,1.1,4c1.3,1.8,2.4,3.7,1,6c-0.3,0-0.7,0-1,0C369.8,584.8,370.6,581.4,370.3,578z"/>
<path class="st81" d="M360.3,492.2c0.4-0.1,0.7-0.2,1.1-0.2c1.7,2.2,2.3,4.5,1,7.1l-0.5,0c0,0-0.5,0-0.5,0
	C360.3,496.9,360.7,494.5,360.3,492.2z"/>
<path class="st134" d="M372.4,588c-0.3-2-1.4-3.9-1-6c23.3,0,46.6,0,70,0c0,7,0,7-6.9,7c-20.7,0-41.4,0-62.1,0
	C372.4,588.7,372.4,588.3,372.4,588z"/>
<path class="st135" d="M551.2,70.8c-0.7,3.6-3.3,6.7-6.6,7.8c-4.2,1.5-7.4-2.1-9.9-5c-1.3-1.6-3.2-3.7-1.4-6.2
	c1.8-2.6,4.1-2.5,6.5-0.9c1.6,1,2.8-0.1,4.2-0.5C547.4,64.7,551,67,551.2,70.8z"/>
<path class="st136" d="M407.3,396.1c5.2,2,10.5,3.7,16.1,4.1c0.7,1.8-0.3,1.9-1.7,1.9c-18.4,0-36.9,0-55.3,0c-1.2,0-3.4,0.1-2.3-1.9
	c2.7-5-1.7-4.4-3.8-4.8c-13.8-2.6-27.6-4.8-41.4-7.3c-8.8-1.6-17.5-3.3-26.2-5c-0.8-2.7,0.5-4.6,2.4-6.3c8.8,0.6,17.3,2.3,26,3.3
	c5.1,0.6,10.1,1.3,15.2,1.9c9.8,1.3,19.6,2.9,29.5,3.9c2.2-0.2,2.2,2.7,4,3c0.2-0.4,0.4-0.7,0.5-1.1c1.9,0.8,3.8,1.5,5.9,1.3
	c4.2,1.5,8.5,2.6,13,3C395.2,394.1,401.2,395.3,407.3,396.1z"/>
<path class="st137" d="M372.4,413c0,0.3,0,0.7,0,1c-0.4,0.3-0.7,0.8-1.2,0.8c-9.9,0.2-19.8,2.9-29.5,1.6c-17.3-2.3-34.3-5.9-51.5-9
	c-3.4-0.6-6.9-1.2-10.4-1.2c-1.5-4.9,1.6-7.6,4.9-10.3c5.9-0.9,11.5,1.3,17.2,2.2c15.7,2.7,31.5,5.4,47.2,8.3
	c3.7,0.7,7.7-0.2,11.3,1.4c1.3,0.3,2.7,0.7,4,1C366.5,411.4,369.7,411.7,372.4,413z"/>
<path class="st55" d="M360.4,408c-8.5,2-16.6-1.1-24.8-2.5c-15.7-2.6-31.4-5.6-47.1-8.4c-1.3-0.2-2.6,0-4,0c-0.3-3.3,0.4-6,4-7
	c22,3.9,44,8,66,11.7C358.8,402.5,360.7,403.8,360.4,408z"/>
<path class="st138" d="M288.6,390.1c-1.9,2-3,4.5-4,7c-2.2,2.7-3.9,5.7-5.2,9c-0.3,2.5-1.6,3.1-3.8,1.9c0,0-0.1,0.1-0.1,0.1
	c0.3-1,0.7-2,1-3c1.1-1,1.8-2.3,2.1-3.7c1-0.8,1.6-1.9,1.9-3.2c0.9-1.2,0.2-3.2,2.1-3.8c1-0.8,1.7-1.9,1.9-3.2
	c1.4-1.5,2.3-3.2,3-5.1c2.1-2.7,3.8-5.6,5.2-8.8c0,0-0.1,0-0.1,0c0.6-0.9,1.3-0.8,2-0.1c0.6,2.3-1.5,3.9-1.9,5.9
	C290.9,385.2,289.5,387.5,288.6,390.1z"/>
<path class="st139" d="M413.4,430.9c2,1,4,2.1,6,3.1c2.3,1.7,4.7,3.3,7,5c0.4,0.9-0.2,1.3-1,1.7c-2.2,0.4-3.8-0.7-5.4-1.8
	c-2.7-2.3-5.8-3.6-9-5c-2.2-0.8-4.5-1.1-6.3-2.7c-1.9-1.3-4.4-1.4-6.1-3.2c-4.1-3.1-9-4.8-13.5-7.2c-1.4-1.1-3.8-1.2-3.7-3.8
	c3.3-2.3,5.2,1.7,7.9,1.8c5.3,2.7,10.7,5.4,16,8.1C408.1,428.2,410.7,429.6,413.4,430.9z"/>
<path class="st140" d="M425.1,440.2c0.4-0.4,0.8-0.8,1.3-1.2c0.3,0,0.7,0,1,0c1.6,2.2,3.7,3.8,5.9,5.3c2,2.6,4.1,5.1,6.1,7.7
	c1.7,3,3.3,6,5,9c0.3,0.7,0.6,1.5,0.9,2.2c0.3,2.1,0.8,4.2,2,6c0.4,3.9,0.8,7.7,1.2,11.6c0.7,3.8,0.2,7.7,0.3,11.5
	c-0.1,0.7-0.5,1-1.1,1c-0.5-0.3-0.9-0.7-1.2-1.2c-1.2-4.3,0.1-8.8-0.9-13.1c-0.1-0.5-0.2-1-0.3-1.5c-0.2-1.8-0.1-3.8-1.5-5.3
	c-0.4-0.8-0.6-1.7-0.8-2.6c-0.2-2-1.7-3.6-1.9-5.6c-0.2-0.8-0.4-1.6-0.8-2.4c-0.5-1.1-1.1-2.2-1.6-3.3c-0.6-1.3-1.2-2.6-2.1-3.8
	c-0.4-0.5-0.8-1-1.1-1.6c-1.3-2.1-3.2-3.7-4.8-5.5c-1.4-1.8-3.4-3-4.8-4.7C425.4,442,424.9,441.2,425.1,440.2z"/>
<path class="st141" d="M448.4,493c0-4.1,0.1-8.2,0.2-12.3c0.2,0.2,0.5,0.3,0.8,0.4c0,4,0,7.9,0,11.9
	C449,493.4,448.7,493.4,448.4,493z"/>
<path class="st142" d="M448.4,493c0.3,0,0.6,0,0.9,0c0,1,0,2,0,3c-1.2,1.5,0.2,3.5-1,5c0,0.3,0,0.5-0.1,0.8c-0.3-0.3-0.7-0.6-1-0.8
	c-1.8-2.7-1.9-5.3,0-8C447.7,493,448,493,448.4,493z"/>
<path class="st143" d="M448.4,501c0.2-1.7-0.7-3.6,1-5c0,1.7,0,3.3,0,5C449,501,448.7,501,448.4,501z"/>
<path class="st144" d="M381.4,417c1.3,1,2.7,2,4,3c-1.3,2.6-3.8,2.4-6,2.5c-6,0.1-12-0.5-17.9,0.1c-25.8,2.6-50.9-1.9-76.1-6.6
	c-1-0.7-2-1.4-3-2.1c-1.1-0.9-2.8-1.2-3-3c-0.4-2.1-3.2-1.3-3.9-3.1c2,0.8,2.7-0.9,3.8-1.9c2.1-2.1,4.7-1.2,7-0.8
	c19.5,3.5,39,7.1,58.4,10.8c3.8,0.7,6.5-2.1,10.1-2c5.8,0.2,11.6,0.1,17.5,0.1C375.6,414.3,378,417.4,381.4,417z"/>
<path class="st145" d="M383.8,361.2c-0.8,1.3-1.6,2.6-2.4,3.8c-4.7,0-9.4,0-14,0c-0.3,0.3-0.6,0.6-1,0.8c-3.3-1.5-4.5-3.8-2.5-7.1
	c4.6,0.8,9.2,0.8,13.9,0.8C379.9,359.6,382.2,359.3,383.8,361.2z"/>
<path class="st146" d="M369.8,388.9c-3.6,3.2-0.9-2.3-2.5-1.9c-0.3-0.4-0.6-0.8-0.8-1.3c-0.7-2.4,0-5-0.9-7.4
	c-0.1-0.5-0.2-1-0.3-1.5c-0.1-1.3-0.1-2.5,0.3-3.8c0.4-1.2,0.7-2.5,1.9-3.2c0.3,0.4,0.7,0.7,1,1.1c0.3,1.3,0.6,2.7,0.9,4
	c0.2,2.3,0.3,4.7,0.5,7C369.9,384.3,369.9,386.6,369.8,388.9z"/>
<path class="st147" d="M363.3,359.1c1,2.3,2.1,4.6,3.1,6.8c0,0.4,0,0.8-0.1,1.2c-0.4,0.9-1,1.5-2.1,1.3c-0.6-0.3-1.1-0.7-1.5-1.3
	c-0.7-1.5-1.1-3.2-2.4-4.4c-0.9-1-1.3-2.3-1.7-3.5c-0.1-0.7-0.1-1.4,0.1-2c0.3-0.7,0.9-1.1,1.6-1.3
	C362.5,355.9,363.3,357.1,363.3,359.1z"/>
<path class="st148" d="M364.5,368.1c0.6-0.3,1.2-0.7,1.9-1c0.4,1,0.7,1.9,1.1,2.9c-0.3,1.1,0.1,2.4-1.1,3.1c-0.7-0.1-1.1-0.5-1.5-1
	c-0.5-0.9-0.7-1.9-0.9-2.9C364,368.7,364.2,368.3,364.5,368.1z"/>
<path class="st149" d="M452.4,511c25,0,49.9,0,74.9,0c-0.3,2.6-2.2,2-3.8,2c-22.4,0-44.8,0-67.3,0C454.7,513,452.7,513.5,452.4,511z
	"/>
<path class="st150" d="M449.3,506c0.3,0,0.7,0,1,0c1.6,1.7,3.8,1,5.7,1c23.4,0.1,46.8,0.1,70.2,0.1c-0.6,3.1-3.1,1.9-4.8,1.9
	c-23.7,0.1-47.4,0.1-71.1,0.1C450,508,449.7,507,449.3,506z"/>
<path class="st53" d="M443.4,558c-23.1,0-46.2-0.1-69.3,0.1c-3.9,0-6.4-0.4-5.9-5.2c0.3-2.2-0.6-4.6-0.9-6.8
	c1.9-1.7,4.3-1.6,6.6-1.6c21.2,0,42.5,0,63.7,0c2.3,0,4.7-0.1,6.6,1.6C444.2,550,445,554.1,443.4,558z"/>
<path class="st151" d="M444.4,534c0.3,0,0.6,0,0.9,0c0,2.7,0.4,5.4-0.8,8c-1.9,1.7-4.3,1.6-6.6,1.6c-21.3,0-42.5,0-63.8,0
	c-2.3,0-4.7,0.1-6.6-1.6c-1.4-1.1-0.9-2.6-1-4c24.4,0,48.7,0,73.1,0C442.4,538.1,445,538.1,444.4,534z"/>
<path class="st86" d="M367.4,542c25.7,0,51.4,0,77.1,0c0,1.3-0.1,2.7-0.1,4c-25.6,0-51.3,0-76.9,0
	C367.4,544.7,367.4,543.4,367.4,542z"/>
<path class="st152" d="M365.4,529c0-1,0-2,0-3c26.7,0,53.4,0,80,0c0,1-0.1,2-0.1,3c-1.8,1.6-4,1.5-6.1,1.5c-22.6,0-45.1,0-67.7,0
	C369.4,530.5,367.2,530.6,365.4,529z"/>
<path class="st73" d="M365.4,529c26.6,0,53.3,0,79.9,0c0.3,1.2-0.5,2.1-1,3c-24.4,0-48.8,0-73.2,0C368.8,532,365.8,532.9,365.4,529z
	"/>
<path class="st153" d="M445.4,518c0-0.7,0-1.3,0-2c0.3,0,0.6,0,0.9,0c0,2.7,0.6,5.4-0.7,8c-25,0-49.9,0-74.9-0.1
	c-2.2,0-4.8,0.9-6.1-2c2.1-1.9,4.7-1.4,7.2-1.4c21.8,0,43.6,0,65.5,0c2.1,0,4.4,0.4,6.4-0.8C444.1,519.3,444.8,518.7,445.4,518z"/>
<path class="st154" d="M363.4,512c0-0.7,0-1.3,0-2c1.6-1.3,3.5-1,5.3-1c24.1,0,48.3,0,72.4,0c1.8,0,3.7-0.3,5.3,1c0,0.7,0,1.3-0.1,2
	c-1.8,1.2-3.8,1-5.8,1c-23.8,0-47.6,0-71.3,0C367.3,513,365.2,513.3,363.4,512z"/>
<path class="st155" d="M446.4,510c-27.7,0-55.3,0-83,0c0-0.7,0-1.3,0-2c27.7,0,55.4,0,83.1,0.1C446.5,508.7,446.5,509.4,446.4,510z"
	/>
<path class="st149" d="M363.4,512c27.6,0,55.3,0,82.9,0c0,0.3,0,0.7,0,1c-1.8,1.1-3.8,1-5.8,1c-23.8,0-47.6,0-71.4,0
	C367,514,364.6,514.7,363.4,512z"/>
<path class="st17" d="M442.4,566c0-0.8,0.2-1.5,1-2c-0.2,3.4,0.8,6.8-0.9,10c0,0-0.1-0.1-0.1-0.1C440.5,571.3,440.5,568.7,442.4,566
	z"/>
<path class="st156" d="M359.4,357c0.1,0.6,0.2,1.3,0.3,1.9c-1.6,1.8-3.6,1.4-5.6,1c-13.5-2.7-26.9-5.2-40.4-7.9
	c-1.6-0.3-3.3-0.6-4.4-2c0-0.7,0-1.3,0-2c0.3-0.3,0.7-0.7,1-1c7.2-0.6,13.8,2.4,20.8,3.5c8.8,1.4,17.4,3.5,26.3,4.5
	C359.1,354.8,359.2,356,359.4,357z"/>
<path class="st157" d="M363.3,359.1c-0.9-1.1-1.8-2.2-2.7-3.3c-1.8-0.7-2.2-2.5-3.2-3.9c1.1-1,2.1-1,3,0.2c1.2,0.9,2.4,1.7,3.8,2.4
	c7.5,0.9,15.1-0.4,22.6,0.6c0.6,0.2,1,0.5,1.4,1c-1.4,1.7-2.9,3.4-4.3,5.2c-4.6,0-9.1-0.2-13.7-0.1
	C367.5,361.2,365.3,360.6,363.3,359.1z"/>
<path class="st82" d="M388.2,356c-0.3,0-0.5,0-0.8,0c-6.2-1.1-12.4-0.1-18.7-0.5c-2.1-0.1-4.3,0.5-6.3-0.5c-0.7-1-1.3-2-2-3
	c10.3,0,20.7,0,31,0C390.4,353.4,389.3,354.7,388.2,356z"/>
<path class="st158" d="M357.4,351.8c2.5,0.1,2.6,2.2,3.2,3.9c-0.4,0.4-0.8,0.9-1.1,1.3c-0.6-0.7-1.3-1.3-1.9-2
	C358,353.9,356.1,352.9,357.4,351.8z"/>
<path class="st159" d="M431.7,446.9c2,1.8,4,3.5,4.8,6.1c-1.2,0.8-2.6,0.5-3.9,0.5c-33.3-0.1-66.6,0-99.9,0c-3.2,0-6.3,0.2-9.4,0.8
	c-1.9-1.4-3.7-3-5-5c-0.2-2.5,1.6-3.1,3.4-3.5c1.8-0.4,3.6-0.3,5.5-0.3c32.1,0,64.2,0,96.3,0C426.3,445.4,429.2,445.4,431.7,446.9z"
	/>
<path class="st160" d="M411.5,433c3.4,1.1,6.5,2.6,9.2,4.9c-1.7,2.6-4.5,2.7-7.1,2.7c-33.4,0.1-66.9,0-100.3,0.1
	c-1.3,0-2.6-0.5-4-0.5c-0.7-0.4-1.3-0.8-2-1.1c-0.7-1.3-1.7-2.3-3-3c0-0.3,0-0.6,0-0.9c1-3.3,3.8-2.6,6.1-2.6
	c18.1-0.1,36.2,0,54.3,0c13.3,0,26.6,0,39.9,0C406.9,432.5,409.2,432.1,411.5,433z"/>
<path class="st161" d="M431.7,446.9c-35.6,0-71.3,0.1-106.9,0.2c-2.4,0-5.2-0.9-6.6,2.2c-1.3-1.3-2.6-2.7-4-4
	c-1-2.7,1.1-3.1,2.8-3.5c2.1-0.5,4.3-0.3,6.5-0.3c32.1,0,64.3,0,96.4,0c2.2,0,4.3,0.1,6.4,0.6C428.4,443.4,430.5,444.7,431.7,446.9z
	"/>
<path class="st162" d="M426.5,442c-2.1,1.3-4.5,1.1-6.8,1.1c-33.4,0-66.8,0-100.2,0c-1.9,0-4.6-1.2-5.2,2.2c-1.7-1.7-3.3-3.4-5-5
	c1.6-1.9,3.7-1.1,5.6-1.1c32.3,0,64.6-0.1,96.9,0c3,0,6-0.2,8.8-1.1c1.5,0.7,3,1.5,4.4,2.2C425.6,440.8,426,441.4,426.5,442z"/>
<path class="st163" d="M323.3,454.2c1-2.4,3.1-2.2,5.1-2.2c34.4,0,68.9,0,103.3,0c1.7,0,3.3,0.3,4.8,1c0.3,0.3,0.5,0.7,0.8,1
	c-2.4,2.1-5.3,1.5-8.1,1.5c-30.8,0.1-61.5,0-92.3,0c-3.3,0-6.7-0.2-9.6,1.8c-1.3-0.8-2.5-1.5-3.8-2.3
	C323.4,454.9,323.3,454.6,323.3,454.2z"/>
<path class="st164" d="M442.2,463c-0.3,2.3,2.2,3.7,2,6c-2.4,2.1-5.3,1.5-8.1,1.5c-28.1,0-56.1,0-84.2,0c-2.8,0-5.7-0.3-7.6,2.5
	c-2.7-2.6-5.4-5.3-8.1-7.9c0.2-3,2.5-3.1,4.6-3.4c2-0.3,4-0.1,6-0.1c29.2,0,58.4,0,87.7,0C437.2,461.6,439.9,461.3,442.2,463z"/>
<path class="st165" d="M344.4,473.1c-0.4-1.2-0.7-2.4-1.2-4.1c33.9,0,67.5,0,101.1,0c0.2,1,0.3,2,0.5,3c1.1,1.2,1.2,2.2-0.5,3
	c-2.4,0.9-4.9,0.7-7.4,0.7c-24.2,0-48.4,0-72.7,0c-2,0-4-0.1-5.9-0.5c-0.8-0.5-0.8-2-2.1-1.7c-1.2,0.4-0.7,1.6-0.9,2.5
	c-1.7-2.4-4.1-2.3-6.5-1.6c-3,0.9-0.8,3.3-1.5,4.9C346.3,477.3,345.3,475.2,344.4,473.1z"/>
<path class="st62" d="M327.3,457.5c-0.6-1.9-0.4-3.3,2.1-3.4c1,0,2,0,3,0c35,0,70,0,104.9,0c1.2,1,1.9,2.4,2.3,3.9
	c-1.8,2-4.3,1.5-6.6,1.5c-33.1,0.1-66.2-0.1-99.3,0.1c-1.5,0-3-0.4-4.5-0.4C328.6,458.6,328,458,327.3,457.5z"/>
<path class="st87" d="M329.3,459.2c1.5-1.9,3.7-1.2,5.6-1.2c34.9-0.1,69.8-0.1,104.7-0.1c0.6,1,1.1,2,1.7,3.1c-1.9,1.5-4.2,1-6.3,1
	c-30.5,0-61,0-91.4,0c-3.2,0-6.3,0.2-9.3,1.3C332.3,462.4,330.7,460.9,329.3,459.2z"/>
<path class="st166" d="M334.3,463.4c0.7-3.6,3.6-2.3,5.7-2.3c33.8-0.1,67.6-0.1,101.3-0.1c0.3,0.7,0.6,1.3,0.9,2
	c-32.9,0-65.8,0-98.6,0c-2.6,0-5.4-0.4-7.3,2.2C335.6,464.6,335,464,334.3,463.4z"/>
<path class="st167" d="M361.3,362.3c1.7,1.1,2,2.9,2.1,4.7c-0.9,3.5-3.5,1.9-5.2,1.5c-13.8-3.4-27.9-4.8-41.6-8.2
	c-3.7-0.9-7.6-1.1-11.2-2.3c0-0.3,0-0.7,0-1c0.7-1,1.3-2,2-3c2.3-1.9,5-1.5,7.6-1C330.4,356.2,345.8,359.5,361.3,362.3z"/>
<path class="st168" d="M361.3,362.3c-5.8,1.3-11.3-1-16.9-1.8c-12.4-1.7-24.3-6.4-37-6.5c0.2-1.6,0.7-3,2-4
	c13.4,2.5,26.8,5.1,40.2,7.5c3.4,0.6,6.7,1.9,10.2,1.4C360.3,360.1,360.8,361.2,361.3,362.3z"/>
<path class="st169" d="M442.4,566c0,2.7,0,5.3,0,8c-20.9,0-41.8-0.1-62.7,0.2c-5.6,0.1-10.2,0.1-10.2-7.1
	C393.7,564.8,418.1,566.6,442.4,566z"/>
<path class="st170" d="M297.4,370.1c-22.7,0-45.3,0-68,0c1-3.2,3.1-4.1,6.4-4.1c21.5,0.1,43,0.1,64.6,0.1c0.3,0.3,0.4,0.7,0.3,1.2
	c-0.4,1.3-1,2.4-2.2,3.1C298.1,370.5,297.7,370.4,297.4,370.1z"/>
<path class="st171" d="M305.4,358.1c3.1-2.2,6.3-0.4,9.1,0.3c15.3,3.9,31.1,5.2,46.3,9.4c1,0.3,2,0.3,2.6-0.7
	c0.4,0.4,0.7,0.7,1.1,1.1c-0.1,0.3-0.1,0.6-0.1,1c0.2,4.5-3.2,3.3-5.4,3.1c-4.8-0.6-9.5-1.7-14.2-2.7c-13.8-3-27.8-4.9-41.4-8.4
	c0-0.3,0-0.7,0-1C304.1,359.4,304.7,358.7,305.4,358.1z"/>
<path class="st172" d="M300.4,367.1c0-0.3,0-0.7,0-1c0.3-0.7,0.7-1.3,1-2c5.8-0.7,11,1.8,16.6,2.7c14.4,2.2,28.6,5.5,42.9,8.3
	c1.9,0.4,4,0.5,5.5,2c0.2,0.2,0.2,0.5,0.1,0.7c0.9,2.3-0.4,3-2.3,3.2c-1.3,0.1-2.7-0.1-3.9-0.4c-17.9-4.2-36.2-6.5-54.2-10.8
	C304,369.3,301.7,369.2,300.4,367.1z"/>
<path class="st173" d="M303.4,361.1c4-1.6,7.8,0.5,11.5,1.2c14.4,2.6,28.8,5.7,43.2,8.5c2.1,0.4,5,2,6.3-1.7
	c1.1,0.6,1.2,1.6,1.1,2.7c1,3.6-1.6,3.5-3.8,3.4c-4.2-0.2-8.2-1.2-12.2-2.2c-15-3.6-30.4-5.4-45.4-9c-0.7-0.2-1.2-0.4-1.7-0.9
	C302.7,362.4,303.1,361.7,303.4,361.1z"/>
<path class="st174" d="M302.4,363.1c6.9-0.1,13.3,2.6,20,3.5c12.6,1.6,25,4.9,37.4,7.3c1.9,0.4,4.9,1.5,5.7-2.1
	c0.3,0.4,0.6,0.8,0.9,1.3c0,1.3,0,2.7,0.1,4c-9.1-0.7-17.9-3.2-26.7-5c-12.8-2.6-25.8-3.9-38.3-8
	C301.7,363.7,302.1,363.4,302.4,363.1z"/>
<path class="st175" d="M399.2,427.1c1.5,2,4.4,1.3,6,3c-1.8,3.2-4.9,2.4-7.6,2.4c-28.6,0-57.3,0.1-85.9,0c-3.2,0-6.3,0.1-9.4,0.7
	c-0.7-0.4-1.3-0.8-2-1.2c-0.3-0.6-0.6-1.3-1-1.9c-1-2.4,0.7-2.9,2.4-3.4c2.1-0.6,4.3-0.4,6.4-0.4c27.7,0,55.4,0,83.1,0
	C393.9,426.4,396.6,426.7,399.2,427.1z"/>
<path class="st176" d="M302.3,433.2c1.9-2.6,4.6-2.2,7.3-2.2c29.8,0,59.5,0,89.3,0c2.1,0,4.4,0.4,6.3-0.9c1.6,2,4.4,1.4,6.3,2.9
	c-33.7,2.3-67.4,0.4-101.1,1.1c-2.1,0-4.4-0.9-6.1,1.1C303.6,434.5,303,433.9,302.3,433.2z"/>
<path class="st177" d="M399.2,427.1c-2,1.3-4.2,0.9-6.3,0.9c-29.4,0-58.8,0-88.3,0.1c-1.9,0-4.6-1.2-5.3,2.1c-0.7-0.4-1.3-0.8-2-1.1
	c-1.5-1.2-3.6-1.8-4-4c-0.9-1.7-2.3-3-3.9-4c-1.1-0.9-2.8-1.2-3-3c-0.4-0.6-0.7-1.3-1.1-1.9c4.4-2.7,8.7-0.1,12.9,0.5
	c11.7,1.6,23.3,5.9,35.1,5.2c15.9-0.9,31.8-0.5,47.7-0.7c1.5,0,3-0.3,4.3-1C390.2,421.9,395,423.9,399.2,427.1z"/>
<path class="st178" d="M293.3,425.1c1.7,1,3.1,2.3,4,4c-26.1,0-52.1,0-78.2,0c-2.9,0-6,0.5-5.8-4
	C240.1,425.1,266.7,425.1,293.3,425.1z"/>
<path class="st179" d="M286.4,418c1.3,0.7,2.3,1.7,3,3c-23.7,0-47.4,0-71.1,0c-2.1,0-5,1-4.9-3C237.8,418,262.1,418,286.4,418z"/>
<path class="st180" d="M279.4,411c1.3,0.7,2.3,1.7,3,3c-21,0-42.1,0-63.1,0c-2.1,0-5,1-4.8-3C236.1,411,257.8,411,279.4,411z"/>
<path class="st76" d="M297.4,370.1c0.3,0,0.7,0,1,0c18.5,5.3,37.7,7.6,56.5,11.7c4.2,0.9,9.1,0.4,12.3,4.2c0,0.3,0.1,0.7,0.1,1
	c-10.4-0.4-20.7-2-30.9-3.9c-8.5-2.2-17.2-2.8-25.8-4.5c-3.6-0.7-7.1-1.6-10.7-2.3c-1.8-0.3-3.8-0.7-3.5-3.3
	C296.7,372.1,297.1,371.1,297.4,370.1z"/>
<path class="st181" d="M296.4,373.1c3.8,3.4,8.9,2.9,13.4,3.9c7.7,1.7,15.4,3.8,23.3,4.3c1.3,0.1,2.6,0.7,3.3,1.9
	c-14.1-1.4-28.1-2.6-41.9-6c-0.7,0-1.3,0.1-2,0.1c0.4-1.6,3.2-1,2.9-3.2C295.7,373.7,296.1,373.4,296.4,373.1z"/>
<path class="st182" d="M282.6,394.3c-0.3,1.5-1,2.7-2.1,3.8c-0.6-3.1-3.1-2-4.8-2c-17.3-0.1-34.6,0-51.8-0.1c-1.6,0-5.2,1.4-3.3-3
	c18.9,0,37.7,0,56.6,0C278.9,393.1,281.1,392.3,282.6,394.3z"/>
<path class="st183" d="M447.3,493c0,2.7,0,5.3,0,8c-0.3,0-0.6,0-0.9,0c-1.8,1.6-4,1.5-6.1,1.5c-23.9,0-47.8,0-71.7,0
	c-2.2,0-4.4,0.2-6.1-1.5c0-0.7,0-1.3-0.1-2c-0.6-2.3-1.3-4.6-1-7.1c0,0,0,0,0,0c1.2-2,3.1-2.5,5.1-2.5c25.7-0.1,51.3-0.3,77,0.1
	c0.7,0,1.3,0.2,1.9,0.5c1,0.4,1.6,1.2,1.9,2.1C447.2,492.5,447.2,492.8,447.3,493z"/>
<path class="st81" d="M362.4,501c28,0,56,0,83.9,0c0,1-0.1,2-0.1,3c-1.6,1.3-3.5,1-5.3,1c-24.4,0-48.9,0-73.3,0
	c-1.8,0-3.7,0.2-5.3-1C362.5,503,362.5,502,362.4,501z"/>
<path class="st93" d="M362.5,504c27.9,0,55.9,0,83.8,0c-0.3,2.6-2.3,2-3.8,2c-25.1,0-50.3,0-75.4,0C365.3,506,363.3,506.2,362.5,504
	z"/>
<path class="st184" d="M445.4,518c0,0.7,0,1.3,0,2c-1.6,1.3-3.5,1-5.3,1c-23.5,0-46.9,0-70.4,0c-1.8,0-3.7,0.3-5.3-1
	c0-0.7,0-1.3,0-2C391.4,518,418.4,518,445.4,518z"/>
<path class="st185" d="M364.4,520c27,0,53.9,0,80.9,0c-0.8,3.3-3.5,1.9-5.3,1.9c-25.2,0.1-50.4,0.1-75.6,0.1
	C364.4,521.4,364.4,520.7,364.4,520z"/>
<path class="st186" d="M446.5,491c-26.3,0-52.6,0-78.8,0c-2.2,0-4.3-0.2-6.3,1c0-1.3,0-2.5,0-3.8c-1.1-3.4,0.6-5,3.7-5.6
	c1.3-0.3,2.6-0.3,4-0.3c23.6,0,47.2,0,70.8,0c2.1,0,4.3-0.1,6.3,1.1C447.5,485.9,446.9,488.5,446.5,491z"/>
<path class="st187" d="M358.3,475.1c1.6-1.8,3.7-1.1,5.7-1.1c27.1,0,54.2,0,81.3,0c1.1,0.8,0.2,2.2,1.1,3.1c-0.1,0.3,0,0.6,0.1,0.9
	c0.5,1.2,1,2.4-0.5,3.4c-5.3,0.6-10.6,0.2-15.9,0.2c-20.3,0.1-40.6,0-60.9,0c-3.2,0-6.4-0.2-8.7,2.6c-1-1.2-0.9-2.7-0.9-4.1
	C358.2,478.6,359.7,476.5,358.3,475.1L358.3,475.1z"/>
<path class="st188" d="M360.3,484.2c-0.4-3.3,1.1-4.2,4.3-4.2c25.6,0.1,51.2,0.1,76.8,0c1.7,0,3.3,0,4.8,1c0.9,1,0.8,2,0.1,3
	c-26.4,0-52.9,0-79.3,0c-3.1,0-5.8,0.1-5.6,4.2C360.3,487.1,360.4,485.6,360.3,484.2z"/>
<path class="st165" d="M358.3,475.1c1.8,1.3,0.8,3.3,1.1,5C358.1,478.6,358.5,476.8,358.3,475.1z"/>
<path class="st141" d="M446.3,484c0-1,0-2-0.1-3c0.1-1,0.1-2,0.2-3c2,4.6,0.6,9.4,0.9,14.2c-0.3-0.4-0.5-0.8-0.8-1.2
	C446.4,488.7,446.4,486.4,446.3,484z"/>
<path class="st141" d="M446.3,477.1c-0.4-1-0.7-2.1-1.1-3.1c-0.2-0.7-0.4-1.4-0.5-2C447.5,473,446,475.3,446.3,477.1z"/>
<path class="st189" d="M367.2,386c-12.9-3.3-26-5.5-39.1-8c-8.4-1.6-16.8-3.3-25.1-5.1c-1.7-0.4-4.2-0.2-4.6-2.9c0.7-1,1.3-2,2-3
	c19.9,4,39.7,8,59.6,12c1.1,0.2,2.2,0.5,3.4,0.8c1.8,0.4,2.9-0.1,3.2-2.1C367.8,380.4,367.3,383.2,367.2,386z"/>
<path class="st156" d="M362.4,355.1c6.8,0,13.5,0,20.3,0c1.6,0,3.3-0.5,4.7,0.9c-6.8,0-13.6,0.1-20.3,0
	C365.5,356,363.7,356.6,362.4,355.1z"/>
</svg>
