<?xml version="1.0" encoding="utf-8"?>
<!-- Generator: Adobe Illustrator 25.0.1, SVG Export Plug-In . SVG Version: 6.00 Build 0)  -->
<svg version="1.1" id="Layer_1" xmlns="http://www.w3.org/2000/svg" xmlns:xlink="http://www.w3.org/1999/xlink" x="0px" y="0px"
	 viewBox="0 0 357.22 307.87" style="enable-background:new 0 0 357.22 307.87;" xml:space="preserve">
<style type="text/css">
	.st0{fill:#EE587F;}
	.st1{fill:#BCC4F5;}
	.st2{fill:#2B2B2B;}
	.st3{fill:#FED1FE;}
	.st4{fill:#2C2C2C;}
	.st5{fill:#CCCFDC;}
	.st6{fill:#FED2FE;}
	.st7{fill:#D7BEC8;}
	.st8{fill:#2C2C2B;}
	.st9{fill:#419BCE;}
	.st10{fill:#FEBD55;}
	.st11{fill:#C0DACC;}
	.st12{fill:#FC748E;}
	.st13{fill:#FDBD55;}
	.st14{fill:#BDA1B4;}
	.st15{fill:#437CE6;}
	.st16{fill:#ECA0C3;}
	.st17{fill:#909090;}
	.st18{fill:#C6E8C0;}
	.st19{fill:#ABBBFA;}
	.st20{fill:#767A8C;}
	.st21{fill:#CAEABF;}
	.st22{fill:#EBA1C3;}
	.st23{fill:#EC9FC3;}
	.st24{fill:#96B7FE;}
	.st25{fill:#6B8AC2;}
	.st26{fill:#2C2C2D;}
	.st27{fill:#2E2E2F;}
	.st28{fill:#ADBBFC;}
	.st29{fill:#4D4F5B;}
	.st30{fill:#737693;}
	.st31{fill:#9CBCEE;}
	.st32{fill:#F5F4F4;}
	.st33{fill:#A8C0E8;}
	.st34{fill:#8BB7F5;}
	.st35{fill:#F6F6F6;}
	.st36{fill:#77B0FD;}
	.st37{fill:#2F2E2F;}
	.st38{fill:#E0D3CF;}
	.st39{fill:#F7DAC2;}
	.st40{fill:#B1C3E4;}
	.st41{fill:#82B2FE;}
	.st42{fill:#93B9F2;}
	.st43{fill:#B0C3E4;}
	.st44{fill:#313031;}
	.st45{fill:#71887B;}
	.st46{fill:#BCE5C1;}
	.st47{fill:#2C2B2C;}
	.st48{fill:#4F464B;}
	.st49{fill:#161412;}
	.st50{fill:#727272;}
	.st51{fill:#0FA5D6;}
	.st52{fill:#2D2E2F;}
	.st53{fill:#FEFEFE;}
	.st54{fill:#80A7BB;}
	.st55{fill:#B1AAC3;}
	.st56{fill:#34312D;}
	.st57{fill:#2E2E2E;}
	.st58{fill:#C59FB6;}
	.st59{fill:#84B2FE;}
	.st60{fill:#425066;}
	.st61{fill:#9AA6B3;}
	.st62{fill:#64A7C4;}
	.st63{fill:#42A6CD;}
	.st64{fill:#353538;}
	.st65{fill:#2F3030;}
	.st66{fill:#5B7EAD;}
	.st67{fill:#E5E5E5;}
	.st68{fill:#37404D;}
</style>
<path class="st0" d="M126,97.36c-1.59,2.48-2.46,5.31-3.75,7.93c-0.86,1.75-1.56,3.58-2.4,5.35c-1.41,2.97-5.51,4.7-8.59,3.38
	c-6.46-2.76-12.9-5.59-19.24-8.6c-4.33-2.05-5.35-5.71-3.32-10.2c4.79-10.59,9.53-21.21,14.3-31.81
	c3.76-8.35,7.53-16.69,11.29-25.04c0.88-1.94,1.61-3.96,2.63-5.83c1.87-3.4,5.75-4.44,9.29-2.82c5.92,2.71,11.91,5.28,17.83,7.97
	c4.43,2.02,5.6,4.66,4.27,9.34c-0.05,0.16-0.02,0.35-0.03,0.52c-0.01,0.51-0.3,0.92-0.46,1.38c-2.37,5.38-4.72,10.77-7.07,16.15
	c-0.46,0.81-0.75,1.7-1.17,2.53c-2.04,4.53-3.89,9.15-6.21,13.55c-0.05,0.16-0.12,0.32-0.2,0.47c-1.29,2.83-2.63,5.64-3.7,8.56
	C128.56,92.69,127.3,95.04,126,97.36z"/>
<path class="st1" d="M235.86,111.74c0.34,0.14,0.6,0.38,0.64,0.75c0.37,3.46,1.47,6.84,1.1,10.37c0.33,2.57-0.75,4.81-1.63,7.1
	c-1.63,4.11-2.98,8.32-4.7,12.4c-0.58,1.27-1.11,2.56-1.44,3.93c-1.75,4.21-3.45,8.43-5.04,12.7c-0.3,0.81-0.62,1.63-1.13,2.33
	c-0.3,0.41-0.67,1.11-1.3,0.29c0.05-1.85,1.14-3.37,1.66-5.07c0.46-1.49,1.06-2.94,1.54-4.44c0.36-1.15-0.03-1.8-1.29-1.81
	c-0.41-0.01-0.81-0.02-1.22-0.02c-11.08,0-22.16,0.01-33.24-0.01c-1.53,0-2.88,0.13-3.69,1.68c-0.3,0.58-0.91,0.99-1.61,0.72
	c-0.75-0.28-0.68-0.99-0.61-1.64c0.07-0.7,0.31-1.35,0.49-2.03c0.14-0.88-0.14-1.82,0.36-2.65c0.84-0.44,0.81,0.32,0.93,0.73
	c0.16,0.61-0.06,1.21-0.21,1.81c0.9-4.2,2.36-8.27,3.05-12.52c2.27-1.36,1.74-3.88,2.48-5.87c-0.66,0.82-0.81,1.84-1.09,2.81
	c-0.3,1.02-0.37,2.17-1.32,2.91c-2.78-0.61-2.78-0.61-2.79,2.35c0,1.04,0.07,2.08-0.07,3.12c-0.11,0.79-0.33,1.54-1.43,1.19
	c-0.15-0.13-0.23-0.29-0.23-0.49c0.71-2.19,0.04-4.37-0.09-6.54c-0.07-1.08-1-1.35-1.83-1.59c-4.45-1.3-8.82-2.86-13.26-4.16
	c-2.84-0.83-5.65-1.73-8.44-2.69c-2.49-0.86-5-1.4-7.66-1.23c-1.32,0.08-2.66,0.14-3.98-0.11c-0.17-0.05-0.33-0.14-0.47-0.26
	c-0.18-0.96,0.61-0.82,1.1-0.91c0.73-0.13,1.49-0.04,2.54-0.07c-3.5-1.25-6.79-2.14-9.99-3.26c-2.68-0.94-5.3-2.06-7.25-4.27
	c-1.14-1.42-2.57-2.59-3.51-4.19c-0.86-1.3-1.68-2.64-1.89-4.22c-0.23-1.77,0.36-2.49,2.16-2.57c1.8-0.08,3.61-0.16,5.39,0.03
	c4.91,0.52,9.82-0.11,14.75,0.08c3.33,0.13,6.73,0.09,10.07-0.18c3.78-0.3,6.85,0.76,9.17,3.79c2.47,1.75,3.82,4.49,5.8,6.68
	c0.65,0.73,1.32,1.47,1.76,2.37c2.61,4.56,7.06,6.2,12.01,4.24c2.8-1.11,5.67-2,8.5-3.01c1.52-0.54,3.16-0.78,4.74-0.97
	c3.09-0.38,6.07-1.32,9.14-1.76c3.47-0.83,6.98-1.49,10.48-2.19c3.73-0.75,7.47-1.47,11.16-2.39
	C235.21,112.77,235.34,112.08,235.86,111.74z"/>
<path class="st2" d="M256.36,164.33c5.15-1.76,10.36-3.35,15.76-4.07c6.1-0.82,12.23-1.07,18.4-0.37
	c19.93,2.27,36.28,11.12,49.25,26.33c0.34,0.4,0.7,0.77,1.05,1.15c4.47,5.44,7.99,11.44,10.63,17.97c1.4,3.47,2.69,7,3.51,10.63
	c0.48,2.11,0.77,4.31,1.15,6.44c0.48,2.7,0.51,5.4,0.76,8.1c0.43,4.46-0.17,8.86-0.74,13.29c-0.55,4.2-1.4,8.3-2.73,12.3
	c-2.2,6.61-5.16,12.84-9.11,18.6c-1.96,2.87-4.06,5.61-6.4,8.18c-2.29,1.86-3.78,4.45-6.04,6.41c-6.46,5.6-13.55,10.19-21.56,13.11
	c-3.52,1.28-7.17,2.44-10.94,3.05c-1.27,0.2-2.57,0.48-3.84,0.77c-5.93,0.89-11.88,1.18-17.88,0.79
	c-10.16-0.65-19.71-3.42-28.71-8.09c-7.73-4.01-14.55-9.24-20.41-15.69c-6.49-7.07-11.42-15.12-14.8-24.09
	c-1.65-4.38-2.83-8.89-3.58-13.52c-0.71-4.35-1.22-8.72-1.11-13.11c0.12-4.56,0.57-9.11,1.44-13.6c0.31-1.59,0.09-1.88-1.56-2.1
	c-3.44-0.45-6.84-1.08-10.27-1.61c-1.02-0.16-1.44-1.08-2.37-1.33c-2.57-0.69-5.2-1.04-7.79-1.61c-3.38-0.75-6.84-1.1-10.2-1.98
	c-0.72-0.19-1.34,0.05-2.01,0.31c-1.39,0.55-2.83,1.24-4.22-0.06c-0.92-0.84-1.26-1.9-1.24-3.12c0.02-1.85-0.07-3.7,0.36-5.53
	c0.15-0.65,0.32-1.23,0.99-1.52c1.68-0.14,3.27,0.52,4.93,0.55c1.06,0.28,2.11,0.66,3.24,0.61c0.28,0.02,0.55,0.06,0.82,0.12
	c1.17,0.28,2.37,0.33,3.54,0.57c5.02,0.87,10.06,1.65,15.09,2.44c0.75,0.12,1.46,0.34,2.15,0.66c3.04,1.42,6.17,2.62,9.28,3.87
	c1.29,0.47,1.59-0.44,1.93-1.36c2.15-5.92,5.09-11.44,8.65-16.63c3.96-5.78,8.62-10.92,14.08-15.32c1.3-1.05,2.35-2.43,3.93-3.13
	c1.05-0.44,1.97-1.09,2.81-1.85c2.61-1.85,5.26-3.6,8.38-4.51c1.72-0.11,2.06,1.26,2.47,2.43c0.45,1.27-0.49,1.89-1.39,2.47
	c-7.12,3.68-13.65,8.16-19.2,13.99c-6.78,7.13-11.84,15.31-15.26,24.53c-0.48,1.3-0.11,2,1.09,2.41c1.27,0.44,2.46,1.05,3.67,1.61
	c1.46,0.67,2.25,2.14,1.88,3.35c-0.37,1.25-1.78,2.13-3.31,2c-1.39-0.12-2.75-0.45-4.14-0.63c-1.27-0.16-1.85,0.3-2.09,1.64
	c-0.78,4.29-1.22,8.62-1.17,12.96c0.05,3.93,0.31,7.84,0.93,11.76c1.42,9.04,4.77,17.31,9.46,25.07c3.23,5.34,7.23,10.1,11.82,14.34
	c6.7,6.17,14.28,10.97,22.84,14.09c7,2.56,14.21,4.18,21.75,4.28c7.31,0.09,14.49-0.39,21.52-2.5c4.97-1.49,9.74-3.38,14.3-5.88
	c9.11-5.01,16.77-11.67,22.88-20.05c5.19-7.1,8.89-14.93,11.1-23.48c1.53-5.94,2.5-11.97,2.33-18.07
	c-0.35-12.88-3.66-24.96-10.6-35.96c-3.18-5.04-6.81-9.69-11.16-13.74c-8.38-7.8-18.03-13.37-29.1-16.51
	c-5.67-1.61-11.47-2.31-17.31-2.62c-4.33-0.23-8.67,0.37-12.96,1.06c-4.25,0.69-8.4,1.75-12.42,3.3c-2.1,0.33-2.94-0.26-3.42-2.3
	C255.32,165.08,255.61,164.61,256.36,164.33z"/>
<path class="st3" d="M134.73,117.25c1.98,0.81,3.52,2.43,5.58,3.11c3.76,1.23,7.51,2.49,11.25,3.75c0.5,0.17,1.43,0.03,1.27,0.82
	c-0.14,0.68-0.99,0.23-1.51,0.32c-1,0.17-2.09-0.35-3.03,0.35c0.38,3.64,0.07,7.29,0.17,10.94c0.03,0.98,0.02,1.95,0.26,2.93
	c0.55,2.27,0.52,2.19,2.78,2.31c10.24,0.58,20.5,0.39,30.75,0.43c0.69,0,1.41-0.06,1.98,0.46c1.06,0.14,1.07-0.56,1.07-1.3
	c-0.01-1.72,0.09-3.45-0.04-5.17c-0.1-1.38,0.58-1.4,1.52-1.07c0.7,0.24,1.35,0.61,2.02,0.92l0.01,0.02
	c0.13,3.22-1.21,6.13-1.92,9.17c-0.35,1.51-0.88,2.95-1.42,4.52c-0.54-1.19,0.4-2.49-0.57-3.48c-1.12,0.73-2.37,0.35-3.56,0.4
	c-1.44,0.06-2.89,0.01-4.34,0.02c-8.38,0.85-16.79,0.23-25.19,0.43c-1.99,0.05-2.39,0.32-2.13,2.01c0.62,4.05,0.92,8.13,1.45,12.18
	c0.6,1.83,0.32,3.78,0.7,5.64c0.06,0.19,0.1,0.38,0.12,0.58c0.75,4.49,1.4,9.01,1.96,13.53c0.58,4.77,1.52,9.48,1.96,14.27
	c0.18,1.92,0.73,2.63,2.64,2.82c1.92,0.18,3.77,0.62,5.61,1.12c1.91,1.4,4.11,2.38,5.9,3.98c0.43,0.38,0.95,0.68,1.13,1.28
	c0.12,1.14-0.25,2.25-0.08,3.42c0.18,1.16,0.57,2.07,1.57,2.71c0.53,0.39,1.1,0.77,1.75,0.37c2.33-1.43,4.8-0.83,7.17-0.36
	c3.05,0.6,6.14,1,9.15,1.78c1.73,0.45,3.5,0.58,5.24,1c1.16,0.29,1.64,0.86,1.9,1.85c-0.97,2.25-1.19,2.27-3.66,1.79
	c-3.61-0.71-7.26-1.25-10.89-1.9c-1.47-0.26-2.94-0.6-4.4-0.9c-1.89-0.38-2.54,0.26-2.23,2.1c1.64,9.59-4.02,19.38-13.47,22.59
	c-4.63,1.58-9.1,1.75-13.68,0.07c-0.57-0.21-1.26-0.11-1.9-0.15c-0.37-0.01-0.65-0.22-0.94-0.41c-0.58-0.38-1.12-1-1.79-1.02
	c-1.06-0.04-0.44,1.13-0.91,1.58c-0.24,0.23-0.42,0.38-0.71,0.11c-0.34-0.53-0.3-1.13-0.3-1.72c0.01-0.83-0.08-1.67-0.91-2.09
	c-0.85-0.43-1.38,0.31-1.97,0.72c-1.61,1.12-2.87,2.66-4.51,3.75c-1.55,1.37-3.38,2.48-4.33,4.43c-3.14,1.23-5.27,3.83-7.87,5.8
	c-0.66,0.5-0.15,1.34-0.58,1.9c-2.74,0.76-5.25,0.25-7.74-1.09c-1.77-0.95-3.69-1.63-5.53-2.45c-1.48-0.66-2.2-1.61-1.75-3.26
	c1.45-1.94,1.88-2.05,4.07-1.05c1.9,0.87,3.85,1.62,5.74,2.52c0.7,0.33,1.42,0.5,2.19,0.29c1.14-0.28,1.82-1.17,2.58-1.95
	c0.45-0.52,0.96-0.97,1.57-1.28c1.93-1.23,3.1-3.24,4.93-4.62c2.74-2.05,5.28-4.36,7.92-6.54c1.16-0.96,1.59-1.87,0.64-3.23
	c-0.66-0.95-0.96-2.11-1.4-3.18c-0.39-0.96-1.02-1.22-2.07-1.02c-6.78,1.28-13.56,2.58-20.39,3.62c-2.97,0.46-5.93,1.09-8.89,1.65
	c-3.89,0.81-7.82,1.37-11.73,2.07c-1.42,0.26-2.8,0.69-4.24,0.8c-0.83,0.06-1.13,0.65-1.31,1.39c-0.17,0.71-0.17,1.52-0.97,1.92
	c-0.56-0.18-0.62-0.69-0.62-1.13c0.01-1.56-0.88-1.67-2.07-1.38c-2.36,0.57-4.79,0.78-7.16,1.34c-0.79,0.19-1.6,0.22-2.42,0.18
	c-2.35-0.11-3.31-1.84-2.01-3.81c1.4-2.12,3.12-4.01,4.71-6c0.92-1.15,2.19-2.12,2.29-3.78c3.78-2.54,6.06-6.46,8.89-9.86
	c7.03-8.46,13.9-17.07,20.87-25.58c1.91-2.33,3.85-4.64,5.67-7.04c0.77-0.7,0.99-1.34-0.06-2.03c-0.45-0.29-0.97-0.67-0.71-1.38
	c0.47-0.29,0.88-0.05,1.28,0.17c0.64,0.35,1.25,0.93,1.99,0.2c0.67-0.66,1-1.38,0.52-2.3c-0.08-0.15-0.01-0.33,0.14-0.44
	c1.21,0.93,2.02,0.34,2.83-0.66c6.2-7.61,12.44-15.19,18.62-22.83c0.62-0.77,1.57-1.44,1.5-2.64c0.39-0.43,0.64-0.96,1.06-1.37
	c1.7-1.68,2.2-3.69,2.33-6.09c0.22-4.04,0.3-8.08,0.3-12.12c0-2.46-0.2-2.6-2.69-2.63c-0.82-0.01-1.56,0.43-2.38,0.24
	c-4.01-0.47-8.05-0.3-12.08-0.37c-2.93-0.05-4.39-1.52-4.34-4.2c0.04-2.3,1.76-3.79,4.42-3.8
	C129.76,117.26,132.25,117.26,134.73,117.25z"/>
<path class="st4" d="M122.81,251.84c-0.72-0.73-0.85-1.3,0.13-2.05c2.03-1.55,3.97-3.21,5.88-4.89c0.72-0.64,1.45-0.92,2.37-0.7
	c1.91,0.43,3,2.09,4.54,3.09c1.3,0.85,2.54,1.82,3.79,2.77c1.33,1.01,1.58,0.89,1.97-0.79c0.64-2.77,1.11-5.56,1.45-8.38
	c0.07-0.56-0.02-1.18,0.51-1.6c0.58-2.99,0.56-2.97,3.31-1.34c0.44,0.26,0.66,0.57,0.85,0.98c-0.5,4.91-1.3,9.77-2.64,14.53
	c-0.28,1.01,0.08,1.53,0.76,2.06c1.06,0.81,2.12,1.62,3.17,2.44c1.11,0.87,1.51,2.03,0.79,3.23c-0.67,1.11-1.73,1.24-3.04,0.8
	c-1.33-0.45-2.71-1.97-3.95-1.17c-0.99,0.64-1.28,2.36-1.86,3.61c-6.34,13.63-16,24.29-28.78,32.15
	c-7.88,4.84-16.45,7.91-25.52,9.64c-3.75,0.23-7.47,0.82-11.24,0.87c-7.76,0.1-15.35-0.71-22.81-3.01
	c-9.12-2.82-17.38-7.16-24.8-13.14c-4.53-3.65-8.67-7.69-12.08-12.43c-0.23-0.32-0.56-0.57-0.85-0.86c-1.24-0.84-1.76-2.23-2.55-3.4
	c-1.68-2.46-3.36-4.93-4.42-7.75c-6.46-13.02-8.86-26.82-7.35-41.22c1.28-12.25,5.52-23.5,12.55-33.65
	c7.54-10.9,17.29-19.26,29.26-24.98c7.81-3.73,16.02-5.99,24.66-6.78c18.37-1.67,35.01,2.94,50.04,13.55
	c0.22,0.16,0.51,0.22,0.76,0.33c0.98,1.19,0.34,3.38-1.11,3.85c-0.46,0.15-0.72-0.19-1.07-0.37c-0.59-0.32-0.98-0.97-1.72-1.02
	c-0.69,0-1.19-0.43-1.72-0.78c-7.31-4.95-15.38-8.13-23.94-10.06c-3.37-0.76-6.86-0.92-10.3-1.34c-4.68-0.56-9.29,0.01-13.84,0.57
	c-6.28,0.77-12.34,2.63-18.15,5.23c-9.09,4.06-16.97,9.81-23.62,17.19c-8.16,9.06-13.57,19.57-16.17,31.52
	c-1.13,5.18-1.72,10.4-1.64,15.68c0.21,13.25,3.93,25.46,11.01,36.66c0.19,0.29,0.39,0.58,0.56,0.88c1.11,2.34,3.06,4.09,4.39,6.28
	c2.33,2.74,4.8,5.32,7.52,7.68c3.81,3.32,7.9,6.27,12.35,8.67c4.89,2.65,10.01,4.71,15.39,6.26c7.79,2.24,15.73,2.52,23.72,2.29
	c3.34-0.1,6.62-0.86,9.91-1.52c5.38-1.09,10.43-3.06,15.34-5.38c3.76-1.78,7.39-3.87,10.58-6.61c3.32-2.72,6.45-5.65,9.42-8.75
	c5.44-5.66,9.63-12.16,12.85-19.3c1.03-2.29,0.97-2.32-1.22-3.38c-3.92-1.88-7.99-3.43-11.92-5.28
	C123.77,252.47,123.17,252.36,122.81,251.84z"/>
<path class="st5" d="M171.05,110.62c-1.09-0.21-1.44-1.26-2.13-1.91c-1.33-1.27-2.82-1.97-4.66-1.9c-4.22,0.17-8.45-0.35-12.66,0.31
	c-0.82,0.13-1.72-0.34-2.56-0.28c-5.88,0.42-11.75-0.08-17.63-0.05c-1.18,0.01-1.55,0.33-1.65,1.55c-0.15,1.84,0.98,3.16,1.45,4.73
	c-2.7-3.32-4.05-7.18-4.5-11.37c-0.15-1.38-0.02-2.78-0.03-4.18c0-1.04-0.45-0.16-0.69-0.16c-0.18-1.26,0.76-2.1,1.19-3.13
	c0.6-1.41,1.28-2.79,1.93-4.18c1.39-2.85,2.6-5.78,3.85-8.69l0.01-0.01c0.86-3.2,3.03-4.12,6.15-3.73c1.77,0.22,3.59-0.04,5.39,0.09
	c1.09,0.08,2.21,0.17,3.09,0.96c0.12,0.13,0.26,0.24,0.33,0.4c3.06,7.35,9.02,12.59,13.63,18.82c2.55,3.45,5.41,6.68,8.1,10.03
	C170.29,108.71,171.23,109.4,171.05,110.62z"/>
<path class="st6" d="M251.86,170.92c0.44-0.62,1.86-0.75,1.21-1.89c-0.52-0.91-0.37-2.59-2.19-2.32c-0.14-1.52-0.86-1.25-1.83-0.66
	c-5.56,3.34-11.09,6.74-16.69,10.01c-6.4,3.74-12.72,7.62-19.14,11.34c-0.68,0.39-1.32,1.01-2.23,0.67
	c-0.16-0.22-0.22-0.47-0.2-0.73c0.96-2.12,1.8-4.31,3.25-6.17c4.96-2.89,9.9-5.82,14.82-8.79c5.47-3.29,10.95-6.56,16.45-9.81
	c1.29-0.76,1.65-1.64,1.02-3.01c-1.67-3.64-3.15-7.36-4.77-11.02c-0.42-0.95-1.04-1.42-2.11-1.5c-2.49-0.19-4.98,0.08-7.46-0.14
	c-0.87-0.08-1.75,0.01-2.43-0.67c-0.04-1.47,0.45-2.74,1.42-3.84c0.56-0.54,1.27-0.5,1.97-0.5c1.74-0.02,3.48,0,5.22-0.01
	c2.45-0.01,2.51-0.13,1.53-2.45c-1.36-3.2-2.71-6.41-4.14-9.58c0.77-2.29,1.62-4.56,2.03-6.96c1.81,4.31,3.61,8.61,5.43,12.91
	c0.5,1.17,1.05,2.32,1.56,3.49c0.39,0.91,0.63,1.83,2.05,1.53c0.76-0.16,1.06,0.79,1.33,1.41c1.53,3.49,3.03,6.99,4.54,10.5
	c0.64,1.48,1.24,2.98,1.91,4.45c0.57,1.25,1.37,2.36-0.09,3.68c-0.75,0.67,0.79,3.16,2.04,3.5c-1.28,1.12,0.01,2.07,0.29,3.02
	c0.36,1.21,1.43,0.46,2.2,0.52c-1.31,1.56-0.25,2.89,0.44,4.25c6.65,15.44,13.25,30.9,19.94,46.32c0.48,1.11,1.09,1.67,2.35,1.57
	c1.09-0.09,2.21-0.1,3.3,0.04c0.71,0.09,1.56,0.12,1.59,1.18c-1.23,0.71-2.49-0.04-3.75,0.07c-1.86,0.15-2.05,0.36-1.36,2.09
	c0.97,2.42,2.05,4.8,3.1,7.2c0.32,0.74,0.64,1.5,0.68,2.33c0.05,1.06-0.18,2.01-1.27,2.44c-1.16,0.46-2.16,0.12-2.95-0.84
	c-0.41-0.5-0.64-1.1-0.88-1.69c-1.04-2.52-2.24-4.98-3.22-7.53c-0.33-0.85-0.85-1.5-1.61-1.98c0.15-2.19-0.94-4.02-1.77-5.91
	c-4.95-11.28-9.74-22.63-14.67-33.91c-1.44-3.3-2.75-6.66-4.3-9.91C254,172.3,253.73,170.84,251.86,170.92z"/>
<path class="st7" d="M140.33,64.97c2.38-5.49,4.65-11.02,7.29-16.39c0.63,0.7,0.27,1.42,0.01,2.12c-0.82,2.17-1.73,4.31-2.71,6.42
	c-1,2.17-0.63,2.76,1.69,2.76c8.02,0.02,16.03,0.02,24.05,0c2.18,0,2.26-0.22,1.79-2.34c-0.36-1.62-1.15-3.02-1.91-4.44
	c0.53-1.14,1.15-0.32,1.57,0.03c0.93,0.77,1.91,1.49,2.73,2.36c2.02,2.15,4.28,3.01,7.1,1.68c2.01-0.52,3.97-1.19,5.97-1.75
	c1.19-0.33,1.18-0.8,0.39-1.63c-1-1.05-2.17-1.9-3.2-2.91c-0.36-0.69-0.55-1.33,0.48-1.6c0.07,0.39,0.04,0.83,0.39,1.12
	c6.3,5.21,9.49,12.65,13.74,19.32c0.82,1.29,2.2,2.26,2.32,3.96c-2.56-1.67-5.43-1.67-8.33-1.58c-1.05,0.03-1.79-0.43-2.02-1.52
	c-0.13-0.25-0.14-0.65-0.43-0.71c-0.36-0.07-0.42,0.33-0.47,0.58c-0.28,1.49-0.78,2.91-1.52,4.23c-0.91,1.63-1.69,1.67-2.81,0.18
	c-2.36-3.14-4.95-6.11-7.19-9.35c-0.32-0.46-0.64-0.96-1.58-1.37c1.15,1.7,2.21,3.03,3.22,4.39c0.57,0.77,1.4,1.45,1.04,2.61
	c-0.68,0.9-1.68,1-2.67,1c-10.21,0.05-20.42,0.06-30.63,0c-1.85-0.01-3.52-0.65-4.96-1.84c-0.54-0.44-1.02-0.99-1.65-1.27
	C140.17,68.19,139.63,66.86,140.33,64.97z"/>
<path class="st8" d="M210.28,27.34c0.03,0.93,0.11,1.86,0.09,2.78c-0.03,2.11-1.05,3.8-2.9,4.59c-1.82,0.78-2.62,2.09-3.42,3.74
	c-2.36,4.89-8.26,7.01-13.32,4.95c-2.84-1.16-2.85-1.16-3.91,1.69c-0.32,0.87-0.59,1.75-0.88,2.63c-0.41,0.84-0.99,0.61-1.27,0.02
	c-1.62-3.43-4.08-6.53-4.09-10.58c-0.01-2.73-0.66-5.41-0.72-8.14c-0.02-1.04-0.74-1.13-1.54-1.24c-1.53-0.22-3.16-0.31-4.06-1.91
	c-3.5-3.91-3.03-7.84,1.31-10.86c1.57-1.09,3.15-2.16,4.72-3.24c0.55-0.43,1.14-0.47,1.79-0.22c3.08,1.18,6.24,2.12,9.34,3.25
	c0.69,0.25,1.46,0.46,1.78,1.26c0.16,0.96-0.47,1.51-1.11,2.01c-1.15,0.89-2.1,2.01-3.24,2.9c-0.84,0.66-1.06,1.48-0.71,2.47
	c0.94,2.62,2.13,5.14,3.15,7.74c0.36,0.91,1.05,1.13,1.81,0.64c2.5-1.61,5.25-1.59,8.06-1.52c2.27,0.06,3.13-1.07,2.71-3.31
	c-0.13-0.71-0.23-1.52,0.61-1.77c0.81-0.25,1.03,0.56,1.29,1.12c1.05,2.19,0.68,3.77-1.15,5.07c1.54,0.53,1.86,0.37,2.22-1.05
	c0.18-0.69,0.12-1.38,0.03-2.07c-0.07-0.52-0.09-1.06,0.15-1.54c0.43-0.85,1.17-1.37,2.1-1.28
	C210.16,25.59,210.17,26.54,210.28,27.34z"/>
<path class="st9" d="M241.06,104.11c-1.48,1.53-3.6,1.93-5.33,3.03c-0.62,0.4-1.32,0.69-1.98,1.02c-0.35,0.07-0.69,0.06-1.02-0.06
	c-1.5-0.92-2.89,0.16-4.34,0.25c-1.95,0.8-3.96,0.48-5.97,0.47c-8.12-0.02-16.23,0.01-24.35,0.02c-7.3,0.01-14.61,0-21.91-0.06
	c-1.28-0.01-2.4-0.32-3.29-1.27c-2.11-1.83-3.58-4.2-5.24-6.4c-0.36-0.47-0.7-1.18,0.29-1.51c5.05-0.03,10.1,0.04,15.15-0.02
	c8.93-0.12,17.86-0.11,26.79-0.08c8.82,0.03,17.64,0,26.46,0.09c0.46,0,0.93,0,1.39,0c2.88-0.03,2.95-0.1,2.76-2.84
	c0.05-0.2,0.16-0.37,0.32-0.49c0.95-0.04,1.2,0.73,1.53,1.37c0.28,0.56,0.5,1.15,0.72,1.74c0.81,2.1,0.75,2.32-1.01,3.78
	C241.69,103.45,241.33,103.74,241.06,104.11z"/>
<path class="st10" d="M174.26,25.88c1.48,0.98,3.09,1.53,4.89,1.34c1.05-0.11,1.24,0.45,1.3,1.35c0.21,3.36,0.47,6.72,0.75,10.07
	c0.2,2.38,1.81,4.23,2.59,6.4c0.33,0.91,0.9,1.74,1.28,2.64c0.31,0.74,0.58,0.12,0.88,0.05c-0.12,0.52-0.24,1.03-0.36,1.55
	c-0.53,0.36-0.52,0.86-0.35,1.39c-0.6,2.5-0.91,5.12-3.11,6.89c-4.17,2.3-6.54-0.82-9.2-3.06c-0.73-0.61-1.22-1.56-2.27-1.77
	c-2.14-1.21-4.02-2.8-5.43-4.76c-1.02-1.42,0.32-2.53,1.2-3.58c1.75-3.88,3.57-7.73,5.21-11.65
	C172.57,30.49,174.1,28.44,174.26,25.88z"/>
<path class="st10" d="M241.06,104.11c-0.33-1.08,0.43-1.41,1.19-1.74c0.99-0.43,1.22-1.03,0.7-2.04c-0.69-1.31-1.24-2.7-1.85-4.05
	c-0.68-0.71-0.82-1.77-1.53-2.46c-0.74-0.89-1.1-1.96-1.4-3.05c-0.78-2.09-1.67-4.13-2.81-6.07c-0.72-1.23-1.51-2.5-0.66-4.01
	c1.69-0.97,3.63-1.12,5.45-1.64c0.83-0.24,1.65-0.48,2.44-0.82c0.45-0.53,1.1-0.62,1.72-0.77c6.91-0.49,11.37,2.39,13.22,8.54
	c0.08,0.54,0.09,1.08-0.11,1.61c-0.45,2.11-0.14,4.34-1.43,6.31c-2.42,3.71-5.94,6.04-9.77,7.96
	C244.56,102.71,243.05,104,241.06,104.11z"/>
<path class="st11" d="M166.41,44.4c-1.25,3.24-1.25,3.24,1.35,5.62c0.98,0.89,2.14,1.59,2.89,2.72c1.83,1.52,2.02,3.8,2.67,5.85
	c0.4,1.27,0.01,1.89-1.5,1.88c-8.7-0.06-17.39-0.02-26.09-0.03c-1.84,0-2.59-1.02-1.75-2.65c1.29-2.5,2.2-5.14,3.36-7.69
	c0.23-0.51,0.28-0.99,0.28-1.51c0-0.49,0.25-0.81,0.66-1.03c2.03-0.11,3.84-1.08,5.74-1.63C158.11,44.75,162.18,44.09,166.41,44.4z"
	/>
<path class="st3" d="M181.81,8.84c1.61-4.06,4.16-7.14,8.55-8.39c1.83-0.52,3.73-0.59,5.49-0.16c2.73,0.67,5.4,1.65,8.01,2.7
	c3.14,1.26,5.35,3.57,6.62,6.7c0.39,0.95,0.99,1.37,1.99,1.25c0.08,0.79-0.58,0.93-1.08,1.15c-2.54,1.14-5.07,2.33-7.66,3.37
	c-0.78,0.31-1.54,0.46-2.37,0.18c-6.4-2.12-12.74-4.41-19.15-6.49C182.05,9.1,181.93,8.96,181.81,8.84z"/>
<path class="st12" d="M244.12,77.88c-0.45,0.38-0.99,0.34-1.52,0.34c-0.03-6.22-0.08-12.43-0.07-18.65c0-2.23,2.23-4.33,4.57-4.34
	c10.69-0.03,21.39-0.03,32.08-0.04c3.08,0,6.16,0,9.24,0.04c1.77,0.02,3.66,1.73,4.01,3.45c0.23,1.15,0.23,2.31,0.21,3.47
	c-0.12,7.03,0.26,14.06-0.2,21.08c-0.17,2.68-2.03,4.36-4.85,4.36c-10.05,0.02-20.11,0.01-30.17,0c-0.41-0.38-0.24-0.87-0.26-1.32
	c0.8-0.79,1.83-0.63,2.8-0.63c8.35-0.01,16.71-0.01,25.06-0.01c0.29,0,0.58,0,0.87,0c4.02-0.02,4.8-0.79,4.83-4.77
	c0.04-5.45-0.05-10.9,0.04-16.35c0.04-0.28,0.07-0.57,0.06-0.86c-0.04-1.46-0.16-1.55-1.47-0.77c-5.43,3.24-10.82,6.55-16.25,9.79
	c-1.3,0.77-2.59,1.56-4.13,1.78c-2.03,0.3-3.76-0.53-5.42-1.53c-5.62-3.38-11.38-6.52-17.02-9.85c-1.76-1.04-1.77-1.01-1.77,1.09
	c0.16,3.95,0.06,7.89,0.05,11.83C244.81,76.7,244.75,77.4,244.12,77.88z"/>
<path class="st13" d="M210.28,27.34c-0.47-0.56-0.2-1.92-1.6-1.45c-1.28,0.42-1.75,1.28-1.32,2.55c0.15,0.45,0.37,0.87,0.22,1.34
	c-0.79,2.56-0.79,3.77-4.34,1.47c1.05-0.61,2.85-0.31,2.69-2.24c-0.11-1.35-0.53-2.56-1.3-3.78c-0.83,0.93-0.27,1.69,0.04,2.46
	c0.48,1.21,0.25,1.76-1.08,2.5c-1.47,0.82-2.76,0.56-4.15,0.51c-2.02-0.07-3.87,0.38-5.64,1.38c-2.05,1.16-2.31,1.02-3.21-1.16
	c-1.01-2.45-2-4.91-3.02-7.36c-0.46-1.11-0.24-1.93,0.69-2.75c1.67-1.49,3.62-2.71,4.85-4.66c0.75-0.43,1.47-0.08,2.16,0.15
	c4.61,1.5,9.15,3.23,13.73,4.83c0.58,0.2,1.28,0.29,1.42,1.08C209.83,23.89,210.21,25.62,210.28,27.34z"/>
<path class="st14" d="M234.71,80.69c0.12,3.42,2.61,5.88,3.64,8.93c0.13,0.38,0.34,0.72,0.29,1.14c-4.71-1.45-9.55-0.71-14.32-0.76
	c-8.08-0.09-16.16-0.13-24.23,0.04c-0.59,0.01-1.16,0-1.68-0.33c-1.87-1.42-3.17-3.35-4.54-5.21c-0.26-0.35-0.69-0.94,0.16-1.24
	c4.01,1.92,8.28,0.73,12.43,1.01c1.36,0.09,2.51,0.29,3.19,1.6c0.56,0.95,1.49,0.88,2.31,0.67c5.16-1.32,10.3-2.72,15.45-4.06
	C229.83,81.84,232.28,81.28,234.71,80.69z"/>
<path class="st15" d="M210.4,22.19c-3.96-1.43-7.91-2.89-11.88-4.29c-1.79-0.64-3.62-1.18-5.43-1.77c-3.16-1.56-6.58-2.4-9.86-3.61
	c-0.95-0.35-1.85-0.97-2.95-0.73c0.51-0.99,1.02-1.97,1.52-2.95c2.21-0.08,4.09,1.06,6.09,1.7c4.65,1.49,9.25,3.13,13.85,4.75
	c0.87,0.31,1.44-0.19,2.11-0.47c2.91-1.22,5.85-2.35,8.61-3.88c2.33-0.09,4.48,0.08,5.76,2.56c1.46,2.82,0.07,5.49-2.11,6.63
	C214.31,21.07,212.31,21.5,210.4,22.19z"/>
<path class="st16" d="M209.64,85.86c-0.81-0.86-1.8-1.09-2.98-1.05c-2.67,0.08-5.35-0.1-8,0.07c-1.89,0.12-3.48-0.33-4.94-1.43
	c-0.58-0.04-0.84-0.46-1.09-0.9c-0.42-0.96-0.99-1.81-1.89-2.4c-0.61-0.54-1.09-1.18-1.56-1.82c-0.44-0.6-0.6-1.3-0.22-1.94
	c1.02-1.75,1.69-3.62,2.29-5.54c0.11-0.33,0.34-0.59,0.73-0.64c0.27,1.11,0.9,1.55,2.09,1.42c1.14-0.13,2.31-0.01,3.47-0.03
	c1.84-0.04,3.4,0.52,4.49,2.09c2.21,2.93,4.01,6.13,5.89,9.26C208.5,83.9,209.44,84.68,209.64,85.86z"/>
<path class="st17" d="M197.84,215.33c-0.88-2.13-3-1.79-4.64-2.14c-4-0.86-8.03-1.53-12.05-2.31c-2.15-0.42-4.42-0.88-6.58,0.39
	c-0.75,0.44-1.71,0.33-2.29-0.58c-0.07-0.15-0.04-0.27,0.1-0.36c1.41,0.97,2.73,0.28,4-0.29c0.57-0.26,1.11-0.4,1.67-0.29
	c4.7,0.91,9.4,1.86,14.1,2.8c0.4,0.08,0.8,0.12,1.2,0.18c1.76,0.28,3.45,0.32,4.9,1.92c0.78,0.86,2.7,0.73,4.12,0.95
	c2.46,0.38,4.93,0.71,7.4,1.01c1.17,0.14,1.38,0.7,1.16,1.8c-1.79,8.76-1.94,17.55-0.61,26.41c1.61,10.76,5.6,20.54,11.56,29.57
	c1.69,2.56,3.59,4.97,5.61,7.29c0.41,0.47,0.91,0.9,1.03,1.57c-2.27-1.41-3.55-3.73-5.1-5.76c-4.22-5.54-7.56-11.61-9.94-18.14
	c-2.11-5.81-3.47-11.8-4.24-17.98c-0.77-6.12-0.42-12.14,0.2-18.19c0.14-1.32,0.36-2.65,0.72-3.92c0.44-1.59-0.3-2.14-1.7-2.28
	C204.9,216.61,201.37,215.97,197.84,215.33z"/>
<path class="st18" d="M337.69,283.52c0-0.2,0.01-0.4,0.01-0.6c3.84-4.57,7.41-9.33,10.22-14.62c3.49-6.58,5.99-13.5,7.42-20.84
	c1.23-6.32,1.72-12.66,1.25-19.06c-1.08-14.57-5.98-27.74-14.75-39.45c-0.38-0.5-0.68-1.06-1.01-1.59c1.76,0.95,2.59,2.75,3.62,4.27
	c3.48,5.09,6.36,10.53,8.37,16.37c1.13,3.27,2.1,6.59,2.81,10.03c1.2,5.87,1.64,11.74,1.58,17.69c-0.04,3.82-0.4,7.64-1.12,11.35
	c-1.81,9.37-5.29,18.14-10.46,26.2C343.29,276.93,340.68,280.38,337.69,283.52z"/>
<path class="st19" d="M139.26,125.64c1.36-1.21,2.98-0.67,4.5-0.59c0.77,0.04,1.04,0.79,1.06,1.57c0.16,5.45-0.04,10.9-0.46,16.32
	c-0.16,2-1.73,3.7-3.71,4.67c-0.16-2.99,0.49-6.07-0.37-8.97c-0.9-3.02-0.55-6.03-0.68-9.05
	C139.53,128.27,139.63,126.94,139.26,125.64z"/>
<path class="st20" d="M232.99,107.87c0.31-0.03,0.57,0.05,0.76,0.3c0.7,1.19,1.4,2.38,2.1,3.57c0.16,1.14-0.3,1.58-1.48,1.82
	c-7.2,1.42-14.37,2.95-21.56,4.44c-0.46,0.21-0.92,0.17-1.39,0.03c0.04-1.07,0.93-1.05,1.61-1.19c6.41-1.32,12.83-2.58,19.23-3.91
	c2.69-0.56,2.7-0.54,1.39-2.85C233.28,109.41,232.6,108.79,232.99,107.87z"/>
<path class="st21" d="M7.78,266.48c2.21,3.79,4.44,7.57,6.98,11.15c-0.03,0.13-0.06,0.27-0.09,0.4c-2.72-3.22-4.85-6.84-6.84-10.53
	C7.68,267.23,7.79,266.82,7.78,266.48z"/>
<path class="st22" d="M140.33,64.97c0.39,0.33,0.28,0.7,0.12,1.1c-0.35,0.87-0.04,1.46,0.8,1.8c1.03,0.43,1.85,1.14,2.67,1.89
	c1.37,1.26,3.04,1.83,4.91,1.83c10.14,0,20.28,0.01,30.42-0.01c0.94,0,2.01,0.16,2.54-0.98c0.58-0.33,0.86,0.16,1.11,0.49
	c1.03,1.37,2.28,2.59,3.07,4.14c0.95,2.02,2.4,3.67,3.88,5.3c0.34,0.34,0.66,0.69,0.88,1.12c1.36,2.27,0.83,3.36-1.82,3.38
	c-10.42,0.08-20.84,0.05-31.26,0.02c-1.03,0-1.93-0.33-2.72-0.97c-2.12-1.34-3.08-3.67-4.69-5.45c-1.04-1.15-1.67-2.63-2.88-3.65
	c-2.42-0.21-4.85,0-7.27-0.06c-2.86-0.07-3.2-0.57-2.45-3.27c0.41-1.48,1.28-2.77,1.59-4.28C139.6,66.57,139.96,65.77,140.33,64.97z
	"/>
<path class="st23" d="M139.23,67.37c0.06,1.79-1.22,3.15-1.54,4.83c-0.35,1.81-0.15,2.18,1.7,2.17c2.47-0.01,4.95-0.06,7.42-0.12
	c0.51-0.01,0.9,0.08,1.13,0.57c-0.19,0.9-0.11,1.8,0.01,2.71c0.08,0.61,0.25,1.26-0.42,1.69c-0.9-1.06-2.19-0.92-3.36-0.96
	c-2.44-0.09-4.88,0.05-7.32-0.06c-1.55-0.07-2.58,0.33-2.96,1.94c-0.12,0.5-0.37,0.99-0.91,1.21c0.2-1.89,1.55-3.27,2.22-4.97
	C136.41,73.33,137.87,70.37,139.23,67.37z"/>
<path class="st23" d="M132.97,81.37c0.16,1.6-0.96,2.77-1.53,4.07c-0.68,1.56-0.9,3.42-2.32,4.62
	C130.11,87.03,131.39,84.13,132.97,81.37z"/>
<path class="st24" d="M150.71,161.58c-0.58-1.83-0.45-3.76-0.72-5.63c-0.37-2.61-0.82-5.23-0.99-7.88
	c-0.08-1.24,0.38-1.59,1.59-1.58c6.79,0.05,13.58,0.04,20.36,0.01c1.96-0.01,3.93-0.15,5.89-0.23c0.98,0.81,2.24,0.83,3.37,1.22
	c1.55,0.54,3.28,0.55,4.69,1.52c-0.18,0.73-0.36,1.46-0.53,2.19c-0.1,0.44-0.31,0.96,0.3,1.18c0.45,0.16,0.91-0.18,0.99-0.53
	c0.6-2.56,2.61-2.16,4.43-2.16c11.39,0,22.78,0,34.17,0c2.25,0,2.53,0.29,1.87,2.42c-0.88,2.89-1.87,5.75-3.15,8.49
	c-0.2,0.43-0.42,0.82-0.36,1.3c0.3,1.41-1.03,4.82-2.2,5.59c-0.17,0.11-0.31-0.04-0.43-0.16c-0.38-0.7-0.02-1.35,0.12-2.02
	c0.3-1.39-0.04-1.93-1.39-1.96c-4.92-0.11-9.84-0.27-14.78-0.1c-3.29,0.11-6.6,0.39-9.9-0.06c-1.98-0.27-3.94,0.2-5.91,0.22
	c-0.82,0.01-1.62,0.01-2.43-0.15c-2.09-0.43-2.8-1.55-2.05-3.5c0.33-0.84,0.42-1.67,0.47-2.54c0.09-0.72,0.36-1.44-0.05-2.14
	c-0.76-0.72-1.74-0.61-2.65-0.62c-9.53-0.04-19.05,0-28.58-0.04c-1.35,0-1.84,0.36-1.63,1.82c0.23,1.59,0.27,3.24-0.11,4.85
	C151.03,161.3,150.89,161.46,150.71,161.58z"/>
<path class="st25" d="M211.36,117.92c0.49,0.03,0.97,0.05,1.46,0.08c-3.04,0.48-6.02,1.32-9.06,1.83c-2.2,0.37-4.42,0.84-6.6,1.57
	c-3.01,1.01-5.84,2.54-9,3.1c-4.08,0.72-8.7-1.76-10.15-5.49c1-0.13,1.41,0.67,1.91,1.27c2.67,3.18,5.99,4.1,10.03,2.7
	c-4.01-0.62-7.24-2.5-9.78-5.6c-2.43-2.97-4.6-6.13-7.07-9.07c-0.35-0.41-0.88-0.86-0.34-1.5c1.08,1.25,2.46,1.44,4.05,1.42
	c5.97-0.07,11.95-0.03,17.92-0.03c8.97,0,17.95,0,26.92,0c2.43,0,4.89,0.55,7.28-0.32c-0.09,0.88-0.87,1.04-1.48,1.28
	c-7.78,3.19-15.46,6.64-23.28,9.77c1.69-0.61,3.49-0.78,5.21-1.26C210.05,117.48,210.77,117.36,211.36,117.92z"/>
<path class="st26" d="M148.63,125.67c0.99,0,1.99,0.1,2.96-0.02c4.86-0.58,9.21,1.34,13.67,2.72c5.31,1.64,10.6,3.31,15.9,4.97
	c0.83,0.26,1.65,0.53,2.48,0.77c0.58,0.17,0.91,0.59,0.94,1.13c0.1,2.14,0.15,4.29,0.21,6.44c0.01,0.4-0.32,0.59-0.58,0.81
	c-7.77,0.1-15.53,0.15-23.3-0.02c-3.88-0.08-7.6-1.47-11.33-2.52c-0.94-0.27-1.43-1.01-1.44-1.96c-0.03-3.82-0.02-7.65-0.01-11.47
	C148.15,126.14,148.31,125.86,148.63,125.67z"/>
<path class="st27" d="M172.76,106.81c2.16,3.35,4.8,6.34,7.17,9.53c1.65,2.24,3.67,4,6.22,5.13c1.63,0.72,3.39,1,5.33,1.27
	c-4.5,2.45-8.78,1.61-11.89-2.14c-0.48-0.57-1.05-1.06-1.58-1.59c-2.37-2.76-4.4-5.79-6.96-8.4c-3.07-4.35-6.62-8.32-9.92-12.49
	c-3.62-4.58-7.28-9.14-10.95-13.69c-1.26-1.56-1.67-3.52-2.65-5.21c-0.06-0.92-0.12-1.84-0.18-2.75c-0.04-0.63-0.16-1.3,0.59-1.65
	c2.23,2.87,4.46,5.75,6.69,8.62c0.67,0.44,1.08,1.12,1.63,1.68c1.32,1.87,2.96,3.49,4.27,5.38c0.92,1.36,2.04,2.58,3.02,3.89
	c0.5,0.78,1.13,1.48,1.73,2.19c0.63,1.15,1.79,1.95,2.15,3.27C168.93,102.37,170.73,104.67,172.76,106.81z"/>
<path class="st28" d="M148.63,125.67c-0.49,4.16-0.17,8.34-0.23,12.51c-0.01,0.74,0.52,1.07,1.22,1.25
	c3.53,0.91,7.04,1.88,10.58,2.77c0.77,0.19,1.61,0.19,2.42,0.19c7.2,0.04,14.4,0.07,21.6,0.1c0.01,0.06,0.01,0.12,0.01,0.19
	c-8.17,0.01-16.35,0.18-24.52-0.05c-3.29-0.09-6.59-0.14-9.88-0.23c-0.77-0.02-1.42,0.05-1.55-1.09c-0.52-4.91-0.23-9.83-0.31-14.74
	c-0.01-0.35,0.04-0.69,0.32-0.96C148.41,125.62,148.52,125.64,148.63,125.67z"/>
<path class="st29" d="M188.8,136.06c0.5-2,1.01-4,1.52-5.99c0.11-0.44,0.35-0.75,0.86-0.63c0.6,0.14,0.62,0.55,0.48,1.07
	c-0.43,1.61-0.79,3.23-1.24,4.83c-0.22,0.8-0.64,1.43-1.6,0.74C188.8,136.08,188.8,136.06,188.8,136.06z"/>
<path class="st30" d="M184.9,149.01c-2.89-0.18-5.55-1.38-8.33-2.03c-1.2-0.28,0.42-0.36,0.27-0.71c2.68-0.12,5.36-0.16,8.05,0.02
	C185.13,147.2,185.07,148.1,184.9,149.01z"/>
<path class="st31" d="M211.1,187.35c0.02,0.23,0.04,0.45,0.06,0.68c-0.33,2.16-1.61,3.89-2.58,5.75c-0.32,0.6-0.76,1.15-1.15,1.72
	c-0.17,0.31-0.44,0.56-0.55,0.89c-1.12,3.29-3.52,4.16-6.81,4.1c-7.24-0.12-14.49-0.15-21.89,0.05c0.53,0.16,0.93,0.26,0.84,0.81
	c-0.6,0.21-1.19,0.18-1.78-0.03c-1.68,0.2-3.29-0.13-4.85-0.72c0.57-1.76,0.28-3.65,0.85-5.44c0.39-1.21,1.03-2.45,0.76-3.82
	c0.44-2.77,1.44-5.42,2.09-8.58c-2.63,3.46-4.46,6.95-6.8,10.12c-1.34,1.82-2.64,3.67-3.87,5.57c-0.28,0.43-0.54,0.9-1.08,1.1
	c-0.27,0.08-0.61,0.3-0.81,0.21c-2.11-0.91-4.42-0.78-6.6-1.28c-1.31-0.3-1.5-1.54-1.61-2.6c-0.62-5.54-1.64-11.03-2.31-16.56
	c-0.48-3.95-1.21-7.86-1.54-11.82c1.07,0,1.17,0.84,1.2,1.57c0.13,2.67,1.09,5.2,1.18,7.89c0.05,1.56,1,2.47,2.59,2.47
	c6.19,0,12.39,0.3,18.58-0.16c0.7-0.05,1.39-0.13,2.06,0.1c0.3,0.12,0.54,0.32,0.72,0.58c0.77,1.66-0.45,3.09-0.55,4.66
	c-0.7,2.09-1.25,4.21-1.57,6.39c-0.17,1.16,0.22,1.79,1.47,1.75c2.89-0.09,5.75,0.28,8.67,0.15c3.68-0.17,7.39-0.15,11.1,0.01
	c2.87,0.12,5.78-0.04,8.67-0.17c1.78-0.08,2.64-1.45,3.43-2.87C209.53,188.9,209.66,187.55,211.1,187.35z"/>
<path class="st32" d="M251.86,170.92c2.02-0.29,2.41,0.06,2.83,2.48c-1.93-1.61-3.52-0.5-5.23,0.54c-4.21,2.58-8.36,5.23-11.91,8.67
	c-3.94,3.83-7.84,7.67-10.85,12.38c-2.76,4.31-5.44,8.6-7.36,13.35c-0.17,0.43-0.33,0.87-0.45,1.32c-0.3,1.21,0.13,1.93,1.4,2.06
	c3.99,0.42,4.92,3.33,4.43,6.68c-0.16,1.12-0.89,1.84-2.06,1.64c-1.9-0.31-3.82,0.62-5.7-0.14c-0.34-0.14-0.73-0.05-0.88,0.34
	c-0.3,0.75-0.97,1.37-0.96,2.22c0.08,3.97-1.29,7.84-0.78,11.85c0.14,1.09,0.03,2.2,0.02,3.31c-0.02,1.17-0.05,2.33,0.7,3.34
	c0.14,0.19,0.26,0.46,0.19,0.66c-0.72,2.13,0.37,4.1,0.67,6.09c0.32,2.17,0.89,4.4,1.98,6.39c0.48,0.88,0.92,1.81,1,2.77
	c0.17,2.01,1.17,3.63,2.17,5.25c1.13,1.84,2.14,3.73,2.91,5.74c0.4,1.07,1.29,1.79,1.85,2.72c1.6,2.67,3.59,5.06,5.42,7.56
	c1.3,1.78,3.22,3,4.69,4.65c2.41,2.71,5.45,4.73,8.31,6.81c2.22,1.61,4.58,3.34,7.29,4.32c1.68,0.61,3.22,1.48,4.73,2.51
	c1.27,0.87,2.87,1.47,4.45,1.81c1.74,0.39,3.56,0.54,5.22,1.18c2.13,0.83,4.36,1.28,6.53,1.95c0.17,0.05,0.34,0.13,0.51,0.12
	c4.49-0.17,8.93,1.55,13.38,0.66c2.22-0.45,4.48-0.28,6.6-0.76c5.03-1.12,10.06-2.44,14.86-4.29c2.47-0.95,5.07-1.95,7.26-3.63
	c3.13-2.41,6.83-3.95,9.9-6.47c1.08-0.88,2.19-1.72,3.18-2.7c2.42-2.42,4.75-4.91,7.34-7.17c1.29-1.12,1.94-2.96,3.09-4.34
	c2.29-2.75,3.66-6.05,5.43-9.11c2.26-3.92,3.57-8.23,4.99-12.49c1.2-3.6,1.05-7.38,1.85-11.01c0.46-2.07,0.71-4.09-0.01-6.13
	c-0.07-0.21-0.08-0.48-0.02-0.69c1.02-3.55-0.31-6.96-0.5-10.43c-0.2-3.55-1.37-6.84-1.91-10.28c-0.28-1.78-1.6-3.05-2.27-4.67
	c-2.16-5.27-4.64-10.35-8.25-14.85c-1.06-1.32-1.68-2.98-3.25-3.91c-0.43-0.26-0.68-0.81-0.81-1.32c-0.34-1.34-1.43-1.95-2.36-2.83
	c-1.57-1.5-3.62-2.51-4.92-4.07c-1.6-1.92-3.83-2.69-5.57-4.23c-3.3-2.9-7.68-3.95-11.25-6.41c-1.16-0.8-2.64-0.87-3.96-1.27
	c-1.56-0.48-3.1-0.8-4.48-1.79c-0.82-0.59-2.03-0.61-2.98-0.7c-2.05-0.21-3.94-1.49-6.08-0.89c-0.22,0.06-0.49,0.1-0.69,0.01
	c-3.55-1.67-7.32-0.66-10.99-0.85c-1.99-0.1-4.08-0.42-5.94,0.78c-0.34,0.22-0.8,0.12-1.2,0.04c-1.12-0.21-2.14-0.1-3.2,0.42
	c-1.13,0.55-2.45,0.32-3.7,0.7c-1.39,0.42-2.69,0.97-3.99,1.55c-0.27,0.12-0.55,0.19-0.81,0.31c-0.79,0.37-1.79-0.08-2.49,0.59
	c-0.79,0.76,0.21,1.67-0.15,2.49c-0.05,0.1-0.12,0.2-0.2,0.28c-1.65-2.39-1.65-2.85-0.03-4.15c3.26-1.59,6.78-2.38,10.29-3.06
	c6.75-1.3,13.56-1.71,20.45-1.03c10.8,1.06,20.8,4.37,30.01,10.07c12.65,7.83,21.97,18.63,27.76,32.28
	c4.82,11.35,6.58,23.23,4.99,35.58c-2.52,19.56-11.64,35.34-27.16,47.33c-8.14,6.29-17.33,10.57-27.5,12.69
	c-10.41,2.17-20.82,2.23-31.08-0.35c-19.16-4.82-33.91-15.79-44.02-32.82c-8.14-13.72-10.74-28.59-9.01-44.33
	c0.18-1.61,0.5-3.21,0.79-4.81c0.21-1.15,0.76-1.71,2.07-1.4c1.41,0.33,2.87,0.42,4.3,0.66c1.45,0.25,2.63-0.19,3.09-1.59
	c0.45-1.38-0.34-2.29-1.63-2.83c-1.6-0.67-3.16-1.45-4.78-2.06c-0.83-0.31-0.91-0.77-0.66-1.47c4.49-12.55,11.8-23.11,22.12-31.6
	c3.83-3.15,8.08-5.62,12.34-8.08C251.39,170.93,251.64,170.96,251.86,170.92z"/>
<path class="st33" d="M207.27,195.02c-0.59,2.56-2.32,4.57-3.33,6.93c-0.47,1.1-1.73,2.1-1.43,3.21c0.31,1.15,1.93,1.12,2.99,1.59
	c1.63,0.71,3.24,1.44,4.88,2.12c0.43,0.18,0.9,0.25,1.02,0.8c-3.35-1.02-6.48-2.58-9.7-3.93c-0.54-0.23-1.06-0.43-1.64-0.52
	c-5.01-0.8-10.02-1.6-15.03-2.41c-0.17-0.03-0.32-0.12-0.48-0.19c-1.09-0.65-2.35-0.32-3.5-0.6c-0.22-0.02-0.45-0.04-0.67-0.06
	c-0.42-0.3-1.09-0.12-1.37-0.7c-0.48-0.49-1.09-0.25-1.65-0.32c-0.37-0.04-0.95,0.13-0.94-0.46c0.01-0.47,0.53-0.65,0.94-0.55
	c1.27,0.31,2.52-0.05,3.78-0.04c6.68,0.03,13.37-0.07,20.05,0.06c2.52,0.05,4.08-0.97,4.97-3.2
	C206.41,196.08,206.77,195.51,207.27,195.02z"/>
<path class="st33" d="M174.46,191.16c0.14,1.97-0.62,3.75-1.17,5.57c-0.21,0.69-0.41,1.43-0.05,1.99c0.78,1.21-0.04,1.5-0.87,1.87
	c-1.06,0.62-0.76,1.77-0.83,2.64c-0.22,2.39-1.09,4.93,0.84,7.08c-0.03,0.12-0.07,0.24-0.1,0.36c-1.67-1.14-1.68-2.87-1.54-4.59
	c0.04-0.56,0.25-1.11,0.18-1.69c-0.63-1.14-0.7-2.38-0.13-3.48c1.17-2.28,1.66-4.75,2.33-7.18
	C173.38,192.83,173.24,191.61,174.46,191.16z"/>
<path class="st34" d="M179,201.26c0.52,0.11,1.02,0.26,1.37,0.7c-1.11,0.12-2.14-0.22-3.14-0.64
	C177.83,201.3,178.42,201.28,179,201.26z"/>
<path class="st6" d="M240.08,173.01c0.66-0.88,1.45-1.56,2.6-1.69C241.89,172,241.18,172.8,240.08,173.01z"/>
<path class="st34" d="M181.05,202.02c1.19,0.05,2.47-0.38,3.5,0.6C183.38,202.42,182.22,202.22,181.05,202.02z"/>
<path class="st35" d="M122.81,251.84c2.95,0.68,5.52,2.3,8.32,3.36c2.16,0.82,4.22,1.89,6.35,2.77c1.09,0.45,1.52,0.88,0.97,2.19
	c-4.73,11.31-11.99,20.66-21.55,28.29c-0.45,0.36-0.92,0.7-1.39,1.05c-3.77,3.02-7.96,5.35-12.3,7.41
	c-3.27,1.55-6.67,2.9-10.17,3.84c-4.06,1.08-8.18,1.92-12.38,2.32c-3.96,0.47-7.66,0.18-10.14-3.56
	c-9.13-7.82-19.59-12.98-31.24-15.9c-5.53-1.38-11.2-1.95-16.76-3.15c-0.9-0.45-1.53-1.2-2.12-1.98c-0.28-1.23-1.61-1.8-1.88-3.03
	c-0.67-1.67-1.52-3.22-2.96-4.36c-0.33-0.26-0.61-0.51-0.77-0.9c-1-2.47-2.21-4.82-3.76-7c-0.96-1.34-1.11-3.04-1.65-4.55
	c-1.49-4.21-3.12-8.35-3.93-12.83c-0.49-2.72-0.39-5.46-0.92-8.18c-0.65-3.28-0.8-6.81,0.38-10.15c0.12-0.33,0.21-0.67,0.18-1.02
	c-0.44-4.59,0.83-8.99,2.29-13.16c1.03-2.95,1.73-6.1,3.36-8.86c2.55-4.33,4.78-8.89,7.94-12.82c1.31-1.63,2.55-3.29,3.77-4.98
	c0.69-0.95,1.98-1.22,2.67-2.19c2.63-3.68,6.68-5.63,10.07-8.39c4.01-3.26,8.77-5.13,13.36-7.18c3.21-1.43,6.63-2.73,10.15-3.42
	c6.94-1.36,13.97-2.12,21.02-1.36c2.36,0.26,4.84,0.18,7.15,1.13c0.98,0.4,2.17,0.1,3.23,0.52c3.95,1.58,8.27,2.28,12.01,4.32
	c4.14,2.26,8.59,4.06,12.16,7.3c0.75,0.68,1.41,1.28,0.57,2.31c-1.56,2.58-3.66,4.74-5.53,7.08c-4.79,5.98-9.63,11.94-14.47,17.88
	c-4.33,5.32-8.69,10.62-13.05,15.92c-0.63,0.76-1.3,1.52-2.47,1.31c-0.62,0.5-1.22,0.07-1.82-0.07c-6.84-1.57-12.61,1.12-14.87,7.33
	c-2.04,5.61-0.11,11.68,5.43,14.85c4.97,2.84,11.78,1.44,15.23-3.11c0.7-0.93,1.34-1.89,1.8-2.97c0.25-0.58,0.45-1.22,1.17-1.41
	c0.49-0.55,0.61-1.31,0.61-1.94c0-1.5,0.77-1.75,2.05-1.91c3.07-0.4,6.12-1,9.18-1.54c2.21-0.39,4.42-0.8,6.63-1.21
	c0.5,0.74,0.16,1.39-0.36,1.85c-2.13,1.89-2.48,4.6-3.27,7.07c-0.46,1.44,0.46,2.65,1.59,3.58c0.77,0.59,1.64,1.01,2.5,1.43
	c0.82,0.45,1.68,0.83,2.54,1.21c0.05,0.06,0.1,0.12,0.15,0.18c-0.1,2.07,1.41,2.73,2.94,3.38c2.08,0.88,4.15,1.76,6.22,2.64
	c1.3,0.55,2.54,1.46,4.02,0.24C121.56,251.06,122.13,252.09,122.81,251.84z"/>
<path class="st35" d="M107.51,225c-1.58,1.13-3.52,0.9-5.28,1.29c-4.42,0.97-8.89,1.73-13.35,2.48c-1.15,0.19-2.42,0.38-3.44-0.57
	c-0.62-0.17-0.89-0.53-0.6-1.17c-1.67-2.36-0.08-3.91,1.31-5.59c5.36-6.49,10.71-13,16.02-19.53c5.24-6.44,10.42-12.93,15.64-19.38
	c0.5-0.61,0.95-1.35,1.86-1.46c2.72,1.35,4.61,3.59,6.36,5.97c0.43,0.59,0.17,1.19-0.06,1.81c-0.62,1.64-1.64,3.05-2.4,4.61
	c-1.98,4.34-4.08,8.63-6.31,12.85c-2.96,5.49-5.65,11.11-8.41,16.69C108.47,223.72,108.17,224.47,107.51,225z"/>
<path class="st36" d="M177.17,179.67c-6.64,0.67-13.29,0.25-19.94,0.35c-3.18,0.05-3.94-0.82-4.06-3.95
	c-0.11-2.69-1.16-5.27-1.15-7.99c0-0.2-0.37-0.4-0.57-0.6c-0.02-0.11-0.03-0.22-0.02-0.34c-0.32-1.76-0.08-3.55-0.23-5.32
	c0.75-1.76,2.3-1.92,3.92-1.92c7.64-0.01,15.27-0.01,22.91,0c1.15,0,2.32-0.13,3.44,0.24c0.84,0.45,0.83,1.22,0.63,1.97
	c-1.52,5.78-3.2,11.51-4.71,17.29C177.37,179.51,177.26,179.59,177.17,179.67z"/>
<path class="st37" d="M86.25,236.48c-1.28,3.33-3.16,6.12-6.38,7.94c-7.49,4.23-17.26-0.64-18.42-9.16
	c-1.12-8.24,5.15-14.63,12.79-14.49c1.75,0.03,3.4,0.59,5.05,1.09c1.21,0.88,0.13,1.54-0.31,2.1c-1.96,2.5-4,4.94-6.02,7.4
	c-0.72,0.87-1.38,1.74-0.71,2.95c0.67,1.21,1.78,0.92,2.77,0.76c2.97-0.47,5.92-1.08,8.89-1.54c2.46-0.39,2.47-0.33,2.28,2.09
	C86.19,235.91,86.24,236.2,86.25,236.48z"/>
<path class="st38" d="M107.51,225c0.96-2.77,2.43-5.29,3.73-7.9c1.61-3.22,3.16-6.46,4.76-9.68c0.23-0.45,0.6-0.83,0.91-1.24
	c0.88,1.29,2.14,1.56,3.62,1.53c5.74-0.12,11.48,0.15,17.21-0.16c0.52-0.03,1.05-0.07,1.46,0.35c-2.57,3.18-3.52,6.94-3.77,10.91
	c-0.07,1.15-0.44,1.51-1.61,1.72c-5.1,0.89-10.15,2.15-15.27,2.87C114.87,223.91,111.29,225.19,107.51,225z"/>
<path class="st39" d="M102.58,242.76c-1.95-1.25-2.52-3.06-1.67-5.11c0.65-1.57,1.27-3.16,1.79-4.78c0.39-1.21,2.19-1.42,2.02-2.98
	c5.59-1.03,11.17-2.16,16.78-3.06c4.38-0.7,8.75-1.41,13.07-2.43c0.81-0.19,1.24,0.08,1.6,0.88c0.8,1.78,1.31,3.7,2.5,5.3
	c0.44,0.59-0.03,0.89-0.44,1.26c-3.43,3.1-7.01,6.01-10.61,8.91c-0.55,0.44-0.96,0.98-1.41,1.51c-0.64,0.76-1.15,1.78-2.36,1.83
	c0.77-2.24,0.77-2.23-1.6-3.3c-5.48-2.48-11.01-4.86-16.48-7.36c-1.29-0.59-2.04-0.43-2.54,0.94c-0.34,0.92-0.77,1.81-1.11,2.73
	c-0.5,1.35-0.56,2.7,0.13,4.04C102.5,241.64,102.92,242.14,102.58,242.76z"/>
<path class="st40" d="M139.21,207.9c-6.8,0.79-13.62,0.17-20.43,0.37c-1.46,0.04-1.93-0.78-1.86-2.09c2.1-4.29,4.19-8.58,6.29-12.87
	c0.69,0.78,0.15,1.52-0.09,2.26c-0.34,1.03,0.06,1.6,1.07,1.67c2.18,0.15,4.37,0.11,6.56,0.02c0.85-0.03,1.29-0.44,0.98-1.36
	c-0.11-0.33-0.15-0.67-0.03-1.02c0.98-0.69,1.19,0.34,1.5,0.78c1.86,2.66,3.29,5.57,4.69,8.49c0.05,0.1,0.06,0.23,0.13,0.32
	c0.45,0.58,0.23,1.83,1.36,1.69c1.04-0.13,1.8-2.07,1.29-3.16c-1.16-2.46-2.26-4.95-3.72-7.25c-0.56-0.88-1.11-1.76-1.36-2.8
	c-0.62-1.9-0.24-2.53,1.8-2.62c2.82-0.12,5.65-0.03,8.48-0.04c2.81-0.01,2.86-0.05,3.32-2.76c0.08-0.46,0.13-0.92,0.54-1.23
	c0.29,1.52,0.68,3.02,0.83,4.56c0.21,2.19,0.47,4.36,0.86,6.52c0.26,1.41-0.52,2.12-1.81,2.5c-3.2,0.95-6.08,2.37-7.97,5.34
	C140.99,206.2,140.03,207,139.21,207.9z"/>
<path class="st41" d="M141.21,156.24c-0.32-2.29,1.18-3.73,2.5-5.24c0.28-0.32,0.55-0.9,1.08-0.69c0.51,0.2,0.32,0.8,0.38,1.24
	c0.7,5.07,1.4,10.14,2.1,15.22c0.07,0.16,0.18,0.3,0.16,0.49c-0.32,3.36,0.88,6.59,0.88,9.94c0,1.83-0.5,2.87-2.32,2.96
	c-4.22,0.21-8.46,0.2-12.68,0.01c-2.17-0.1-2.66-1.45-1.59-3.76c0.05-0.18,0.13-0.36,0.2-0.54c1.56-2.56,2.65-5.34,3.81-8.09
	c0.2-0.59,0.49-1.12,0.87-1.61c1-1,1.3-2.41,2.08-3.54c0.28-0.4,0.44-1.24,1.2-0.48c0.47,2.8,0.07,5.63,0.23,8.44
	c0.03,0.55-0.37,1.27,0.44,1.61c0.49-0.62,0.27-1.34,0.28-2.01c0.03-2.93,0-5.87,0.02-8.8c0.01-0.9-0.1-1.72-0.84-2.33
	C139.7,157.81,140.92,157.23,141.21,156.24z"/>
<path class="st42" d="M132.24,175.82c-0.03,0.29,0.02,0.6-0.09,0.85c-1.05,2.52-0.73,3,2.03,3.01c3.76,0,7.52,0.01,11.29,0
	c1.95-0.01,2.36-0.54,2.51-2.46c0.27-3.52-1.23-6.91-0.71-10.44c0.76,1.89,0.51,3.95,0.8,5.9c0.38,2.58,1.03,5.19,0.94,7.83
	c-0.07,1.98,1.07,3.79,0.72,5.78c-0.01,5.52-0.73,4.52-4.6,4.55c-2.19,0.01-4.38,0-6.58,0c-2.85,0-2.85,0-2.47,2.51
	c-0.64,0.07-0.89-0.42-1.19-0.84c-2.05-2.86-4.21-5.63-6.53-8.27c-0.37-0.42-0.85-0.82-0.69-1.49c1.43-1.61,2.11-3.65,3.11-5.5
	C131.11,176.62,131.24,175.76,132.24,175.82z"/>
<path class="st32" d="M114.83,179.68c0.28-2.25-1.9-2.4-2.98-3.49c-2.57-2.6-6.31-3.19-9.19-5.33c-1.71-1.27-3.86-2.04-6.06-2.34
	c-1.57-0.21-2.87-0.94-4.25-1.7c-1.19-0.65-2.72-1.11-4.23-1.06c-0.11,0-0.25,0.11-0.33,0.07c-2-1.01-4.34-0.21-6.33-1.21
	c-0.56-0.28-1.11-0.29-1.68-0.29c-3.95-0.01-7.9,0-11.85-0.01c-0.77,0-1.5,0-2.07,0.65c-0.34,0.39-0.78,0.33-1.28,0.24
	c-1.23-0.23-2.51-0.63-3.51,0.62c-0.11,0.14-0.44,0.19-0.64,0.15c-2.25-0.45-4.18,0.26-6.04,1.5c-1.36,0.9-3.05,0.86-4.57,1.33
	c-1.9,0.59-3.65,1.5-5.3,2.55c-1.23,0.78-2.59,1.35-3.89,1.9c-5.11,2.16-8.75,6.42-13.45,9.16c-0.96,0.56-1.11,2.05-2.12,2.81
	c-3.62,2.71-5.67,6.71-8.35,10.2c-1.61,2.1-2.93,4.27-3.78,6.73c-0.34,0.99-1.19,1.52-1.75,2.3c-1.45,2.01-1.19,4.53-2.31,6.62
	c-0.28,0.53-0.33,1.18-0.88,1.6c-0.22,0.16-0.55,0.53-0.5,0.63c0.77,1.53-1.34,2.65-0.56,4.15c-1.74,1.32,0.06,3.59-1.42,5.1
	c-0.57,0.58-0.27,1.78-0.04,2.69c0.28,1.1,0.45,2.17-0.49,3.08c-0.42,0.4-0.36,0.96-0.36,1.48c0,2.32-0.39,4.73,0.1,6.95
	c0.52,2.35,0.15,4.87,0.83,6.92c0.57,1.71-0.38,3.84,1.34,5.16c-0.87,1.46,0.98,2.5,0.58,3.95c-0.23,0.85,1.07,1.13,1.21,1.98
	c0.39,2.34,1.94,4.34,1.95,6.81c0,0.35,0.28,0.81,0.57,1.04c1.71,1.41,1.82,3.8,3.34,5.33c0.36,0.36,0.55,0.89,0.52,1.44
	c-0.04,0.71,0.42,0.93,0.92,1.37c1.41,1.26,2.65,2.76,2.92,4.78c-1.1-0.01-1.24-1.08-1.77-1.69c-0.49-0.56-0.89-1.21-1.38-1.78
	c-3.8-5.32-6.46-11.19-8.5-17.36c-2.85-8.65-3.73-17.56-3.12-26.63c0.69-10.22,3.61-19.8,8.6-28.71
	c6.03-10.77,14.34-19.42,24.94-25.82c7.45-4.5,15.43-7.53,24.03-9.05c7.28-1.29,14.57-1.46,21.85-0.45
	c10.82,1.51,20.77,5.44,29.83,11.58c0.18,0.12,0.27,0.36,0.41,0.55c0.22,0.49,0.63,0.79,1.08,1.06
	C116.22,178.09,116.13,178.9,114.83,179.68z"/>
<path class="st2" d="M102.58,242.76c-1.71-3.11-1.35-7.35,0.86-10.01c0.32-0.39,0.63-0.56,1.19-0.31c6.7,3,13.41,5.96,20.11,8.95
	c0.84,0.38,1.14,0.92,0.21,1.64c-0.4,0.3-0.94,0.5-1.1,1.07c-0.46,0.4-0.92,0.8-1.38,1.2c-0.84,0.6-1.52,1.39-2.36,1.99
	c-0.9,0.57-1.77,0.24-2.62-0.12c-1.79-0.76-3.65-1.41-5.33-2.37c-1.63-0.93-2.97-0.98-4.28,0.41c0,0-0.01-0.01-0.01-0.01
	c-1-0.12-1.76-0.88-2.76-1C104.26,243.72,103.42,243.24,102.58,242.76z"/>
<path class="st35" d="M135.41,239.65c1.57-1.4,3.11-2.84,4.75-4.16c0.51-0.41,1.07-1.31,1.88-0.8c0.87,0.54,1.66,1.29,1.33,2.54
	c-0.41,0.6-0.41,1.29-0.5,1.98c-0.44,3.3-0.52,6.65-1.42,9.89c-0.16,0.57-0.27,1.17-0.97,1.3c-0.69,0.13-1.17-0.17-1.63-0.72
	c-1.35-1.61-3.28-2.54-4.81-3.94c-1.78-1.63-1.87-2.58-0.37-4.41c0.15-0.18-0.05,0.04,0.1-0.14
	C134.25,240.6,134.77,240.06,135.41,239.65z"/>
<path class="st43" d="M122.51,177.44c0.37,0.16,0.73,0.33,0.66,0.84c-0.39,0.27-0.9,0.18-1.31,0.44c-1.27,0.8-1.4,1.76-0.28,2.76
	c3.79,3.38,6.8,7.43,9.79,11.49c0.36,0.5,0.87,0.98,0.56,1.71c0.01,0.17-0.03,0.36,0.03,0.52c0.87,2.47,0.77,2.61-1.98,2.62
	c-1.86,0-3.72,0.03-5.57-0.01c-1.94-0.04-2.53-0.95-1.68-2.7c0.29-0.59,0.53-1.14,0.49-1.79c0.57-1.67,1.67-3.08,2.35-4.72
	c0.34-0.82,0.21-1.18-0.22-1.78c-1.59-2.22-3.82-3.79-5.68-5.74C119.46,179.42,120.97,177.49,122.51,177.44z"/>
<path class="st32" d="M135.41,239.65c-0.47,0.58-0.97,1.14-1.39,1.75c-1.5,2.14-1.46,2.71,0.67,4.24c1.21,0.87,2.21,2.04,3.63,2.62
	c0.6,0.24,0.77,0.82,0.97,1.37c0.18,0.49,0.6,0.48,1.01,0.46c0.51-0.03,0.51-0.37,0.64-0.8c1.03-3.47,1.02-7.08,1.42-10.63
	c0.08-0.76,0.38-1.16,1.01-1.42c0.03,0.69,0.05,1.38,0.08,2.07c-0.17,3.99-0.88,7.89-1.98,11.73c-0.18,0.64-0.41,0.91-1.06,0.39
	c-3.05-2.43-6.33-4.58-9.22-7.22c-0.09-0.37-0.47-0.85-0.03-1.11C132.73,242.12,133.62,240.33,135.41,239.65z"/>
<path class="st44" d="M84.84,227.03c0.03,0.48,0.27,0.85,0.6,1.17c-0.04,0.51,0.08,1.15-0.61,1.27c-1.79,0.33-3.59,0.6-5.68,0.94
	c1.03-1.94,2.22-3.36,3.53-4.57C84.09,224.53,84.05,226.7,84.84,227.03z"/>
<path class="st24" d="M151.45,161.89c0,1.75-0.01,3.5-0.01,5.25c-0.24-1.85-0.49-3.71-0.73-5.56c0,0,0.07-0.06,0.07-0.06
	C151.14,161.39,151.33,161.58,151.45,161.89z"/>
<path class="st39" d="M120.1,247.28c0.58-0.92,1.39-1.54,2.36-1.99C121.86,246.18,121.2,246.99,120.1,247.28z"/>
<path class="st45" d="M20.63,278.34c0.46,0.71,1.03,1.32,1.74,1.79c0.83,0.32,1.5,0.86,2.11,1.49c8.52,8.89,18.79,14.88,30.58,18.25
	c5.02,1.43,10.15,2.37,15.42,2.4c2.83,0.02,5.59,1.03,8.46,0.67c0.57-0.07,1.16,0.13,1.71-0.14c12.25-1.31,23.45-5.42,33.52-12.56
	c0.42-0.29,0.9-0.49,1.36-0.73c-0.34,1.21-1.53,1.53-2.38,2.12c-6,4.1-12.54,7.13-19.47,9.25c-9.45,2.9-19.16,3.27-28.88,2.15
	c-6.65-0.77-13.06-2.7-19.23-5.43c-7.77-3.44-14.63-8.18-20.73-14.02c-1.76-1.69-3.73-3.3-4.86-5.58
	C20.35,277.81,20.47,278.12,20.63,278.34z"/>
<path class="st46" d="M20.63,278.34c-0.22-0.12-0.44-0.23-0.65-0.35c-1.5-1.9-3.2-3.65-4.22-5.9c1.51,0.74,1.84,2.55,3.15,3.47
	C19.16,276.69,20.52,277.12,20.63,278.34z"/>
<path class="st35" d="M258.88,172.01c-0.01-0.17,0.02-0.36-0.03-0.52c-0.76-2.69-0.76-2.69,2.1-3.04c0.22-0.03,0.45-0.13,0.64-0.25
	c1.79-1.1,3.79-1.94,5.75-2.26c1.56-0.25,3.2-1.17,4.64-0.8c2.1,0.54,3.65-0.9,5.56-0.84c3.54,0.12,7.09,0.02,10.63,0.04
	c1.01,0.01,2.1-0.29,2.85,0.8c0.24,0.34,0.74,0.22,1.15,0.14c1.28-0.26,2.6-0.76,3.68,0.53c0.26,0.31,0.64,0.06,0.98,0
	c0.82-0.15,1.62-0.18,2.25,0.53c0.37,0.43,0.8,0.28,1.27,0.16c0.5-0.13,1.09-0.22,1.41,0.34c0.5,0.85,1.35,1.17,2.18,1.28
	c3.99,0.52,7.36,2.51,10.74,4.47c0.77,0.45,1.55,0.75,2.44,0.81c0.28,0.02,0.73,0.03,0.81,0.19c1.05,2.16,3.37,2.85,5.14,3.95
	c1.67,1.03,2.91,2.26,4.18,3.61c0.45,0.48,1.08,1.11,1.97,0.87c0.34-0.09,0.65,0.18,0.7,0.4c0.41,1.79,1.98,2.35,3.27,3.24
	c0.48,0.33,0.91,0.76,0.9,1.55c0,0.72,0.41,1.64,1.08,1.9c2.55,0.98,2.85,3.68,4.32,5.47c3.34,4.07,5.41,8.91,7.35,13.79
	c0.69,1.73,2.31,3.06,2.31,5.08c0.01,1.65,1.15,3.08,0.84,4.77c-0.02,0.11-0.08,0.26-0.04,0.34c1.73,3.25,1.11,6.96,1.75,10.41
	c0.51,2.72,0.04,5.83,0.05,8.77c0.01,1.84-0.25,4.01-1.04,5.9c-0.25,0.6-0.21,1.26,0.03,1.88c0.26,0.66,0.22,1.24-0.3,1.76
	c-0.25,0.24-0.55,0.52-0.42,0.9c0.63,1.95-1.08,3.35-1.2,5.05c-0.2,2.83-2.43,4.84-2.68,7.72c-0.14,1.59-1.7,3.04-2.57,4.57
	c-1.5,2.64-2.84,5.38-4.67,7.82c-0.96,1.28-2.24,2.28-2.6,4.03c-0.1,0.5-1.39,0.74-2.01,1.37c-2.42,2.5-4.83,5.02-7.39,7.36
	c-1.51,1.38-3.22,2.6-4.99,3.63c-2.45,1.42-4.79,2.99-7.13,4.57c-0.88,0.6-1.71,1.27-2.91,1.34c-1.59,0.1-2.41,1.83-4.02,2.09
	c-2.03,0.33-3.97,1.14-5.91,1.73c-1.49,0.46-3.59-0.15-4.6,1.7c-0.04,0.08-0.21,0.14-0.31,0.12c-2.51-0.35-4.88,1.56-7.45,0.49
	c-0.24-0.1-0.62-0.08-0.84,0.05c-3.3,1.98-6.89,0.41-10.31,0.89c-1.54-1.61-3.58-0.13-5.15-0.76c-1.88-0.76-3.97-0.26-5.81-1.56
	c-1.03-0.73-2.66-0.97-4.19-1.06c-1.16-0.06-2.49-0.44-3.71-0.88c-0.98-0.35-1.72-1.44-2.98-1c-0.12,0.04-0.39-0.06-0.47-0.18
	c-1.61-2.34-4.43-2.49-6.66-3.69c-1.31-0.7-2.33-2.08-3.69-2.53c-3.11-1.02-4.92-3.74-7.53-5.43c-2.59-1.68-4.75-4.31-6.99-6.62
	c-1.27-1.32-2.08-3.03-3.58-4.3c-0.64-0.54-0.87-2.15-1.65-3.08c-3.18-3.78-4.52-8.6-7.27-12.62c-0.6-0.88-0.02-1.84-0.5-2.8
	c-0.77-1.51-1.26-3.16-2.11-4.67c-0.51-0.91-0.68-2.34-0.65-3.07c0.1-2.21-1.75-4.18-0.67-6.41c0.11-0.22,0.09-0.7-0.06-0.82
	c-1.44-1.18-0.84-2.78-0.88-4.22c-0.08-2.67-0.03-5.34-0.02-8.02c0.01-1.19-0.26-2.45,0.82-3.42c0.19-0.17,0.26-0.73,0.13-0.97
	c-1.03-1.91,0.51-3.44,0.73-5.16c0.07-0.56,0.76-0.44,1.18-0.21c2.09,1.2,4.34-0.39,6.48,0.37c0.47,0.17,0.89-0.47,1.06-0.99
	c1.09-3.36-0.82-6.15-4.32-6.34c-1.19-0.06-1.99-1.26-1.65-2.46c1.03-3.59,3.08-6.7,4.68-10.02c1.21-2.51,2.94-4.64,4.43-6.88
	c1.66-2.5,3.49-5.14,6.08-7c1.68-1.21,2.75-3.09,4.42-4.38c2.31-1.78,4.42-3.79,6.98-5.28c1.58-0.91,3.12-1.94,4.61-3.01
	c0.98-0.71,2.06-1,3.1-1.45c1.48-0.64,1.32,1.11,2.08,1.55c1.91,2.86,2.85,6.18,4.24,9.28c3.69,8.28,7.2,16.64,10.79,24.96
	c1.88,4.35,3.76,8.71,5.66,13.05c0.38,0.88,0.58,1.71-0.1,2.53c0.24,0.93-0.52,1.35-1,1.87c-4.32,4.61-4.55,11.25-0.53,16.21
	c3.61,4.45,10.71,5.56,15.68,2.23c4.01-2.68,6.1-6.52,5.55-11.45c-0.49-4.34-2.75-7.56-6.69-9.56c-0.7-0.36-1.6-0.46-1.88-1.39
	c-1.66-1.28-3.6-0.65-5.37-0.58c-1.22,0.05-1.62-0.38-2.02-1.31c-2.96-6.89-5.94-13.76-8.9-20.64c-3.53-8.2-7.07-16.41-10.58-24.62
	C259.26,173.34,259.09,172.66,258.88,172.01z"/>
<path class="st47" d="M286.41,221.13c4.07,1.59,7.12,4.13,8.53,8.47c1.89,5.82-1.11,12.79-6.76,15.26
	c-8.63,3.78-18.24-2.7-17.83-12.04c0.17-3.94,2.11-7.01,4.94-9.6c1.16-0.5,1.38,0.49,1.67,1.16c1.33,3.01,2.6,6.05,3.9,9.07
	c0.66,1.53,1.77,2.18,2.95,1.58c1.47-0.75,1.13-2.04,0.66-3.18c-1.28-3.09-2.61-6.17-4.02-9.21c-0.55-1.19-0.1-1.55,0.97-1.77
	C283.1,220.53,284.74,221.1,286.41,221.13z"/>
<path class="st34" d="M211.1,187.35c-0.89,0.87-1.29,2.02-1.79,3.11c-0.91,2.01-2.49,3.03-4.65,2.93c-2.31-0.1-4.66,0.23-6.9,0.07
	c-2.87-0.2-5.73,0.12-8.59-0.14c-1.59-0.15-3.21-0.12-4.84,0.16c-2.82,0.49-5.63-0.51-8.47-0.25c-0.56,0.05-0.94-0.47-0.89-0.89
	c0.32-2.67,0.68-5.35,1.94-7.79c0.69,1.29,1.8,1.56,3.19,1.55c9.24-0.04,18.47-0.06,27.71,0.01c1.95,0.01,3.19-0.76,4.03-2.42
	c0.55-1.09,1.07-2.19,1.58-3.3c0.31-0.66,0.56-1.45,1.53-1.41c0.22,0.94-0.93,1.49-0.69,2.44
	C213.21,183.39,212.15,185.37,211.1,187.35z"/>
<path class="st48" d="M190.18,81.42c-0.23-0.26-0.46-0.52-0.69-0.78c-1.32-1.71-2.62-3.42-3.86-5.18c-1.18-1.7-2.38-3.37-3.84-4.85
	c-1.17-1.94-2.65-3.64-4.04-5.41c-0.41-0.53-0.89-1.16-0.22-1.65c0.67-0.5,1.01,0.37,1.31,0.75c2.69,3.42,5.33,6.86,7.97,10.31
	c1.06,1.38,1.25,1.38,2.08-0.14c0.73-1.33,1.23-2.73,1.47-4.24c0.08-0.52-0.16-1.33,0.67-1.4c0.94-0.08,0.76,0.83,0.96,1.38
	c-0.83,2.19-1.26,4.55-2.77,6.46c-0.33,0.42-0.15,0.88,0.17,1.27c0.58,0.7,1.16,1.4,1.74,2.11c0.8,0.64,1.2,1.59,1.79,2.38
	c0.27,0.34,0.54,0.69,0.81,1.03c1.29,2.02,2.85,3.82,4.46,5.59c1.47,1.32,2.57,2.96,3.86,4.44c0.58,0.89,1.46,1.69,0.79,2.92
	c-0.52,0.38-1.02,0.26-1.51-0.06c-0.54-0.43-0.85-1.05-1.26-1.59c-0.94-1.38-2.06-2.62-3.15-3.87c-0.94-1.56-2.22-2.88-3.2-4.41
	C192.11,85.07,191.53,82.98,190.18,81.42z"/>
<path class="st49" d="M182.12,57.56c1.56-2.06,1.76-4.74,3.11-6.89c1.59,0.87,2.77,2.19,3.96,3.52c0.56,0.63,0.6,1.06-0.33,1.33
	C186.6,56.18,184.36,56.88,182.12,57.56z"/>
<path class="st50" d="M200.47,37.14c-1.52,0.01-3.08-1.36-3.17-2.74c-0.05-0.74,0.49-0.82,1.05-0.8c1.47,0.06,2.76,0.76,4.08,1.3
	c0.68,0.28,0.78,0.97,0,1.47C201.8,36.78,201.21,37.29,200.47,37.14z"/>
<path class="st51" d="M201.37,95.95c0.38,0.28,0.8,0.39,1.27,0.32c0.62-0.75,1.47-0.87,2.36-0.87c11.27-0.02,22.53-0.02,33.8,0
	c0.58,0,1.16,0.03,1.7,0.32c0.22,0.13,0.32,0.32,0.29,0.58c0.02,0.29-0.04,0.6,0.06,0.85c1.01,2.55,0.71,3.02-2.06,3.02
	c-8.93,0.01-17.87,0.16-26.8-0.06c-4.41-0.11-8.84-0.13-13.23-0.08c-9.65,0.11-19.3-0.01-28.95,0.14c-0.81,0.01-1.63,0.04-2.38-0.34
	c-1.06-0.84-1.82-1.9-2.4-3.1c-0.03-0.95,0.68-1.11,1.37-1.25c0.63-0.13,1.27-0.1,1.9-0.1c10.02,0,20.03,0,30.05-0.01
	C199.39,95.38,200.43,95.41,201.37,95.95z"/>
<path class="st52" d="M211.36,117.92c-2.1,0.06-4.07,0.79-6.11,1.2c-0.77,0.16-1.51,0.36-2.68,0.06
	c9.02-3.87,17.69-7.59,26.35-11.31c1.35-0.34,2.71-1.52,4.06-0.01c0.66,1.15,1.24,2.35,2.01,3.43c0.7,0.99,0.45,1.49-0.61,1.72
	c-2.94,0.63-5.89,1.18-8.82,1.82C220.84,115.87,216.02,116.51,211.36,117.92z"/>
<path class="st14" d="M240.79,96.3c-0.01-0.1-0.03-0.2-0.08-0.28c-0.48-0.49-1.02-0.94-0.99-1.72c0.02-0.27,0.13-0.5,0.33-0.68
	c0.47,0.85,1.22,1.58,1.06,2.67c0,0-0.16,0.02-0.16,0.02L240.79,96.3z"/>
<path class="st53" d="M291.24,63.85c0.02,6.15,0.07,12.3,0.04,18.46c-0.02,2.78-1.3,3.96-4.15,3.96c-9.99,0.02-19.98,0-29.96,0
	c-1.5-5.12-5.45-9.13-13.04-8.39c0.03-4.77,0.06-9.55,0.1-14.32c0.59-0.45,1.11-0.09,1.61,0.19c4.22,2.34,8.37,4.79,12.57,7.15
	c2.53,1.42,5.11,2.76,7.56,4.33c1.47,0.94,2.95,0.79,4.45-0.03c4.6-2.5,8.94-5.42,13.47-8.04c1.76-1.02,3.45-2.15,5.26-3.09
	C289.79,63.72,290.47,63.27,291.24,63.85z"/>
<path class="st54" d="M240.04,93.61c-0.01,0.22-0.02,0.44-0.03,0.66c-11.32-1-22.66-0.2-33.98-0.49c-1.48-0.04-3,0.56-4.45-0.21
	c-1.23-1.44-2.5-2.86-3.41-4.54c0.58,0.38,1.14,0.79,1.9,0.38c0.23-0.12,0.57-0.04,0.86-0.04c11.54,0,23.09,0.02,34.63-0.03
	c1.32-0.01,2.13,0.76,3.06,1.41C239.09,91.72,239.19,92.85,240.04,93.61z"/>
<path class="st53" d="M267.57,56.87c6.68,0,13.35,0,20.03,0c0.86,0,1.71-0.05,2.42,0.67c1.22,1.25,1.15,2.1-0.37,3.01
	c-6.23,3.74-12.47,7.48-18.69,11.24c-1.86,1.12-3.57,1.17-5.52,0.02c-6.51-3.83-13.11-7.52-19.65-11.29
	c-0.63-0.37-1.86-0.51-1.45-1.59c0.37-0.97,0.98-2.03,2.33-2.05c0.7-0.01,1.39-0.03,2.09-0.03
	C255.03,56.86,261.3,56.86,267.57,56.87C267.57,56.87,267.57,56.87,267.57,56.87z"/>
<path class="st55" d="M291.24,63.85c-1.23-0.01-2.15,0.74-3.14,1.32c-5.76,3.43-11.52,6.85-17.25,10.32c-1.97,1.2-3.71,1-5.67-0.15
	c-6.67-3.92-13.41-7.71-20.14-11.53c-0.24-0.14-0.55-0.17-0.83-0.26c0.07-0.66-0.37-1.51,0.35-1.92c0.66-0.37,1.13,0.42,1.66,0.71
	c4.53,2.51,8.89,5.3,13.51,7.66c1.43,0.73,2.79,1.62,4.11,2.53c2.85,1.96,5.59,1.89,8.53,0.05c5.51-3.45,11.12-6.76,16.71-10.08
	c0.6-0.36,1.21-1.3,1.94-0.79C291.63,62.16,291.27,63.12,291.24,63.85z"/>
<path class="st56" d="M199.21,22.31c1.02,0.05,1.73,0.53,1.77,1.55c0.04,1.1-0.63,1.71-1.75,1.7c-1.11,0-1.78-0.59-1.75-1.7
	C197.51,22.83,198.23,22.38,199.21,22.31z"/>
<path class="st14" d="M192.91,82.41c-0.8-0.65-1.37-1.45-1.79-2.38C192.19,80.47,192.62,81.39,192.91,82.41z"/>
<path class="st57" d="M144.37,131.78c0,1.63-0.02,3.25,0.01,4.88c0.02,1.09-0.41,1.27-1.4,0.95c-2.81-0.9-2.83-0.86-2.95-3.92
	c-0.09-2.26-0.1-4.53-0.2-6.8c-0.04-0.98,0.33-1.35,1.31-1.32c3.91,0.11,3.2-0.31,3.25,3.07c0.02,1.05,0,2.09,0,3.14
	C144.39,131.78,144.38,131.78,144.37,131.78z"/>
<path class="st58" d="M190.18,81.42c1.59,1.38,2.5,3.28,3.82,4.88c0.57,1.65,0.33,2.05-1.35,2.23c-0.69,0.07-1.39,0.04-2.08,0.04
	c-9.21,0-18.43-0.13-27.63,0.08c-3.12,0.07-5.38-0.73-6.92-3.42c-0.69-0.41-1.02-1.11-1.39-1.78c1.58,1.2,3.41,1.07,5.25,1.06
	c9.46-0.03,18.91-0.01,28.37-0.01c0.46,0,0.93,0.03,1.39-0.01c1.57-0.14,1.85-0.65,1.06-2C190.49,82.14,190.16,81.87,190.18,81.42z"
	/>
<path class="st58" d="M185.63,75.45c1.48,1.58,2.9,3.21,3.86,5.18C187.86,79.16,186.52,77.47,185.63,75.45z"/>
<path class="st59" d="M214.95,178.98c-1.34,1.29-1.57,3.15-2.43,4.7c-1.05,1.91-2.18,3.07-4.67,3.03
	c-9.58-0.16-19.16-0.09-28.74-0.04c-1.61,0.01-2.47-0.37-2.2-2.12c-0.37-1.6,1.07-2.91,0.7-4.51c2.04-7.25,3.91-14.55,6.03-21.78
	c0.15-0.52,0.16-1.2,0.92-1.32c0.01,1.03,0.07,2-0.46,3.02c-0.75,1.42-0.13,2.27,1.4,2.69c1.67,0.45,3.29,0.2,4.94,0.04
	c1.5-0.15,3.03-0.31,4.49,0.07c2.01,0.52,3.97-0.09,5.96-0.02c3.77,0.14,7.56-0.26,11.35-0.08c2.04,0.1,4.08,0,6.13,0.07
	c0.84,0.03,1.78-0.01,2.24,0.51c0.56,0.63,0.42,1.68,0,2.46c-0.32,0.59-0.5,1.15-0.43,1.81c-1.52,3.57-3.04,7.14-4.58,10.7
	C215.47,178.49,215.17,178.72,214.95,178.98z"/>
<path class="st59" d="M151.45,161.89c-0.22-0.12-0.45-0.24-0.67-0.37c-0.31-2.26,0.57-4.62-0.58-6.83
	c-0.24-0.47,0.08-0.77,0.58-0.81c0.4-0.03,0.81-0.02,1.22-0.02c9.92,0,19.83,0.01,29.75-0.01c1.2,0,2.3,0.16,3.17,1.07
	c-1.08,0.73-1.28,1.94-1.72,3.04c-0.35,0.88-0.67,1.81-1.36,2.53c-8.91,0-17.82,0.02-26.73-0.02
	C153.65,160.47,152.36,160.61,151.45,161.89z"/>
<path class="st60" d="M181.84,160.5c0.55-1.68,1.11-3.37,1.65-5.05c0.26-0.82,0.88-0.57,1.43-0.51c-0.11,0.67,0.09,1.4-0.36,2.01
	c-1.87,6.84-3.73,13.69-5.64,20.53c-0.26,0.91-0.44,1.94-1.31,2.57c-0.15-0.12-0.29-0.25-0.44-0.37c-0.29-2.09,0.7-3.94,1.19-5.86
	c1.02-4.06,2.28-8.07,3.41-12.11C181.88,161.32,181.82,160.9,181.84,160.5z"/>
<path class="st61" d="M156.02,85.22c0.1,0.05,0.25,0.08,0.3,0.17c1.61,2.73,4.18,2.66,6.92,2.63c9.73-0.1,19.45-0.06,29.18-0.02
	c1.3,0.01,2.04-0.22,1.58-1.71c1.11,1.44,2.42,2.72,3.19,4.4c0.32,0.8-0.23,1.04-0.81,1.21c-0.62,0.18-1.26,0.15-1.9,0.16
	c-10.55,0.04-21.1-0.09-31.65,0.09c-1.18,0.02-1.77-0.7-2.47-1.36C158.8,89.02,157.17,87.3,156.02,85.22z"/>
<path class="st62" d="M160.36,90.79c1.06,1.11,2.4,0.68,3.68,0.68c10.44-0.01,20.87,0,31.31-0.02c0.68,0,1.59,0.37,1.84-0.76
	c1.26,1.11,2.32,2.38,3.09,3.88c-1.54,0.25-3.1,0.27-4.66,0.27c-10.08,0.01-20.16,0-30.24,0.01c-0.7,0-1.39-0.02-2.05-0.26
	C162.17,93.45,161.12,92.23,160.36,90.79z"/>
<path class="st63" d="M163.32,94.59c0.74-0.45,1.57-0.34,2.38-0.34c10.32,0,20.65-0.03,30.97,0.03c1.19,0.01,2.5-0.87,3.61,0.29
	c0.58,0.29,0.82,0.85,1.1,1.38c-11.41,0.01-22.81,0.03-34.22,0.05c-0.78,0-1.67-0.23-2.13,0.74
	C164.2,96.23,163.68,95.47,163.32,94.59z"/>
<path class="st64" d="M177.25,146.56c2.26,0,4.1-0.01,5.95,0.01c0.48,0.01,1.12-0.2,1.33,0.48c0.09,0.3,0.1,0.76-0.07,0.98
	c-0.41,0.55-1.06,0.36-1.6,0.2C181.12,147.74,179.39,147.2,177.25,146.56z"/>
<path class="st35" d="M80.65,302.79c-2.35,0.5-4.72,0.29-7.08,0.22c-3.99-0.12-7.99-0.36-11.91-1.05
	c-4.63-0.82-9.18-2.09-13.55-3.86c-9.77-3.97-18.28-9.8-25.45-17.54c-0.12-0.13-0.2-0.28-0.29-0.43c2.8,0.39,5.61,0.69,8.39,1.2
	c3.84,0.7,7.66,1.43,11.42,2.56c5.07,1.52,10.02,3.29,14.71,5.77c6.28,3.32,12.03,7.34,17,12.43c0.54,0.55,1.16,0.68,1.89,0.68
	C77.4,302.75,79.02,302.78,80.65,302.79z"/>
<path class="st3" d="M105.1,244.2c1.12-0.22,1.87,0.6,2.77,1C106.75,245.4,105.97,244.67,105.1,244.2z"/>
<path class="st65" d="M131.92,194.67c-3.06-4.79-6.66-9.13-10.82-13c-0.55-0.51-1.62-0.95-0.82-1.9c0.71-0.84,1.14-2.55,2.89-1.49
	c1.55,1.53,3.09,3.06,4.64,4.59c3,3.3,5.66,6.86,8.27,10.47c1.65,3.08,3.52,6.04,4.96,9.23c0.64,1.42-0.24,3.98-1.67,4.51
	c-0.85,0.31-0.87-0.46-1.1-0.96C136.45,202.13,134.61,198.16,131.92,194.67z"/>
<path class="st66" d="M139.88,159.04c0.05-0.13,0.1-0.26,0.16-0.4c0.98,0.31,1.31,1,1.31,1.99c-0.02,3.65-0.01,7.31,0,10.96
	c0,0.61-0.08,1.16-0.64,1.52c-0.08-0.07-0.16-0.14-0.25-0.2c-0.47-0.8-0.28-1.68-0.31-2.53c-0.12-3.68,0.22-7.36-0.2-11.03
	C139.92,159.25,139.9,159.15,139.88,159.04z"/>
<path class="st66" d="M139.51,160.58c0.09-0.52-0.05-1.1,0.37-1.54c0.05,0.06,0.11,0.12,0.16,0.19c0.44,0.99,0.21,2.04,0.25,3.07
	c0.15,3.55-0.29,7.11,0.25,10.65c0.05,0.06,0.11,0.12,0.16,0.18c-1.38,0.68-1.13-0.48-1.15-1.11c-0.07-3.35-0.08-6.69-0.11-10.04
	C139.21,161.5,139.4,161.04,139.51,160.58z"/>
<path class="st42" d="M132.24,175.83c1.04-2.79,2.28-5.5,3.84-8.05C135.1,170.6,134.11,173.42,132.24,175.83z"/>
<path class="st42" d="M139.51,160.58c-0.02,0.46-0.04,0.92-0.07,1.39c-0.9,1.47-1.15,3.33-2.64,4.45
	C137.71,164.48,138.61,162.53,139.51,160.58z"/>
<path class="st63" d="M201.59,93.58c11.73-0.81,23.47-0.16,35.21-0.35c1.15-0.02,2.29,0.25,3.22,1.04c0.23,0.58,0.46,1.16,0.69,1.74
	c-12.06,0-24.13-0.01-36.19,0c-0.63,0-1.25,0.17-1.88,0.26C203.02,95.09,202,94.45,201.59,93.58z"/>
<path class="st67" d="M198.52,34.08c1.19,0.38,2.25,0.64,3.25,1.06c0.6,0.25,0.68,0.64,0.01,1.1c-1.37,0.93-3.32,0.21-3.67-1.4
	C197.99,34.29,198.15,34.07,198.52,34.08z"/>
<path class="st68" d="M140.54,172.94c-0.71,0-0.64-0.53-0.63-0.98c0.04-4.25,0.09-8.49,0.13-12.74c0.57,0.16,0.62,0.62,0.61,1.1
	C140.61,164.53,140.57,168.74,140.54,172.94z"/>
</svg>
