<?xml version="1.0" encoding="utf-8"?>
<!-- Generator: Adobe Illustrator 25.0.1, SVG Export Plug-In . SVG Version: 6.00 Build 0)  -->
<svg version="1.1" id="Layer_1" xmlns="http://www.w3.org/2000/svg" xmlns:xlink="http://www.w3.org/1999/xlink" x="0px" y="0px"
	 viewBox="0 0 805.7 642" style="enable-background:new 0 0 805.7 642;" xml:space="preserve">
<style type="text/css">
	.st0{fill:#FEEDD6;}
	.st1{fill:#FEE1B9;}
	.st2{fill:#6B9B82;}
	.st3{fill:#F3A3A2;}
	.st4{fill:#FCBF68;}
	.st5{fill:#F8D6FE;}
	.st6{fill:#F38B94;}
	.st7{fill:#2B2B2B;}
	.st8{fill:#D3E8C2;}
	.st9{fill:#BBC3F1;}
	.st10{fill:#DADCC5;}
	.st11{fill:#BD6361;}
	.st12{fill:#F8D5FE;}
	.st13{fill:#CAE5C4;}
	.st14{fill:#FEE0B7;}
	.st15{fill:#B9C2F3;}
	.st16{fill:#C0C7EC;}
	.st17{fill:#F3D5B6;}
	.st18{fill:#BF6E68;}
	.st19{fill:#DAEDD5;}
	.st20{fill:#C0C6EB;}
	.st21{fill:#2D2C2B;}
	.st22{fill:#2D2F2E;}
	.st23{fill:#313633;}
	.st24{fill:#2C2C2B;}
	.st25{fill:#8BB3F6;}
	.st26{fill:#8BB3F7;}
	.st27{fill:#98B7FA;}
	.st28{fill:#B4C0F6;}
	.st29{fill:#B0BEF7;}
	.st30{fill:#353D39;}
	.st31{fill:#F7D5FC;}
	.st32{fill:#B6C4E0;}
	.st33{fill:#B5C4E2;}
	.st34{fill:#3F3435;}
	.st35{fill:#38342F;}
	.st36{fill:#FEFEFE;}
	.st37{fill:#FEFDFE;}
	.st38{fill:#F8DCFE;}
	.st39{fill:#2C2D2D;}
	.st40{fill:#2C2D2C;}
	.st41{fill:#FACFB3;}
	.st42{fill:#2C2B2B;}
	.st43{fill:#4C423F;}
	.st44{fill:#FEFCFA;}
	.st45{fill:#34312D;}
	.st46{fill:#38342E;}
	.st47{fill:#C9E5C3;}
	.st48{fill:#ACDBC7;}
	.st49{fill:#D7D0D1;}
	.st50{fill:#FDFDFD;}
	.st51{fill:#B6DFC6;}
	.st52{fill:#8AB2F7;}
	.st53{fill:#FCFBFC;}
	.st54{fill:#C3E3C4;}
	.st55{fill:#5C574F;}
	.st56{fill:#89B2F8;}
	.st57{fill:#B6C4DF;}
	.st58{fill:#DCD2CF;}
	.st59{fill:#AFDCC7;}
	.st60{fill:#ABBFE4;}
	.st61{fill:#332E2E;}
</style>
<path class="st0" d="M799.3,264.9c-33.8,0-67.6,0-101.3-0.1c-2.5,0-5.8,1.4-7.2-1.7c-1.1-2.6,1.6-4.4,3-6.4
	c4.9-7.2,10.9-13.3,17.6-18.8c2.3,2.5,5.3,2.3,8.3,2.3c23.8,0,47.6,0,71.5,0c2.8,0,5.7-0.5,8.1,1.6
	C799.3,249.6,799.3,257.3,799.3,264.9z"/>
<path class="st1" d="M799.3,241.9c-27.9,0-55.7,0-83.6,0c-2.6,0-5.9,0.7-4.4-3.9c5.1-3.6,10.8-5.3,16.9-6.1c4.3-0.7,8.7-0.7,13,0
	c19.2,6.3,35.7,2.6,49.3-12.7c2.3-2.6,5.2-4.1,8.7-4.3C799.3,223.9,799.3,232.9,799.3,241.9z"/>
<path class="st2" d="M577.4,591.8c-7.7,0-15.4,0-23,0c-2.5-5.7,1-9.7,3.8-13.9c2.4-3.4,6.3-5.1,10.3-7c-2.5-2.5-4.8-4.6-7-6.8
	c-10.4-11.4-15.9-25.1-18.4-40.1c-0.1-3.6-0.1-7.2,0-10.8c0.4-3.3,1.3-6.5,2.9-9.5c4.9-9.6,11.3-12.3,22.9-9.2
	c2.6,0.7,4.8,2.2,7.2,3.5c2.3,1.3,4.2,3.3,6.4,5c1.1-1,0.3-2.1,0.2-3.1c-3.5-20.3-7-40.6-10.7-60.9c-0.5-2.6-1.1-5.2-0.1-7.9
	c4.9-5.8,11.3-4,17.1-2.6c9,2.1,17,6.7,24.9,11.2c9.8,5.6,19.4,11.7,29.1,17.5c7.8,4.6,16.1,7.9,24.9,10
	c-14.5-3.4-26.8-11.2-39.2-18.9c-11.2-7-22.6-13.5-34.8-18.5c-4.8-2-10-2.3-15-3.5c-1.5-2,0.3-3.4,1.2-4.8c2.9-4.8,6.6-9.2,9.6-14
	c2.6-3.3,4.2-7.3,7.9-9.7c3.4-4.7,6.7-9.5,10.1-14.2c2.7-3.7,6-6.6,10.9-7.1c9.2-0.8,17.9,8.2,11.7,20c-0.3,1,0.2,1.6,0.9,2
	c7,4.2,13.2,9.4,20.1,13.7c8.8,6.2,17.6,12.3,26.4,18.5c2.8,2,4.9,2.3,7.9-0.1c6-4.9,12.9-4.2,18.8,1.3c0.8,1,1.5,2,2.2,3.1
	c2.3,5.3,1.6,10.4-1.5,15.2c-3.1,4.7-6,9.6-9.5,14c-2.5,3.1-3.1,6.4-2.4,10.2c2.6,13.9,5,27.8,7.4,41.7c0.3,1.7,0.2,3.4,0.7,5.1
	c0.1,0.8,0.3,1.6,0,1.9c0.8-0.9,0.9-2.7,1.8-4.2c4.8-7.8,9.8-15.3,17.6-20.6c6.1-4.1,12.7-5.2,19.8-3.7c9.7,4.8,14,13.7,12.7,26.8
	c-2,19.4-10,35.7-25.3,48.1c-0.5,0.4-0.9,0.9-1.6,1.7c8.4,2.8,14.2,7.6,16.4,16.2c0.8,3.3,0.3,4.4-3.3,4.4
	c-19-0.2-37.9-0.1-56.9-0.2c-0.2-1.2,0.4-2,1.2-2.6c5.6-4.3,6.9-10.1,6.5-16.8c-0.4-6.3-0.1-12.6-0.2-19c-0.2,6.8-0.4,13.6,0,20.4
	c0.4,7-2,12.3-7.8,16.2c-0.7,0.5-1.2,1.1-1.7,1.8c-16.4,0.3-32.7,0.5-49-0.1c-2.5-4.4,0.4-7.7,2.4-11c2-3.4,5-5.9,8.6-7.3
	c3.5-1.3,4.1-3.5,3.5-7.1c-2.1-12-4.3-23.9-6.1-35.9c-0.3-1.6-0.3-3.3-0.3-3.7c0.8,12.7,0.1,26.6,0.4,40.5c0.1,4.2-0.9,7.8-4.2,10.7
	c-4.1,3.6-5,8.9-6.3,13.8c-16.7,0.2-33.3,0.5-50-0.1c-1.2-7.5,3.6-15.8,11.8-18.5c4.4-1.4,5.4-3.7,4.6-7.7
	c-3.4-17.6-6.2-35.3-9.4-52.9c3.1,17.5,5.9,35,9.1,52.5c0.5,2.9,0.3,5.8-3,7.1c-8.3,3.1-12.8,9.2-14.1,17.8
	C578.2,590.8,577.8,591.3,577.4,591.8z"/>
<path class="st3" d="M211.6,225.8c5.8,1.1,11.1,3.3,16.4,5.7c8.7,4,17.6,7.7,26.4,11.5c-1.5,7.1,3,12.1,6.1,17.7
	c4.1,7.3,6.6,15.2,8,23.5c0.7,3.8-0.1,7.3-2.6,10.3c-2.9,3.4-5.4,7.2-8.9,10.1c-2.8,2-6.1,2.7-9.3,3.6c-7.6,2.5-15,5.5-22.8,7.5
	c-5.4-0.2-10,2.5-15,4c-1.6,0.5-1.2,1.6-0.8,2.8c0.5,2.5-0.6,4.6-1.5,6.7c-7.6,18.1-15.5,36.1-22.9,54.3c-0.7,1.7-1.3,3.5-2.9,4.6
	c-1.8,0.8-2.8-0.4-3.8-1.5c-6.5-7.7-13.2-15.1-19.5-22.9c-7.6-8.7-15.5-17.1-22.5-26.3c-5.5-5.8-6.1-12-2.8-19.3
	c9-20.2,17.4-40.7,26-61.1c2.7-6.5,5.2-7.2,10.7-2.5c3,2.6,6.2,5,9.1,7.8c2.8,2.6,5.5,3.6,8.5,0.5c2.9,1.1,3.1,3.9,3.3,6.2
	c1.3,12.1,10.1,19.5,17.4,27.8c1.2,1.4,2.7,1.7,4.5,1.4c11.9-1.6,12.4-2.6,9.6-13.9c-4.4-17.4-9.4-34.7-13.6-52.2
	C209.1,229.6,208.9,227.1,211.6,225.8z"/>
<path class="st4" d="M211.6,225.8c-0.6,2.1-1.3,4.2-1.9,6.4c1.1,6.9-1.7,12.4-7.5,15.5c-6.4,3.4-12.9,2.2-18.5-2.7
	c-8.8-7-18-13.6-27-20.4c-2-1.5-4.2-2.9-4-5.9c2.6-7.5,5-15.2,7.9-22.6c1.2-2.3,1-5.5,3.8-7c5-14.4,9.9-28.8,14.9-43.1
	c3.4-2.2,5.3-4.9,5.2-9.3c0-3.7,1.3-7.5,2.3-11.2c1.6-5.4,6.1-8.3,11.3-7.5c5.9,0.8,9.5,5,9.5,10.8c0,1.5-0.5,2.9,0.4,4.8
	c2.4-1.4,2.3-3.9,3-5.8c1.6-4.3,1.2-9.3,4.7-12.9c4.6-2.3,9.5-1.3,14.2-0.9c12.5,1,25,2,37.5,2.8c2.8,0.2,5.7-0.1,7.8,2.3
	c0.8,7.8-0.6,15.5-2,23.1c-4.1,2.6-4.3,5.9-1.9,9.8c-1.1,8.9-2.1,17.8-4.6,26.4c-5,17-21.3,26-39.8,22.4c-3.1-0.6-6.2-1-9.3-1.5
	c-4.3,0.7-7.9-2-11.9-2.6c-1.7-0.3-3.4-1.2-5.7-1.2c3.6,8.5,9.9,15.2,12.5,23.8C212.3,221.3,211.9,223.5,211.6,225.8z"/>
<path class="st5" d="M597.4,397.9c-1.9,3.6-4.3,6.8-6.9,10c-9.8-1.7-15.8,3.7-22.2,10.2c-36,36.5-72.4,72.6-108.7,108.8
	c-1.8,1.8-3.1,4.5-6.4,4c-0.7-0.8-0.7-1.8-0.4-2.8c3.9-5.6,9.4-9.7,13.9-14.7c3-3.3,6.6-6.1,9.1-9.8c0.7-1,1.6-1.9,2.5-2.7
	c2.3-1.7,4.4-3.6,6.4-5.6c27.5-27.6,55.1-55.1,82.7-82.7c1.1-1.1,2.7-2,3-3.9c-1.5-1.2-3.2-0.7-4.8-0.7c-19.5,0-39,0.1-58.5-0.1
	c-4.7,0-8.1,1.5-11.4,4.8c-39.8,40-79.8,79.9-119.8,119.8c-1.8,1.8-3.2,5-6.7,4.1c-0.8-1.2-0.8-2.4-0.3-3.7c1.9-2.8,4.8-4.6,7.1-6.9
	c37.6-37.7,75.3-75.4,113-113.1c1.3-1.3,2.9-2.3,3.5-4.2c-1.2-1.3-2.8-0.7-4.2-0.7c-20,0-40,0.1-59.9-0.1c-4.2,0-7.2,1.4-10.1,4.3
	c-26.8,27.1-54,53.9-80.8,81c-1.3,0.6-2.5,0.6-3.7-0.1c-1.2-3.2,1.6-4.4,3.2-6c19.4-19.5,38.8-38.9,58.3-58.4
	c5.4-5.4,10.9-10.8,16.2-16.3c1.1-1.1,2.7-2,3-3.9c-1.4-1.1-2.9-0.6-4.4-0.6c-19.8,0-39.7,0.1-59.5-0.1c-4.1,0-7.2,1.2-10.2,4.1
	C285,467.6,229.6,523,174.3,578.4c-1,1-2.4,1.8-2.7,3.5c1.5,1.2,3.2,0.7,4.8,0.7c19.7,0,39.3-0.1,59,0.1c4.4,0,7.5-1.4,10.6-4.5
	c25.7-25.9,51.5-51.7,77.4-77.4c1.8-1.8,3.1-4.5,6.4-3.9c0.7,0.9,0.7,1.9,0.4,2.9c-1,2.2-2.9,3.6-4.5,5.3
	c-24,24-48.1,48.1-72.1,72.1c-1.4,1.4-3.1,2.5-3.8,4.6c1.5,1.3,3.2,0.8,4.8,0.8c19.3,0,38.7-0.1,58,0.1c4.1,0,7.3-1.1,10.2-4.1
	c9.4-9.7,19-19.2,29.1-28.1c1.4-1.3,2.6-3.2,5-2.5c0.7,0.9,0.7,1.9,0.4,3c-4.4,6.1-10.3,10.7-15.4,16.1c-4.7,4.9-9.6,9.5-14.5,14.7
	c1.9,1.5,3.7,0.9,5.4,1c7.9,0.5,15.9-1,23.7,0.8c0.4,0.3,0.7,0.8,0.9,1.3c0.6,3.4-1.2,5.5-3.8,7.2c-66.4,0-132.7-0.1-199.1-0.1
	c-7-6.2-11.6-14.3-17.2-21.7c-0.7-0.9-0.7-2.2-0.5-3.4c1.5-2.9,3.1-5.9,7-6.1c4.6,6.1,9.2,12.3,13.8,18.3c3.2,4.2,5.1,4.3,8.9,0.6
	c5.4-5.2,10.6-10.6,15.9-15.9c50.1-50.1,100.1-100.1,150.2-150.2c1.4-1.4,3-2.6,4.1-4.7c-1.6-1.2-3.5-0.7-5.2-0.7
	c-13.3-0.1-26.7,0-40-0.1c-2.1,0-4.4,0.5-6.2-1.2c2-5.7,6.1-9,11.9-10.3c2.2-0.3,4.3-0.3,6.5-0.3c81.1,0,162.1,0,243.2,0
	c1.2,0,2.3,0.1,3.5,0.1c0.3,0,0.6-0.1,1-0.2c6-1.1,6-1.2,2.9-6.4c-11.1-19.1-22.5-38.1-33.7-57.2c-3.3-5.6-7.3-10.7-11.9-15.3
	c-16.8-16.8-33.7-33.6-50.5-50.5c-1.5-1.5-3.3-2.8-4.2-4.9c-0.2-1.1,0.1-1.9,1.2-2.4c2.9-0.1,4.3,2.3,6,4
	c15.1,15,30.2,30.1,45.2,45.1c-12.1-20.8-24.6-41.3-36.6-62.1c-0.6-1-1.1-2-1.1-3.3c0.2-1.7,1.3-3,2.1-4.4c1.2-1.4,2.3-3.1,4.5-3.1
	c2.5,6.9,7,12.8,10.7,19c18.3,31.4,36.9,62.7,55.4,93.9c9.2,15.6,18.6,31.1,27.7,46.7c1.4,2.3,3.1,2.7,5.4,2.6
	C582,397.9,589.7,397.9,597.4,397.9z"/>
<path class="st6" d="M164.4,189.1c-0.9,2.3-1.9,4.5-2.8,6.8c-2.5,0.3-4.5-1-6.7-1.8c-8.9-3.3-17.9-6.2-27.7-5.9
	c-10.1,0.3-16.2,7.9-14,17.9c2.5,11.3,14.8,18.2,25.9,14.8c4.6-1.4,9.2-4.1,14.3-1.9c0.1,2.1,1.7,3,3.2,4.1
	c9,6.7,17.9,13.6,26.8,20.4c2.8,5,3.7,10.6,5,16.1c0.3,1.1,0.1,2.3-0.8,3.2c-2.3,5.1-2.9,5.4-7.4,1.9c-3.9-3-7.4-6.6-11.3-9.8
	c-4.8-4-6-3.5-8.4,2.2c-8.6,20.6-17.1,41.4-26.2,61.8c-3.2,7.2-1.7,12.7,3.1,18.1c0.1,2.6,2.3,4.3,3.2,6.6c1,2.6,2.6,5.1,1.2,8.1
	c-1.5,1.7-3.3,1.2-5.1,0.8c-11.3-2.5-22.5-5.4-33.8-7.9c-1.6-0.4-3.2-1-4.2-2.4c7.8-11,7-22.3,1.3-33.8c-7.2-14.7-8.4-30.2-4.8-46.1
	c4.1-11.3,11.6-20.1,20.9-27.6c-8.6,6.3-15.5,14-19.6,24c-0.4,0.9-0.9,1.8-2.1,1.6c-2.3-2.5-2.3-5.9-2.6-8.9
	c-1.5-18-1.3-35.8,5.3-53c7.6-19.7,19.8-22.2,36.8-19.8c9.1,1.3,17.5,5,25.7,9C161.2,188.1,162.6,189.1,164.4,189.1z"/>
<path class="st7" d="M143.4,560.7c-2.3,1.8-4.2,3.9-5.9,6.3c-0.4,2.9-2,4.8-4.3,6.7c-3.9,3.1-7.3,6.6-10.3,10.6
	c-2.3,3-4.9,5.7-8.3,7.6c-13.8,14.7-27.5,29.4-41.3,44c-1.1,1.2-2.2,2.5-3.4,3.6c-3.3,3.1-7.8,3.3-10.8,0.5c-2.8-2.7-3.1-7-0.2-10.4
	c5.3-6,10.8-11.8,16.2-17.7c5.8-6.4,11.7-12.8,17.5-19.1c0.7-2.5,2.3-4.5,4-6.2c7.1-6.7,13-14.6,20.2-21.3c3.3-3.7,6.4-7.7,10.1-11
	c2.5-2,4-4.9,6.2-7.2c16.6-17.2,32.5-35,48.7-52.5c11.9-12.9,22.9-26.7,35.8-38.7c15.6-16.2,30.3-33.1,45.9-49.3
	c2.4-2.5,4.2-5.6,7.1-7.7c13-15.5,28.7-28.3,41.8-43.6c11.1-6.3,22.8-11.3,34.3-16.7c0.8-0.4,1.6-0.4,2.4-0.1
	c1.5,2.2-0.5,3.3-1.6,4.5c-14,14.7-27.3,30-41.5,44.6c-3.4,3.6-5.9,8.2-10.7,10.3c-4.6,1.6-6.8,5.6-9.8,9c-1.1,2.8-3.2,5.1-5.2,7.2
	c-14.9,15.4-29.3,31.3-43.8,47.1c-17.9,19.5-35.9,38.7-53.7,58.3c-12.2,13.4-24.7,26.5-36.9,39.9
	C145.3,560.1,144.5,560.7,143.4,560.7z"/>
<path class="st8" d="M247.5,306.9c3-1,6-2,8.9-3c2.8-2.3,6.3-3.1,9.5-4.6c3.3-1.2,1.9-3.7,1.6-5.9c-0.1-3.8,1.7-7,3.1-10.3
	c3.1-7.5,6.1-15,9.4-22.4c0.8-1.8,1.3-3.8,3.4-4.6c6.4,2.4,12.4,6,19,7.9c3.2,0.1,5.9,1.9,8.8,3c4.7,1.7,9,4.3,13.6,6.1
	c1.3,0.5,2.9,1.1,2.8,3c-4.3,4.8-10,7.7-15.5,10.8c-4.7,2.6-7.7,6.1-9.7,10.9c-9.5,22.7-19.1,45.5-28.8,68.1
	c-1.8,4.1-3.4,8.3-5.7,12.2c-5.9,4.2-12.7,6.4-19.1,9.7c-6.3,3.3-13,5.9-18.7,8.9c12.1-0.1,24.9-0.2,37.7,0.1c1.1,0,4.6-0.8,2.8,2.8
	c-1.5,0.7-3.2,1-4.8,1c-17.2-0.3-34.4,1-51.6-1c-1.2-0.1-2.3-0.2-3.4-0.5c-3.9-2.2-1.8-5.2-0.7-7.8c5.7-13.4,11.3-26.9,17.1-40.3
	c5.5-12.6,10.6-25.4,16.1-38C244.2,310.6,245.2,308.3,247.5,306.9z"/>
<path class="st9" d="M353.4,591.8c0.8-2.5,3.3-4.1,3.1-7c3.6-6.5,7.9-12.5,13-17.9c1-0.6,2.1-0.7,3.3-0.5c3.3,0.7,6.6,0.9,9.9,0.9
	c32.2,0,64.3,0,96.5,0c3.9,0,7.7-0.2,11.3-1.8c0.6-0.2,1.2-0.3,1.8-0.4c7.5,1.8,15,1.8,22.6,0.5c13.8-1,27.5-2.7,41.3-2.4
	c2.2,0,4.3,0.2,6.5,0.5c2.9,2.2,4.9,5.3,9.1,7.3c-10.6,3.6-17.2,9.7-17.4,20.8C487.4,591.8,420.4,591.8,353.4,591.8z"/>
<path class="st10" d="M31.5,429.9c-5.8-0.5-6.3-4.4-6-9c1.1-3.4,3.9-4,7-4.2c3.9,0.6,7.9,1,11.6,2.8c2,1,3.3,0.6,3.1-1.9
	c-0.2-3.3,0.9-6.7-1.2-9.7c-3.5-3.4-8.2-5.7-9.5-11c-3.8-12.8-0.3-22.4,10.1-26.5c7.5-3,14.8-2.2,20.9,3.2
	c6.2,5.5,7.1,12.7,5.3,20.5c-0.3,1.3-0.9,2.5-1.3,3.7c0.2,3.5-3,4.7-4.7,6.8c-1.1,1.4-2.9,2.1-4,3.5c-0.6,0.9-0.9,1.8-0.9,2.8
	c0,2.6-1.1,5.9,0.4,7.8c1.9,2.3,4.4-0.8,6.7-1c2.1-0.2,4.3-0.8,6.4-0.9c4.7-0.1,7.9,2.7,8.1,6.9c0.2,4.4-1.9,6.6-6.9,7.3
	c-10.6,1.4-14.9,6.3-14.9,16.8c0,1.8,0,3.7,0.1,5.5c0.1,5.6-0.2,11.2,0.9,16.8c0.4,17.3,0.6,34.5-0.1,51.8c-0.9,3-0.9,6-0.7,9.1
	c-1.1,11-1.3,22-1.1,33.1c0,2.1,0,4.3,0.7,6.4c0.7,4.6,0.5,9.2,0.4,13.8c-0.1,2.9-0.9,5.5-3.4,7.3c-2.4,0-4.7,0-7.1,0
	c-3.5-1.3-4.4-4.1-4.4-7.5c-0.1-7.1,0.1-14.2,0-21.2c0-5.7-0.4-11.4,0.6-17.1c0.7-1.5,0.9-3.2,0.9-4.8c0-30.1-0.1-60.1-0.1-90.2
	c-0.8-1.3-1.2-2.7-1.2-4.3c0-7.9-4.4-12.6-11.5-15C34.3,431.2,32.8,430.7,31.5,429.9z"/>
<path class="st11" d="M98.8,342c13.2,3.2,26.5,6.3,39.7,9.5c1.2,0.3,2.3,0.5,3.1-0.7c3.4,1.7,1.9,4.4,1.2,6.8
	c-1.6,5.1-5.3,8.7-9.1,12.3c-3.2,3.1-6.2,6.4-7,11.6c11.1-6.5,21.7-13.1,32.7-18.6c7.3,8.3,14.6,16.6,22,25
	c4.4,1.5,7.1,5.3,10.8,7.8c2.1,1.4,1.1,2.8-1,3.3c-1.3,0.3-2.6,0.3-4,0.3c-31.3,0-62.5,0-93.8,0c-1.8,0-3.7,0.2-5.4-0.7
	c-0.2-0.2-0.5-0.4-0.7-0.7C87,378.4,90.1,359.6,98.8,342z"/>
<path class="st5" d="M62.4,406.8c3.4-2.6,6.6-5.4,9.1-8.9c5.3,0,10.6,0,15.9,0c0,0,0.1-0.1,0.1-0.1c1.1,1,2.5,0.6,3.8,0.6
	c32.7,0,65.5,0,98.2,0c2,0,3.9-0.5,5.8-0.9c4.6-1,9.4-2.5,14,0.4c20.5,1.5,41.1,0.8,61.6,0.9c0.4,0,0.6,0,0.6,0.3
	c0,0.3-0.1,0.4-0.2,0.4c-16.5,17.8-33,35.7-49.6,53.5c-1.1,1.2-2.4,2.3-3.6,3.4c-2.2,0.3-3.3,2.2-4.6,3.6
	c-25.9,27-52.7,53.2-79.1,79.7c-2.8,2.8-4.1,5.2-0.9,8.3c-1.8,2.6-3.9,4.9-6.4,6.9c-2.1,0.4-2.8-1.4-3.8-2.6
	c-3-3.6-6.1-7.2-8.8-11.1c-2.5-3.8-5.7-7.1-8.4-10.8c-3.2-5.1-7.2-9.5-10.8-14.2c-9.8-13.6-20.3-26.7-30.4-40.1
	c-1.5-2-2.7-4.1-3.9-6.3c-2-5.6-0.6-11.3-1-17c1.1-2.3,2.7-4.1,4.5-5.9c11.3-11.2,22.6-22.5,33.8-33.8c1.3-1.3,2.9-2.2,3.4-4.2
	c-1.7-1.2-3.6-0.7-5.3-0.7c-9.5-0.1-18.9,0-28.4-0.1C66.4,408.1,64.2,408.7,62.4,406.8z"/>
<path class="st11" d="M190.5,92.9c3.7-12.4,7.9-24.7,14.9-35.7c6-9.4,13-10,20.7-2c1.5,1.5,2.8,3.3,4.2,5c5,6,8.2,6.3,14.1,1
	c1.5-1.3,2.8-2.8,4.3-4.1c8.8-7.3,17.7-5.1,21.8,5.5c4.6,11.7,5.8,24.1,6.7,36.6c-2,1.7-4.4,1.5-6.7,1.3
	c-15.2-1.5-30.5-2.2-45.7-3.6c-9.8-0.9-19.6-1.2-29.3-2.3C193.7,94.4,191.9,94.4,190.5,92.9z"/>
<path class="st5" d="M740.3,494.8c-14.9-1.4-24.1,7.4-32.1,18.2c-1.7,2.3-3.2,4.6-4.8,6.9c-1.8-0.6-1.7,1.9-3.1,2
	c-1.1-1.5-1-3.3-0.9-5.1c0.9-2.9,3.1-4.8,5.3-6.4c6.4-4.7,11.2-11,15.6-17.4c18.2-26.5,36.4-52.9,54.7-79.4c1-1.5,2.5-2.8,2.4-4.8
	c-1.1-1.1-2.5-0.7-3.8-0.7c-11.3,0-22.6,0.1-34-0.1c-3.6,0-6.4,1.1-8.9,3.7c-6.6,6.8-13.3,13.5-20.1,20.1c-1.4,1.4-2.6,3.6-5.3,3
	c-0.6-0.7-1.1-1.4-1.7-2.1c4.3-5.9,10.2-10.5,15.1-15.8c2.3-2.5,5.1-4.7,7.2-7.6c-1.6-1.9-3.6-1.1-5.3-1.2
	c-17.1-0.1-34.3,0.1-51.4-0.1c-6.9-0.1-13.5,0-19,4.9c-6.3-4.4-12.6-8.7-18.8-13.1c-1.1-0.8-3-1.4-1.3-3.3c1.7,2.1,4,1.2,6.1,1.2
	c51.3,0,102.6,0,153.9,0.1c1.9,0,4.4-1,5.5,1.2c0.8,1.8-1.2,3.3-2.2,4.7c-19.3,28.2-38.6,56.4-58,84.5c-0.6,0.8-1,1.7-1.6,2.5
	c-1.6,2-1.2,2.9,1.4,3C736.8,494,738.8,493.2,740.3,494.8z"/>
<path class="st12" d="M310.4,267.8c-2.6-1.5-5.8-1.6-8-3.9c6.3-10.7,12.5-21.5,18.8-32.2c15.3-26,30.6-52.1,45.9-78.1
	c8.4-14.3,16.9-28.6,25.4-42.8c2.4-4.1,5.6-4,8.5,0.5c4.5,7,8.6,14.2,12.8,21.4c9,15.3,18,30.6,27.1,45.9c1,1.7,1.6,4.2,4.4,4.4
	c-1.2,3.9-4,6.2-7.9,7.2c-5-4.8-7.5-11.3-11.1-17.1c-8.9-14.6-17.5-29.4-26.2-44.2c-3.1-5.2-3.7-5.2-6.6-0.2
	c-7.2,12.4-14.6,24.6-21.7,36.9c-3,5.2-3,5.3,1.4,9.7c11.5,11.5,23,23,34.5,34.6c1.5,1.5,3.3,2.8,4.1,4.9c0,1.5-0.8,2.2-2.2,2.4
	c-2.2-0.7-3.5-2.5-5-4c-11.4-11.4-22.8-22.8-34.2-34.2c-3.8-3.8-4.3-3.7-7.2,1.1c-8.1,13.7-16.2,27.5-24.4,41.2
	c-2,3.4-1.5,5.9,1,8.5c7.8,8,15.5,16,23.7,23.5c1.2,1.1,2.8,1.9,3.3,3.6c0,1.4-0.9,2.2-2.2,2.5c-2.4-0.1-3.7-2-5.2-3.5
	c-7.4-7.3-14.8-14.8-22.2-22.1c-3.5-3.4-3.9-3.3-6.4,1c-5.6,9.8-11.4,19.4-17.3,29C312.7,265.3,311.9,266.9,310.4,267.8z"/>
<path class="st4" d="M437.4,189.8c2.6-2.3,5.2-4.6,7.8-6.9c9.7-6.2,19.7-6.8,30.1-2.1c5.4,1.5,8.9,5.1,11,10.1
	c7,13.9,4.6,26.3-5.8,37.5c-2,2.2-3.6,4.8-5.3,7.1c-1.3,1.1-2.5,2.3-3.8,3.4c-2.7,0.5-4.3-1.5-6.1-2.7c-4.2-2.9-8.7-5.4-12.2-9.2
	c-0.1-0.3-0.2-0.8,0-1c5.5-5.1,2.1-10,0-15.1c-1.3-3-2.4-2.5-4.1-0.5c-2.6,2.9-4.2,6.8-8.6,7.8c-6.8-3.5-13.3-7.5-18.5-13.2
	c-0.1-1.9,1.1-3.1,2.3-4.2C428.4,197,432.6,193,437.4,189.8z"/>
<path class="st0" d="M82.5,23c6.3,7.1,10.7,15.5,16.1,23.2c1.5,2.1,0.4,3.4-2,3.7c-1,0.1-2,0.1-3,0.1C64.8,50,36,50,7.3,50
	c-5.8,0-7.5-1.4-6.6-7.1c1-7,2.3-14.1,6.9-19.9c3.3,2.1,7,2.5,10.9,2.5c18-0.1,36.1-0.1,54.1,0C76.1,25.5,79.5,25.1,82.5,23z"/>
<path class="st13" d="M745.3,127c-3.1-6.1-7.8-9.9-14.9-9.9c-3.2,0-5.5-1.6-5.5-4.6c0-3,2.3-4.4,5.5-4.6c5.2-0.4,9.7,1.5,14.3,3.6
	c2-10.4-3.2-17.1-13.6-17.5c-3.8-0.2-6.2-1.4-5.9-5.5c0.3-4.1,3.5-4.6,6.6-4.3c3.8,0.3,7.6,1.1,10.9,3.2c3,1.8,3.4,0.5,3.5-2.1
	c0-3.2,0-6.3,0-9.5c0-3,1.4-4.8,4.5-4.8c3.1,0,4.5,1.9,4.5,4.8c0,3.5,0,7,0,10.5c0,2,0.6,3,2.7,1.5c3.2-2.4,7.1-2.5,10.8-3.5
	c3.7-0.9,6.7,0.4,7.2,4.1c0.5,3.8-2.3,5.4-6,5.6c-8.9,0.5-14.8,6.3-14.7,14.2c0,2.6-0.1,4.4,3.4,2.2c3.7-2.4,8.1-2.7,12.5-2.5
	c2.9,0.1,4.9,1.3,5,4.4c0.1,3.4-1.9,4.7-5.1,4.7c-8.4,0-16,6.1-15.8,14c-1.1,6.4-0.3,12.9-0.5,19.3c-0.1,5.8,0,11.6,0,17.4
	c0,2.6-0.9,4.8-3.8,5c-2.9,0.2-4.5-1.8-5.1-4.5c-0.3-1.3-0.1-2.6-0.1-4c0-10.8,0-21.6,0-32.4C745.8,130.2,746.3,128.5,745.3,127z"/>
<path class="st7" d="M190.5,92.9c21.3,1.6,42.6,3.2,63.9,4.8c7.6,0.6,15.2,1,22.8,1.4c1,5.6-0.7,11.3,1.2,16.8
	c-1.2,1.4-2.9,1.6-4.6,1.4c-16.4-1.2-32.8-2.6-49.2-3.5c-11.1-0.6-22.2-1.3-33.3-2.4c-2.7-0.3-6.2,0.2-5.1-4.5
	C187.7,102.3,189.1,97.6,190.5,92.9z"/>
<path class="st14" d="M82.5,23c0.2,3.3-2.1,3.9-4.5,3.9c-21.9,0.1-43.8,0-65.7,0c-2.7,0-4.4-1.2-4.8-4C17.2,3.4,39.6-7.1,61.8,5.4
	C69.9,10,76.6,15.9,82.5,23z"/>
<path class="st15" d="M58.5,591.7c3.3-6.7,1.5-13.9,1.9-20.8c-0.7-3.1-0.8-6.2,0.1-9.3c7-0.9,13.9-0.2,20.9-0.3
	c9.8-0.1,19.7-0.3,29.5,0.1c2.7,0.1,6.9-0.7,6.5,4.4c-8.3,9-16.6,18-24.9,27c-1.5-1.6-3.4-1-5.2-1C77.8,591.7,68.2,591.7,58.5,591.7
	z"/>
<path class="st16" d="M48.5,562.8c0,6.6,0.2,13.3,0,19.9c-0.1,3.5,0.4,6.5,3,9c-16.6,0-33.3,0-49.9,0c-0.1-0.3-0.2-0.5-0.3-0.8
	c2.9-1.5,6-2.8,8.8-4.4c8.3-4.8,15.3-11,21.2-18.7c0.9-1.2,2.1-2.1,3.2-3.1C39.3,565.6,44.2,566.5,48.5,562.8z"/>
<path class="st7" d="M486.3,191c-3.5-3.5-6.7-7.4-11-10.1c10.1-11,20.2-22,30.5-32.9c3.2-3.4,7.6-3.5,10.6-0.7
	c3.2,3,3.3,7.5-0.1,11.1C506.4,169.3,496.3,180.1,486.3,191z"/>
<path class="st17" d="M283.4,256c-5.3,11-8.9,22.7-14.5,33.5c-0.6,1.2-0.3,2.9-0.4,4.4c-0.8,1.9-0.5,4.2-1.9,6
	c-2.9,2.6-6.7,2.9-10.1,4.1c2-2.4,3.6-5.3,6-7.2c6.5-5.3,5.6-11.8,3.6-18.5c-2.3-7.9-4.9-15.8-10.1-22.4c-3.3-4.1-3.7-8.2-1.5-12.7
	C264,247.4,273.7,251.7,283.4,256z"/>
<path class="st18" d="M186.3,106.9c-0.1,2,0.6,2.9,2.8,3c18.2,1.2,36.4,2.8,54.6,3.8c11.6,0.7,23.1,2.4,34.7,2.1
	c6.7,1.5,13.5,1.2,20.2,1.8c11.4,1.1,22.8,1.6,34.2,2.4c1.5,0.1,3,0.1,4,2.8c-20.5-1.3-41.1-2.6-61.6-3.9c-11.7-1-23.4-2-35.1-2.9
	c-6.4-0.5-12.9-0.8-19.3-1.1c-1.8-0.1-3.7-0.2-5.2,1c-8.2-0.7-16.4-1.4-24.6-1.9c-2.6-0.2-4.2,1.5-6.4,1.9c0.2-2.7-0.4-4-3.7-4.2
	c-19.2-1.1-38.4-2.6-57.6-4c-0.8-0.1-1.7,0-2.5-0.2c-1-0.2-2.2-0.4-2-1.7c0.2-1.4,1.5-1,2.4-1c6,0.4,11.9,0.8,17.9,1.2
	c14.6,1.1,29.1,2.1,43.7,3.4C185.3,109.8,185.2,107.9,186.3,106.9z"/>
<path class="st19" d="M745.3,127c1.6,1.5,1,3.4,1,5.2c0.1,10.3,0,20.6,0,30.9c0,1,0,2,0,3c0,3.1,1.7,5.5,4.5,5.6
	c3.1,0.1,3.5-2.9,3.5-5.6c0-10,0-20,0-29.9c0-1.7-0.7-3.7,1-5.2c0,26.1,0,52.2,0,78.3c0,1.8,0.2,3.7-0.8,5.3c-1.1,1.7-1.3,4.8-4.2,4
	c-2.5-0.7-3.9-2.7-4-5.7c-0.2-10.2-0.8-20.4-0.9-30.6C745.3,163.9,745.3,145.4,745.3,127z"/>
<path class="st20" d="M114.6,591.8c6.4-7.1,12.1-14.8,19.9-20.5c1.6-1.2,2-2.9,3.1-4.3c1.7,6.3,7,10.2,10.2,15.5
	c2,3.3,5.2,5.6,6.6,9.2C141.1,591.8,127.8,591.8,114.6,591.8z"/>
<path class="st21" d="M184.6,115.9c0.9-3,2.3-4.1,6-3.5c6.8,1.1,13.8,1,20.7,1.5c1.7,0.1,3.8-0.7,4.3,2c-1.4,5.3-2.7,10.6-4.2,15.8
	c-0.5,1.8-0.1,4.8-3.7,3.8c-3.3-0.9-1.6-3-1.3-4.8c1.2-7.7-4.3-13.4-11.6-11.6c-3,0.7-5.6,2.4-6.3,5.7c-1.1,5.3-3.2,10.3-2.8,16
	c0.3,3.6-3.3,4.6-6.3,5.1C181.1,136,182.8,126,184.6,115.9z"/>
<path class="st5" d="M32.5,417.9c-2.9-0.2-4.8,1.6-7,3c-6.1-5.9-10.5-13.1-15.7-19.7c-2.1-2.7,0.4-3.3,2.6-3.3c6.3,0,12.6,0,18.9,0
	c1.8,0,3.7,0.6,5.2-1c2.9,3.7,6.2,7.1,10,9.9c-2.4,2.2-5.4,1.2-8.1,1.4c-3.1,0.2-6.3-0.3-9.5,0.4C29,412.3,34.2,413.8,32.5,417.9z"
	/>
<path class="st22" d="M629.3,591.9c-1.1-6,1.3-10.8,5.4-14.7c2.9-2.8,3.9-5.7,3.8-9.6c-0.2-15.1-0.1-30.3,0.8-45.6
	c1.3,6.8,2.7,13.6,3.9,20.5c1.5,8.8,2.7,17.7,4.5,26.5c0.7,3.2-0.3,4-3,4.9c-8.4,2.9-12.9,9-13.5,17.9
	C630.6,591.8,630,591.8,629.3,591.9z"/>
<path class="st23" d="M577.4,591.8c-0.3-9.9,4.7-16.5,13.5-20.1c3.5-1.4,3.9-3.4,3.4-6.4c-3.1-17.5-6.2-35-9.3-52.4
	c-0.1-0.7-0.4-1.3-0.4-1.9c-0.1-1.1-0.5-2.6,1.2-2.7c1.1-0.1,1.4,1.2,1.6,2.2c1,5.4,2,10.8,2.9,16.2c2.3,13.1,4.6,26.2,6.9,39.2
	c0.8,4.4,0.6,7.1-5,8.6c-8.4,2.2-11.4,9.5-12.8,17.4C578.7,591.8,578,591.8,577.4,591.8z"/>
<path class="st24" d="M212.6,219c-5.1-8.4-10.2-16.8-16.1-26.5c8.1,2.4,14.8,3.8,21.1,6.5C216.2,205.8,214.9,212.5,212.6,219z"/>
<path class="st25" d="M791.4,533.8c1.2,2.7,1.7,5.4,0.1,8.1c-5.9,2.7-20.4,2.1-24.2-1c-2.1-3.1-0.1-5.5,1.2-8
	C774.5,530.1,787.5,530.6,791.4,533.8z"/>
<path class="st26" d="M8.5,506.9c-0.2-2.4-0.4-4.8,1.1-7c7.4-2,14.8-3.6,22,1c1,2.3,1.7,4.7,0.1,7.1C25.6,510.6,12.1,510,8.5,506.9z
	"/>
<path class="st27" d="M48.5,562.8c-2.2,4.8-9.5,5.8-14.1,1.9c4.4-6.3,8.8-12.6,13.2-18.9C49.6,551.5,48.1,557.2,48.5,562.8z"/>
<path class="st28" d="M767.2,540.9c8,2,16.2,0.3,24.2,1c-1.5,5.6-5.8,8.9-11.5,8.9C774,550.9,769,547,767.2,540.9z"/>
<path class="st29" d="M8.5,506.9c5.8,2,11.8,0.5,17.7,1c1.8,0.1,3.6,0.1,5.5,0.1c-1.4,5.7-5.7,9-11.4,9
	C14,516.8,9.7,513.1,8.5,506.9z"/>
<path class="st30" d="M680.3,591.8c-1.2-1.9,0.2-2.4,1.5-3.3c4.5-3.2,6.9-7.3,6.7-13.1c-0.3-7.5-0.1-15,0-22.5
	c0-1.4-0.4-3.5,1.7-3.4c1.8,0.1,1.2,2.1,1.2,3.3c0,8.3,0,16.7,0,25c0,6.6-4.2,10.5-9,14C681.7,591.8,681,591.8,680.3,591.8z"/>
<path class="st31" d="M31.5,429.9c8.9-0.2,18.9,6.4,16.9,21c-5.3-4.3-8.2-10.5-12.7-15.6C34.3,433.6,32.9,431.7,31.5,429.9z"/>
<path class="st32" d="M791.4,533.8c-7.6-2.1-15.3-0.5-22.9-0.9c2.8-4.9,6.9-7.5,12.6-6.9C786,526.5,789.6,529,791.4,533.8z"/>
<path class="st33" d="M31.5,500.8c-7.2-2.1-14.7-0.5-22-1c2-5.5,6.4-6.2,11.5-6.1C26.2,493.8,29.7,495.9,31.5,500.8z"/>
<path class="st34" d="M94.5,260.1c5-12,12.8-21.5,23.9-28.5c1.2,1.8,0.2,2.4-0.5,3c-8.8,7-16.6,14.8-20.3,25.8
	c-0.4,1.1-1.2,1.5-2.2,1.7C95,261.4,94.8,260.8,94.5,260.1z"/>
<path class="st35" d="M271.4,151.8c-2.5-1.2-3.8-3.3-3.1-6c0.6-2.6,2.2-4,5-3.7C272.7,145.3,272,148.5,271.4,151.8z"/>
<path class="st0" d="M741.4,231.9c-4.3,0-8.7,0-13,0C732.7,230.3,737,230.3,741.4,231.9z"/>
<path class="st36" d="M492.4,565.9c-0.4,0-0.7,0.1-1.1,0.1c-2.2,1-3.4-0.7-4.7-1.9c-3.9-3.6-7.6-7.5-10.7-11.9
	c-2.8-4.3-6.8-7.4-10.5-10.8c-2.9-2.7-6.3-4.6-9.7-6.6c-1.4-0.9-3.6-1.5-2.3-4c1.5-1.3,3-2.6,4.4-4c38.6-38.6,77.3-77.2,115.8-115.9
	c5.2-5.3,10.7-4.6,16.7-3c-4.1,5.9-8.1,11.9-12.2,17.8c-1.4,2.4-5.6,1.8-6.1,5.4c1.3,13.4,4.4,26.4,6.6,39.6
	c1.9,11.8,4.1,23.7,6.4,36.6c-5.1-4.3-9.1-8.2-14.3-10.5c-12.4-5.5-22.2-0.9-25.5,12.3c-0.3,1.3-0.7,2.6-1,3.8
	c-0.2,2.9-1.5,5.1-3.7,7.1c-14.5,13.7-27.5,29-42,42.8C496.8,564.5,495.4,566.9,492.4,565.9z"/>
<path class="st36" d="M705.3,434.9c8.4-8.2,16.9-16.4,25.2-24.8c2.3-2.3,4.5-3.4,7.8-3.3c12.6,0.2,25.3,0.1,37.9,0.1
	c1.1,0,2.7-0.1,3.3,0.6c1.2,1.3-0.6,2.4-1.2,3.4c-20.1,29.4-40.3,58.7-60.6,88c-5,7.2-11.9,12.4-18.4,18c-2.8-15.5-5.6-31-8.4-46.4
	c-0.4-2.1,0.9-3.4,1.9-4.9c3.2-4.6,6.4-9.3,9.8-13.8C706.5,446.5,707.7,441,705.3,434.9z"/>
<path class="st36" d="M562.6,563.7c-0.7,0.8-1.7,1.1-2.7,1c-15.2-0.5-30.3,1.7-45.5,2.1c-5.4,0.9-10.9,0.2-16.4,0.4
	c-2.1,0.1-2.1-1.1-1.3-2.6c0.5-0.9,1.3-1.5,2-2.2c13.2-12.9,25.9-26.3,39-39.3c0.5-0.5-0.1,0.1,0.4-0.3c1.5-1.3,2.8-3.6,4.9-2.9
	c2,0.7,0.2,3.4,1.3,4.9C547.1,539.3,552.6,552.6,562.6,563.7z"/>
<path class="st37" d="M650.2,413.1c2.8-4.7,6.7-6.4,12.4-6.3c20.6,0.3,41.2,0.1,61.8,0.2c1.4,0,3.4-0.8,4.2,0.6
	c1,1.9-1.3,2.8-2.3,3.8c-6.2,6.3-12.4,12.5-18.7,18.7c-1.2,1.1-2.1,2.6-4,2.8c-7.2-5.8-12.5-5.7-19.4,0.6c-1.7,1.6-2.8,1.7-4.7,0.4
	C669.8,426.9,660,420,650.2,413.1z"/>
<path class="st23" d="M572.2,431.1c-1.5-5.8,3.8-3.9,6.1-5.4c14.5-0.1,26.3,7.5,38.3,14.1c12.7,6.9,24.3,15.7,37.6,21.5
	c4.7,2.1,9.5,3.9,14.7,4.6c1.3,0.2,3.1,0.2,2.8,2c-0.3,1.8-2.2,1.1-3.4,0.9c-11.8-2.2-22.2-7.7-32.3-13.9
	c-12.2-7.4-24.1-15.4-37.2-21.2c-5.5-2.4-11-4.8-17.1-4.9C578.2,428.6,575,429,572.2,431.1z"/>
<path class="st38" d="M544.3,524.8c-1.5-1-0.4-2.9-0.9-3.6c-15.2,15.1-30.4,30.3-46,45.7c5.5,0,11.3,0,17,0
	c-7.4,1.2-14.8,2.2-22.1-1c1.9-0.1,2.9-1.4,4.1-2.6c8.5-8.9,17.7-17.1,25.7-26.5c5.6-6.5,12-12.5,18.4-18.4c1.8-1.7,2.7-3.5,3.8-5.5
	C544.3,516.9,544.3,520.8,544.3,524.8z"/>
<path class="st39" d="M607.3,394c0-2.6,6.5-11.9,8.8-12.7c3.2-1.1,7.2,2.5,6,5.7c-1.6,4.3-4.3,8.3-8,11
	C610.8,400.3,607.3,397.9,607.3,394z"/>
<path class="st40" d="M696.4,439.4c-1.2,3.7-3.9,7.8-7.8,11c-1.5,1.2-3.9,1-5.5-0.7c-1.5-1.5-2.2-3.5-0.9-5.4c2-3.1,4-6.1,6.2-9
	c1.5-2,3.7-2,5.9-1.2C696.1,434.8,696.5,436.4,696.4,439.4z"/>
<path class="st36" d="M700.3,521.9c0.2-1.5,0.8-2.8,2.2-3.3c0.7-0.2,0.7,0.8,0.9,1.3c-0.4,1-0.8,2.1-1.3,3c-0.3,0.5-0.8,0.8-1.3,1.2
	C700.6,523.4,700.5,522.7,700.3,521.9z"/>
<path class="st41" d="M209.5,397.9c-38.8,2-77.5,0.6-116.3,0.9c-1.8,0-4,1-5.5-1.1c15.1,0.1,30.2,0.2,45.3,0.2c18.3,0,36.5,0,54.8,0
	c1.6,0,3.1,0,4.7,0c-4.1-3.2-8.1-6.1-11-10.1c7.7-18.1,15.4-36.2,22.9-54.4c1.6-3.8,4-7.3,4.1-11.6c2.6-3.8,7.3-3.2,10.8-5.2
	c1.6-0.9,3.4-1.1,5.1-1.7c7.7-2.7,15.4-5.3,23.1-8c-7.7,17.8-15.3,35.5-23,53.3c-4.3,10-8.5,20.1-12.8,30.1
	C210.7,392.8,209.5,395.2,209.5,397.9z"/>
<path class="st36" d="M187.6,262.8c-0.5-6.6-4-12.6-4.1-19.4c3,1.4,5.1,4.2,8.7,4.6c8.2,1,14.1-2.7,16.2-10.5
	c0.5-1.8,0.8-3.5,1.2-5.3c3.4,8.5,4.9,17.5,7.4,26.3c3.2,11,5.7,22.2,8.9,33.2c0.9,3.3-0.1,4.4-3.1,5.3c-13.4,3.7-12.9,3.3-22.3-6.8
	c-6.2-6.7-9.8-14-11.3-22.7C189,265.8,188.2,264.3,187.6,262.8z"/>
<path class="st42" d="M159.5,362.9c-0.6,0.7-1.1,1.7-1.9,2.2c-10.7,6.2-21.5,12.4-32.7,18.8c0.4-5.6,2.9-9.7,6.3-13.3
	c2.1-2.3,4.6-4.3,6.6-6.7c3.2-3.7,5.8-7.7,3.8-13c-0.4-3.8-2.2-7.1-3.8-10.5c-0.4-1-2.1-2-0.4-3.3
	C144.8,345.6,152.2,354.3,159.5,362.9z"/>
<path class="st43" d="M224.4,314.9c-2.7,3.3-7,3.3-10.4,4.9c-1.8,0.8-3.7,1.4-5.5,2.1c-1.2-0.3-2.8-1.6-1.5-2.1
	C212.6,317.7,217.9,313.9,224.4,314.9z"/>
<path class="st11" d="M153.5,218.9c-5.3,0.3-10.4,2-15.4,3.6c-9,2.9-15.9-1.2-21.6-7.4c-5.3-5.7-6.6-12.6-3.5-19.9
	c2-4.8,5.8-7.9,11-8.3c13.4-1,25.9,2.7,37.6,8.9C159.2,203.7,156.8,211.5,153.5,218.9z"/>
<path class="st44" d="M245.7,168.1c5.6-0.8,10.3,1,15.1,0.8c2.2-0.1,2.8,1,1.3,2.7c-2.4,2.7-4.5,6.5-8.7,5.8
	C248.7,176.8,247.5,172.3,245.7,168.1z"/>
<path class="st45" d="M241.9,139.5c3.4,0.1,5.4,2.1,5.3,5.3c-0.1,2.9-2,5-5.1,5c-3.4,0-5.3-2.2-5.3-5.3
	C236.8,141.4,238.7,139.6,241.9,139.5z"/>
<path class="st46" d="M258.9,159.2c-1.3,0.3-2,0-2.4-0.9c-0.4-1.2,0.2-2.1,1.2-2.3c7.2-1.7,3.8-5.3,1.9-9c-0.9-1.8-4.2-4.1-1.3-5.8
	c2.4-1.4,2.9,2.4,4.1,3.9c0.8,1,1.2,2.4,2.1,3.4C268.4,153.2,265.6,157.8,258.9,159.2z"/>
<path class="st11" d="M295.3,397.9c11.8-13,23.7-25.9,35.5-38.9c6.1-6.7,12.3-13.4,18.5-20.1c-0.1-2.4,2-2.9,3.5-3.5
	c6-2.4,11.6-5.5,17.3-8.3c8.4-3.2,16.1-7.7,24.3-11.5c6.9-3.2,11-8.9,13.4-15.9c0.7-1.8,0.8-4,2.7-5.1c6.9,1.5,11.6,6.4,15.7,11.5
	c12.1,14.9,15.5,31.7,9.8,50.1c-2.3,7.5-5.1,14.7-7.6,22.1c3.8-11.3,9.2-22.1,10.3-34.1c1.8-21.4-10.3-42.6-28.7-50.5
	c-1.2-5.5-1.9-11-4.1-16.3c2.4-4.1,5-8,9.4-10.3c9.3,1.6,16.8,6.4,23.5,12.8c8.2,7.1,15.8,14.7,23.9,22
	c12.5,11.3,24.3,23.2,36.1,35.2c17.5,17.8,34.4,36.2,50.9,54.9c1.2,1.4,2.4,2.8,2.8,4.7c-0.8,1.9-2.5,1.3-3.9,1.3
	c-83.9,0-167.9,0-251.8,0C296.3,398.2,295.8,398,295.3,397.9z"/>
<path class="st36" d="M329.4,496.8c-1.5,1.3-3,2.6-4.4,4c-26.4,26.4-52.8,52.7-79.1,79.2c-2.6,2.7-5.3,3.9-9.1,3.9
	c-21.2-0.2-42.3-0.1-63.5-0.1c-1.4,0-3.4,0.8-4.1-0.8c-0.8-1.7,1.2-2.5,2.2-3.5c56.6-56.7,113.3-113.3,169.9-170
	c1.9-1.9,3.9-2.7,6.6-2.7c21.7,0.1,43.3,0,65,0.1c1.4,0,3.4-0.8,4,0.9c0.6,1.6-1.4,2.5-2.4,3.5c-25.7,25.7-51.3,51.4-77,77.1
	c-1.4,1.4-2.7,2.9-4,4.4C332.9,494.9,331.5,496.2,329.4,496.8z"/>
<path class="st36" d="M143.4,560.7c14.1-15.4,28.2-30.9,42.4-46.3c32.3-35,64.6-69.9,96.9-104.8c0.9-1,1.9-1.8,2.9-2.7
	c16.5,0,33,0,49.5,0c1.3,0,3-0.7,3.7,0.7c0.9,1.7-1.1,2.5-2,3.5c-56.6,56.7-113.3,113.3-169.9,170c-4.1,4.1-6.6,3.8-10.1-0.8
	c-3.9-5.2-7.8-10.3-11.8-15.4C143.9,563.5,143.4,562.3,143.4,560.7z"/>
<path class="st36" d="M337.4,492.6c0.1-2.1,1.8-3.1,3.1-4.3c26-26,52-52,78-78.1c2.4-2.4,4.9-3.4,8.3-3.4
	c21.3,0.1,42.6,0.1,63.9,0.1c1.4,0,3.4-0.8,4.1,0.8c0.7,1.6-1.3,2.5-2.3,3.5c-39.3,39.3-78.6,78.6-117.9,117.9
	c-1.6,1.6-3.2,2.9-5.2,3.7c-1.6-0.7-2.1-2.1-2.2-3.6c-0.6-12.8,4.2-24.1,20.1-25.8c2.1-0.2,4.4,0.2,5.4-2.5c1.3-3.9-0.4-6.5-4.5-6.7
	c-4.8-0.3-9.2,1-13.5,2.8c-5.4,2.3-7.8,0.6-7.3-5.4c0.3-3.5,0.5-6.9-0.3-10.4c-0.6-2.4-1.4-4.6-4.3-4.7c-3.2-0.1-4.1,2.4-4.6,4.9
	c-0.7,3.8-0.2,7.6-0.4,11.4c-0.3,5.4-1.6,6.6-6.4,4.2C346.9,495.1,341.7,495.3,337.4,492.6z"/>
<path class="st36" d="M356.4,547.8c-12,10.5-23.4,21.7-34.5,33.1c-2,2.1-4.1,3-7,3c-21.3-0.1-42.6,0-63.9-0.1c-1.4,0-3.3,0.8-4-0.9
	c-0.6-1.4,1.1-2.2,2-3.1c26.2-26.2,52.4-52.5,78.7-78.7c0.5-0.5,1.1-0.8,1.6-1.2c3.3,2.3,6.9,3.4,11,3.8
	c10.3,1.1,17.3,9.2,17.5,19.6c0.1,6.3,0.1,12.6,0,18.9C357.8,544.2,358.1,546.2,356.4,547.8z"/>
<path class="st36" d="M371.3,566.7c-0.6,0.4-1.3,0.7-1.9,1.1c-1.6-1-2.2-2.5-2.3-4.2c-0.4-7.3-0.5-14.6,0.1-21.9
	c0.2-1.8,0.6-3.6,2.1-4.9c1.5-1.3,3.1-2.5,4.5-3.9c40.7-40.7,81.5-81.4,122.2-122.2c2.6-2.7,5.3-3.9,9.1-3.9
	c21.1,0.2,42.3,0.1,63.4,0.1c1.4,0,3.4-0.8,4.1,0.8c0.8,1.7-1.2,2.5-2.2,3.5c-29,29.1-58.1,58.2-87.2,87.3c-1.4,1.4-3,2.6-4.8,3.4
	c-0.9-0.6-1.1-1.6-1.3-2.6c-1.2-6.1-1.2-6-7.2-6.1c-4.3,0-8.1,1.6-11.9,3.2c-4.4,1.9-5.7,1-6-3.7c-0.2-2.8,0-5.7-0.1-8.5
	c0-1.7-0.1-3.3-0.6-4.9c-0.8-2.5-2.2-4.1-5.1-3.8c-2.7,0.3-3.4,2.3-3.5,4.7c-0.2,3.8,0.1,7.7-0.2,11.5c-0.5,5.6-2.3,6.8-7.4,4.5
	c-4.8-2.2-9.7-3.3-15-2.8c-2.3,0.2-4.3,1.1-4.7,3.6c-0.4,2.8,1.5,4.2,3.9,5.1c1.4,0.5,3,0.4,4.4,0.5c9,0.8,16,7.3,17.9,16.2
	c0,10.5,0,10.5-10.1,10.5c-12.4,0-22.8,5.4-32.7,11.9c-3.8,2.8-7.6,5.7-10.8,9.3C382.1,555.5,377.3,561.8,371.3,566.7z"/>
<path class="st36" d="M552.5,396.8c-8.3-9.1-16.5-18.3-24.8-27.4c-27.4-30.3-56.8-58.6-86.9-86.2c-0.9-0.8-1.6-1.7-2.4-2.5
	c-0.3-2.8,1.9-4.4,3.4-6.3c2.6-3.4,5.3-6.7,8-10c1.1-1.3,2.2-2.9,4.4-2.7c1.4,1.2,2.8,2.3,4.1,3.6c13.4,13.4,26.5,27.1,40.3,40.1
	c13,12.2,23.4,26.1,31.9,41.6c8.1,14.7,17,28.9,25.5,43.3C559.3,395.8,558.8,396.7,552.5,396.8z"/>
<path class="st47" d="M369.4,536.9c-1.1,10.3-1.6,20.7,0,31c-4.3,5.7-7.6,12.1-12.9,17c0-0.3-0.1-0.7-0.1-1
	c-0.2-0.3-0.5-0.5-0.6-0.8c-1.3-10.8-2.3-21.5,0.6-32.2c0-1,0-2,0-3c0-7.8,0.1-15.6,0.1-23.4c0-11.7-7.3-19.3-19-19.6
	c-3.8-0.1-6.9-0.8-8.1-5c0-1,0-2,0-3c1-1.7,2.3-3.1,4-4.1c1.3,0,2.7-0.1,4-0.1c5.4-0.1,10.5,1.3,15.3,3.9c3.4,1.9,3.9,0.4,3.8-2.6
	c-0.1-4-0.3-8,0.1-12c0.3-3.5,1.1-7.2,5.9-7.1c4.4,0.1,5.6,2.9,6.2,6.9c0.5,3.7,0.3,7.2-0.1,10.8c-0.4,4.3,0.9,5.1,4.7,3.5
	c5.4-2.3,10.9-3.5,16.9-3.3c5.1,0.2,4.1,3.7,4.2,6.7c0.2,3.2-0.4,5.6-4.5,5.4c-8.5-0.4-15.5,2.8-19.2,10.6
	c-2.5,5.4-3.3,11.4-1.4,17.4C369.4,534.2,369.4,535.5,369.4,536.9z"/>
<path class="st47" d="M440.6,518.9c-2-9.2-9.1-15-18.9-15c-3.4,0-5.7-1.4-7.5-3.9c-1.4-2-0.5-3.8,0.5-5.6c1.1-1.9,2.8-2.5,5-2.7
	c6-0.4,11.8,0.4,16.8,3.4c4.5,2.7,4.7,0,4.8-3.1c0.1-4,0.1-8,0-12c-0.1-3.4,0.8-5.9,4.8-6.2c3.8-0.3,6,1.3,6.8,5
	c1,4.6,0.4,9.3,0.4,13.9c0,3.5,0.7,4.7,4.1,2.6c4.4-2.6,9.1-3.8,14.3-3.6c6.7,0.2,6.8,0.1,6.8,6.6c0,1.2,0,2.3,0,3.5
	c-0.7,0.7-1.4,1.3-2.1,2c-1.5,1.4-3.3,1.4-5.2,1.4c-8.2,0.1-18,8.5-16.6,17c0.3,1.6,0,3.3-1,4.8c-1.7,1.6,0.7,6.3-4.4,5.3
	c-6.3-1.1-8.3-2.8-8.3-8.1C440.9,522.5,441.3,520.7,440.6,518.9z"/>
<path class="st48" d="M454.2,261.8c-6.1,5.7-10.6,12.6-15.8,18.9c-6.8-5.9-14.3-10.4-23-12.8c-0.7-1.8,0.7-2.8,1.6-3.8
	c8.8-9.5,17.4-19.1,26.4-28.5c1.7-1.8,3.3-3.7,4.9-5.6c1.3-1.6,2.5-3.7,5.1-3.3c6,4.1,11.9,8.2,17.9,12.3c0,1.7-1.6,2.5-2.1,3.9
	c-3.8,6.3-8,12.4-13.9,17C455,260.6,454.6,261.2,454.2,261.8z"/>
<path class="st36" d="M455.5,259.9c4.4-5.9,8.7-11.8,13.9-17c6.2,12.6,14.1,24.3,21.1,36.5c6.1,10.6,12.5,21,18.7,31.5
	c-0.3,0.3-0.7,0.6-1,0.9C490.6,294.6,473,277.3,455.5,259.9z"/>
<path class="st49" d="M440.6,518.9c1.3,1.2,1,2.8,0.8,4.2c-0.7,4.3,1.5,5.7,5.2,7.1c4.3,1.7,6,0.9,6.7-3.4c0.4,0.2,0.6,0.4,0.5,0.6
	c-0.1,0.3-0.2,0.4-0.3,0.4c0,1,0,2,0,3c0.7,3.5,4.4,3,6.4,4.9c2,1.9,5.1,2.5,6.5,5.2c-1.6,2.4-4.2,2.5-6.7,2.5
	c-18.5,0.1-37,0.1-55.4,0c-2.5,0-5.1-0.1-6.7-2.5c11.7-8.9,24.5-14.4,39.5-12.8c3.4,0.4,3.7-0.6,3.6-3.2
	C440.4,522.9,440.5,520.9,440.6,518.9z"/>
<path class="st36" d="M356.4,550.8c0,11,0,22,0,33c-9.5,0-18.9,0-28.4,0c-1.1,0-2.5,0.5-3.1-0.9c-0.4-1.1,0.7-1.8,1.3-2.4
	C336.3,570.6,346.4,560.7,356.4,550.8z"/>
<path class="st50" d="M453.4,527.9c-0.1-0.3-0.1-0.7-0.2-1c-0.7-8.3,1-15.5,8.8-20.2c4.5-2.8,9.4-3,14.4-2.8c0,1.7-1.2,2.6-2.2,3.7
	C467.3,514.3,460.4,521.1,453.4,527.9z"/>
<path class="st51" d="M370.5,328c-5.2,3.5-11,5.7-16.6,8.4c-1.6,0.8-3.4,1.1-4.6,2.6c-12.5,5.1-24.6,11.2-36.6,17.2
	c-0.5,0.3-1,0.2-1.4-0.2c-0.6-1.5-0.1-3,0.5-4.3c10.8-24.5,20.4-49.5,31.7-73.7c0.7-1.5,1.4-3,2.4-4.4c1.7-1.5,3.4-2.6,5.8-1.7
	c0.8,0.8,1.3,1.9,1.6,3c5.1,15.9,11,31.5,16.4,47.3C370.4,324.1,371.4,325.9,370.5,328z"/>
<path class="st52" d="M117.5,565.8c-1.1-3.4-4-2.9-6.5-2.9c-14.7,0-29.5,0-44.2,0c-2.1,0-4.3,0.3-6.2-1.1
	c-1.2-6.1-0.3-12.2-0.5-18.3c-0.1-2,1.5-2.8,3.1-3.4c2.2-0.8,4.6-0.8,6.9-0.8c12.8,0,25.6,0,38.4,0c2.5,0,5-0.2,7.1,1.6
	c4,4.7,7.9,9.4,11.9,14.2C124.4,558.8,121.1,562.5,117.5,565.8z"/>
<path class="st11" d="M311.5,356.1c0.4,0,0.8,0,1.2,0c-7.4,8.2-14.5,16.6-22.8,24c-6.6,5.9-12.3,12.9-18.3,19.4
	c-0.2-0.2-0.3-0.5-0.4-0.7c-1.4-1.5-3.1-0.7-4.7-0.7c-11.8-0.1-23.6,0-35.4-0.1c-1.6,0-3.2,0.5-5.3-0.8c14.2-6.9,28-13.6,41.8-20.3
	c2.3-2.2,5.1-3.6,8-4.9c10.6-4.6,20.8-9.9,31.4-14.7C308.3,356.7,309.7,355.7,311.5,356.1z"/>
<path class="st53" d="M133.8,548c-4.9-2.3-5.2-3.7-1.6-7.4c27.4-27.4,54.8-54.8,82.2-82.1c1-1,1.7-3.2,3.9-1.9
	c-24.7,26.9-49.5,53.9-74.2,80.8C140.8,540.9,137.3,544.4,133.8,548z"/>
<path class="st54" d="M311.5,356.1c-14.4,7.5-29.1,14.4-44,20.9c10.4-24.4,21-48.7,30.9-73.3c3.9-9.7,9.2-17.3,19.1-21.4
	c3.6-1.5,6.2-5,10-6.3c5.4,0.5,10.7-0.3,15.7-2.3c1.1-0.4,2.3-0.6,3.2,0.4c-6.1,14.1-12.2,28.2-18.2,42.4
	C322.6,329.6,317.1,342.8,311.5,356.1z"/>
<path class="st36" d="M346.4,274c-2.5,0.8-5.2,1.3-7.6,2.4c-4,1.8-7.7,1.7-11.4-0.4c-5.7-2.7-11.3-5.4-17-8.1
	c3.9-8.4,9.3-16,13.8-24.1c2.2-3.9,4.5-7.7,6.7-11.7c1.6-2.8,3-3.3,5.5-0.7c8.4,8.7,17.1,17.2,25.7,25.8c0.7,0.7,1.6,1.2,2.4,1.8
	c-0.3,4-3.9,5.4-6,7.9c-1.3,1.6-2.9,3.1-4.5,4.5c-0.8,0.5-1.6,1.1-2.6,0.6C349.7,272.7,348.1,273.3,346.4,274z"/>
<path class="st55" d="M266.6,299.8c0.6-2-1.6-4.9,1.9-6C269.4,296.4,271.7,299.3,266.6,299.8z"/>
<path class="st56" d="M371.3,566.7c4.2-6.7,10.1-11.9,16-17c1.6-0.4,3.3-0.6,4.9-0.6c25.4,0.1,50.7,0,76.1,0.1c3,0,6.1-0.2,8.2,2.5
	c4.8,4.8,8.4,11,14.7,14.2c-1.9,2.6-4.8,2.8-7.6,2.8c-35.1,0-70.3,0-105.4,0C375.7,568.8,373.3,568.5,371.3,566.7z"/>
<path class="st36" d="M61.5,469.9c6.4,6.5,11.2,14.2,16.7,21.3c6.2,8.1,12.8,15.9,18.3,24.6c-1.1,1.3-2.6,1.3-4.1,1.4
	c-9.2,0.5-17.4,3.7-24.8,9.1c-0.8,0.6-1.6,1.2-2.4,1.7c-3.5,2-4.1,1.6-4.1-2.5c0-0.8-0.1-1.7,0.3-2.4
	C61.4,505.3,61.4,487.6,61.5,469.9z"/>
<path class="st36" d="M62.4,406.8c13.1,0,26.2,0,39.3,0.1c1.1,0,2.5-0.5,3.1,0.8c0.5,1.1-0.6,1.8-1.2,2.5
	c-14.4,14.2-28.8,28.5-43.2,42.7c0-2.3,0.3-4.7-0.1-7c-1.6-8.2,8.5-16.1,15.5-16c5.6,0,7.2-1.9,6.6-6.7c-0.5-3.7-3.6-5.3-8.3-4.7
	c-4.6,0.5-9,1.8-13.7,4.4c0-5.1,0-9.3,0-13.6C60.5,407.8,61.1,407,62.4,406.8z"/>
<path class="st57" d="M115.6,540.8c-15.8,0-31.6,0-47.3,0.1c-7.3,0-7.7,0.5-7.7,7.5c0,4.5,0,9,0,13.5c0,3,0,6.1-0.1,9.1
	c-1.5-1.5-0.9-3.5-0.9-5.2c0-11.6-0.4-23.2,1-34.8c1.8-2.4,4.5-2.6,7.1-2.6c11.2-0.1,22.5,0,33.7,0c2.2,0,4.3,0.4,6.1,1.6
	C110,533.6,113.8,536.5,115.6,540.8z"/>
<path class="st58" d="M107.5,529.9c-13.6,0-27.1,0-40.7,0c-2.1,0-4.3-0.2-6.3,1c0.3-2.6-0.9-5.4,0.8-7.9c0.1,1.7,0.2,3.3,0.3,5.9
	c10.5-8.3,21.6-13.7,34.8-13C100.6,520.1,104.2,524.9,107.5,529.9z"/>
<path class="st37" d="M32.5,417.9c-0.6-2.9-3.1-4.6-4.5-7c-0.7-1.1-2.5-1.7-1.9-3.2c0.7-1.7,2.7-0.8,4-0.9
	c5.5-0.1,10.9-0.1,16.4-0.1c3.7,1.4,1.6,4.5,1.9,6.8c0.3,2.7,0.9,6.7-0.5,8c-1.9,1.8-4.7-1.6-7.2-2.1
	C38,418.9,35.3,418.4,32.5,417.9z"/>
<path class="st36" d="M224.8,406.9c10.8,0,21.6,0,32.5,0c1.2,0,3-0.7,3.6,0.8c0.6,1.5-1,2.3-1.9,3.1c-14.6,14.6-29.2,29.2-43.8,43.8
	c-27.7,27.7-55.3,55.3-83,83c-4.4,4.3-4.4,4.3-8.1-0.6c-8.5-11.2-16.9-22.5-25.6-33.6c-2.2-2.8-2.3-4.7,0.2-7.2
	c28.9-28.8,57.7-57.6,86.5-86.5c2.2-2.2,4.7-2.9,7.7-2.9C203.5,406.9,214.1,406.9,224.8,406.9z"/>
<path class="st36" d="M183.3,408.4c-1,1.1-1.7,1.9-2.5,2.8c-27.7,27.7-55.4,55.3-82.9,83.1c-2.7,2.7-4.4,2.8-6.7-0.2
	c-9-11.9-17.9-23.9-27-35.6c-1.9-2.5-1.2-4.3,0.5-6.1c14.1-14.2,28.2-28.3,42.4-42.3c2-1.9,4.4-3.2,7.6-3.1
	c21.5,0.1,43,0.1,64.4,0.1C180.5,406.9,182.4,406.2,183.3,408.4z"/>
<path class="st36" d="M366.6,257.1c-10.8-7.9-19.3-18.2-28.7-27.5c-2.6-2.5-2.4-5-0.4-8.3c8.4-13.7,16.5-27.6,24.6-41.5
	c3.9-6.7,3.9-6.8,9.5-1.2c12.6,12.7,25.3,25.5,37.9,38.3c0.8,1.7-0.7,2.3-1.5,3.2c-11.7,11.6-24,22.5-35.6,34.1
	C370.8,255.7,369.5,258.2,366.6,257.1z"/>
<path class="st36" d="M437.4,189.8c-4.3,5.8-10.8,9.4-15,15.2c-3,4.1-5.6,8.6-11.1,9.9c-14.1-13.9-28.1-27.9-42.2-41.7
	c-2-1.9-1.2-3.5-0.1-5.3c6.2-10.6,12.5-21.2,18.7-31.7c2.3-3.9,4.6-7.7,6.9-11.5c1.6-2.6,2.8-2.7,4.4,0.1
	c6.9,11.9,14.1,23.7,21.1,35.5C425.9,170.1,431.6,180,437.4,189.8z"/>
<path class="st59" d="M411.3,214.9c3.7-3.3,7.4-6.6,11.1-9.9c6,4.3,12,8.6,18,12.9c-0.5,4.5-4.3,7-6.9,9.8
	c-12.1,12.7-23.6,25.9-35.8,38.6c-0.6,0.6-1.2,1.1-2.1,1.1c-11.4-5.2-22.2-1.7-33,2.3c-2.9,1.1-5.9,3.4-9.3,1.2
	c3.7-4,7.5-8,11.2-11.9c0.7-0.6,1.3-1.3,2-1.9c0.7-0.4,1.6-0.6,2.2-1.1c13.6-13,27.1-26.1,40.7-39.1
	C410.4,216.5,411,215.9,411.3,214.9z"/>
<path class="st7" d="M396.1,266.7c10.8-11.9,21.6-23.7,32.4-35.6c4-4.4,7.9-8.8,11.9-13.3c4-3.7,7.9-7.4,11.8-11.1
	c1.7,3.8,3.7,8.1,5.7,12.3c0.7,1.6-0.1,2.5-1,3.5c-1.2,1.3-2.3,2.7-3.5,4.1c-13,13.4-25.7,27.2-38.1,41.2c-3,3-6,5.9-8.9,8.9
	C402.5,274,398.5,271.2,396.1,266.7z"/>
<path class="st60" d="M476.6,551.8c-2.2-1.1-4.5-0.9-6.8-0.9c-25.2,0-50.5,0-75.7,0c-2.3,0-4.7,0.3-6.8-1.1
	c2.7-3.7,6.6-6.1,10.1-8.9c2.5,0.8,5.1,1,7.8,1c17.7-0.1,35.5-0.1,53.2,0c2.7,0,5.3-0.2,7.8-1C470.1,544.1,474.3,547.1,476.6,551.8z
	"/>
<path class="st4" d="M396.1,266.7c4,2.8,7.7,6,10.4,10.1c3,5.3,4.4,11.1,4.1,17.2l0.3,0.4l-0.3,0.4c-2.3,12.3-9.5,20.3-21.1,24.7
	c-6.5,2.5-12.2,6.6-19,8.4c-6.5-18.6-13.9-36.9-19.1-55.9c0.7-0.4,1.3-0.7,2-1.1c6.1-0.9,11.8-3.3,17.4-5.4
	C379.6,262.2,387.9,262.6,396.1,266.7z"/>
<path class="st61" d="M410.6,294.8c0-0.3,0-0.5,0-0.8c2.7-1.7,4.4,0.6,6.1,1.8c20.5,14.3,28.4,39.2,20.1,63
	c-2.3,6.6-4.7,13.1-7.1,19.7c-0.5,1.5-0.6,3.4-2.8,3.6c-1.3-1.9,0.1-3.6,0.7-5.2c2.8-8.3,6.3-16.5,8.5-25
	c5.3-20.8-3.4-42.4-21.3-54.5C413.4,296.6,412,295.7,410.6,294.8z"/>
<path class="st36" d="M445.2,469.7c0.2-2,1.7-2.8,2.7-3.8c17.3-17.3,34.6-34.6,51.8-52c2.1-2.1,4.3-3.2,7.4-3.2
	c16.8,0.1,33.6,0.1,50.4,0.1c1.4,0,3.4-0.8,4.2,0.7c0.9,1.7-1.1,2.5-2.1,3.5c-24.7,24.7-49.4,49.4-74.1,74.2c-2.1,2.1-3.8,3.2-6,0.3
	c-0.8-1.1-2.3-2.4-3.4-1.4c-3.4,3.2-6.2,1.9-9.4-0.1c-0.8-0.5-2.6,0.2-3.8,0.5c-5.6,1.6-5.5,1.6-5.6-4.4c0-2.3,0.2-4.8-0.4-6.9
	C455.3,471.6,451,469.3,445.2,469.7z"/>
<path class="st36" d="M425.7,487c3.1-2.7,5.8-4.4,7.7-6.9c3-3.8,4.8-2,6.3,0.9c1.5,2.9,0.7,6.2,0.5,9.3c-0.1,1.9-1.7,1-2.7,0.7
	C434.1,489.9,430.7,488.7,425.7,487z"/>
</svg>
