<?xml version="1.0" encoding="utf-8"?>
<!-- Generator: Adobe Illustrator 25.0.1, SVG Export Plug-In . SVG Version: 6.00 Build 0)  -->
<svg version="1.1" id="Layer_1" xmlns="http://www.w3.org/2000/svg" xmlns:xlink="http://www.w3.org/1999/xlink" x="0px" y="0px"
	 viewBox="0 0 608 398" style="enable-background:new 0 0 608 398;" xml:space="preserve">
<style type="text/css">
	.st0{fill:#7A9E8B;}
	.st1{fill:#94A299;}
	.st2{fill:#2B2B2B;}
	.st3{fill:#E97068;}
	.st4{fill:#FEF7D7;}
	.st5{fill:#F8D4FB;}
	.st6{fill:#FCBF68;}
	.st7{fill:#FEF0B0;}
	.st8{fill:#F8D4FD;}
	.st9{fill:#FEF0AE;}
	.st10{fill:#88A093;}
	.st11{fill:#F8938A;}
	.st12{fill:#FEEEA1;}
	.st13{fill:#FEF5CE;}
	.st14{fill:#FBD7AD;}
	.st15{fill:#FEF5CF;}
	.st16{fill:#FCD45C;}
	.st17{fill:#FEEFA6;}
	.st18{fill:#FCD887;}
	.st19{fill:#82B0C7;}
	.st20{fill:#FEF7D9;}
	.st21{fill:#F9D5E1;}
	.st22{fill:#FBBB6E;}
	.st23{fill:#B9D2D9;}
	.st24{fill:#F9A97A;}
	.st25{fill:#565656;}
	.st26{fill:#FEFAE8;}
	.st27{fill:#F9A180;}
	.st28{fill:#93A299;}
	.st29{fill:#FDC63A;}
	.st30{fill:#FCD86E;}
	.st31{fill:#FAD6CD;}
	.st32{fill:#FEFAEA;}
	.st33{fill:#FDD959;}
	.st34{fill:#FEECB5;}
	.st35{fill:#FEE76C;}
	.st36{fill:#FEE990;}
	.st37{fill:#2C2C2C;}
	.st38{fill:#FDEEA0;}
	.st39{fill:#493534;}
	.st40{fill:#333130;}
	.st41{fill:#302E2D;}
	.st42{fill:#E97268;}
	.st43{fill:#343337;}
	.st44{fill:#3B3332;}
	.st45{fill:#F9F197;}
	.st46{fill:#665A48;}
	.st47{fill:#FAB572;}
	.st48{fill:#39403C;}
	.st49{fill:#524439;}
	.st50{fill:#5A4B3A;}
	.st51{fill:#A3A3AC;}
	.st52{fill:#2D2D2C;}
	.st53{fill:#FECE30;}
	.st54{fill:#FEF0AC;}
	.st55{fill:#8C9AA3;}
	.st56{fill:#AACEE2;}
	.st57{fill:#9FA1BF;}
	.st58{fill:#E96F67;}
	.st59{fill:#EFC88C;}
	.st60{fill:#9EB3D8;}
	.st61{fill:#FEFA53;}
	.st62{fill:#4C7DDF;}
	.st63{fill:#FEEEA2;}
	.st64{fill:#BAB899;}
	.st65{fill:#EA9E97;}
	.st66{fill:#64533B;}
	.st67{fill:#61513A;}
	.st68{fill:#3E3830;}
	.st69{fill:#FEFEFD;}
	.st70{fill:#ECAC93;}
	.st71{fill:#2F2E2E;}
	.st72{fill:#FEFEFC;}
	.st73{fill:#2D2C2B;}
	.st74{fill:#8C9BA5;}
	.st75{fill:#86A8BA;}
	.st76{fill:#E97067;}
	.st77{fill:#86A8B9;}
	.st78{fill:#40464A;}
	.st79{fill:#FEF2BA;}
	.st80{fill:#E77267;}
	.st81{fill:#EAB171;}
	.st82{fill:#5D403B;}
	.st83{fill:#613E3B;}
	.st84{fill:#FDFDFB;}
	.st85{fill:#FEFA54;}
	.st86{fill:#FEF2BD;}
	.st87{fill:#3E362E;}
	.st88{fill:#313C51;}
	.st89{fill:#323B50;}
	.st90{fill:#5A3B39;}
	.st91{fill:#4A3634;}
	.st92{fill:#543937;}
	.st93{fill:#443432;}
	.st94{fill:#463433;}
	.st95{fill:#5D423F;}
</style>
<path class="st0" d="M85.8,196.8c-0.9-2.4-1.8-4.8-2.7-7.2c6.8-11.7,13.3-23.7,19.9-35.5c1.6-2.8,2.7-6.1,5.7-8
	c0.6-0.1,1.1-0.1,1.7,0c19.2,0.1,38.4-0.1,57.6,0c1.2,0,2.5,0.1,3.4-1c3.5-3.7,7.9-6.3,11.1-10.2c7.7-5.8,14-13.4,22.5-18.3
	c10.1-7.1,19.2-15.4,29.6-22.1c6.3-4,12.6-7.5,20.4-7c7.4,0.4,13.6,3,18.2,8.9c1.4,4.8-2.2,6.6-5.3,8.4c-8,4.7-16,9.5-24,14.3
	c-18.8,11.4-37.7,22.4-56.5,33.7c-1.6,1-3.6,1.7-4.9,4.3c14.1,0.4,27.6,0,41.2,0.2c1.3,0.6,3.9-0.2,2.9,2.7
	c-1.4,0.8-2.9,0.6-4.4,0.5c-24-0.4-48,0.7-71.9,0.5c22.9,0.3,45.9-0.7,68.8-0.6c7.1,0,13.5,1.1,19.5,4.9c11.9,7.7,16.2,19,15.6,32.6
	c-0.2,4.3-1.2,5.2-4.2,4.9c-2.2-3.9-5.9-3.8-9.6-3.8c-34.1,0-68.2,0-102.3,0c-14.3,0-28.6,0-42.9,0
	C91.9,199.2,88.5,199.2,85.8,196.8z"/>
<path class="st1" d="M85.8,196.8c7.7,1.4,15.5,0.8,23.3,0.9c44.9,0,89.7,0.1,134.6-0.1c4.8,0,7.3,1.4,7.4,6.3
	c0.8,3.2-0.6,5.9-2.3,8.3c-7.1,10.2-14.6,20.1-22.1,29.9c-1.1,1.4-2.2,4.4-4.9,1.6c-1.9-2.7-4.8-2.5-7.6-2.5c-14.2,0-28.4,0-42.6,0
	c-2.5,0-5,0.2-7.4-0.6c-2.1-1.1-2-2.6-0.5-3.9c2.2-1.9,3.3-4.6,4.7-5.9c-4,9.5-12.9,5.9-20.5,5.8c-2.9-0.1-5.9-0.6-8.9-0.3
	c-7-2.3-14.3-3.4-21.1-6.2c-11.8-4.5-21.5-11.5-28.3-22.3c-1.6-2.6-2.5-5.3-3.4-8.2C86,198.6,85.9,197.7,85.8,196.8z"/>
<path class="st2" d="M223,244.3c9.1-11,17.4-22.5,25.6-34.2c1.3-1.8,1.7-4.2,2.5-6.3c4.7-10.8,0.4-26.7-9.5-34.8
	c-0.9-0.7-1.8-1.5-2.7-2.2c-0.5-0.8-1.7-1.4-0.9-2.6c7.2-4.4,14.9-8.1,21.4-13.5c1.9-1.5,4.4-1.7,6.7-0.7c3.1,1.4,6.7,2.1,9.3,4.6
	c0.8,1.5,0.8,3,0.3,4.5c-1.6,3.2-4.2,1-6.4,1.3c-1.8,1.2-1.1,3.1-1,4.6c1.1,14.8-0.9,28.6-9.2,41.7c-6.6,10.5-10.8,22.5-13.3,34.9
	c-1,4.7,0.2,8.9,2.9,12.8c0.8,1.1,1.7,2.3,3.1,2.2c1.7-0.2,1.6-1.9,1.9-3.1c1.5-6.2,3.7-12.1,8.1-16.9c1.3-1.5,2.7-3,4.8-3.3
	c12.6,4.5,24.7,10.4,37.4,14.5c3,0.9,5.9,0.6,8.9-0.2c10.6-2.6,21.1-5.8,31.5-8.9c2.7-0.8,5.3-2.1,8.2-1.4c3.6,3.4,3.7,8.4,5.8,12.5
	c2.6,5.2,5.8,9.9,11.8,11.3c8.6,2.1,15.5-2.7,18.2-12.1c0.5-1.6-0.3-4.3,2.8-4.2c2.7,4.2,2.8,9.1,3.9,13.7c0.2,2.4,0.9,4.8,1.1,7.2
	c0.3,7.5-1.3,14.1-9.1,17.2c-5.7,2.2-11.4,1.6-16.9-1.2c-1.6-0.8-3.2-1.8-4.5-3.1c-0.6-0.6-1.1-1.2-1.5-1.9c-0.7-3.8-2.4-7-5-10
	c-3-3.5-5.4-7.5-6.9-11.9c-1-3-3.1-4.1-6.2-3.5c-3.9,0.7-7.8,1.1-11.7,1.8c-11.6,2.1-23.2,4.4-35.1,4c-3.4-0.1-6.6,0.9-9.7,1.9
	c-1.5,0.4-2.7-0.7-4-1.1c-6.6-2.4-13-5.1-19.5-7.6c-5.5-2.2-6.4-1.7-7.9,4.2c-1.1,4.5-1.6,9.1-2,13.8c-0.7,7.9-1.7,8.6-9.5,8.8
	c-11.3,0.2-22.6-0.5-33.9,0.4c-5.7-0.3-9.2,2.4-12.1,7.5c-5.4,9.5-11.3,18.7-17,28c-5.6,8.9-11.1,17.8-16.5,26.8
	c-1.5,2.5-2.7,5.4-5.6,6.8c-4.5,0-9.1,0-13.6,0.1c-1.2-1.2-0.7-2.6,0.1-3.6c5.6-7.2,9.7-15.4,15.9-22.1c7.4-8.3,13.6-17.6,20.3-26.5
	c3.8-4.2,6.3-9.2,9.8-13.6c3.5-3.3,5.9-7.3,8.3-11.4c1.2-2.1,2.7-4.1,4.6-5.7c4.8-4.6,7.2-10.9,11.3-16
	C219.7,246.2,220.6,244.2,223,244.3z"/>
<path class="st3" d="M288.9,258.6c1.9-2.9,5.3-3,8-2.9c12.9,0.3,25.6-2.1,38.3-4c2,3.1,1.2,6.4,0.8,9.7c-0.8,5.7-2.1,11.4-2.6,17.2
	c0,2.9,0.2,5.9-1.1,8.7c-3,8.1-3.4,16.8-4.9,25.3c-1.8,10-3.4,19.9-5,29.9c-0.2,1.5-0.4,3-1.7,4c-1.9,6-2.8,12.1-2.8,18.5
	c0,5.7-1.8,7.5-7.3,7.6c-13.6,0.1-27.1,0-40.7-0.1c-2.1-3,0-4.6,2.1-6.1c3-2.1,6.4-3.5,9.7-5.1c2.7-1.3,4-3.3,3.8-6.3
	c-0.1-2,0-4,0-6c-0.6-20.8,1.2-41.5,1.3-62.2c0-7.7,0.6-15.6,0.8-23.3C287.7,261.6,287.6,259.9,288.9,258.6z"/>
<path class="st3" d="M575.2,262.5c-3.4,12.8-13.1,16.7-25.2,10c-4.2-1.8-5.5-5.5-6.5-9.4c-5.5-20.9-11-41.8-16.5-62.7
	c-1.1-4.3-1.8-8.8-4.4-12.6c-1.7-2.2-3.8-4-5.7-6.1c-1.3-1.4-2.9-2.7-2.5-5c7.7-9.3,16.7-17.3,25.2-25.7c0.7-0.7,1.7-1.1,2.7-1
	c9.9,8.4,21.4,15.7,22,30.7c0,1,0.5,1.9,0.7,2.9c3.7,23.3,7.1,46.7,10.9,70C576.5,256.8,575.5,259.6,575.2,262.5z"/>
<path class="st3" d="M212.2,276.4c12.1-1,24.2-0.9,36.2-0.7c4.5,0.1,6.1-1.3,6.2-5.7c0.3-6.5,1.4-12.8,3-19.1c1-4,2.4-5.1,6.4-3.3
	c7.4,3.3,15.1,6.1,22.6,9.1c1.5,1.6,1.2,3.7,1.2,5.6c0.3,17.4-0.8,34.8-1.3,52.2c-0.4,12.6-0.5,25.2-0.5,37.8c0,4.9-1,8.4-6,10
	c-1.7,0.6-3.1,1.9-4.8,2.6c-3.5,1.5-6.3,3.7-7.4,7.5c-8.7,0-17.3,0-26,0.1c-1.9,0-3.9,0-4.5-2.2c-0.7-2.4,1.3-3.1,3-3.9
	c0.5-0.2,0.9-0.5,1.3-0.7c11.9-5.5,11.9-5.5,11.1-19.1c-2.1-3-1.3-6.4-1.4-9.6c-0.1-4.4-0.1-8.9,0-13.3c0.4-13.1-0.6-26.2,0.8-39.3
	c0.6-5.6-0.3-6.1-6.2-6.1c-9-0.1-18,0-26.9-0.1C216.7,278.1,214.1,278.6,212.2,276.4z"/>
<path class="st4" d="M252.8,323.5c0,7.7,0,15.4,0,23.1c-30.4-0.1-60.7-0.1-91.1-0.2c7-11.3,14.1-22.6,21.1-33.9
	c2.3-1.7,5-1.5,7.7-1.5c17.3,0,34.5,0,51.8,0c9.8,0,10.9,1.8,10.3,10.1C252.4,321.9,252.5,322.8,252.8,323.5z"/>
<path class="st5" d="M575.2,262.5c-1.6-18.2-5.3-36.1-7.8-54.1c-1.2-8.5-2.4-17.1-3.5-25.6c-1.6-4.4,1.1-6.2,4.7-7.1
	c5.3-1.4,10.6-2.8,16-3.8c2.9-0.5,5.4-2.6,8.5-2.3c4.1,4.1,5.1,9.6,6.6,14.7c6.9,23.5,2.9,45.2-12,64.7c-2.7,3.5-6.1,6.6-9.4,9.6
	C576.8,259.9,576.1,261.2,575.2,262.5z"/>
<path class="st6" d="M190.2,59.9c-2.1,3.5-4.1,7.1-6.4,10.6c-5.9,9.1-14.7,11.5-24.4,6.6c-1-0.5-1.9-1.3-3.2-0.8
	c-2.5-0.4-4-2.9-6.9-3.2c1.1,3.4,2,6.5,3.3,9.6c1.2,2.9,1,5.5-1.1,7.8c-3.2,3.8-6.9,3.8-11.1,1.7c-5.2-2.6-10.2-5.4-15.1-8.5
	c-4.4-2.8-4.5-3.8-1.1-8c5.1-7.3,8.2-15.6,12.9-23.1c4.3-0.7,9-0.1,12.2-4.2c1.3-1.7,2.8-3.2,2.8-5.6c0-2.1,1-3.8,1.9-5.6
	c1.6-3.1,3.5-6.1,7.6-4.7c3.8,1.3,3.9,4.6,2.7,8.7c4-2.3,6-5.4,8.3-8.3c4.3-5.5,6.9-5.6,11.5-0.4c3.9,4.5,8.3,8.2,14.6,8.4
	c-0.4,5.6-2.8,10.3-5.9,14.8C191.3,56.7,189.9,57.8,190.2,59.9z"/>
<path class="st7" d="M118,228.8c6.8,2.9,14.5,3.3,21.2,6.6c6.7,2.7,7.5,8.6,8.3,14.6c0,3.1-0.1,6.3,0,9.4c0.3,6.9-3.2,11.8-8.3,15.9
	c-4.1,0.4-8.2-0.5-12.3-0.6c-3.2-0.1-4.4-2.5-5.4-5c-3.6-5.3-7.5-5.2-10.2,0.4c-0.4,0.9-0.8,1.8-1.5,2.6c-5.4,3.4-19.1,3.3-23.6-0.2
	c0-8.6,0-17.3,0-25.9c2.7-12,10.5-18.2,22.9-18.4C112,228.2,115,228.8,118,228.8z"/>
<path class="st8" d="M523,186.4c1.7,1.4,2.5,3.3,3.1,5.5c5.9,22.9,12,45.9,18,68.8c1.1,4.4,2.6,8.5,5.9,11.8
	c-12.2,0.4-24.3,0.6-35.6-5c-3.8-1.9-7.6-4-11.4-6c-2.9-4.4-1.1-9.2-1.6-13.9c0.3-8.5-0.4-17,0.2-25.5c0.3-2.6,2.2-3.9,4.1-5.3
	c6-4.3,10-10.1,12.2-17.1c0.9-3,1.5-6.1,1.8-9.2C519.9,188.6,520.2,186.4,523,186.4z"/>
<path class="st9" d="M502.8,247.5c0.1,4.7,0.1,9.4,0.2,14.1c0,1.7-0.1,3.3-0.1,5c-1,4.8-3.9,6.8-8.8,6.5c-4.7-0.3-9.5,0.5-14.2-0.6
	c-1.2-0.4-1.6-1.5-2.2-2.5c-2.9-5.1-5.7-5.4-10.1-1.3c-2,3-4.7,4.5-8.4,4.2c-3.2-0.2-6.2,0.5-9.3,1c-1.9-0.4-2.3-2.2-3-3.6
	c-2-4-3.6-8.2-5.1-12.4c-3.4-9.5,1-20.9,10-26c3.1-2.2,6.7-3,10.3-3.3c8.1-0.7,16.2-1.2,24.3,0.4
	C495.1,232.2,501.6,237.5,502.8,247.5z"/>
<path class="st10" d="M223,158.6c-12.8,0-25.6,0.1-38.4,0c-1.5,0-3.7,0.9-4.3-1.3c-0.5-2.1,1.7-2.7,3-3.4
	c16.5-9.9,33-19.7,49.5-29.6c11.8-7.1,23.6-14.2,35.5-21.1c2.6-1.6,4.3-3.6,4.7-6.6c4.3,3.7,4.5,9.1,6,14c2.7,8.8-1.2,14.4-8.7,18.6
	c-13.6,7.7-27,15.9-40.4,23.9C227.4,154.6,225,156.3,223,158.6z"/>
<path class="st11" d="M124.1,75.7c-2.5,4-0.7,6,3,7.8c4.5,2.1,8.8,4.7,13,7.3c3.9,2.4,7.4,2.6,10.7-1.1c4.4-0.6,8.3-3.7,13-3.1
	c4.5,6.3,5.7,13.9,8.2,21c0.7,4-2.6,3.7-4.7,3.9c-3.7,0.4-7.3-0.5-10.8-1.5c-6.5-1.9-12.6-2.8-17.9,3c-1.7,1.9-4.5,2-7,2
	c-15.5,0.1-31,0.1-46.5,0c-2.5,0-5.6,0.5-6-3.4c8.9-9.5,17.9-19.1,28-27.4C111.8,80.3,117.6,76.9,124.1,75.7z"/>
<path class="st12" d="M331.9,116.8c38,0,76,0.1,113.9,0.1c0.2,0.3,0.3,0.6,0.3,0.9c0,0.3-0.1,0.5-0.1,0.5c-9.5,10.2-19,20.5-30,29.1
	c-3.4,0.1-6.6-0.9-9.8-1.7c-15-3.8-30-7.6-45.1-10.8c-2.5-0.7-5.2-0.7-7.7-1.3c-2.3-0.9-3.3-3.1-4.8-4.8c-3.9-4.4-8-8.3-14-9.6
	C333.5,118.8,331.9,118.6,331.9,116.8z"/>
<path class="st13" d="M479,271.6c4.5,0,8.9-0.3,13.4,0.1c4.7,0.4,8.4-0.6,10.5-5.1c0,14.3,0,28.7,0,43c-1.7,3.8-5,4.4-8.7,4.5
	c-9.1,0.2-18.2-0.2-27.4,0.3c-3.2-0.3-3.4-3.3-4.7-5.3c-2.9-5.9-4.4-12.3-7.2-18.3c-1.5-3.8-3-7.6-4.5-11.5
	c-0.7-1.8-1.9-3.6-0.6-5.6c2.2-2.8,5.4-2.3,8.3-2.1c3.8,0.3,6.8-0.7,8.8-4.1c0.1,0.1,0.3,0.2,0.4,0.3
	C470.2,277.6,472.5,276.4,479,271.6z"/>
<path class="st14" d="M514.9,71.8c7.9,9.2,11.1,20.5,14.1,31.8c1,3.5-0.8,5.5-3.9,6.3c-6.2,1.7-12.4,3.6-18.8,4.6
	c-6.4-4.7-14.2-3-21.2-5c-3.1-1.5-6.5-2.5-9.8-3.6c-6-2.1-11-5.4-14.3-10.9c-1.4-2.1-2.5-4.2-1.8-6.8c0.8-1.9,2.4-2.7,4.2-3.2
	c7.5-2,15-4.3,22.8-4.8c8.2-0.5,15.9-3.1,23.8-5.1C512.1,74.6,513.2,72.9,514.9,71.8z"/>
<path class="st2" d="M478.9,344.6c-0.8,3.7-3.1,5.9-6.4,7.6c-8.9,4.5-17.8,9-26.4,14c-7.9,4.6-16,6.8-25.1,6.5
	c-20.8-0.8-41.5,0.6-62.3,0.6c-2,0-4,0-6,0c-1.9,0-3.9,0.1-4.4-2.2c-0.5-2.6,1.4-3.4,3.4-4c9.4-2.6,18.9-5.2,28.3-7.8
	c3.2-1.6,6.7-2,10.1-2c10.5-0.1,21.1-1,31.6-0.7c3.4,1.2,1.9,4.4,2.8,7.1c4.3-2.8,7.8-6.3,11.9-9.2c9-5,18-9.9,26.8-15.2
	c3.3-2,6.6-4.6,10.9-4.5C477.5,337.2,479.7,340.2,478.9,344.6z"/>
<path class="st15" d="M86.1,272.6c8,1.2,16.1,2.7,23.9-1c0.7,0.1,1.2,0.5,1.7,0.9c4.7,4.2,7,3.7,9.4-2.4c0.2-0.6,0.5-1.2,1.1-1.6
	c1.2,4.3,4.1,5.8,8.4,5.1c3-0.5,5.8,0.8,8.7,1c0.5,1.2-0.1,2.3-0.5,3.4c-2.8,4.9-6.2,9.3-9.1,14.1c-4.3,6.4-8.2,13-12.6,19.2
	c-1.3,1.9-2.4,4.1-5.2,4.1c-6.1-0.6-12.3-0.3-18.4-0.4c-2.7,0-5.4-0.1-7.2-2.5C86.1,299.2,86.1,285.9,86.1,272.6z"/>
<path class="st16" d="M81.7,182.1c-2.9,0.3-0.9,3.4-2.5,4.5c-1,1.8-2.7,2.4-4.6,2.5c-10.6,0.2-21.2,0.3-31.8,0
	c-1.4,0-2.6-0.5-3.6-1.5c0.7-9,1.5-18,2.2-27.1c-0.2-4.1,2-5.4,5.8-5.4c12.8,0,25.6,0,38.4,0c1,0,2,0.1,3,0.3c4.3,1,5.1,3.3,2.4,6.7
	c-0.9,1.2-2.1,2.2-3,3.3c-3.7,4-5,8.8-5.2,14.1C82.6,180.5,82.9,181.6,81.7,182.1z"/>
<path class="st17" d="M274.8,160.1c0-1.7,0-3.4,0-5.2c-0.5-0.9-0.9-1.9-0.7-2.9c2-10.4,1.8-21.1,5.2-31.2c0.5-1.4-0.3-3,0.9-4.3
	c15.3,0.1,30.6,0.1,45.9,0.2c-0.1,2.2-1.9,2-3.2,2.3c-11.1,2.8-17.6,9.8-19.6,21.1c-0.3,1.5-0.6,2.9-1.8,4c-1.6,1.4-3.5,2.5-4.5,4.5
	c-1.9,4,0,8.4,4.5,10.5c4.6,2.1,9.1,9.8,8.3,14c-2,1.1-4.1,0.8-6.2,0.5c-8.2-2.9-16.1-6.2-24.1-9.5
	C277.5,163.3,275.2,162.7,274.8,160.1z"/>
<path class="st18" d="M514.9,71.8c0.3,3.7-2.4,4.1-5,4.9c-11.9,3.9-24.4,4.3-36.4,7.1c-4.6,1.1-10,0.9-13.6,5
	c-1.7-0.1-2.2-1.5-2.5-2.7c-2.2-7-4.7-13.8-7.2-20.7c0.2-2.8,2.1-4.2,4.5-4.7c8.8-2,17.4-5.7,26.8-4.9c2.5,0.2,4.4-1.4,6.6-2.1
	C498.2,57.8,508,62.7,514.9,71.8z"/>
<path class="st19" d="M422.7,357.8c-14.2,0.5-28.4,1.1-42.7,1.6c2-4.5-0.8-8.5-1.3-12.8c-3-5.5-5-11.2-2.5-17.6
	c1.7-0.9,3.5-0.9,5.3-0.9c10.6,0,21.2,0,31.9,0c3.5,0,6.6,0.7,8.8,3.7c1,1.3,1.6,2.8,1.9,4.4c0.6,5.6,0.4,11.2,0.3,16.7
	C424.5,354.6,424.4,356.5,422.7,357.8z"/>
<path class="st20" d="M376,329.6c0.9,5.7,1.9,11.3,2.8,17c-17.4,0-34.7-0.1-52.1-0.1c-0.2-0.3-0.5-0.5-0.5-0.8
	c-0.6-8.1-0.2-16.1,1.7-24c0.1-0.6,0.7-1.1,1.2-1.5c0.6-0.3,1.2-0.7,1.8-0.7c14.1-0.4,28.2-1,42.3,0.3
	C376.5,322.3,376.9,325.8,376,329.6z"/>
<path class="st21" d="M593,169.6c-6.9,4.8-15.2,4.8-22.9,7c-3.3,0.9-6.7,1.6-6.2,6.2c-0.7-15.3-12.3-23.3-21.9-32.5
	c-3.7-2.2-7.8-3.9-7.8-9.2c2.4-1.9,5.5-2.1,8.3-2.8c3.3-0.9,6.6-1.7,9.6-3.7c16.2,6.3,30.6,15,39.3,31
	C591.9,166.8,592.4,168.3,593,169.6z"/>
<path class="st22" d="M86.2,166c0.5-2.3,2.5-3.5,4-5c2.7-2.6,1.1-3.6-1.4-4.3c-0.3-0.1-0.7-0.1-1-0.1c-14.3,0-28.7,0.1-43-0.1
	c-3.2,0-2.3,2.8-3.5,4c-0.9-11.4,5.8-18.5,13.9-24.9c1.1-0.8,2.4-1,3.8-0.9c15.6,0.6,31.2,0.1,46.8,0.3c2.6,0,5.4-0.4,7.5,1.7
	c1.5,4.9-3.2,6.3-5.3,9.1c-5.2,7.2-12,12.8-18.2,19C88.9,165.9,87.7,166.6,86.2,166z"/>
<path class="st23" d="M165,321.4c-5.5,7.6-11,15.2-16.5,22.8c-0.5,0.7-0.7,1.5-0.4,2.3c-0.7,0.2-1.4,0.5-2.1,0.7
	c-1,1.2-2.1,0.6-3.1,0.2c-12.5-4.3-24.9-9-37.3-13.7c-1.1-0.4-2.1-1-2.8-1.9c0.1-5.1,6-13.4,10.5-15c13.6,0.5,27.2,0.1,40.8,0.2
	c2.8,0,5.7,0,8.4,1C164,318.6,166,319,165,321.4z"/>
<path class="st6" d="M103.1,331.5c14.3,5.2,28.6,10.4,42.9,15.6c9.3,6.2,18.5,12.4,27.8,18.6c2,1.4,4.9,2.7,3.4,5.7
	c-1.5,3.2-4.5,2-7,1.1c-21.9-7.9-43.8-15.8-65.7-23.7c-0.8-0.3-1.6-0.4-2.4-0.6c-1.6-0.2-2.4-1.1-3-2.5
	C98.4,340.5,98.4,335.4,103.1,331.5z"/>
<path class="st24" d="M113.2,138.9c-0.5-3-2.9-2.2-4.7-2.3c-13.8,0-27.6-0.1-41.5,0c-4,0-8,0-11.9-1c3.9-4.7,8.3-9,12.9-13
	c1.8-0.6,3.6-0.5,5.4-0.5c15.3,0.1,30.5-0.1,45.8,0.1c4.8,0,9.2-0.9,13.2-3.6c4.7-3.3,9.7-4.1,15.1-2.4c5.1,1.6,11.1,0.7,15.2,5.1
	c0.9,2.9,1,5.9,0,8.8c-2,2.1-4.4,0.9-6.5,0.4c-6-1.3-12-2.4-18-3.8c-3.9-0.9-7.6-0.7-11,1.3c-3.8,1.5-6,4.9-8.9,7.5
	C116.7,136.9,115.6,139,113.2,138.9z"/>
<path class="st25" d="M198.7,40.8c-2.6,2-5,1-7.3-0.4c-3.7-2.3-6.7-5.5-9.4-8.8c-2.4-2.9-4.7-2.7-6.9,0.1c-2.1,2.6-4,5.3-6.2,7.8
	c-1.5,1.8-3,3.6-5.8,2.9c-0.1-0.4-0.3-0.7-0.2-0.9c1.1-2.8,3-5.8-0.8-7.8c-4-2-5.5,1.3-7.1,4.1c-1.1,2-2,3.9-1.7,6.5
	c0.5,4.1-7.8,9.8-12.9,9.2c-1.1-0.1-2.2-0.6-3.4-0.9c0.2-3.5,2.9-5.9,4.5-8.7c3.6-6,7.4-11.8,11.2-17.7
	c6.8-10.7,16.9-14.5,28.7-10.9C192.8,18.9,199.3,28.5,198.7,40.8z"/>
<path class="st26" d="M478.9,344.6c-1.5-3.1-2.3-6.6-4.9-9.1c-2.2-2.2-2.6-5.2-4-7.8c-1.4-2.9-2.6-6-3.7-9c-0.6-1.6-1.6-3.3-0.3-5.1
	c3.2-1.8,6.8-0.9,10.2-1c5.8-0.1,11.5-0.2,17.3,0c3.7,0.2,6.8-0.7,9.6-3.1c-0.6,11.1,1.7,22.4-1.7,33.3c-0.6,2,1.1,2.5,1.6,3.8
	c-5.6,2.2-11.2,2-16.8,0.2C484.8,342.8,481.3,345.3,478.9,344.6z"/>
<path class="st27" d="M162.1,121.8c-10.1-3.4-20.2-8.8-30.7-0.9c-3.1,2.3-6.8,2.9-10.8,2.8c-15.4-0.2-30.8-0.1-46.3-0.1
	c-2.1,0-4.3,0.2-6.3-1c3.7-3.7,7.3-7.3,11-11c1.1,2.3,3.2,2,5.1,2c15.9,0,31.9-0.1,47.8,0.1c3.7,0,6.4-1.4,8.6-4.1
	c2.4-3.1,5.4-3.4,8.9-2.6c5.2,1.1,10.3,2.3,15.5,3.1c2.7,0.5,5.5,0.7,7.1-2.5c1.3,3,2.7,6,4,9c0.6,0.7,0.8,1.5,0.6,2.4
	c-2.7,4-6.6,3-10.3,2.6C164.8,120,163.5,121.6,162.1,121.8z"/>
<path class="st28" d="M280.1,116.6c-1.5,12.8-2.7,25.7-5.4,38.3c-8.2-5.3-15.5-4.5-22.7,2.5c-3.7,3.6-8.9,5.8-14.1,7.2
	c-3.9-1.1-7.9-2.1-11-5c-1.1-1.4-2.6-0.8-4-1c-0.4-4,3.2-4.7,5.5-6.2c13.3-8.1,26.6-16.2,40.2-23.8c7.4-4.1,11.9-9.3,10.4-18.2
	C280.5,112.3,279.7,114.6,280.1,116.6z"/>
<path class="st29" d="M301,143.4c1.6-2,0.7-4.5,1.4-6.7c3.4-10.5,10.3-17.1,21.3-19.1c0.8-0.1,1.5-0.5,2.3-0.8c2,0,3.9,0,5.9,0
	c9.3,2.2,16.3,7.6,21.1,15.9c3.2,3.1,3.2,7.2,3.4,11.2c0.1,2.3,0,4.7-0.9,6.8c-0.6,1.4-1.4,2.7-3.2,2.6c-1.7-0.1-2.6-1.3-3.1-2.8
	c-0.2-0.6-0.1,0.2-0.1-0.5c0.1-8.7-5.9-10.2-12.6-10.6c-7.3-0.4-14.6-0.9-21.8,0.6c-5.3,1.1-6.5,2.6-7.1,8c-0.1,0.8-0.1,1.7-0.3,2.5
	c-0.4,1.7-0.9,3.4-2.9,3.5c-2.1,0.1-2.7-1.6-3.2-3.2C300.3,148.3,300.4,145.8,301,143.4z"/>
<path class="st6" d="M72.1,221.6c-1,5.2-1.9,10.4-3.2,15.6c-2.2,8.9-10.1,14.4-19,13.2c-8.3-1.1-15-8.6-14.9-17.3
	c0.1-4.8,0.7-9.6,1.1-14.4c1.1-1.2,2.6-1.6,4.1-1.3c9,1.4,18.2-0.1,27.2,1.7C69.2,219.5,71.6,218.8,72.1,221.6z"/>
<path class="st30" d="M487.9,53.8c-1.4,3.3-4.1,3.9-7.3,3.6c-9.8-0.8-18.7,3-27.8,5.4c-1.2,0.3-1.7,1.5-1.8,2.8
	c-2.1,5.5-5.8,8.4-10,8.1c-4.3-0.3-7.1-3.2-8.7-8.9c0.2-4.8,0.7-5.8,4.6-8.5c-3-1.4-7.7-0.4-7.8-6.1c7.6-3.9,16.2-4.7,24.3-6.9
	c4.6-1.2,9.5-1.8,13.6-4.6C473.4,44.5,479.6,50.6,487.9,53.8z"/>
<path class="st31" d="M552,134.6c-0.1,3-2.6,3.1-4.5,3.7c-4.4,1.2-8.9,2.2-13.4,3.3c-1.8,0.9-2.8-0.6-3.8-1.5
	c-7.6-7.5-15.1-15-22.6-22.6c-1-1-2.3-2-1.8-3.8c5.9-1.6,11.7-3.4,17.7-4.7c3.3-0.7,5-2.2,5.4-5.4c2.6,5.3,4,11.2,7.1,16.3
	C540,126.3,546.2,130.2,552,134.6z"/>
<path class="st3" d="M433.2,64.5c0.9,4.1,2.8,7.5,7.4,8c4.3,0.5,7-2.1,8.9-5.7c0.3-0.5,1-0.8,1.4-1.3c4.6,7.1,5.2,15.7,8.9,23.2
	c0,2.2,1.2,3.9,2.2,5.8c-0.2,0.2-0.3,0.4-0.5,0.6c-2.9,1.1-5.7,2-8.8,1.4c-17,2.2-23.9-4.8-26-21.7c-0.3-0.4-0.3-0.9-0.1-1.4
	c0.5-0.9,1.3-1.3,2.3-1.4c0.5-0.4,2,0.8,1.6-0.3c-0.9-2.6,0.7-4.4,1.5-6.4C432.4,65,432.7,64.7,433.2,64.5z"/>
<path class="st32" d="M103.1,331.5c-2.3,4.6-4,9.4-2.9,14.7c-4.6,3-9.4,2.6-14.1,0.3c0.5-0.9,1.6-1.4,1.2-2.9
	c-2.4-10.3-0.7-20.7-1.2-31.1c6,1.9,12.1,0.8,18.2,1c3,0.1,5.9,0.1,8.8,1.1c0.6,1.3-0.2,2.2-1.1,3
	C108.8,322.1,105.2,326.3,103.1,331.5z"/>
<path class="st33" d="M466.9,38.8c-0.3,3-2.8,3.4-5,3.9c-11.1,2.7-22.1,5.4-33.2,8.1c-3.5-0.3-2.4-3-2.6-5
	c6.6-15.9,26.5-20.3,38.9-8.5C465.6,37.8,466.3,38.2,466.9,38.8z"/>
<path class="st3" d="M462.1,94.6c3.6,5.8,9.2,8.6,15.3,10.8c2.6,0.9,5.4,1.3,7.7,3c2.2,2.5,0.4,4-1.5,5.1
	c-5.7,3.4-11.4,6.8-17.3,9.9c-3.7,1.9-7,1.7-9.9-1.5c-2.3-3.4-3.3-7.2-2.2-11.3c0-1.6-0.1-3.3-0.1-4.9c2-4.1,4.7-7.7,7.8-10.9
	L462.1,94.6z"/>
<path class="st34" d="M72.1,221.6c-3.6-2.1-7.8-1.4-11.6-1.7c-8.1-0.7-16.2-0.2-24.3-1.2c1.8-6-0.3-12.3,1.8-18.2
	c1.9,4.1,5.3,4.8,9.4,4.6c7-0.2,14-0.1,21,0c2.3,0,4.7-0.2,6.6,1.5C74,211.6,73.1,216.6,72.1,221.6z"/>
<path class="st20" d="M118,228.8c-1.2,1.2-2.8,0.9-4.2,0.8c-13.4-1.1-23,4-27.6,17.1c0-15.7,0-31.4,0-47.2
	C93,213.4,103.5,223.3,118,228.8z"/>
<path class="st35" d="M39.1,187.6c11.4,0,22.9,0,34.3,0c2,0,4,0,5.8-1c-0.2,3.4-1,6.8-2.1,10c-2.5,2.4-5.7,2.5-8.9,2.5
	c-7,0.1-13.9,0.1-20.9,0c-8.4-0.1-9.4-1.2-8.4-9.7C39,188.9,39,188.2,39.1,187.6z"/>
<path class="st36" d="M38.9,189.5c0.4,8.2,0.4,8.3,8.4,8.1c9.9-0.1,19.8,0.7,29.7-1c0.1,3.5-1.3,6.7-2,10c-10.2,0-20.5-0.3-30.7,0.2
	c-5,0.2-7-1.3-6.3-6.2C38.4,196.8,37.3,193,38.9,189.5z"/>
<path class="st37" d="M86.2,166c7-6.8,14-13.5,21-20.3c0.8-0.1,1.2,0.1,0.8,1c-4.8,10.6-11.1,20.3-16.5,30.6
	c-1.6,3.1-3.3,6.2-5.1,9.1c-0.8,1.3-1,3.4-3.3,3.2c-0.5-2.5-1-5-1.5-7.5C81,176.1,81.6,170.5,86.2,166z"/>
<path class="st37" d="M486.1,346.9c5.6-0.9,11.2-0.6,16.8-0.2c0,7.5,0,15-0.1,22.5c0,1.4,0.6,3.4-1.8,3.3c-1.9-0.1-4.4,1.2-5.5-1.8
	C492.4,362.7,489.3,354.8,486.1,346.9z"/>
<path class="st37" d="M86.1,346.6c4.7-0.1,9.4-0.2,14.1-0.3c0.6,0.7,1.3,1.4,1.9,2.1c-2.8,7.1-5.8,14.1-8.3,21.3
	c-1.2,3.3-3.4,3-5.9,2.9c-3.2-0.1-1.9-2.6-1.9-4.1C85.9,361.2,86,353.9,86.1,346.6z"/>
<path class="st38" d="M176,118.7c0-0.7,0-1.4,0-2c9.6,0,19.3,0,28.9,0c-6.9,6.9-14.4,13.1-22,19.1c-5.1-4-5.2-10.1-6.7-15.7
	C176.1,119.7,176.2,119.1,176,118.7z"/>
<path class="st39" d="M267.9,372.4c-0.4-3.5,1.4-5.9,4.5-6.9c10.9-3.4,12.8-10.9,12.7-21.6c-0.2-27.1,1.2-54.1,1.9-81.2
	c0.1-2-0.2-4-0.3-5.9c0.7,0.6,1.5,1.2,2.2,1.9c0.2,19.9-1.1,39.8-1.5,59.7c-0.3,12-0.7,23.9-0.5,35.9c0.1,4.6-1.5,7-5.5,8.7
	c-3.1,1.3-5.9,3.1-8.8,4.6c-2.1,1-2.9,2.6-2.5,4.8C269.3,372.9,268.6,372.9,267.9,372.4z"/>
<path class="st40" d="M329,320.6c-0.8,8.6-1.6,17.2-2.3,25.8c-2,0-3.9,0-5.9,0c0.9-12.4,3.7-24.5,5.7-36.7
	c1.3-7.8,1.8-15.7,4.5-23.2c1.9,2.1,1.4,4.7,1.3,7.2c-1.1,7.2-0.8,14.6-1.8,21.8C330.3,317.2,330.3,319.1,329,320.6z"/>
<path class="st41" d="M163.8,86.6c-4.3,1.1-8.1,4.3-13,3.1c1.8-2,1.6-4.1,0.7-6.4c-1.5-4-2.8-8-4.4-13c3.9,1.9,7.1,2.9,9,6.1
	c-0.9,1.9-0.9,3.2,1.4,4.2C160.4,81.7,162.5,83.8,163.8,86.6z"/>
<path class="st42" d="M426.2,45.7c1.2,1.5,0.2,4.2,2.6,5c1.8,3.3,5.8,3,8.6,5.5c-1.4,2.7-4.8,4.6-4.2,8.3c0,0-0.2,0.2-0.2,0.2
	c-0.9,1-1.2,2.7-3.2,2.1c-1.4-2.3-2.4-4.9-5.1-6.1c-0.4-0.3-0.6-0.7-0.8-1.1C424,54.9,423.4,50,426.2,45.7z"/>
<path class="st43" d="M454.1,110.6c1.5,3.6,0.6,7.9,3.4,11.1c-5,1.5-9.7-0.3-11.5-4.3c0.1-0.2,0-0.4-0.1-0.6
	C448.7,114.9,450.7,111.8,454.1,110.6z"/>
<path class="st44" d="M461.8,94.8c-1.5,4.5-4.7,7.6-7.8,10.9c-1.2-2.9-1-6.1-1.3-9.1C455.6,95.1,458.6,94.6,461.8,94.8z"/>
<path class="st45" d="M423.8,59.6c0.3,0.1,0.6,0.2,1,0.3c0.7,0.5,0.8,1.2,0.4,1.9c-1,0.7-2.2,0.3-3.3,0.6c-3.6,0.7-5.3,3.3-4.5,6.8
	c0.8,3.5,3.4,3.4,6.2,3.1c1-0.1,1.8-0.7,2.8-0.8c1.2,0.5,1.3,1.3,0.8,2.4c-0.1,0.4-0.3,0.7-0.4,1.1c-8.3,2.4-13.4-0.8-12.9-8.1
	C414.3,61.9,417.3,59.7,423.8,59.6z"/>
<path class="st46" d="M190.2,59.9c-2.2-3.4-0.8-4.5,2.7-4.3C192.3,57.3,191.5,58.8,190.2,59.9z"/>
<path class="st47" d="M125.9,127.9c2.3-2.5,5.2-3.8,8.5-3.2c9.2,1.7,18.5,3.3,27.5,5.9c4.4,3.1,6.9,7.5,8.9,12.2
	c0.6,1.6,0.6,3.3-0.9,4.6c-18.9,0-37.9,0-56.8,0c-1.5,0-3,0.4-4.3-0.8c-0.4-2,1.2-3,2.3-4.1C116.1,137.7,120.9,132.7,125.9,127.9z"
	/>
<path class="st24" d="M176,118.7c3.1,5.4,3.6,11.8,6.9,17.1c-3,3.9-7,6.8-10.8,9.8c-2.5-4.4-5-8.7-7.9-12.8c-2.5-3.5-1.6-9,1.1-12.1
	C169,120.2,173,121.9,176,118.7z"/>
<path class="st48" d="M227,159.6c3.5,1.9,7.8,2.2,11,5c0.3,0.8,0.6,1.5,0.9,2.3c-8.1-4.7-16.7-5.6-25.9-5.3
	c-20.8,0.6-41.6,0.7-62.4,0.9c-2.2,0-4.5,0.3-6.1-2.9C172,159.6,199.5,159.6,227,159.6z"/>
<path class="st49" d="M165.4,120.7c-2.5,5.1-2.3,9.9,1.5,14.3c2.6,3.1,4.5,6.6,5.3,10.6c-0.2,1.3-0.7,2.3-2.3,1.9
	c0.6-4.7-2.1-8-4.6-11.5c-1.3-1.7-2.3-3.6-3.4-5.4c0.1-2.9,0.1-5.9,0.2-8.8c0.5-0.8,0.9-1.6,1.4-2.4c0.4-0.6,0.6-1.7,1.6-1.3
	C166.4,118.7,165.4,119.8,165.4,120.7z"/>
<path class="st50" d="M125.9,127.9c0.2,2.6-2.1,3.6-3.5,5c-4.5,4.7-9.1,9.2-13.6,13.7c-0.3,0-0.5,0-0.8,0c-0.3-0.3-0.5-0.6-0.8-1
	c2-2.3,4-4.5,5.9-6.8C117.9,135.8,120.4,130.1,125.9,127.9z"/>
<path class="st51" d="M223,244.3c-6,5.9-8.9,14.2-15.1,20c-17.9-0.3-35.8-0.1-53.7-0.2c-1.8,0-3.7-0.1-5.3-1.1
	c-1.3-0.9-1.6-2.1-0.9-3.4c3.9-6.7,7.9-13.4,12.8-19.5c0.4-0.5,1.1-0.7,1.8-0.7c18.3,0.1,36.6,0.2,54.9,0.1
	C221.1,239.5,223.1,240.6,223,244.3z"/>
<path class="st52" d="M162.7,239.5c-5.5,7-10,14.6-14.4,22.2c-1.5,2-1.6,0.2-1.7-0.7c-0.3-3.7,0.3-7.4-0.4-11.1
	c-0.3-5.8-2.8-10.6-7.1-14.4c2.3-1.7,4.8-0.5,7.1-0.4c2,0.1,4,0.3,5.9,0.6c7.4,1.3,13.7,0.2,17-7.7c0.3-0.7,1-1.4,2.4-1
	C169.5,231.8,165.6,235.3,162.7,239.5z"/>
<path class="st53" d="M274.8,160.1c8.2,5.1,17.5,7.4,26.1,11.4c0.7,0.3,1.4,0.8,2.1,1.1c1.8,2.1,1.5,4.7,1.6,7.1
	c0,13,0.1,25.9,0,38.9c-0.1,8,1.6,15.9,1,23.9c-0.2,2.3,0.3,4.7-1.8,6.5c-12.4-4.8-24.9-9.2-36.9-15c-2.1-8-2.9-15.9,1.3-23.5
	c2-3.7,4-7.3,4.2-11.6c0.1-2.8-0.1-5.3-2.9-6.9c-1.4-0.8-2-2-2-3.7c0-9.3,0-18.6,0-27.9c0-0.9,0.1-1.7,1.1-1.9
	C270.8,158.7,272.5,160.4,274.8,160.1z"/>
<path class="st53" d="M352.8,237.8c-11.8,3.3-23.6,6.7-35.5,10c-1.4,0.4-2.9,0.6-4.4,0.8c-1.5-1.4-1.5-3.3-1.5-5.1
	c-0.1-22.2-0.1-44.5,0-66.7c0-1,0.1-2,0.4-2.9c0.8-2.6,2.9-3.5,5.2-4.1c14-3.8,27.8-8.5,41.9-12.4c3.6-0.8,5.1,1,5.4,4.3
	c0.1,1.6,0.1,3.2,0.1,4.9c0,0.6,0,1.2,0.1,1.8c-0.3,5.4,1.1,10.9-1.1,16.2c-1.8,1.5-3.8,1.5-5.9,0.7c-1.8-1.2-1.8-3.1-1.8-4.9
	c0-3.4-1.6-3.8-4.5-3c-9.4,2.8-18.8,5.5-28.2,8.3c-2.4,0.7-3.6,2.2-3.6,4.7c0,6.5,0,13,0,19.4c0,3.4,1.7,4,4.5,3.1
	c10.3-3.3,20.8-5.8,30.9-9.6c2.1-0.1,2.2,1.7,2.6,3c1.1,4.3,3.2,8,5.9,11.4c2,4.8,1.4,9.8,0.8,14.7
	C363.6,236.7,359.3,238.4,352.8,237.8z"/>
<path class="st54" d="M252.8,323.5c-1.1-1.1-0.8-2.5-0.8-3.8c-0.2-6.8-0.6-7.2-7.6-7.2c-20.5,0-41.1-0.1-61.6-0.1
	c6.9-11.4,13.8-22.9,20.8-34.3c2.1-3.5,5.8-1,8.6-1.9c12.3,0,24.5,0.2,36.8,0c3.8-0.1,5.4,0.8,5,4.9
	C252.6,295.4,253.4,309.5,252.8,323.5z"/>
<path class="st55" d="M366,277.5c4.5,2.7,9,5.5,14.6,5.3c9-0.3,14-5.3,14.3-14.2c0-1,0.1-2,0.2-3c0.9-0.8,1.9-1.3,3.1-1.3
	c7.7,0,15.4-0.9,23.1,0.4c1,1.2,1,2.7,1.1,4.2c1,12.8,1.2,25.6,1,38.5c-0.4,3.4,0.8,7-1.2,10.2c-2.2,0.3-2.4-1.5-2.6-2.8
	c-0.6-3.9-3.4-4.5-6.6-4.5c-10.9-0.1-21.8,0-32.7-0.1c-2.6,0-5.3,0.3-7.9-0.7c-3.4-1.9-3-5.6-3.8-8.7c-0.5-1.9-1-3.8-1.1-5.8
	c-1-4.1-1.5-8.3-2.3-12.4C364.9,280.8,364.5,279,366,277.5z"/>
<path class="st3" d="M357,184.7c1.9,0,3.8,0,5.6,0c2.6-0.2,4,1.6,5.4,3.4c3,4.7,4.9,9.9,7.9,14.6c3.8,8.6,7.6,17.2,11,26
	c1.2,3.6,2.8,7,3.8,10.7c0.4,1.7,1.3,3.5,0.1,5.2c-1.2,1.2-0.6,2.9-0.9,4.3c-1.5,6.7-5.2,11.6-11.9,13.5c-6.6,1.9-12.1-0.4-16.5-5.6
	c-4.6-5.5-6.3-12.4-8.6-19c3-2,8.5-0.5,9.5-4c1.5-5,1.3-10.7-0.2-16c0.1-5.4-3.1-9.6-5.4-14.2c-1-2.1-2-4.2-2.7-6.4
	C352.1,189.2,352.5,187.6,357,184.7z"/>
<path class="st56" d="M112,317.6c0.4-1,0.7-2,1.1-3c5.3-7.7,10.5-15.4,15.8-23.1c0.9-0.5,1.8-0.8,2.8-0.8c15.7,0.5,31.4,0,47.1,0.3
	c2.6,0.1,5.9-0.4,6.3,3.7c-6.4,9.1-12.8,18.2-20.1,26.6c-2.1-3-5.3-2.8-8.3-2.8c-12.8-0.1-25.6,0-38.4,0
	C116.1,318.6,113.9,318.8,112,317.6z"/>
<path class="st57" d="M146.2,249.8c1.4,3,0.3,6.1,0.7,9.1c0.1,1-1.1,2.8,1.3,2.7c1.8,1.2,3.8,0.9,5.8,0.9c15.8,0,31.6,0,47.3,0
	c2.4,0,4.7,0,6.5,1.7c-5.1,5.1-7.3,12.4-13,17.1c-16.4-0.6-32.9,0-49.3-0.3c-2.9-0.1-6.6,0.7-7.7-3.6c0.4-1,0.8-1.9,1.2-2.9
	C146.6,267.8,146.3,258.8,146.2,249.8z"/>
<path class="st58" d="M268.7,158.5c-1.6,9.9-0.4,19.8-0.7,29.8c0,0.8,0.1,1.8,1.1,2c7.5,1.5,4.7,7.2,4.6,11.5
	c-0.1,1.9-0.8,4.2-2,5.5c-5.6,6.1-4.5,13.5-4.5,20.7c0,2-0.1,4-0.2,6c-7.6,4.7-10.1,12.3-12,20.4c-0.4,1.7,0,4.2-1.9,4.7
	c-1.7,0.4-3.3-1.4-4.5-2.7c-3.6-3.9-5.5-8.6-4.3-13.7c4.3-18.2,11.4-35.3,21.7-50.9c1.2-1.8,1.1-3.4,1.1-5.2
	c0.1-9.1,0.1-18.3,0.1-27.4c0-0.3,0.3-0.6,0.5-0.7C268,158.2,268.4,158.4,268.7,158.5z"/>
<path class="st59" d="M390.7,244.5c-1.6-5.3-3.2-10.6-4.8-16c0.1-3.1,2.5-3.3,4.6-3.4c7.9-0.3,15.9-0.5,23.8,0.1
	c5,0.3,6.8,2.6,7,7.8c0.3,5.1-0.6,10.2,0.7,15.3c0.5,2.9,0.7,5.8-0.4,8.6c-0.8,1.8-2.3,2.8-4.3,2.9c-6.9,0.5-13.8,0.5-20.7,0
	c-1-0.1-1.9-0.6-2.6-1.3C393,253.9,391.9,249.2,390.7,244.5z"/>
<path class="st60" d="M138,277.5c1.8,2.2,4.3,2.1,6.9,2.1c14.8,0,29.6,0,44.4,0c2.1,0,4.4-0.7,5.8,1.8c-3.2,4.5-5.8,9.5-9.8,13.4
	c-1.1-2.6-3.4-2.2-5.6-2.2c-14.1,0-28.3,0-42.4,0c-2.9,0-5.6-0.3-8.3-1.1C131.4,286.5,134.7,282,138,277.5z"/>
<path class="st61" d="M313,172.6c0,25.3,0,50.7,0,76c-3,1.6-6.1,1.3-9.2,0.4c0.6-18.8-1.6-37.6-0.8-56.4c0.3-6.7,0.1-13.3,0.1-20
	c2.4-0.1,4.8-0.1,7.2-0.2C311.2,171.8,312.1,171.8,313,172.6z"/>
<path class="st62" d="M332.1,278.5c0.3-9,3.5-17.7,3.1-26.9c0.3-0.1,0.6-0.2,1-0.2c4.6-0.6,9.4-2.4,13.7-1.6c4.8,0.9,4,7.3,6.7,10.6
	c1.6,1.9,2.5,4.5,4.3,6c3.3,2.7,4.2,6.2,4.3,10.1c-0.5,2.5-2.7,2.9-4.5,3.1c-8.7,1-17.4,0.7-26.1,0.2
	C333.7,279.8,332.8,279.2,332.1,278.5z"/>
<path class="st63" d="M332.1,278.5c8,0,16.1-0.1,24.1-0.1c3.1,0,6.2-0.3,9-1.9c0.3,0.3,0.5,0.6,0.8,0.9c0.9,5.7,1.8,11.4,2.8,17.1
	c-0.8,0.8-1.8,0.9-2.8,0.9c-9.8-0.6-19.6-0.1-29.4-0.3c-2,0-4-0.1-5.6-1.5c0-2.4,0-4.8,0-7.1C332.7,284,331.7,281.2,332.1,278.5z"/>
<path class="st64" d="M394.1,258.6c7.2,0,14.3,0,21.5,0.1c2.1,0,4,0,5.2-2c2.2,2.6,2.1,5.3,0.1,8c-5.4,2.1-11,0.6-16.5,1
	c-3.1,0.2-6.2,0-9.3,0C394.7,263.2,394.4,260.9,394.1,258.6z"/>
<path class="st62" d="M445.9,117.4c3.2,3,7.5,3.4,11.5,4.3c2.9,2.1,5.8,2,8.9,0.3c5.6-3.2,11.3-6.4,16.9-9.6c1.6-0.9,2.6-2,1.9-4
	c3.3,0.8,6.6,1,10.1,0.7c4.1-0.4,7.4,2.2,10.6,4.6c9.1,9.7,18.4,19,28.2,27.9c2.6,2.9,5.2,5.8,7.8,8.7c-9,8.9-18,17.7-27,26.6
	c-3.4,0.8-4.6-2.1-6.4-3.9c-5.1-7.2-12.2-12.5-16.5-17.4c3.5,3.5,8.6,8.5,13.5,13.6c1.3,1.4,3.3,3.1-0.1,4.5
	c-19.5,1.8-38.9,3.5-58.4,5.3c-2.5,0.2-5,0.2-6.9-1.9c-2.6-9.1-10.4-14.2-15.9-21.1c-2.6-3.2-6.7-5-7.7-9.4
	C425.8,136.5,436,127.1,445.9,117.4z"/>
<path class="st65" d="M440.2,175.6c1,2.5,3,2.1,5,1.9c16.5-1.4,32.9-2.9,49.4-4.3c4.1-0.4,8.2-0.8,12.3-1.1c0.8-0.3,1.6,0,2.3,0.4
	c1.9,1.5,3,3.9,5.6,4.4c1.5,4.2,5.8,6,8.1,9.5c-2.7,1.4-1.8,4-2,6.1c-0.3,2.8-0.8,5.5-2.1,8c-2.6,2.2-5.7,1.6-8.6,1.6
	c-40.7,0-81.4,0.1-122.1,0c-4.5,0-8.9,1.1-13.4,0.5c-3.5-4.3-4.9-9.6-7.8-14.2c2.2-2.9,5.5-3.4,8.6-4.5c7.8-2.6,16-2.2,24-3.8
	c11.3-0.9,22.5-1.7,33.8-2.9C435.8,177.1,438,176.5,440.2,175.6z"/>
<path class="st66" d="M186.5,52.4c0.1,3.9,3.2,7.4-1.6,9.9c-1,0.5-2.5,0.6-3.1-0.6c-0.6-1.3,0.7-1.5,1.6-1.8
	C187.2,58.5,183.3,54.9,186.5,52.4z"/>
<path class="st67" d="M175.1,64.3c2.1,2.5,3.5,5.6,8.2,3.2c-1.2,3.4-3.2,3.5-5,2.9C175.5,69.6,174.2,67.5,175.1,64.3z"/>
<path class="st68" d="M181,49.9c-0.2,1.8-1.2,2.7-2.9,2.7c-1.6,0-2.4-1.2-2.4-2.6c0-1.4,0.7-2.6,2.3-2.6
	C179.7,47.3,180.7,48.2,181,49.9z"/>
<path class="st69" d="M122.1,268.6c0.2,3.5-0.5,6.7-4.3,7.8c-4.2,1.2-6.4-1.3-7.8-4.8c-0.2-3.5,1.2-6.2,4.8-6.9
	C117.9,264.2,121,264.7,122.1,268.6z"/>
<path class="st70" d="M374.9,202.7c2.8-1.8,5.8-2.1,9.1-2.1c45,0.1,90,0,135,0c-2.3,9.2-8.9,14.9-16.1,20.2
	c-4.6,4.2-9.9,7.3-15.7,9.7c-10.1-1.7-20.1-1.2-30.1,0.3c-1.8,0.3-3.5,1.7-5.3,2.6c-6.8,0.8-13.6,2.1-20.5,2.8c-9.7,1-9.7,1-9.8-7.9
	c-0.6,4.6,1.6,9.6,1,14.8c-0.2,1.9,0.2,4-1.7,5.4c-1.7-5.2-0.7-10.5-0.7-15.8c0-4.4-2-6.1-5.9-6.2c-8-0.1-16,0-24,0
	c-1.8,0-3.3,0.2-4.2,2C382.3,220,378.6,211.3,374.9,202.7z"/>
<path class="st71" d="M487.1,230.5c4.7-4.1,10.2-6.9,15.7-9.7c0,8.9,0,17.7,0,26.6C500,239.6,495.4,233.3,487.1,230.5z"/>
<path class="st2" d="M420.7,248.6c0-7.4,0-14.8,0-23c1,1.1,1.3,1.3,1.3,1.6c1.2,8.2,1.2,8.2,9.7,7.4c4.8-0.5,9.6-1.2,14.4-1.7
	c1.9-0.2,3.9-1.3,5.6,0.6c-7.7,4.8-11.9,14.8-9.1,23c2,5.9,4.8,11.5,7.2,17.2c2,5.6,4.1,11.2,6.1,16.9c-1.2,1-2.5,0.5-3.7,0
	c-9.4-4.4-17.8-10.2-25.1-17.7c-1.6-1.7-2.6-3.7-3.6-5.8c-0.3-0.6-0.9,0.5-0.4,0.1c0.2-0.2,0.4-0.1,0.4,0.2
	c1.5,6.4,0.3,12.9,0.8,19.3c0,5.3,0.1,10.6-0.1,15.9c-0.1,1.8,0.6,4.2-2.2,4.8c-0.4-14.3-0.8-28.6-1.2-42.9c0-2.7-0.1-5.3-0.1-8
	C420.8,253.9,420.8,251.3,420.7,248.6z"/>
<path class="st72" d="M479,271.6c-1.4,3.4-3.8,5.7-7.7,4.8c-4.6-1.1-4.6-5-4.4-8.8c1.8-3.5,5.1-3.7,8.1-2.7
	C478,265.8,479.4,268.4,479,271.6z"/>
<path class="st3" d="M440.2,175.6c-0.2,1.5-0.4,2.9-2.5,3c-7.9,0.6-15.7,1.3-23.6,2c-4.7,0.4-9.4,0.7-14.1,1
	c-11.7-3.7-23.1-8.6-34.7-12.6c-0.9-0.3-1.9-0.7-2.3-1.7c0-0.2,0-0.4,0.1-0.7c6.6-10.5,6.5-19.1-0.5-28.9c-0.8-1.2-2.1-2.2-1.6-3.9
	c9.3,0.9,18.1,3.9,27.1,6c9.5,2.2,19,4.6,28.4,6.9c6.9,7.1,13.7,14.3,20.7,21.2C439.4,170.1,440.8,172.4,440.2,175.6z"/>
<path class="st73" d="M360.9,133.7c8.3,8.5,10.8,18.3,5.8,29.4c-0.7,1.5-1.1,3.6-3.6,3.5c-0.1-1.8-0.5-3.6-0.4-5.4
	c0.2-2.9-1.2-3.4-3.6-2.8c-0.4-0.6-0.3-1.3,0-1.9c3-5.7-0.3-9.6-4-13.3c-0.7-3.6-1.4-7.1-2.1-10.7
	C355.7,132.4,358.5,132,360.9,133.7z"/>
<path class="st74" d="M423.1,285.5c0-6.6,0-13.1,0-20.3c8.6,12.3,19.7,20.2,32.9,25.4c3.1,5.6,4.7,11.9,7.1,17.8
	c0,2.4-1.9,3.2-3.6,3.3c-11.5,0.6-23.1,1.1-34.6-0.3c-0.3,0-0.6-0.3-0.9-0.5c-1.6-3.3-0.1-6.8-0.4-10.2
	C423.1,295.7,424,290.6,423.1,285.5z"/>
<path class="st75" d="M424.1,310.6c10.7,0,21.5,0,32.2,0c2.5,0,5,0.1,6.7-2.2c1,1.7,1.9,3.4,2.9,5.2c1.7,4.7,3.3,9.3,5,14
	c0.9,3.6-2.1,3.2-3.9,3.4c-3.9,0.4-7.9,0.2-11.9,0.2c-9.9-0.1-19.8,0.3-29.7-0.1c-2.5-1.7-1.5-4.6-2.6-6.8
	C422.8,319.7,422.1,315,424.1,310.6z"/>
<path class="st19" d="M425,330.6c4.5-1.6,9.2-0.9,13.8-1c9.3-0.1,18.5,0,27.8-0.1c1.6,0,3.9,0.8,4.4-1.9c1.5,2.4,2.7,5,3,7.8
	c-10.5,4.2-19.5,11.1-29.6,16c-2.5,1.2-4.9,2.6-7.4,3.9c-4.3-6.3-9.7-11.9-13.2-18.8c-0.1-0.5-0.1-0.9,0-1.4
	C423.9,333.6,423.5,331.8,425,330.6z"/>
<path class="st76" d="M355.1,143.3c7,3.1,8.2,7.6,4,15.1c-13.4,4.1-26.7,8.1-40.1,12.2c-2,0.6-4.1,1.3-6.1,2
	c-0.9-0.1-1.8-0.1-2.8-0.2c-1.8-3.2-4.3-5.9-5.3-9.5c-0.4-1.5-1.5-2-2.9-2.3c-4.4-0.9-6.9-3.7-7.1-8.2c-0.3-4.6,1.8-7.5,6.1-9.1
	c1.7,2,0.6,4.5,1.1,6.7c0.3,1.3,0.4,3,2,3c1.7,0,1.7-1.6,1.9-3c1.2-10.2,3.1-12,13.5-12.3c7.4-0.2,14.9-0.4,22.3,0.9
	c5.9,1,7.9,2.9,8.2,8.6c0.1,2-0.8,5.1,2.3,5.1c2.8,0,2.2-3.2,2.6-5.1C355.2,146,355.1,144.6,355.1,143.3z"/>
<path class="st77" d="M371.9,308.6c12.2,0,24.5-0.1,36.7,0c3.3,0,6.5-0.4,9.8,0.6c4.8,1.5,0.9,6.1,3.3,8.4c1.6,5,2.6,10,0.2,15
	c-2.5-2.4-5.5-3.1-9-3.1c-12.3,0.2-24.7,0.1-37,0.1c-0.7-3-1.5-6-2.2-9C371.3,316.9,369.7,313,371.9,308.6z"/>
<path class="st78" d="M422,332.6c-0.1-5-0.1-10-0.2-15c0.1-3.4,0.2-6.7,0.3-10.1c1.9-5.3,0.3-10.7,0.8-16.1c0.2-2,0.1-3.9,0.2-5.9
	c1.6,6.3,0.4,12.8,0.8,19.2c0.1,2,0.2,4,0.2,5.9c0,4.7,0,9.4,0.1,14c0.2,3.6,0.8,7.3-0.3,10.9c0,0,0.2,0.2,0.2,0.2
	c-0.4,0-0.7,0-1.1,0C422.6,334.6,422.3,333.6,422,332.6z"/>
<path class="st79" d="M371.9,308.6c0.6,4,1.2,8,1.8,12c-14.9,0-29.8,0-44.7,0c0.1-9,0.8-18,2-27c8.8,0,17.6,0.1,26.4,0
	c3.8,0,7.6,0.1,11.3,1C369.8,299.3,370.9,303.9,371.9,308.6z"/>
<path class="st80" d="M441.7,70.7c-3.9,0-6.6-2.5-6.7-6.3c0-3.6,1.8-6.1,5.4-6.5c2.8-0.4,7.8,4.5,7.5,7.3
	C447.6,68.8,445.3,70.6,441.7,70.7z"/>
<path class="st81" d="M427.2,73.8c-0.3-0.7-0.7-1.4-1-2c-0.7-0.4-0.8-1-0.8-1.8c1.3-2.1,0.8-4-1-5.6c-0.3-0.9-0.4-1.8,0.3-2.7
	c0-0.7,0.1-1.3,0.1-2c3.7,0.8,5,3.5,5.4,6.9c0.4,2.1-0.1,4.1-1.2,5.9C428.4,73.1,427.8,73.4,427.2,73.8z"/>
<path class="st82" d="M429,72.7c-0.6-2.2,0.5-4,1.2-5.9c0.9-0.7,1.2-2.1,2.7-2.1c1,2.9-5.9,6.3,1.3,8.4
	C431.7,74.9,430.5,73.2,429,72.7z"/>
<path class="st83" d="M433.2,80.4c2.6,0.5,5.1,1.1,7.2-1.5C438.6,83.6,436.9,83.9,433.2,80.4z"/>
<path class="st84" d="M424.7,61.8c0.1,0.9,0.3,1.9,0.4,2.8c1.1,1.5,2.1,3,1,5c0,0.7,0,1.5,0.1,2.2c-2.3,3.6-5.6,2.6-8.1,1
	c-3.3-2.1-2.9-6-1.3-8.8C418.3,61.1,421.2,59.7,424.7,61.8z"/>
<path class="st85" d="M357,184.7c-4.2,3.9-2.6,8.6-1.9,13.2c0.3,1.9,1.4,3.8,0,5.7c-0.2,1.7-1.5,2-2.8,2.4
	c-10.2,2.9-20.3,5.8-30.4,8.9c-3.6,1.1-4-0.3-3.9-3.2c0.1-7.5,0.1-14.9,0-22.4c0-2.3,0.6-3.8,2.9-4.5c10.9-3.2,21.9-6.3,32.8-9.6
	c2.7-0.8,3.3,0.2,3.3,2.5C357,180,357,182.4,357,184.7z"/>
<path class="st86" d="M363,167.3c12.4,3.4,24.2,8.6,36.2,13.2c0.4,0.1,0.5,0.8,0.8,1.2c-8.2,1.6-16.6,1-24.6,3.9
	c-2.7,1-5.5,2-8.3,2.9c-1.5-1.3-2.9-2.6-4.4-3.9C362.8,178.9,362.9,173.1,363,167.3z"/>
<path class="st87" d="M355.1,203.6c0-1.9,0-3.8,0-5.7c2,3.6,3.9,7.1,5.9,10.7c1.7,3,2.7,5.9,1.1,9.3
	C357.7,214.1,356.8,208.7,355.1,203.6z"/>
<path class="st88" d="M441,172.1c-0.5-7.4,4.3-11.7,5.8-17.2c1.7-5.9-3.3-10.5-3.7-16.6C450.8,146.9,450.4,153.2,441,172.1z"/>
<path class="st89" d="M509.2,172.5c-0.8-0.1-1.5-0.3-2.3-0.4c-6.7-6.5-13.5-12.9-20.2-19.4c0.6-0.6,1.2-1.2,1.8-1.8
	C495.6,157.9,503.4,164.1,509.2,172.5z"/>
<path class="st74" d="M423.9,335.5c0.1-3.6,0.2-7.2,0.3-10.9c1.4,1.8,0.5,4,0.8,5.9C424.7,332.2,425.8,334.2,423.9,335.5z"/>
<path class="st90" d="M332.7,159.4c0.4,3.9-1.1,6-4.6,6.2c-3.4,0.3-5.1-1.7-5.2-5.7C327.9,164.9,327.9,164.9,332.7,159.4z"/>
<path class="st91" d="M337,150.6c1.8,0,2.8,0.8,2.8,2.3c0,1.5-0.9,2.5-2.4,2.5c-1.3,0-2.1-0.8-2.3-2.1
	C334.9,151.6,335.9,150.9,337,150.6z"/>
<path class="st92" d="M327.9,151.3c-0.8,4.1-0.8,4.1,0.6,7.7C323.8,157.2,323.5,155.6,327.9,151.3z"/>
<path class="st93" d="M319.2,153c-0.2,1.4-1.2,2-2.5,1.8c-1.1-0.2-1.8-1-1.6-2.2c0.2-1.3,1.1-2,2.5-1.8
	C318.8,151,319.2,151.9,319.2,153z"/>
<path class="st94" d="M443.6,64.2c0,1.5-0.8,2.5-2.3,2.7c-1.7,0.2-2.9-0.6-3.1-2.4c-0.2-1.6,0.8-2.5,2.3-2.7
	C442.3,61.4,443.1,62.5,443.6,64.2z"/>
<path class="st95" d="M426.1,69.6c-0.3-1.7-0.7-3.3-1-5C429.1,65.5,428.9,67.3,426.1,69.6z"/>
</svg>
