<?xml version="1.0" encoding="utf-8"?>
<!-- Generator: Adobe Illustrator 25.0.1, SVG Export Plug-In . SVG Version: 6.00 Build 0)  -->
<svg version="1.1" id="Layer_1" xmlns="http://www.w3.org/2000/svg" xmlns:xlink="http://www.w3.org/1999/xlink" x="0px" y="0px"
	 viewBox="0 0 696.7 563.5" style="enable-background:new 0 0 696.7 563.5;" xml:space="preserve">
<style type="text/css">
	.st0{fill:#2B2B2B;}
	.st1{fill:#FEDDB0;}
	.st2{fill:#BD6361;}
	.st3{fill:#FEE9CD;}
	.st4{fill:#FEEDD7;}
	.st5{fill:#FEECD4;}
	.st6{fill:#FCBF68;}
	.st7{fill:#F8D4FE;}
	.st8{fill:#2C2C2C;}
	.st9{fill:#3A3939;}
	.st10{fill:#FEE5C2;}
	.st11{fill:#FED8A2;}
	.st12{fill:#C77E7C;}
	.st13{fill:#C67776;}
	.st14{fill:#3A3A3A;}
	.st15{fill:#C67876;}
	.st16{fill:#413D3F;}
	.st17{fill:#F8D6FE;}
	.st18{fill:#3F3C3C;}
	.st19{fill:#C67B76;}
	.st20{fill:#E2A0C0;}
	.st21{fill:#CD8987;}
	.st22{fill:#FEFEFE;}
	.st23{fill:#CEC7C9;}
	.st24{fill:#EEC38D;}
	.st25{fill:#C2DCCE;}
	.st26{fill:#EEC08E;}
	.st27{fill:#869BA6;}
	.st28{fill:#C4BD97;}
	.st29{fill:#FEFDFC;}
	.st30{fill:#A6AFA0;}
	.st31{fill:#FDFDFD;}
	.st32{fill:#839CA8;}
	.st33{fill:#FCFAF9;}
	.st34{fill:#FCFAFA;}
	.st35{fill:#C97F7D;}
	.st36{fill:#FEFDFD;}
	.st37{fill:#F8D4FC;}
	.st38{fill:#FEDEB2;}
	.st39{fill:#FEF4E6;}
	.st40{fill:#4A4744;}
	.st41{fill:#F7D3F9;}
	.st42{fill:#3A3839;}
	.st43{fill:#56524C;}
	.st44{fill:#38342E;}
	.st45{fill:#5E4F39;}
	.st46{fill:#61513A;}
	.st47{fill:#FAE8D0;}
	.st48{fill:#F7F4EF;}
	.st49{fill:#F9F1E8;}
	.st50{fill:#F9EBD8;}
	.st51{fill:#BA6361;}
	.st52{fill:#FAEFE0;}
	.st53{fill:#FAECD9;}
	.st54{fill:#BB6260;}
	.st55{fill:#BA6260;}
	.st56{fill:#F9E8D0;}
	.st57{fill:#F9F7F5;}
	.st58{fill:#FBF4EA;}
	.st59{fill:#BB6564;}
	.st60{fill:#F0CCF4;}
	.st61{fill:#EEC9F0;}
	.st62{fill:#B8605F;}
	.st63{fill:#ECE7E0;}
	.st64{fill:#EDE5D9;}
	.st65{fill:#E9E7E5;}
	.st66{fill:#BB6261;}
	.st67{fill:#F2DDE5;}
	.st68{fill:#F5F3F1;}
	.st69{fill:#F4E8D7;}
	.st70{fill:#ECE0D0;}
	.st71{fill:#EDDECA;}
	.st72{fill:#FAF4ED;}
	.st73{fill:#F1E1CD;}
	.st74{fill:#D4D3D2;}
	.st75{fill:#A15756;}
	.st76{fill:#D9C9B3;}
	.st77{fill:#DDCDB6;}
	.st78{fill:#FAEAD4;}
	.st79{fill:#F4D1FA;}
	.st80{fill:#F8F2EB;}
	.st81{fill:#F7E3D6;}
	.st82{fill:#F9E6D3;}
	.st83{fill:#F7E5DE;}
	.st84{fill:#F9ECDC;}
	.st85{fill:#F8E8DA;}
	.st86{fill:#F9F0E4;}
	.st87{fill:#F6E7E3;}
	.st88{fill:#F6EAEA;}
	.st89{fill:#FAEDDD;}
	.st90{fill:#FAEFE1;}
	.st91{fill:#F7EDF1;}
	.st92{fill:#F7EAE1;}
	.st93{fill:#F3D0F8;}
	.st94{fill:#FBF2E6;}
	.st95{fill:#F3EADF;}
	.st96{fill:#E4C4EA;}
	.st97{fill:#EAD9C1;}
	.st98{fill:#D3CDD2;}
	.st99{fill:#D3D2D1;}
	.st100{fill:#F8D5FE;}
	.st101{fill:#847EB3;}
	.st102{fill:#C8DEFE;}
	.st103{fill:#DEA8C2;}
	.st104{fill:#DBAEC3;}
	.st105{fill:#3F3B3C;}
	.st106{fill:#4E473C;}
	.st107{fill:#FEE2BC;}
	.st108{fill:#FEEBD3;}
	.st109{fill:#CCC194;}
	.st110{fill:#4D4D48;}
	.st111{fill:#4F5049;}
	.st112{fill:#CF8F8D;}
	.st113{fill:#CC8584;}
	.st114{fill:#FDEBD4;}
	.st115{fill:#E9D8C0;}
	.st116{fill:#529DCC;}
	.st117{fill:#6C8DBF;}
	.st118{fill:#4DA3CE;}
	.st119{fill:#BAA1B2;}
	.st120{fill:#73A5C0;}
	.st121{fill:#78A5BE;}
	.st122{fill:#9DA5B0;}
	.st123{fill:#FEFBFE;}
	.st124{fill:#3D3B3D;}
	.st125{fill:#A0A5B1;}
	.st126{fill:#CD9EB8;}
	.st127{fill:#B7A2B2;}
	.st128{fill:#9BA5B1;}
	.st129{fill:#313032;}
	.st130{fill:#D6B7C5;}
	.st131{fill:#383336;}
</style>
<path class="st0" d="M637.6,250.6c0,8.7,0.1,17.4,0.1,26c-2.9,3.3-8.1,3.8-14.1,1.5c-2.2-3.7-1.1-7.8-1.3-11.7
	c-0.3-5.2-0.7-5.8-5.8-5.9c-16.5-0.1-33-0.1-49.5,0c-1.7,0-3.4,0-4.6,1.4c-2,3.1-0.9,6.5-1.1,9.8c-0.3,5.4-1.2,6.4-6.5,6.6
	c-0.8,0-1.7,0-2.5,0c-7,0-7.9-0.8-7.8-7.7c0-10.6,0.5-10.3-10.4-10.3c-75.8,0-151.6,0.5-227.4,0.2c-39.1-0.2-78.3-0.1-117.4-0.2
	c-7.5,0-7.8,0.4-7.9,7.9c0,2.8,0.4,5.7-0.6,8.4c-4.2,3.8-11.4,3.9-16.2,0.5c-1.8-4-0.9-8.2-1.1-12.3c-0.1-2.8-1.3-4.3-4.2-4.3
	c-17.1-0.1-34.2-0.1-51.3,0c-1.2,0-2.3,0.2-3.2,1.1c-2.1,2.5-1,5.4-1.3,8.2c-0.3,3.2,0.9,7.3-3,8.7c-4,1.4-8.4,2.1-12.3-0.9
	c0-0.3-0.1-0.6-0.3-0.9c-0.5-8.7-0.5-17.3,0-26c2-1.7,4.4-1.3,6.7-1.3c21.5,0,42.9-0.3,64.4-0.1c17.5,0.1,34.9-1.3,52.4-0.9
	c1.3,0,2.7,0.2,3.7-0.9c-2.6-8.2,1.1-15.6,2.8-23.3c1.5-6.8,1.6-6.9-5.6-6.9c-5.3,0-10.6,0-16,0c-7.3,0.2-14.6,0.3-22,0
	c-9.8-0.4-14.6-5.3-14.7-15.1c-0.2-15.5-0.1-30.9,0-46.4c0-2.2,0-4.3,1.4-6.2c0-12.2,0-24.4,0-36.6c-1.2-1.2-1.1-2.8-1.3-4.4
	c-0.1-4.8-0.2-9.6,0.1-14.4c0.1-2.6,0.3-5.4,3.2-6.8c1.1,0,1.7,0.6,2.1,1.6c-0.4,13-0.2,25.9-0.2,38.9c0,23.3,0,46.6,0,69.9
	c0,2.3-0.1,4.7,0.4,7c0.8,3.6,2.8,6.1,6.8,6.2c15,0.3,30,0.1,45,0.1c3.7,0,4.7-2.5,5.4-5.4c3.2-12.3,5.8-24.7,9-36.9
	c1.4-5.5,2.8-11,4.2-16.5c1-4.2,3.4-6.2,7.8-6.2c9.8,0,19.7-0.1,29.5,0.1c5.7,0.1,6.9,1.3,7,7.3c0.2,15.3,0,30.6,0.1,46
	c0,1.3,0,2.7,0,4c0,7.4,0.2,7.7,7.5,7.7c17.5,0,35,0,52.5,0c9,0,10.9-1.8,10.9-10.8c0-34.1,0-68.3,0-102.4c0-4-0.7-7.6-3.3-10.7
	c-1.9-2.7-1.5-4.2,2.2-3.9c2.2,0.1,4.3,0.1,6.5,0c6.6-0.5,9.7,2.4,9.7,8.7c-0.1,9.1,0.1,18.3-0.1,27.4c-0.1,4.4,1.8,7.1,5.5,9.2
	c5.4,3.1,11,4.5,17.2,3.2c2.9-0.6,5.9-1.4,8.9-1c1,0.1,2,0.5,2.2,1.7c0.2,1.2-0.6,2.1-1.5,2.2c-6.6,1.1-6.5,5.9-6.3,11
	c0.1,2.5,0,5-1.8,7.1c-0.8,0.8-1.9,1.1-3,1.4c-3.8,1-6.8,3.3-9.6,6c-1.4,1.4-2.6,3.3-4.3,4.1c-7.4,3.8-8.1,10.2-7.4,17.3
	c0.2,2.8,0.1,5.6,0.1,8.5c0.1,1.7,0,3.3,0,5c0.2,1.8,0,3.6,0,5.3c0.2,12-4.3,16.9-16.3,16.9c-24.5,0.1-49,0.1-73.4,0
	c-15.6-0.2-12.4-1.7-16.2,12.3c-0.4,1.3-0.7,2.6-0.8,3.9c-0.6,5.1,1.3,7.5,6.6,7.7c6.6,0.3,13.2,0.2,19.9,0.1c2.8,0,5.7,0,8.5,0
	c4.3,0,8.9-0.5,10.6,5c0.2,0.8,1.4,0.9,2.2,1c43.3-0.1,86.7-0.1,127.6,0c-7-2.1-16.6-4-25.6-8.1c-0.8-0.7-1.3-1.6-0.9-2.6
	c3.3-7.8,6.6-15.6,12.4-22c2.1,0.6,1.4,2.3,1.4,3.7c0.4,10.1,7.2,17.7,17.2,19.5c5.6,1,11.3,0.2,16.8,1.4c0.7,0.2,1.3,0.7,1.7,1.3
	c0.8,1.7-0.1,3.2-0.7,4.7c-0.8,1.9,0,2.8,1.9,3.1c27.1-0.4,54.2,1.4,81.3,1.2c29.8-0.3,59.6-0.4,89.4-0.3
	C631.9,249.3,635,248.4,637.6,250.6z"/>
<path class="st1" d="M0,406.9c0-21.8-0.1-43.6-0.1-65.4C0,314,23.4,290.1,51,288.7c13.6-0.7,26,1.7,36.9,10.2
	c1.9,1.8,1.5,4.2,1.5,6.4c0.1,4.7,0.1,9.5,0,14.2c0.4,2.4-1.4,3.6-2.8,4.9c-8.8,8.4-18.2,16-28.4,22.7c-5.1,3.4-5.1,3.8-2,9.1
	c5.3,8.9,10.7,17.6,15.9,26.5c1.8,3.2,3.8,3.8,6.8,1.6c1.6-1.2,3.3-2.3,5.1-3.2c2-1,3.6-0.9,4.1,1.6c0.4,6.7,0.2,13.3,0.2,20
	c0,6.5-1.1,7.6-7.6,7.6c-18.8,0.1-37.6,0-56.5,0c-5.5,0-11,0-16.5,0C4.6,410.4,1.9,409.6,0,406.9z"/>
<path class="st0" d="M356.7,70.5c2.9-20.5,25.4-32.7,38.6-30.6c14.1,2.1,23.8,10.5,30.7,22.4c4,7,6.5,14.6,7.8,22.5
	c0.8,4.8,3.4,8.2,7.2,10.9c2.2,1.5,4.3,3.1,6.7,4.4c11.9,6.8,19.5,16.8,22.1,30.4c0.4,2.3,0.8,4.6,2.2,6.5c2.6,2.7,2.9,6.5,4.8,9.6
	c3.4,6.2,7.2,12.1,12,17.4c1.2,1.3,2.5,2.7,2.8,4.5c-0.1,2-1.5,2.6-3.1,2.6c-10.4,0.3-18.5,5.8-26.9,11c-5.1,3.2-10.3,6-16.1,7.8
	c-4.3,0.6-8.6,0.7-12.8-0.8c-6.9-3.6-12.8-8.3-17.7-14.4c-1.7-2.2-3.1-4.5-4.4-7c-5.3-11.4-6.6-23.6-7.1-36c-0.4-11,0.8-22-1-32.9
	c-1-6.5-3.8-11.6-9-15.5c-7.1-5.2-14-10.7-19.9-17.4c-2-2.3-3.4-2-5.1,0.3c-2.1,2.9-4.7,5.2-7.7,7C357.4,75.4,356.7,74.9,356.7,70.5
	z"/>
<path class="st2" d="M557.7,546.8c-3.7,3.9-8.6,3.4-13.3,3.3c-3.4-0.1-6.9-0.1-10.3-0.1c-3.5,3.2-1.4,7.2-1.2,10.8
	c0.1,0.3,0.2,0.6,0.2,0.9c-0.8,0.7-1.6,0.7-2.5,0.1c-0.6-0.7-0.9-1.6-1-2.5c-0.5-6.5-0.5-6.5-7-8.2c-1.3-0.3-2.9-0.6-2.9-2.2
	c0-2,1.8-2.1,3.3-2.4c6.3-1.4,6.4-1.4,6.4-7.9c0-8.8-0.1-17.6,0-26.5c0-4-1.6-5.8-5.6-5.7c-3.7,0-7.3,0.3-11-0.3
	c-1.4-0.2-3.3-0.5-3.1-2.5c0.2-1.6,1.8-1.9,3.1-2c4-0.5,8-0.2,12-0.3c3.1,0,4.5-1.4,4.6-4.5c0-7.8,0-15.6,0-23.5
	c0-3.3-1.6-4.8-4.9-4.9c-4.3,0-8.7,0-13,0c-1.7,0-3.3,0-4.9-0.5c-1.3-0.4-2.7-1.1-2.4-2.7c0.2-1.3,1.7-1.5,2.8-1.6
	c5.1-0.6,10.3-0.2,15.5-0.3c6.4-0.1,7-0.5,7-6.7c0-13.5,0.8-12-12.1-12.2c-16.1-0.2-32.3,0.5-48.4-0.4c-1.3-0.4-2.6-1-2.2-2.7
	c0.3-1.3,1.7-1.3,2.8-1.7c1.7-0.6,4,1,5.2-1.5c-0.7-2.4-1.1-4.8-1.1-7.3c0.2-8.9,3.8-11.6,12.1-9c2.1,0.8,4.4,1.2,6.6,1.8
	c10.2,3.4,20.5,6.5,30.3,11.2c2.4,1.7,4.8,0.7,7.3,0.3c5.3,2.9,10.9,4,16.8,3.3c4.8-0.2,9.6-0.2,14.4,0c7.9,0,9.3,1.2,9.4,9.2
	c0.1,10-0.8,9.6,9.9,9.7c14.5,0.1,28.9-0.2,43.4,0.1c4.7,0.2,9.6-1.2,14.1,1.3c3.6,0.1,7.3,0.2,10.9,0.1c2.5-0.1,3.6,0.7,3.5,3.4
	c-0.1,4.1-0.4,8.3,0.1,12.4c0.4,3.9-0.6,6.4-4.5,7.3c-0.8,2.1-0.7,4.3-0.3,6.3c1.1,5.3-0.7,9.6-4.1,13.5c-2,2.4-4.3,4.6-6.6,6.8
	c-6.1,5.9-13.5,6.6-21.3,5.6c-3.5-0.4-3.8-3.1-4-5.9c-0.3-5.8-0.4-5.9-6-5.9c-9.8,0-19.6,0-29.4,0c-1.8,0-3.7-0.4-5,1.3
	c-1.3,5.8-0.9,11.7-0.2,17.5c2.3,2.6,5.3,0.9,8,1.4c1.6,0.3,3.9-0.1,3.9,2.1c0,1.9-2.1,2.3-3.8,2.5c-0.8,0.1-1.7,0.2-2.5,0.1
	c-4.2-0.5-6.2,0.9-6.5,5.6C569.4,540.2,563.1,543.2,557.7,546.8z"/>
<path class="st2" d="M637.6,250.6c-3.6-2.4-7,0.6-10.6,0.5c-26.9-0.3-53.9-0.1-80.8-0.1c-13.1,0-26.3,0.7-39.4-0.2
	c-16.2-1.1-32.4-1-48.7-1.2c-0.8,0-1.6-0.4-2.4-0.6c0.6-0.9,1.4-1.2,2.4-1.4c12.5-0.6,25-0.3,37.5-0.2c0.9,0.1,1.9,0.2,2.8,0.3
	c0.6,0.1,1.2,0.3,1.8,0.4c10.6,0.7,21.3,0.2,31.9,0.3c13.6,0.1,27.3,0,40.9,0c5.7,0,6.3-0.6,6.3-6.3c0-3.2,0.1-6.3,0-9.5
	c-0.1-4.1,1.6-6.3,5.9-6.2c1.5,0,3,0,4.1-1.3c2-5.9,0.4-12,1-18c0-0.9,0-1.8,0-2.6c-0.6-7.6,0.7-15.2-0.7-22.8
	c-1.7-2.3-4.2-1.3-6.4-1.5c-2.6-0.2-5-0.5-5.7-3.6c-0.6-4.3-0.3-8.6-0.3-13c0-3.5-1.4-5.2-5-5.2c-22,0-43.9-0.3-65.9,0.2
	c-7.3,0.1-7.9,1.1-8,8.3c0,3.5,0.1,7,0.1,10.5c-0.1,1.3-0.6,2.4-2,2.9c-4.7-1.2-2.7-4.7-2.7-7.6c1.1-3.8,0.5-7.6,0.6-11.4
	c0.1-2.7,0.1-5.3,3.1-6.8c2.1-1.1,1.9-3.3,1.9-5.3c0-5.5-0.3-10.9,1.4-16.3c1.6-1.3,3.5-0.7,5.3-0.7c41.6,0.1,83.2,0.2,124.8,0.2
	c3.7,0,5.4,0.8,5.1,4.9c-0.4,5.3-0.1,10.6-0.1,16c0,1.2,0.6,3.4-1,3.4c-5.5,0.3-3.9,4.1-4.1,7.2c-0.1,1.2,0,2.3,0,3.5
	c0,9.2,0,9.3,9.1,9.7c2.8,0.1,3.7,1.1,3.7,3.8c-0.1,14.6-0.1,29.3,0,43.9c0,3.7-1.9,4.3-4.7,3.8c-5.4-0.9-7.2,1.5-6.4,6.6
	c0,0.2,0,0.3,0,0.5C632.7,245.7,632.7,245.7,637.6,250.6z"/>
<path class="st3" d="M0,406.9c3.4,2,7.2,2,11,2c23.7-0.1,47.3-0.1,71,0.1c4,0,5.2-1.1,5.1-5.1c-0.3-7.7-0.1-15.3-0.1-23
	c0.3-1.6,0.9-1.3,1.7-0.3c1.6,5.2,0.7,10.5,0.8,15.7c0.1,5.7,0.4,11.5-0.3,17.3c-1.6,9.4-0.5,18.8-0.6,28.2c0,0.8,0.7,1.5,1.4,1.9
	c0.6,0.2,1.3,0.4,1.9,0.5c7.5,0.8,8.5-0.1,8.5-7.5c0-19.5,0-39,0-58.4c0-2.5-0.3-5,0.7-7.4c0.3-0.6,0.8-0.9,1.4-1.1
	c2.4,1.8,1.9,4.4,1.9,6.9c0.1,8.8,0,17.6,0.1,26.4c0,6.7,0.6,7.3,7.5,7.3c11.8,0.1,23.6,0.1,35.3,0c4.6-0.1,8.9,0.5,12.8,3
	c2,0.7,3.5,2.1,4.8,3.8c0.8,1.2,1.7,2.4,2.1,3.9c1.1,7.6,0.4,15.2,0,22.8c-0.3,5-0.5,9.9-0.6,14.9c0,1.8,0,3.7-1.1,5.3
	c-0.2,0.2-0.5,0.5-0.8,0.6c-6.2,2.2-6.3,2.2-6.3,8.9c0,3.3,0.1,6.6,0,10c-0.1,3,1.1,4.1,4.1,4.2c2.4,0.1,5.5-1.2,6.6,2.5
	c-1.2,1.1-2.7,1.2-4.3,1.3c-1.7,0.2-3.3,0.1-5,0c-3.4-0.2-5.1-1.9-5.3-5.3c-0.2-2.8-0.1-5.6-0.2-8.5c-0.1-2.6-1.2-3.8-3.9-4.1
	c-11-1.2-11.9-0.5-11.9,10.6c0,9.3,0.1,18.6-0.1,27.9c-0.1,2.1,0.9,5.2-2.7,5.7c-1.6-2-1.1-4.4-1.1-6.7c-0.1-18.6,0-37.1-0.1-55.7
	c0-1.8,0.2-3.6-0.3-5.4c-1.1-2.1-3.1-1.6-4.8-1.6c-13.8-0.2-27.7,0.2-41.5-0.2c-1.6-0.4-3.2-0.4-4.8,0c-4.9,0.3-9.7,0.3-14.6,0
	c-2-0.3-4,0.2-5.9,0c-4.4-0.4-6.9,0.9-6.5,5.9c0.1,1.3-0.1,3.6-2.7,2.5c-1.2-3.3-3.8-4.1-7.1-4.1c-12.5,0.1-25,0.1-37.5,0
	c-3.4,0-6.7-0.3-8.8-3.5C0,434.9,0,420.9,0,406.9z"/>
<path class="st4" d="M557.7,546.8c1.6-1.7,3-3.6,4.9-4.9c4.3-3.2,7-6.9,6-12.6c-0.5-2.9,1.1-3.6,3.8-3.6c3.3,0,6.8,0.8,10.8-1.1
	c-5.3-1.6-10.1,0.6-14.3-1.7c2.1-1.8,4.6-1.5,7-1.4c5.4,0.3,10.4-0.5,15-3.6c1.8-1.2,4-2.6,6.4-0.9c1.9,3,5,2.2,7.7,2.2
	c28.2,0,56.5,0,84.7,0.1c2.8,0,5.7-0.5,8.1,1.5c0,6.6-0.2,13.3,0.1,19.9c0.2,4.5-2.1,5.9-6,6.1c-0.3,0-0.7,0-1,0
	C646.5,546.8,602.1,546.8,557.7,546.8z"/>
<path class="st5" d="M0,448.9c3.4,2.1,7.1,2.1,11,2c12.3-0.1,24.5,0.2,36.8-0.2c5.1-0.2,7.1,1.3,6.3,6.3c2.3,1.5,2.3,3.9,2.3,6.3
	c0,32.1,0,64.2,0,96.3c0,1.8,0,3.7-1.4,5.2c-1.8-1.4-1-3.4-1-5.1c-0.1-15.8-0.2-31.6,0.1-47.5c0.1-4.6-1.4-5.6-5.7-5.5
	c-12.5,0.3-25,0.1-37.5,0.1c-8.9,0-10.8-1.9-10.9-11c-0.1-9.2,0-18.3,0-27.5C0,461.8,0,455.4,0,448.9z"/>
<path class="st6" d="M356.7,70.5c-0.3,3.2,0.7,4.1,3.4,1.9c3.5-2.6,6.4-5.7,9.1-9.1c1.1-1.4,2-2.6,3.7-0.3
	c5.8,7.6,13.3,13.5,21,18.9c6.4,4.5,9.2,10.5,10.2,17.9c0.8,6,0.9,11.9,0.8,17.9c-0.2,17.1,0.2,34.2,6.9,50.4
	c-3.9,4.4-11.2,6.5-16.2,4.5c-5.6-2.2-7.1-7-7.2-12.4c0-2.5-0.3-5,0.3-7.4c1.7-3.8,1.2-7.8,0.9-11.7c-0.3-4.3,0.9-6.6,5.5-6.7
	c1.2,0,2.7,0.1,3.7-1.6c-1.6-1.5-3.3-0.5-4.9-0.3c-9.3,1.6-18.5,2.4-26.7-4c-2.4-1.9-3.7-3.9-3.6-7.1c0.3-10.4,0.4-20.9,0.4-31.4
	c0-5.4-4.7-5-8.1-6.2c-0.2-0.1-0.5-0.2-0.7-0.3c0.2-0.2,0.4-0.3,0.6-0.5C356.7,78.9,354.9,74.6,356.7,70.5z"/>
<path class="st2" d="M218.1,248.1c0.7,0.5,0.7,1.3-0.1,1.4c-1.3,0.3-2.6,0.1-4,0.2c-41.5,1.4-83,1-124.5,1c-0.5,0-1,0.1-1.5,0.1
	c0.8-3.4,3.7-2.3,5.7-2.3c14-0.1,28-0.1,42-0.1c6.3,0,6.8-0.5,6.8-6.9c0.1-9.3,0.1-9.3-9.3-9.3c-17.2,0-34.3,0-51.5,0
	c-5.8,0-6.4,0.6-6.4,6.2c0,2.8,0,5.7,0,8.5c0,0.6,0.1,1.2,0.1,1.8c-0.4,1.4-1.2,1.9-2.6,1.2l0,0c-0.6-6.6-0.9-13.2,0.1-19.9
	c2.9-0.1,5.8-0.2,8.7-0.3c1-0.7,1.2-2.9,3.2-2.1c2.3,0.5,4.6,0.7,6.9,0.7c17.4,0,34.9,0,52.3,0c6.9,0,7.1-0.3,7.2-7.4
	c0-2.5-0.1-5,0.3-7.5c1.6-7.1,1-14.3,0.5-21.5c-0.3-0.4-0.6-0.8-1-1.1c-1.7-1-3.6-0.5-5.4-0.6c-2-0.2-4-0.4-4.8-2.7
	c-0.8-5.3-0.7-10.5-0.1-15.8c0.3-2.7,3.9-2.6,4.4-5.1c0.1-4.5,1.2-9-0.9-13.3c-1.4-1.2-3.1-1-4.7-1c-18.4,0-36.8,0-55.2,0
	c-5.4,0-5.9,0.6-6,6c-0.1,3.1,0.3,6.3-0.3,9.4c-0.3,1.7-1.1,3.7-3.1,1.1l0,0c1.2-4.3,0.2-8.7,0.6-13c0.2-1.9-0.5-3.9,0.5-5.7
	c10.6-0.1,21.3-0.3,31.9-0.3c17.6-0.1,35.3,0,52.9-0.1c0.1,17.4,0.1,34.9,0.2,52.3c0,9.5,4,13.5,13.7,13.6c7.5,0.1,15,0.2,22.4,0.2
	c2.5,4.6,1.5,9.4,0.9,14.1c-0.2,1.9-1.8,2.9-3.5,3c-4.2,0.3-5,2.8-5,6.4c0,7.7,0,7.7,7.7,7.8C204.1,247.5,211.1,246.8,218.1,248.1z"
	/>
<path class="st7" d="M637.9,458.7c-4.7,0-9.4,0-14,0c-1.8-1.9-1.6-4.3-1.6-6.6c0-56,0-112,0-167.9c0-2.3-0.2-4.7,1.7-6.5
	c4.5-0.8,9.3,0.9,13.7-1c0,39.4,0.1,78.8,0.1,118.2C637.9,416.2,637.8,437.4,637.9,458.7z"/>
<path class="st8" d="M135.8,447.9c0.1,21.3,0.1,42.6,0.2,63.9c0,2,0.1,4,0.2,6c1.9,2.5,1.4,5.4,1.3,8.1c-0.3,9.9,0,19.9-0.1,29.8
	c0,1.5,0,3,1,4.3c1.6,1.7,3.7,1.4,5.6,1.4c37,0,74,0,110.9,0c2,0,4-0.1,5.9-0.7c12-0.9,24-0.3,36-0.4c2.3,0.1,4.6-0.1,6.9,0
	c2.7,1.7,1.5,2.8-0.7,3.3c-1.7,0.4-3.6,0-5.2,1c-12.3,0-24.7,0-37,0c-1.1-0.5-2.3-0.3-3.4-0.3c-39.4,0-78.7,0-118.1,0
	c-1.2,0-2.3-0.2-3.4,0.3c-15.7,0-31.3,0-47,0c-9.6-0.8-19.3-0.4-28.9-0.2c-3.9,0-4.7-1.2-4.6-4.8c0.1-31.6,0.1-63.2,0.1-94.9
	c0-4.5-0.2-9,0-13.4c0.1-1.2-0.7-2.7,1-3.5c1.8,1,1.6,2.9,1.8,4.6c0,1,0.2,2,0.2,3c-0.2,1.3-0.2,2.7,0,4.1c0,0.9-0.1,1.9-0.2,2.8
	c0,3.5,0,7,0,10.4c0,1,0.4,1.9,0.6,2.8c0.3,1.2,0.7,2.3,0.6,3.5c-0.2,1.2-1,2.1-1.2,3.3c-0.1,3.4-0.1,6.9,0,10.3
	c0,1,0.3,1.9,0.6,2.8c0.3,1.1,0.7,2.3,0.5,3.5c-0.2,1.1-2.9,1.2-1.3,3c0.3,3.6,0.1,7.1,0.2,10.7c0.1,1.3,0.6,2.5,0.6,3.8
	c0,0.5,0,1-0.1,1.5c-0.1,1-0.5,1.9-0.6,2.9c0,3.9-0.5,7.8,0.4,11.7c0.4,0.6,0.7,1.3,0.8,2c0.1,1.2-0.3,2.4-0.6,3.5
	c-0.2,0.9-0.5,1.7-0.6,2.7c-0.2,2.2-0.1,4.3-0.1,6.5c0,1.7,0.1,3.4,2.2,4c3.8,2.1,7.6,1.7,11.4,0c1.9-0.1,3.9,0.4,5.8,0.2
	c4.6,0.1,9.2,2.6,13.8-0.1c1.2-0.2,2.3,0.1,3.5,0.1c6.7-1.9,7.5-4.5,3-9.5c-0.7-0.7-1.3-1.5-1.9-2.3c-1.3-1.5-2.2-3.1-1.2-5.1
	c0.2-0.4,0.4-0.8,0.7-1.2c0.6-0.8,1.5-1.3,2.2-1.9c2.7-2.2,4.1-4.7,1.2-7.8c-0.7-0.7-0.9-1.7-0.8-2.8c0.1-0.5,0.3-0.9,0.6-1.3
	c0.6-0.4,1.3-0.5,2.1-0.3c4.8,3.4,4.8,3.4,9.4-0.9c1.1-1,2.2-2.1,3.6-2.7c1.1-0.4,2.3-0.9,3.2,0.2c1.1,1.4-0.1,2.4-0.8,3.5
	c-1.1,1.4-2.3,2.8-3.7,4c-2.4,2.1-3,4-0.4,6.6c2.4,2.4,4.2,2.9,6.5,0.1c0.9-1.2,2.1-2.1,3.3-3c1.2-0.9,2.3-2,3.2-3.2
	c2-2.9,5.3-4.8,6.8-8.3c0.3-0.6,0.6-1.2,0.9-1.9c0.2-0.4,0.4-0.8,0.6-1.3c0.6-5.2,0.5-10.4-0.8-15.5c-0.1-0.5-0.2-1-0.2-1.5
	c0-1,0.2-2,0.2-3c0-3.5,0-7.1,0-10.6c-0.1-1-0.4-2-0.6-3c-0.2-1-0.2-2.1,0-3.1c0.1-1,0.5-2,0.6-3c0.1-3.5,0-7.1,0-10.6
	c0-0.9-0.2-1.9-0.3-2.8c0.3-1.2,0.4-2.5,0-3.8c0-0.9,0.2-1.8,0.3-2.7c0.1-1.5,0.1-3,0.7-4.4C133.9,447.6,134.7,447,135.8,447.9z"/>
<path class="st9" d="M133.8,513.6c-0.3,0.8-0.6,1.5-0.9,2.3c-2.6,0.4-3.8-1.8-5.2-3.2c-2-2-3.5-1.2-5,0.5c-1.5,1.7-3.9,3.1-1.5,5.8
	c1.6,1.8,3.8,3.3,4.6,5.7c-1,1-2,2.1-3,3.1c-3.3-2.5-5.4-6.1-8-9.1c0.4-0.8,2.1-1.1,1.4-2.2c-0.6-1-1.8,0.3-2.7,0.2
	c-2.2-0.8-3.4-2.8-5.4-4c-4.1-3.3-5.5,0.9-7.7,2.9c-1.1,1-0.5,2.8-1.5,4c-0.1,0.5-0.1,0.9-0.2,1.4c-0.4,0.3-0.8,0.4-1.3,0.5
	c-2.4-0.5-4,0.9-5.6,2.4c-2.1,2-2.3,3.8-0.1,5.8c1.6,1.4,3.1,2.9,3.9,5c-1.2,1.8-0.1,3.1,1,4.4c-0.3,0.4-0.5,0.7-0.9,1.1
	c-0.2,0.2-0.4,0.5-0.7,0.7c-4,2.8-6.4,6.1-3.2,11c-3.1,3.2-7,2.5-10.5,1.5c-1.3-0.4-2.5-0.3-3.7-0.4c-0.6-2,1-3,2.1-4.2
	c1.6-1.7,1.7-3.1-0.1-4.6c-1.7-1.5-3.1-4.6-6.1-1.9c-2.2,2-5.6,3.9-2.1,7.6c0.5,0.5,0.6,1.2,0.5,1.9c-4,3.1-8.7,3.1-12.7,0
	c4.1-5-0.2-8.1-2.6-11.7c0.4-0.8,0.8-1.7,1.1-2.5c2.4,0.1,3.7,2.1,5.1,3.6c2.6,2.7,4.3,1,6.2-0.8c2-1.9,3.1-3.6,0.6-6.2
	c-2.5-2.6-4.7-4.2-7.6-0.6c-0.8,1-1.9,1.9-3.4,1.6c-0.5-0.5-0.9-0.9-1.4-1.4c0.3-0.6-0.4,0,0.1-0.5c4.7-4.6,3.8-8.9-0.6-13
	c0.3-0.8,0.7-1.7,1-2.5c2.5-0.1,3.7,1.9,5.2,3.4c2.9,3,4.5,0.6,6.5-1.2c2.8-2.5,1.7-4.4-0.5-6.5c-2-2-3.7-3.1-6.2-0.5
	c-1.5,1.6-2.2,4.3-5.1,4.2c-0.3-1.1-0.6-2.3-0.9-3.4c0.3-0.4,0.5-0.9,0.8-1.3c4.1-5.8,4.1-5.8-0.9-11.4c-0.6-1.9,1.6-1.1,2-2
	c1.8-0.6,2.7,0.8,3.8,1.7c1.5,1.2,2.9,3.2,5,1.2c1.5-1.4,4.1-2.5,3.2-5c-0.8-2.3-2.8-4.1-5.1-5.1c-1.2-0.5-2.1,0.7-2.9,1.4
	c-1.5,1.2-2.5,3.2-4.8,3c-0.3-0.8-0.7-1.7-1-2.5c4.7-4.2,4.3-8.4-0.1-12.6c0.6-0.7,1.3-1.4,1.9-2.1c2.3-0.8,3.3,1.1,4.5,2.3
	c2.8,2.7,4.3,0.5,6.2-1.1c2-1.8,2-3.4,0.1-5.4c-3.7-3.9-3.9-4-7.8-0.6c-1.1,1-2.1,2.2-3.8,2c-0.3-0.8-0.6-1.7-1-2.5
	c4.6-4.2,4.4-8.4,0-12.5c0.3-0.8,0.6-1.5,0.9-2.3c2.6-0.4,3.7,1.8,5.3,3.2c3,2.8,4.3-0.2,6.1-1.7c1.9-1.6,2.7-3.1,0.6-5.4
	c-3.3-3.6-4.4-3.8-8.1-0.8c-1.1,0.9-2,2.3-3.8,1.7c-0.3-0.7-0.6-1.5-0.9-2.2c0.4-1.5,3.7-3.1,0-4.6c-2-0.3-1,1.2-1,1.8
	c-0.1,36.3,0,72.5-0.1,108.8c0,3.3,1.1,4.3,4.3,4.3c8-0.2,16-0.1,24,0c1.6,0,3.4-0.5,4.8,0.8c-11.3,0-22.6,0.1-33.9,0.1
	c0-10.1-0.1-20.3-0.1-30.4c0-24,0-47.9,0-71.9c0-1.8,0.1-3.7-0.8-5.4c0.2-0.4,0.5-0.9,0.6-1.3c0.7-2.9-1.3-7.2,1.1-8.4
	c3.3-1.6,7.6-0.9,11.4-1.2c0.2,0,0.5,0.4,0.8,0.6c0.9,0.9,2.1,1.6,2.8,2.7c1.5,1.7,3,3.2,4.7,4.7c1.2,1,2.3,2.1,3.3,3.3
	c0.9,1,1.8,1.9,2.8,2.9c3.5,3.5,7.6,2.7,9.4-2c0.5-1.3-0.1-2.2-0.8-3.1c-1.9-2.2-4.1-3.9-6.8-4.9c-1.6-1.5-0.8-2.6,0.6-3.6
	c1-0.6,2-0.8,3,0c1.6,0.6,2.8,1.9,3.8,3.2c2,1.6,3.8,3.5,5.8,5.1c1,0.9,1.5,2.1,2.5,3c2.7,2.4,5.2,5,7.9,7.4
	c1.8,2.6-0.1,3.9-1.8,5.3c-6.5,6.8-7.8,5.8,0.2,13.3c1.2,1,2.4,2.1,3.4,3.4c6.6,7.1,6.6,7.1,13.3,0c1-1.5,2.6-2.4,3.9-3.5
	c2.2-1.9,3.4-4.9,6.7-5.3c0.4,0.8,0.8,1.6,1.1,2.4c-4.5,4.2-4.9,8.5-0.1,12.8c-0.3,0.7-0.6,1.4-0.9,2.2c-2.6,0.6-3.7-1.7-5.2-3
	c-2.9-2.8-4.3,0-6.1,1.5c-2.4,2.1-2.1,4.1,0.1,6.3c1.9,1.9,3.6,2.8,5.8,0.4c1.7-1.8,3.3-3.7,5.3-5.2
	C135.5,501.7,136.1,507.6,133.8,513.6c-1.7-2.9-0.7-6.1-1.2-9.6c-2.7,1.7-4.2,3.3-1.4,5.9C132.4,511,133,512.3,133.8,513.6z"/>
<path class="st0" d="M297.9,564.7c1.1-2.1,3.1-1.7,5-1.9c1.3-0.1,2.4-0.5,0.7-1.9c-3-1.9-2.2-4.7-0.4-6.1
	c6.4-5.1,12.2-11.2,20.1-14.3c5-0.5,10-0.4,15-0.2c10.8,0.4,21.6-0.9,32.4-1c2.7,0,5.9-0.4,7.2,3c0.2,5.8,2,11.9-1.8,17.3
	c-0.4,0.9-0.3,1.6,0.9,1.7c1.5,0.2,3,0.1,4.5,0.1c47.1,0,94.2,0,141.4,0.1c2.5,0,5.9-1.5,7.1,2.4l0,0c-1.8,0.7-3.6,0.4-5.4,0.4
	c-49.4,0-98.8,0-148.2,0c-1.8,0-3.7-0.3-5.4,0.3C346.6,564.7,322.3,564.7,297.9,564.7z"/>
<path class="st10" d="M697.8,520.8c-32.5,0-65,0-97.4-0.1c-2.1,0-7,1.5-3.5-3.9c1.9-3.4,5.5-3.3,8.5-4.4c1.7-0.6,3.6-0.7,4.5-2.7
	c1.6-3.6-0.3-6.4-4.6-6.4c-9.9-0.1-19.9,0-29.8-0.1c-2.3,0-4.7,0.3-6.6-1.5c1.3-1.6,3.1-0.9,4.7-0.9c11.5-0.1,23,0.2,34.5-0.1
	c4.2-0.1,5,1.4,4.9,5.2c-0.2,8-0.5,6.4,6.4,7c7.5,0.6,13.3-2,18.2-7.3c1.6-1.7,3.3-3.3,5-4.9c2.1-2.7,5-3.5,8.3-3.5
	c13.6,0.1,27.2,0,40.8,0c2.2,0,4.3,0,6.1,1.6C697.8,506.2,697.8,513.5,697.8,520.8z"/>
<path class="st11" d="M697.8,498.8c-15.8,0-31.5,0.1-47.3,0c-2.9,0-5.6,0.3-8,1.9c5.5-5.2,3.9-12.4,5.2-18.8c0,3,0,5.9,0,8.9
	c0.4,0.1,0.7,0.3,1.1,0.4c3.3-5.4,6.5-10.8,9.9-16.1c4.9-7.6,11.9-11.4,21.1-10.3c8.3,1,14,5.5,17.2,13.2c1.5,3.7,0.7,7.5,0.9,11.3
	C698,492.5,697.8,495.7,697.8,498.8z"/>
<path class="st12" d="M152.8,190c1.9,7.7,1.9,15.5-0.1,23.2c-2.2,1.6-4.7,1.2-7.2,1.3c-17.4,0-34.8,0-52.2,0c-7.4,0-7.5,0.2-7.8,7.4
	c-0.1,2.1,0.2,4.4-1.6,6c-0.7,0.6-1.5,1.2-2.2,1.9c0.1-12.1,0.1-24.3,0.3-36.4c0.1-3.2-1.6-3.4-4-3.4c-7-0.1-7-0.2-7-7.3
	c0-3.3,0.2-6.7,0-10c-0.2-3.1,1-4.3,4-3.8c2.5,1.6,1.9-0.7,1.9-1.7c0.1-4.2,0.1-8.3,0-12.5c-0.1-2.7,0.8-3.9,3.7-3.9
	c21.1,0.1,42.2,0,63.4,0c1.1,0,2.4-0.1,2.9,1.3c-2.3,1.8-5.1,1.3-7.7,1.3c-17.5,0.1-35,0-52.5,0.1c-2.2,0-5.2-0.8-6.3,1.7
	c-1.4,3.2-1.3,7-0.1,10.3c0.9,2.5,3.7,1.8,5.8,1.8c18.5,0.1,37,0.1,55.5,0c1.8,0,3.7-0.3,5.4,0.5c0,3.6-4.2,1-5,3.3
	c-2.3,1.8-5.1,1.4-7.7,1.4c-17.3,0-34.6,0-51.9,0.1c-2.4,0-5.6-1-6.9,1.6c-1.6,3.1-1.3,6.9-0.2,10.2c0.9,2.6,3.6,1.9,5.7,1.9
	c13.6,0.1,27.3,0,40.9,0c4.7,0,9.3,0,14,0c2.2,0,4.4-0.1,6.2,1.5c1.7,1.9,4,0.8,6,1.1C149.6,189.2,151.5,188.2,152.8,190
	c-2.3,1.9-5,1.5-7.6,1.5c-17.4,0.1-34.9,0-52.3,0c-7,0-7.3,0.3-7.3,7.3c0,11.5-0.8,10.4,10.5,10.4c14.6,0,29.2,0,43.9,0
	c12.6,0,11.3,1,11.4-11.1C151.4,195.4,150.8,192.5,152.8,190z"/>
<path class="st7" d="M88.7,321c-1.7-7.3-0.3-14.7-0.8-22c0.1-7.1,0.1-14.2,0.2-21.3c3.4,0,6.9-0.3,10.3-0.1c3.1,0.2,3.8-1.1,3.9-4
	c0.1-4.5-1-9.1,0.6-13.6c3.1,5.7,1.4,11.6,1.1,17.5c-0.6,12.9-1.3,25.8,0.6,38.7c-0.8,4-3.1,2.2-4.6,0.9c-2.7-2.4-4.5-1.8-6.4,0.9
	C92.5,319.5,91.4,321.7,88.7,321z"/>
<path class="st13" d="M160.9,109c0,1.4,0,2.8-0.1,4.1c-5.3,5.9-5.4,6-11.9,0.6c-18.5-15.4-34.8-32.9-49.3-52.1
	c-1.9-2.6-2-3.9,0.8-5.8c12.1-8.3,24.1-16.7,35.9-25.3c3-2.1,4.4-1.5,6.3,1.2C154,47.2,167.3,61,182.1,73.2c3.5,2.9,5.5,5.3,2.7,9.6
	c-0.9,1.2-2.1,1.2-3.4,0.8c-0.1-0.1-0.4-0.2-0.4-0.3c2.6-5.9-2.3-7.9-5.6-10.8c-12.3-10.5-23.1-22.5-33-35.2
	c-2.7-3.4-4.8-3.7-8.2-1.1c-8.9,6.7-18.1,12.9-27.3,19.3c-4.8,3.3-4.8,3.7-1.4,8.1c13.3,17.1,28,32.8,44.7,46.8
	c3.5,2.9,5.9,3.8,8.6-0.6C159.1,109.2,159.9,108.7,160.9,109z"/>
<path class="st14" d="M180.8,82.7c1.3,0,2.7,0.1,4,0.1c55.1,0,110.1,0.1,165.2,0.2c2,0,4,0.1,6,0.1c0,0.3,0,0.5,0.1,0.8
	c-2.7,0-5.5-0.1-8.1,0.2c-2.6,0.3,0.3,1.4-0.1,2.1c-1.1,0.9-2.5,0.8-3.8,0.8c-56-0.7-111.9-0.1-167.9-0.4c-4.3,0-8,2.1-12,2.8
	c-0.4-0.4-0.8-0.9-1.1-1.3c-0.4-3.2,2-4.5,4.3-5.3C171.7,81.2,176.3,80.6,180.8,82.7z"/>
<path class="st15" d="M490.9,101.7c-1.5-0.1-2-1.2-2.6-2.2c-4.3-7.1-8.4-14.3-12.8-21.5c-1.2-2-0.8-3.3,1.1-4.5
	c9.8-6.4,18.9-13.6,27-22.1c1.7-1.7,2.9-1.6,4.6-0.1c6.1,5.6,12.3,11.2,18.5,16.8c1.4,1.3,2,2.6,0.4,4.2c-10.5,11-22.2,20.6-35,28.8
	C491.7,101.4,491.2,101.6,490.9,101.7z"/>
<path class="st12" d="M75,248.9c-2.3-5.2-0.7-10.7-1-16.1c-0.1-2.1,1.9-1.9,3.4-1.9c21,0,42,0.1,63,0c2.9,0,3.6,1.2,3.7,3.9
	c0.6,15.1,0.7,15.1-14.4,15.1c-12.2,0-24.3,0-36.5,0c-1.7,0-3.7-0.8-5.1,1c-0.1,8.6-0.2,17.2-0.3,25.8c-1.5-7-0.5-14.1-0.6-21.2
	c0-3.6-0.8-5-4.7-4.8c-3.2,0.1-6.6,1.1-9.6-0.8C73.6,249.6,74.3,249.3,75,248.9c2.2-1.9,5-1.6,7.6-1.6c17.1,0,34.3,0,51.4-0.1
	c2.4,0,5.6,1,6.7-1.9c1.2-3.2,1.3-7,0-10.3c-0.9-2.2-3.5-1.5-5.4-1.5c-14-0.1-28,0-42,0c-3.8,0-7.7,0.1-11.5,0
	c-3.8-0.1-5.4,1.4-5.4,5.3C76.5,242.2,77.4,245.8,75,248.9z"/>
<path class="st16" d="M530,563.9c-1.8-1.9-4.1-1-6.1-1c-48.8,0-97.6,0-146.4,0c-1.8,0-3.6,0-5.8,0c0.4-2.3,1.8-3.3,3.5-4
	c2,1.8,4.4,1.3,6.7,1.3c28.1,0.1,56.1-0.2,84.2,0.2c19.2,0.1,38.4,0,57.6,0.1c2.4,0,5-0.5,7.2,1.3c0.7,0,1.5,0,2.2,0
	C533.5,564.6,531.3,563.6,530,563.9z"/>
<path class="st17" d="M257.1,44.1c0.7,0.4,1.5,0.9,2.3,1.5c4,3.4,8.1,6.8,12,10.3c1.1,1,3.1,2,1,3.9c-1.6,1.5-3.1,4.1-5.7,1.8
	c-4.5-3.9-8.9-7.9-13.3-11.9c-0.8-0.7-1.3-1.6-0.3-2.5C254.2,46.2,255.1,44.7,257.1,44.1z"/>
<path class="st17" d="M479.8,19.9c-0.2,0.4-0.5,1-0.9,1.4c-4.3,3.8-8.8,7.5-13.1,11.3c-2.7,2.4-3.7-0.3-5.2-1.5
	c-2.1-1.6-0.8-2.8,0.5-3.9c4-3.7,8-7.3,12-11c1.2-1.1,2.5-1.7,3.9-0.5C478.2,16.8,479.7,17.7,479.8,19.9z"/>
<path class="st16" d="M370.9,564.6c1.2-1.2,2.8-0.8,4.3-0.8c51.1,0,102.2,0,153.3-0.1c0.5,0,1,0.1,1.5,0.1c-1.8,1.2-3.9,0.9-5.8,0.9
	c-50.4,0-100.8,0-151.3,0C372.2,564.8,371.6,564.7,370.9,564.6z"/>
<path class="st17" d="M337.5,0c1.8-0.3,2.5,1,3.1,2.4c1.9,4.4,3.7,8.9,5.7,13.2c1.1,2.5,0.4,4-2.1,5c-2.4,1-4,0.5-5-2.1
	c-1.6-4.3-3.6-8.5-5.4-12.8C332.5,2.7,334,0.2,337.5,0z"/>
<path class="st18" d="M136,564.7c1.4-1.3,3.2-0.8,4.8-0.8c38.5,0,76.9,0,115.4,0c1.6,0,3.4-0.5,4.8,0.8
	C219.3,564.7,177.6,564.7,136,564.7z"/>
<path class="st19" d="M499.9,143.9c0-2.3,0-4.7,0-7c0.5-1.3-0.4-2.9,1-3.9c0,6.3,0,12.6,0,18.9c0,2.1,0,4-2.9,4.1
	c-2.5,0.1-2,2.1-2.1,3.7c-0.5,4.4,1,8.9-0.9,13.2c-0.5-0.4-0.9-0.8-1.1-1.4c-1-4.3-0.5-8.6-0.4-12.9c0-0.8,0-2,0.5-2.4
	C498.7,153.5,497.7,148,499.9,143.9z"/>
<path class="st20" d="M46.2,243c1.8,0.1,3.2,1.1,3.4,2.5c0.3,1.9-1.2,3-3,3.2c-1.6,0.1-2.4-1-2.5-2.4
	C43.9,244.6,44.6,243.5,46.2,243z"/>
<path class="st20" d="M605.7,61.2c-0.1,1.7-1.1,2.9-2.6,3.2c-1.7,0.3-2.8-1.1-3.1-2.5c-0.4-1.8,0.7-2.8,2.4-3
	C604.2,58.7,605.3,59.5,605.7,61.2z"/>
<path class="st20" d="M50,34.9c-1.6-0.1-2.7-0.7-2.9-2.3C47,30.8,48.2,30,49.9,30c1.5,0,2.7,0.6,2.8,2.2
	C52.9,34.1,51.6,34.8,50,34.9z"/>
<path class="st12" d="M73,230.1c0,6.6-0.1,13.2-0.1,19.9C71.7,243.3,71.5,236.7,73,230.1z"/>
<path class="st12" d="M76,150.1c0,4.8,0.1,9.5,0,14.3c0,1.5,0.6,3.3-1.1,4.5c0.1-4.7,0.1-9.5,0.3-14.2
	C75.2,153.2,74.4,151.4,76,150.1z"/>
<path class="st21" d="M532.9,560.8c-1.1-3.8-3-7.7,1.2-10.8C531.8,553.4,533.6,557.3,532.9,560.8z"/>
<path class="st22" d="M164.1,89.3c2.7-3.2,6.1-4,10.2-4c55.5,0.1,111.1,0.1,166.6,0.1c2.3,0,4.6,0.5,6.9,0.7c3.2,2.6,4.2,6,4.1,10.1
	c-0.1,35.3-0.1,70.6-0.1,105.9c0,8.3-2.8,11.1-11.1,11.1c-19.6,0-39.3-0.1-58.9,0.1c-3.5,0-4.6-0.9-4.5-4.4
	c0.2-19.1,0.1-38.3,0.3-57.4c0-2.8-0.7-3.3-3.3-3.3c-10.8,0.2-21.6,0.2-32.5,0c-3.4-0.1-4.5,1.2-5.2,4.3
	c-4.4,18.8-9.2,37.4-13.7,56.2c-0.9,3.6-2.3,4.7-6,4.6c-14.3-0.2-28.6-0.1-43-0.1c-8.2,0-11-2.8-11-11.2c0-35.1,0-70.3,0-105.4
	C163.1,94.1,163.4,91.7,164.1,89.3z"/>
<path class="st23" d="M560.8,259.8c0,6,0,12,0,18c-4.8,2.7-9.8,1.6-14.7,1c-2.6-1.2-2.5-3.6-2.7-5.9c0-0.7,0-1.3,0-2
	c0.1-11.4-0.3-9.3-9.6-9.7c-2.5,0.2-4.9,0.1-7.4,0c-23.5,0.3-47.1,0.1-70.6,0.1c-9.4-0.5-10.7,0.3-13.7,9.3
	c-2.5,7.3-2,15.1-2.7,22.7c-0.2,2.5,0.2,5-0.3,7.5c-0.3,1.4,0,3.7-2.8,2.6c-1.4-3.9-4.6-4.1-8.1-4.1c-20.2,0.1-40.4,0-60.6,0
	c-2.7,0-5.3,0-7.9-0.2c-1.5,0-3.1-0.1-4.3-1c-7.5-5.1-17-7.4-22.4-15.6c1.1,2.2,4.7,3.2,3.7,6c-0.8,2.2-4,2-6.2,2.5
	c-7.2,1.5-13.1,5.5-18.6,10.1c-1.9,1.6-3.6,3.5-6.2,3.9c-6.8,0.5-13.6,0.2-20.4,0.2c-4.2,0-8.3,0.2-12.4,0.9
	c-3.2-1.8-1.1-4.1-0.1-5.8c3.9-6.7,7.6-13.6,11.9-20.1c3.1-4.7,5.9-9.6,8.8-14.5c2.6-4.4,2.4-4.7-2.9-4.7c-4.8,0-9.6,0-14.4,0.1
	c-2.9,0.1-5.8,0.1-8.7,0c-23.4,0.4-46.9,0.1-70.3,0.2c-3,0-6,0.1-9,0c-4.1-0.2-5.7,1.6-5.6,5.6c0.1,3.1,0.5,6.3-1,9.3
	c-0.4,0.6-1,0.8-1.6,0.5c0-4.3,0.2-8.7-0.2-13c-0.3-4,1.1-5.1,5-5c13.5,0.2,27,0.1,40.5,0.1c104.8,0,209.5,0,314.3,0
	c6.3,0,6.3,0,6.3,6.5c0,0.5,0,1,0,1.5c0,10.7,0,10.6,10.5,10.3c3.3-0.1,3.7-1.4,3.8-4.2C560.3,268.7,559.2,264.2,560.8,259.8z"/>
<path class="st22" d="M274.9,150.6c-6.6,26.9-13.1,53.2-19.6,79.5c-1,4.1-2,8.1,1.4,11.7c2.1,2.2,4.7,3,7.7,2.9
	c10.7-0.1,21.3-0.1,32,0c1.2,0,3.3-1,3.5,1.4c0.2,2.5-1.8,2.3-3.5,2.3c-23.5,0-47,0.1-70.5-0.1c-7,0-9.6-3.7-7.9-10.5
	c6.9-28.1,13.8-56.2,20.7-84.3c0.4-1.4,0.3-3.1,2.4-3.1C252.3,150.6,263.4,150.6,274.9,150.6z"/>
<path class="st24" d="M305.8,248.9c-2.3,0.5-4.4,0.8-3.8-2.8c0.5-3-1.3-3.6-3.8-3.5c-4.4,0.1-8.8,0.1-13.2,0.1
	c-3.8-1.2-7.6-2.4-11.3-4.1c-1.9-0.9-4-2.1-3.7-4.3c0.7-6.3,0.7-12.9,4.8-18.4c19.4-0.1,38.9-0.2,58.3-0.3c5.8,0,11.6-0.1,17.5-0.1
	c9.8-0.1,13.1-3.4,13.3-13.2c0-0.8,0.1-1.7,0.2-2.5c1.4-1.5,3.3-1.6,5.1-1.6c20-0.1,39.9-0.2,59.9,0.1c0.7,0,1.3,0.1,2,0.3
	c1.6,0.6,3.1,1.6,1.1,3c-5.1,3.5-8.5,8.5-12.2,13.2c-4,7.6-8,15.3-12,22.9c-1.6,1.5-3.4,0.8-5.2,0.4c-12-3.1-23.9-6.6-35.9-9.3
	c-0.8-0.2-1.5-0.6-2-1.3c5.2-7.5,6.2-11.6,4.4-19.4c1.8,7.3,0.4,13.2-4.5,18.8c-2.3,1.4-4.5,0.1-6.7-0.3c-5.3-1.2-10.6-2.7-16.2-2.6
	c-12.6,0.3-22.4,5.6-29.4,16C310.3,243.1,309,246.7,305.8,248.9z"/>
<path class="st22" d="M180.8,82.7c-3,0.1-5.9,0.1-8.9,0.3c-3.8,0.2-7.1,1.4-9,5c-3,3.5-1.8,7.8-2,11.7c-0.1,3.1-0.1,6.2-0.1,9.3
	c-5.7,7-5.9,7.1-12.7,1.3c-16.9-14.5-32-30.6-45.5-48.3c-1.8-2.4-1.8-3.7,0.8-5.5c10.9-7.4,21.6-15,32.3-22.7c2.5-1.8,3.9-2,6,0.8
	c11.3,14.9,23.8,28.7,38.6,40.3C184,77.8,183.8,79.9,180.8,82.7z"/>
<path class="st7" d="M164.9,377.9c0.1-33.8,0.1-67.6,0.2-101.3c4.9,1.6,9.8,1.1,14.8,0.3c0.3,0,0.7,0,1,0c0.7,1.2,0.7,2.5,0.7,3.9
	c-0.1,33.3,0,66.6,0,99.9c0,0.7-0.1,1.3-0.1,2c0.2,9.7,0.2,19.4,0,29c0.2,7.1,0.2,14.1,0.1,21.2c0.1,8.1,0.1,16.2,0.1,24.3
	c0,2.3,0.2,4.7-1.3,6.7c-5.1,2-10.2,2.4-15.3-0.2c-0.5-14.7,1.6-29.3,0.8-44c-1.7-10-2.5-20.2-2.4-30.4
	C163.5,385.5,162.3,381.4,164.9,377.9z"/>
<path class="st25" d="M365,227.3c13.5,2.5,26.7,6.7,40,10.1c1,0.2,2,0.3,2.9,0.5c10.9,3.4,21.9,6.8,32.8,10.1c0,0.3,0,0.5,0.1,0.8
	c-1,0.1-2,0.3-3,0.3c-43.1,0-86.3,0-129.4,0c-0.8,0-1.7-0.1-2.5-0.2c5.9-13,14.7-22.8,29.4-25.6c8.9-1.7,17.4,0.7,25.9,2.9
	c1.1,0.3,2.3,0.5,3.4,0.7c0.2-0.1,0.5-0.1,0.7-0.2C365.2,226.9,365.1,227.1,365,227.3z"/>
<path class="st6" d="M419.9,214.9c1.8-7.2,7.3-11.2,12.9-15c3.3-3.5,7.8-3,12-3.4c1.8-0.2,3.6,0,5.4,0.1c1.1,0,2.2,0.1,3.3,0.4
	c8.6,3.2,14.6,9,15.9,18.3c1.3,9.2-2.5,16.9-9.1,23.2c-1.3,1.2-2.9,1.5-4.6,1.5c-9.6,0.2-19.4,1.1-27.8-5.3
	C421.5,229.8,420.1,222.6,419.9,214.9z"/>
<path class="st26" d="M458.1,248.6c-0.7,0.2-1.5,0.3-2.2,0.5c-1.4,0-2.2-0.3-1.4-2c0.9-2,2.7-3.7,2.5-6.1c0.4-0.5,1-1,1.7-1
	c4-0.1,7.8-0.1,10.7-3.8c3.4-4.5,5.7-9.3,6.2-15c0.6-5.5-1-10.5-3.5-15.3c-0.9-1.8-3.1-4.1,0.2-5.9c11.9-0.7,23.8-1.6,35.7,0.6
	c1.5,1.6,1.6,3.6,1.5,5.6c-0.1,5.1,0,10.3,0,15.4c-0.1,3.5-1.4,5.5-5.2,6c-5.8,0.8-5.8,1.1-5.9,6.9c-0.1,2.8,0.5,5.6-0.8,8.3
	c-1.6,1.9-3.9,1.8-6,1.7C480.1,243.6,469,245.2,458.1,248.6z"/>
<path class="st27" d="M415.8,174.1c4.8,5.3,10.1,9.9,16.3,13.6c-0.9,3.7-4.1,2.8-6.4,2.8c-14.3,0.2-28.6,0.1-42.8,0.1
	c-4.8,0-9.6-0.2-14.4,0.2c-1.5,0.1-3,0.3-4.3-0.8c-0.1-1.8-0.2-3.6-0.1-5.5c0.2-5.1-2.3-12.2,0.9-14.9c6.8-5.8,12-13.9,21.1-16.6
	c0.8,5.1,0.1,10.3,0.3,15.4c0.3,9.2,7.4,14.2,16.1,11C406.9,177.8,411,175.1,415.8,174.1z"/>
<path class="st28" d="M450.9,197.7c-6.1,0-12.2,0.4-18.1,2.2c-22.9,0-45.9,0-68.8,0c0-1.7,0-3.3,0-5c1.6-2,3.9-2.5,6.3-2.5
	c25.2-0.1,50.5-0.5,75.7,0.2c2.1,0.4,3.7,1.7,4.8,3.5C451.2,196.6,451.2,197.2,450.9,197.7z"/>
<path class="st29" d="M470.6,201c6.2,9,8.6,18.5,4.1,29c-3.5,8.2-8,11-17.9,10.9c-0.4-0.3-0.7-0.6-1.1-1
	c9.1-4.4,12.4-12.8,12.7-21.9c0.3-8.8-4.8-15.2-12.9-18.9c-0.7-0.3-1.4-0.9-2.1-1.3c2.7-3.7,6.7-2.7,10.4-2.9c0.8,0.2,1.5,0.5,2.1,1
	C467.5,197.6,470.2,198.2,470.6,201z"/>
<path class="st30" d="M447.9,193.9c-23.7,0-47.3,0-71,0c-4.3,0-8.6-0.2-12.9,1c0-1.7,0-3.3,0-5c7-1.7,14.1-0.9,21.2-1
	c13.7-0.1,27.5,0,41.2-0.1c1.9,0,4,0.8,5.5-1.2c4.5,1.5,9,1.8,13.7,1.2c2.2-0.8,3.7-0.6,3.5,2.3
	C449.1,192.2,448.8,193.2,447.9,193.9z"/>
<path class="st31" d="M415.8,174.1c-5.1,3.8-10.8,6.5-17,7.6c-7.3,1.3-13.7-4.2-13.8-11.6c-0.1-5.7-1.5-11.6,1-17.1
	c1-0.1,1.9-0.2,2.9-0.3c2.2,2.6,0.9,5.7,1.1,8.6c0.4,8.7,6.9,13,15.1,9.6c2.3-0.9,4.6-1.9,6.9-2.9
	C413.1,170.1,414.4,172.1,415.8,174.1z"/>
<path class="st2" d="M103.8,317.9c6.1,7.6,14,13.3,21,19.8c5.4,5,5.5,4.9,1,10.1c-1,3.2-3.5,5.2-5.9,7.2c-5.9,5-10.8,11.2-18,14.7
	l0,0.1c-4,4.3-8.2,8.4-14,10.3c-0.3,0.3-0.7,0.5-1,0.8c-3.1,1.9-6.3,3.7-9.3,5.8c-2.3,1.6-3.9,1.2-5.3-1.1
	c-6.4-10.7-12.7-21.5-19.2-32.1c-1.7-2.8-0.7-4.1,1.6-5.5c12.3-7.7,23.5-16.8,33.9-26.9c0.4-0.3,0.8-0.5,1.2-0.9
	c2.2-2.2,4-5.4,6.7-6.4C99.4,312.6,100.6,317.6,103.8,317.9z"/>
<path class="st32" d="M447.9,191c1-2.5-1-1.9-2.2-2.1c7.5-3.1,14.4-7.4,21.3-11.7c6.5-4.1,13.4-7.4,21.3-7.4c1.3,0,2.3-0.2,2.5-1.8
	c2.6-0.1,2.7,2.4,3.9,3.8c0.1,0.4,0.2,0.8,0.3,1.2c0.5,2.3-1.8,5.4,1.9,6.8c0.6-0.2-0.2,0,0.4-0.2c9-3.3,12.5-0.8,12,8.5
	c-0.1,1-0.2,2-0.5,2.9c-1.8,2.6-4.5,3.3-7.4,3.4c-1.5-1.4-2.9-2.2-5.2-1.6c-2.2,0.5-4.9,1.5-6.5-1.4c0.3-0.6,0.8-0.9,1.5-0.8
	c-0.3-0.6-0.6,0-0.9,0c-10.6-0.2-21.1-0.1-31.7-0.1c-2.8,0-5.6,0.1-8.3,1.1C449.4,191.6,448.6,191.5,447.9,191z"/>
<path class="st22" d="M468.1,443c5.8-1,11.6-0.3,17.4-0.3c13.5,0,27,0.1,40.4-0.1c3.3,0,4.9,0.8,4.7,4.4c-0.2,4.5-0.2,9,0,13.5
	c0.1,3-0.9,4.1-4,4.1c-5.8-0.2-11.6-0.1-17.5,0c-1.5,0-3.3-0.7-4.6,0.9c1.1,2,3,1.2,4.4,1.3c5.8,0.1,11.6,0.2,17.5,0
	c2.9-0.1,4.2,0.8,4.2,3.9c-0.1,9.6-0.1,19.3,0,28.9c0,2.7-1.1,3.4-3.6,3.4c-5.6-0.1-11.1,0-16.7,0.6c3.2,2.4,6.8,1.4,10.1,1.5
	c10.1,0.1,10.1,0.1,10.1,9.9c0,9.3-0.2,18.6,0.1,27.9c0.1,3.8-0.8,5.6-4.9,5.1c-1.8-0.2-3.9-0.7-6,1.1c1.8,1.6,3.9,1.1,5.6,0.9
	c4-0.4,6,0.9,5.4,5.2c-0.2,1.5,0,3,0,4.5c-1,2.3-3.1,1.6-4.8,1.6c-17.6,0-35.3,0-52.9,0c-5.7,0-6.5-0.8-6.6-6.7
	c-0.1-13.6,0-27.3,0-40.9c0-12.1,0-24.3,0-36.4c0-7.5,0.8-8.2,8-8.2c-7.1-0.4-8.4-1.5-7.9-6.3c0.3-3.1,1.8-4.9,5.1-4.9
	c4.8,0,9.6,0,13,0c-3.2,0-7.8-0.1-12.4,0c-3.7,0.1-5.7-1.7-5.7-5.3C466.6,449.3,465.4,445.8,468.1,443z"/>
<path class="st7" d="M545.9,439.9c0-53.9-0.1-107.9-0.1-161.8c5-0.1,10-0.2,15-0.2c0,54,0,108,0,162.1
	C555.8,439.9,550.9,439.9,545.9,439.9z"/>
<path class="st31" d="M568.9,501.8c12.8,0,25.6,0,38.4,0.1c2,0,4.9-0.7,4.5,2.8c-0.4,3,2.3,7.4-3,8.6c-4.1,0.9-8.1,1.8-11.8,3.5
	c-0.6,0.1-1.4,0.1-1.9,0.5c-7.8,6.3-17,5.8-26.2,5.5C568.4,515.8,568.3,508.8,568.9,501.8z"/>
<path class="st22" d="M587.4,478.9c-5,0-10-0.1-15,0c-2.7,0.1-3.7-0.6-3.9-3.5c-0.6-14.5-0.7-14.5,13.9-14.5c6.5,0,13,0.1,19.5,0
	c2.7-0.1,3.8,0.6,3.9,3.6c0.6,14.5,0.7,14.5-13.9,14.5C590.4,478.9,588.9,478.9,587.4,478.9z"/>
<path class="st33" d="M584.7,481.1c1.2,0,2.3-0.1,3.5,0c4.1,0.3,9.9-1.9,11.9,1c2.6,3.8,0.7,9.6,0.8,14.6c0.1,2.1-1.3,2.4-2.9,2.4
	c-8.8,0-17.6-0.1-26.4,0c-2.6,0-2.9-1.2-3-3.4c-0.9-14.7-0.9-14.7,13.7-14.7C583,481.1,583.9,481.1,584.7,481.1z"/>
<path class="st21" d="M468.1,443c0,0.2,0,0.3,0,0.5c0.2,13.3,0.2,13.2,13.7,13.3c3.5,0,7.2-0.7,10.8,0.6c-0.6,2.4-2.4,1.6-3.7,1.6
	c-5.7,0.1-11.3,0.2-17,0c-3.7-0.1-3.9,2-3.9,4.7c0,2.8,0.4,4.4,3.8,4.2c2.8-0.1,5.9-0.9,9,1.1c-3.1,2-6.1,1.6-8.9,1.2
	c-2.9-0.4-3.9,0.7-3.9,3.5c0.1,27.6,0,55.2,0,82.9c0,2.5,0.5,4.1,3.5,4.1c18.6-0.1,37.3,0,55.9,0c1.2,0,2.3-0.3,3.2-1.1
	c0,0.7,0,1.3,0,2c-21.7,0-43.4,0-65.1,0c-2.3-2.6-0.2-5.4-0.2-8.1c-0.2-9-0.1-17.9-0.1-26.9c0-26.7,0-53.5,0-80.2
	c0-1.8-0.3-3.7,0.3-5.4c3.4-2.7,7.9,0.7,11.3-2.1c1.5,2.3-0.6,1.9-1.7,2c-2.1,0.1-4.3,0-6.4,0.1C467.4,441,466.6,441.6,468.1,443z"
	/>
<path class="st34" d="M522.9,435.8c-10.3-3.6-20.6-7.3-31-10.9c-1.5-3.7,1.8-4.9,3.7-6.6c1.8-1.7,3.7-0.8,5.5,0.3
	c7.1,4.9,14.5,9.3,21.7,14.1c1.2,0.8,2.8,1.5,1.8,3.3C524.2,436.6,523.4,436.3,522.9,435.8z"/>
<path class="st35" d="M522.9,435.8c2.1-0.5,0.8-1.2,0-1.7c-7.7-4.9-15.3-9.9-23-14.7c-3.1-1.9-6.3,0.4-8,5.5c-2-0.7-4.3-0.5-6-2
	c3.6,0.4,5.1-2.6,7.1-4.6c2.7-2.8,5.1-3.4,8.5-1c9.1,6.3,18.4,12.3,27.6,18.4C527.1,438.2,525,437.7,522.9,435.8z"/>
<path class="st36" d="M591.8,180.1c0,8.2,0,16.5,0,24.7c-1.7,1.8-4,1.5-6.1,1.5c-23,0-45.9,0-68.9,0c-6.5,0-7.4-1-7.4-7.6
	c0-4.7-0.1-9.3,0-14c0.1-4.8,1.2-6.1,5.8-6.2c20-0.2,39.9-0.4,59.9,0.2C580.6,178.9,586.3,178.6,591.8,180.1z"/>
<path class="st31" d="M497.9,177.8c-1.7-6-0.4-12.1-0.7-18.2c-0.1-1.8,1.3-2,2.7-2.1c3.3-0.1,6.6-0.2,10-0.2
	c21.3,0,42.5,0.1,63.8-0.1c4,0,5.2,1.2,5,5.1c-0.3,4.8,0,9.6,0,14.5c-1.3,2.9-3.9,2.1-6.1,2.1c-18.4,0.1-36.8,0-55.2,0
	c-5,0-9.9,0.3-14.9,0C501,178.8,499.3,179.2,497.9,177.8z"/>
<path class="st36" d="M591.7,207.2c0.5,6.4,0.4,12.9,0,19.3c-5.4,1.6-11,1.5-16.5,1.6c-19.4,0.4-38.9,0.2-58.3,0.1
	c-7,0-7.5-0.6-7.5-7.8c0-3.5,0-7,0-10.5c0-2.7,1.3-4,3.9-4.1c1.2,0,2.3,0,3.5,0c22.9,0,45.9,0,68.8,0
	C587.7,206,590,205.2,591.7,207.2z"/>
<path class="st36" d="M543.9,155.1c-12.3,0-24.6-0.1-37,0.1c-3.3,0-4.5-1-4.3-4.3c0.2-3.8,0.3-7.7,0-11.5c-0.3-3.8,1.1-4.8,4.8-4.8
	c22.3,0.2,44.6,0.1,66.9,0.1c9.6,0,9.6,0,9.6,9.7c0,10.7,0,10.7-10.7,10.7C563.5,155.1,553.7,155.1,543.9,155.1z"/>
<path class="st19" d="M591.7,207.2c-25.5,0-51,0.1-76.4-0.1c-4.1,0-5.2,1.2-4.8,5.1c0.4,3.3,0.4,6.7,0,10c-0.4,3.6,0.8,4.6,4.3,4.5
	c11-0.2,22-0.1,33-0.1c14.7,0,29.3,0,44-0.1c-1.9,2.5-4.6,1.2-6.9,1.2c-3.1,0-4.1,1.1-4,4.1c0.2,4.8,0,9.7,0.1,14.5
	c0.1,2.5-0.9,3.6-3.5,3.6c-25.3-0.1-50.6,0-75.9,0c-1,0-2-0.1-2.6-1.1c2.3-1.9,5-1.5,7.6-1.5c21.4,0,42.9,0,64.3,0
	c7,0,7.3-0.3,7.3-7.3c0.1-9.5,0.1-9.5-9.5-9.5c-19.5,0-38.9,0-58.4,0c-9.9,0-9.8,0-9.9,9.7c0,2.9,0.6,6-1.5,8.6
	c-0.8,0-1.5,0-2.3-0.1c-1.4-1.9-1.4-3.8-0.1-5.7c0.1-3.5,0.6-7,0.1-10.4c-0.6-4.9,1.8-6.9,6-6.5c4.8,0.4,5.4-1.9,5.3-5.9
	c-0.3-6.4-0.1-12.9-0.1-19.4c-1.9-3-2.1-5.9,0-8.9c0-0.2,0-0.3,0-0.5c0.2-11.2,0.2-11.2-11-11.7c0.3-0.7,0.7-1.3,1-2
	c24.9-0.1,49.7-0.1,74.6-0.2c2.1,0,4.3,0.5,6.3-0.9c0.4,2.6,2.5,1.9,4.2,2.1c2.9,0.4,6.2-1.2,8.9,1.1c-25.5,0-50.9,0-76.4-0.1
	c-3.6,0-5.1,0.8-4.9,4.7c0.3,5.1,0.3,10.3,0,15.5c-0.2,3.9,1.2,4.8,4.9,4.7c25.5-0.1,50.9-0.1,76.4-0.1
	C591.8,205.6,591.7,206.4,591.7,207.2z"/>
<path class="st37" d="M496.6,243.1c0,1.9,0.1,3.8,0.1,5.7c-12.9,0-25.7-0.1-38.6-0.1c7.8-4.5,16.2-6.2,25.2-5.7
	C487.7,243.1,492.1,243,496.6,243.1z"/>
<path class="st2" d="M165,463.8c5,0,10,0,15,0c2.1-1.8,4.6-1.5,7.1-1.5c8.2-0.1,16.4,0.2,24.6-0.2c8.1,0.4,16.3,0.4,24.4,0
	c8.3,0.5,16.7,0.1,25,0.2c9.6-0.1,19.3-0.1,28.9,0c6.1,0.1,7.3,1.3,7.5,7.3c0.1,3.7,0.1,7.3,0.1,11c0,3,1.2,4.7,4.4,4.6
	c1.2,0,2.3,0.1,3.5,0.1c4.2,0,6,2.2,6,6.2c0,6.8,0.2,13.6,0,20.4c-0.2,5.5-1.7,6.9-7.2,7.4c-7.1,0.6-7.1,1.2-5.7,8.4
	c2,10.5,1,21.2,0.6,31.8c0,0.8-0.6,1.5-1.2,2.2c-12.3,0.1-24.7,0.2-37,0.3c-3.5,0.6-7,0.3-10.4,0.2c-30.4-0.1-60.9,0.2-91.3-0.1
	c-1.7-1.3-1.5-3.2-1.6-5c-0.1-3.6,0.1-7.3-0.1-10.9c-0.2-6,0.5-12-1.6-18c-1.4-4.1-1.2-8.8,0.4-13.1c1.4-1.8,3.5-1.6,5.4-1.7
	c6.1-0.3,6.5-0.8,6.7-7c0.2-5.6-0.6-11.2,0.5-16.7c-1.5-0.9-3.2-0.5-4.9-0.6c-8.3-0.2-7.2,1.1-7.3-7.6c0-4.1,0.3-8.3-0.1-12.4
	c-0.4-4.2,1.2-5.8,5.3-5.2C163,464.1,164,463.9,165,463.8z"/>
<path class="st38" d="M101.9,369.7c8-7.3,15.9-14.6,23.9-21.9c3.9,7,10.1,11.8,16,16.8c6.8,5.8,14.6,10.3,23.2,13.3
	c-0.8,14,1.6,27.9,0.8,41.9c-0.6-0.6-1.2-1.2-1.8-1.8c0-3.2-0.3-6.4-0.3-9.7c0-1.4-0.5-2.6-2-3.1c-1.2-0.4-2.3,0.1-3,1.1
	c-0.9,1.2-0.6,2.4,0,3.7c0.8,1.6,3.2,2.6,2.1,5c-5.2-3.9-11.3-3-17.2-3c-11.5,0-23-0.1-34.5,0c-4.3,0.1-6.3-1.3-6.2-6.1
	c0.3-10.3,0.1-20.6,0.1-31C102.9,373.1,103.5,371.2,101.9,369.7z"/>
<path class="st39" d="M157,514.5c-1.4,7.8,1.4,15.2,1.6,22.8c0.3,8.1,0.1,16.2,0.1,24.4c-0.6,0.3-1.1,0.2-1.5-0.4
	c-1.7-4.9-0.7-9.9-0.8-14.8c-0.1-4.5-0.6-8.9-1.8-13.3c-0.7-2.4-2-3.5-4.5-3.8c-10.9-1.2-11.6-0.5-11.8,10.3
	c-0.2,7.3,1.1,14.6-0.9,21.8c-0.4,0.6-0.9,0.7-1.5,0.2c0.1-14.6,0.1-29.3,0.2-43.9c1.5-1.9,0.7-4.2,0.8-6.3
	c0.1-11.8,0.1-23.6,0-35.4c0-3.2,0.8-4.6,4.2-4.3c3.5,0.2,7,0.3,10.5,0c3.7-0.3,4.6,1.3,4.4,4.7c-0.2,2.6,0.2,5.3-0.1,8
	c-0.5,4.4,1.1,6.2,5.5,5.5c1.1-0.2,2.3,0,3.5,0.1c2.6,7.2,2.3,14.5,1.2,21.9c-0.2,1.7-1.4,2.5-3.2,2.5
	C161,514.3,159,514.1,157,514.5z"/>
<path class="st7" d="M88,380.1c4.7-3.4,8.9-7.5,14-10.3c0,23.8,0,47.5,0.1,71.3c0,3.6-0.8,5.3-4.7,4.9c-3.1-0.3-6.3-0.2-9.5-0.3
	c-0.7-10.6-0.7-21.2,0-31.8C87.9,402.6,87.9,391.4,88,380.1z"/>
<path class="st40" d="M126.8,484.5c-1.2,1.1-2.4,2.3-3.6,3.4c-3.1-2.2-5.5-5-7.7-7.9c-2.1,2.9-4.6,5.7-7.7,7.9
	c-0.9-0.9-1.9-1.8-2.8-2.8c0.2-1.1,1.1-1.6,1.8-2.3c5.8-5.7,5.7-6.7-1-11.5c-0.5-0.4-1.1-0.7-1.6-1.2c0.1-1.7,5.1-1.6,1.5-4.5
	c0.2-2.8,2.6-4.1,4.3-5.9c1.9-1.9,1.5-3.5-0.3-5c-1.8-1.5-3.2-4.3-6.2-2c-2.2,1.6-3.5,3.9-5.2,6c-1.6-0.4-1.1-2.6-2.5-3.1
	c-0.1-2.3,2-3.3,3.3-5.5c-3.2-0.1-6-0.3-8.8,0.6c-2.4-0.3-1.6-3.1-3.2-4c15.2,0,30.4-0.1,45.6-0.1c1.1,0,2.8-0.8,3.2,1.2
	c-0.8,0-1.5,0.2-1.9,1c-2.4,1.6-1.1,3.2-0.1,4.8c-0.3,0.7-0.6,1.4-0.9,2.2c-2.5,0.6-3.5-1.5-4.9-2.7c-2.7-2.5-4.4-0.8-6.3,1
	c-2,1.9-2,3.7,0,5.4c1.9,1.6,3.4,4.6,6.5,1.7c1.3-1.2,2.3-2.9,4.5-2.6c0.3,0.8,0.7,1.5,1,2.3c-0.4,0.6,0.2-0.1-0.3,0.4
	c-4.5,4.1-4,8.1,0.2,12.1c-0.3,0.8-0.5,1.6-0.8,2.4c-2.6,0.5-3.7-1.7-5.2-3.1c-2-1.9-3.5-1.3-5,0.4c-1.5,1.8-4.2,3.2-2,6.2
	C122.4,481.5,124.6,482.9,126.8,484.5z"/>
<path class="st41" d="M157,514.5c0.6-0.2,1.2-0.6,1.8-0.6c5.6-0.5,7.8-2.5,6.8-8.1c-1-5.3-0.2-10.6-0.7-15.8
	c1.4-0.1,2.7-0.2,4.1-0.3c2.5,4.1,0.9,8.6,1,12.9c0.3,11.9,0.1,11.9-12,11.9C157.7,514.5,157.3,514.5,157,514.5z"/>
<path class="st42" d="M160.7,414.9c-1.1-1.2-2.2-2.4-3.2-3.7c-1.5-1.9-1.6-4-0.1-5.9c1.3-1.7,3.1-2.4,5.3-1.7c2.5,0.7,3,2.5,2.6,4.6
	c-0.5,3.2,1.6,6.9-1.4,9.8C162.9,416.9,161.8,415.9,160.7,414.9z"/>
<path class="st43" d="M69.8,449.9c-0.6-1-1.2-2.1-1.7-3.1c5.3,0,10.6,0,15.9,0.1c-0.4,1.1-1.6,2.2,0.2,3.2c-0.7,3.8-3.8,5.6-6.4,7.9
	c-1-0.9-1.9-1.8-2.9-2.7c0.6-2.1,2.7-2.8,4-4.9C75.8,449.9,72.7,450.4,69.8,449.9z"/>
<path class="st5" d="M87.9,413.9c0,10.6,0,21.2,0,31.8c-1.7-1.6-1-3.8-0.9-5.7C87.4,431.3,85.8,422.5,87.9,413.9z"/>
<path class="st44" d="M382.9,91.9c-2.2-0.1-3.7-1.2-3.9-3.6c-0.2-2.4,1.3-3.7,3.5-3.9c2.3-0.2,3.8,1.2,3.9,3.5
	C386.6,90.1,385.4,91.6,382.9,91.9z"/>
<path class="st45" d="M371.6,86.3c1.4,5.2-9.9,9.1,1.6,13.6c-4.7,0.3-7.3-0.9-7.6-3.3C365,92.2,368.6,89.8,371.6,86.3z"/>
<path class="st46" d="M376.5,109.6c-3.4,5.9-7.8,5.9-10.9-0.1C369.5,111.9,373,112.9,376.5,109.6z"/>
<path class="st22" d="M141.9,187.8c-21.8,0-43.5,0.1-65.3,0.2c-2.9,0-3.6-1-3.7-3.8C72.5,171,72.4,171,85.5,171
	c18.8,0,37.6,0.1,56.3,0.1C141.9,176.7,141.9,182.3,141.9,187.8z"/>
<path class="st31" d="M83.9,227.9c0.1-3.3,0.4-6.7,0.2-10c-0.3-3.8,1.1-4.9,4.8-4.8c21.3,0.2,42.6,0.1,63.9,0.1
	c1.7,16.5,1.7,16.5-14.4,16.5c-16.5,0-33,0-49.5-0.1C87.1,229.7,84.7,230.9,83.9,227.9z"/>
<path class="st22" d="M146.9,167.8c-1.5,1.4-3.5,1-5.2,1c-19.6,0-39.3-0.1-58.9,0.1c-3.9,0-5.1-1-5.1-5c0.1-12.2,0-12.2,12.3-12.2
	c17,0,34,0,50.9,0c2,0,4,0.2,6,0.4C146.8,157.4,146.9,162.6,146.9,167.8z"/>
<path class="st47" d="M58,455.8c1.2,0,1.7-0.9,2.4-1.6c5.3-5.1,8.7-4.6,12.5,1.8c0.6,1.1,0.6,1.8-0.2,2.6c-0.2,0.2-0.5,0.5-0.7,0.7
	c-5.7,6.5-5.7,6.5-12,0.6c-0.6-0.5-1.3-0.8-2-1.2C56.7,457.8,56.7,456.8,58,455.8z"/>
<path class="st48" d="M59,535c1.6-1.4,3.4-2.7,4.7-4.3c1.8-2.1,3-1.7,4.8,0.1c6,5.8,5.8,8.3-1.3,12.9c-1.7,1.1-2.3,0.1-3.3-0.8
	c-1.9-1.8-3.9-3.6-5.8-5.4C58.5,536.7,58.8,535.8,59,535z"/>
<path class="st49" d="M58,517c1.5-1.6,3.2-3,4.4-4.7c2.5-3.3,4.8-3.5,7.2,0c1.2,1.7,4.6,3.1,3.7,4.8c-1.4,2.8-4.3,5-6.7,7.2
	c-1.3,1.1-2-0.5-2.8-1.2c-2-1.8-3.9-3.6-5.8-5.4C58.2,517.4,58.2,517.2,58,517z"/>
<path class="st50" d="M126.8,484.5c-4.9,0.2-7.5-4-8.4-6.9c-0.9-2.8,3.8-5.2,6.3-7.5c1.9-1.7,2.7,1.1,3.8,1.9c1.6,1.2,3,2.6,4.4,3.9
	c0,0.9-0.1,1.8-0.1,2.7C130.4,480.1,128.6,482.2,126.8,484.5z"/>
<path class="st51" d="M108,546.7c-0.1-1.2,6-7.7,7.3-7.8c1.1-0.1,7.5,6.1,7.7,7.4c0.2,1.7-4.5,6.3-6.7,6.5
	C113.8,553,108.1,548.8,108,546.7z"/>
<path class="st52" d="M58.1,496.1c1.7-1.6,3.6-3,5.1-4.7c2.1-2.6,3.4-1.9,5.5,0.1c5.9,6,5.8,7.6-1.2,12.5c-1.6,1.1-2.3,0.5-3.3-0.5
	c-1.7-1.6-3.4-3.1-5.1-4.7C58.7,497.9,58.4,497,58.1,496.1z"/>
<path class="st53" d="M58.1,476.1c1.6-1.4,3.3-2.7,4.7-4.4c2-2.4,3.4-2.6,5.8-0.1c5.8,6,5.7,7.6-1.2,12.5c-1.6,1.1-2.3,0.5-3.3-0.5
	c-1.7-1.6-3.4-3.1-5.1-4.7C58.5,478,57.8,477.2,58.1,476.1z"/>
<path class="st54" d="M105.5,544.4c-1,0-7.4-6.7-7.4-7.7c0-1,6.5-7.6,7.5-7.7c1.2-0.1,7.4,6.3,7.4,7.6
	C112.9,537.6,106.4,544.4,105.5,544.4z"/>
<path class="st55" d="M125.5,544.5c-0.9,0-7.5-6.7-7.5-7.7c-0.1-1.3,5.9-7.7,7.3-7.7c0.9,0,7.5,6.6,7.6,7.6
	C132.9,537.7,126.6,544.4,125.5,544.5z"/>
<path class="st56" d="M132.9,458.7c-0.6,0.5-1.4,0.9-1.9,1.5c-5.5,5.3-5.3,5.1-10.7,0c-2.3-2.2-2.4-3.6,0-5.9
	c5.4-5.2,5.2-5.3,10.4-0.2c0.7,0.7,1.5,1.2,2.3,1.8C133.5,456.8,133.4,457.8,132.9,458.7z"/>
<path class="st57" d="M72.3,551.7c-0.8-2.2-4.7-3.3-3.8-5.3c1.2-2.7,4.1-4.7,6.3-6.9c0.7-0.7,1.4-0.7,2.2-0.1
	c0.3,0.2,0.5,0.5,0.7,0.7c7.1,5.7,7.1,5.8,0.2,12.8C76,552.6,74,553.1,72.3,551.7z"/>
<path class="st55" d="M114.9,518.7c3.8,2.1,6.5,5,8,9.1c-1.5,1.3-3.1,2.5-4.3,4c-2.1,2.5-3.6,3-6.1,0.3c-6-6.5-5.7-4.6-0.1-10.4
	C113.3,520.7,114.1,519.7,114.9,518.7z"/>
<path class="st58" d="M125.9,524.7c-3.3-1.2-4.9-4.4-7.4-6.5c-1.2-1-0.9-2,0.1-2.9c0.5-0.4,0.9-0.9,1.4-1.4
	c5.1-5.3,5.1-5.3,10.3-0.2c0.8,0.8,1.7,1.5,2.6,2.2C132.1,520.1,127.9,521.5,125.9,524.7z"/>
<path class="st18" d="M136,561.7c0.3,0.2,0.6,0.2,0.9,0c7-2.4,14-2.3,21-0.1c0.3,0.1,0.6,0.2,0.8,0.1c23.2,0.1,46.5,0.1,69.7,0.2
	c10.8,0,21.6,0.1,32.4,0.1c-1.6,1.4-3.5,0.8-5.3,0.8c-38,0-76.1,0.1-114.1,0C139.7,562.8,137.5,563.7,136,561.7z"/>
<path class="st59" d="M108.9,512c2.1,1.1,3.6,2.7,4.7,4.7c-1.2,1.3-2.4,2.6-3.6,3.9c-4.7,4.8-4.7,4.8-9.1-0.8
	C101.9,515.5,104.7,513,108.9,512z"/>
<path class="st60" d="M95.9,534.7c-0.8-0.6-1.7-1-2.4-1.7c-7.1-7.5-7.2-4.4-0.1-12.2c2-2.2,3.2-1.5,4.7,0.3c-0.2,4.4-0.3,8.9-2.1,13
	C95.9,534.2,95.8,534.4,95.9,534.7z"/>
<path class="st61" d="M92.1,551.8c-4.6-5.6-4.6-5.6,0.9-10.9c0.8-0.8,1.5-1.9,2.8-1.9c2.2,4.7,3.2,9.3-0.7,13.6
	C94.1,552.4,93.1,552.1,92.1,551.8z"/>
<path class="st62" d="M95.1,552.7c1.5-4.5,0.5-9.1,0.7-13.7c0.4,0,0.7,0,1.1,0c0.8,0.9,1.6,1.6,2.2,2.6c1.3,1.9,5,3,3.5,5.7
	C101.1,549.9,99.2,553.1,95.1,552.7z"/>
<path class="st63" d="M57.1,520.1c0.2,0,0.3,0,0.5,0.1c7.7,5.6,7.7,5.6,0.1,13.4C56.3,529.1,57.3,524.6,57.1,520.1z"/>
<path class="st64" d="M57,500.9c3.1,0.3,4.2,3.3,6.3,5c1,0.8,0.5,1.8-0.3,2.5c-2,1.7-3.3,4.1-5.8,5.1C57.1,509.3,57,505.1,57,500.9z
	"/>
<path class="st65" d="M57.1,540c2.5,0.5,3.5,2.9,5.3,4.3c2,1.5,1.6,2.9-0.1,4.4c-1,0.9-1.7,2-2.6,3c-1.7,1.1-2.7,0.9-2.6-1.4
	C57.1,546.9,57,543.4,57.1,540z"/>
<path class="st66" d="M96,534c-0.3-4.5-0.9-9,2.1-13c0.3,0,0.5,0,0.8,0c0,0.2,0,0.3,0.1,0.5C103.6,528.2,103.4,529.2,96,534z"/>
<path class="st67" d="M108.9,512c-3,2.2-5.7,4.9-8,7.8c-0.6-0.1-1.2-0.1-1.8-0.2c-2.7-5.6,3.1-6.9,5.4-9.6
	C106.6,507.5,107.4,511.4,108.9,512z"/>
<path class="st68" d="M133.9,539.8c0,4.6,0,8.5,0,12.4C125.9,547.9,125.9,547,133.9,539.8z"/>
<path class="st69" d="M133.9,493.7c-0.3-0.2-0.6-0.3-0.8-0.5c-6.8-6.3-6.8-6.3,0.9-12.3C133.9,485.2,133.9,489.4,133.9,493.7z"/>
<path class="st70" d="M57,481c2.4,0.4,3.3,2.6,4.9,3.9c2.1,1.5,2.1,3.1,0,4.7c-1.7,1.3-2.7,3.4-4.9,4C57.1,489.4,57.1,485.2,57,481z
	"/>
<path class="st71" d="M57.1,461c0.2,0,0.4,0,0.5,0.1c7.4,6.5,8.5,5.4-0.4,12.5C57.1,469.4,57.1,465.2,57.1,461z"/>
<path class="st72" d="M133.9,520.3c0,4.5,0,8.3,0,12.3C125.8,527.6,125.8,527.1,133.9,520.3z"/>
<path class="st73" d="M133.8,473.5c-0.3-0.2-0.5-0.4-0.8-0.6c-6.3-6.1-6.3-6.1,0.9-11.9C134.2,465.2,134.4,469.3,133.8,473.5z"/>
<path class="st74" d="M121.7,552.6c3.2-5.3,3.8-5.3,7.1,0C126.4,553.1,124.2,553,121.7,552.6z"/>
<path class="st75" d="M105.4,552.9c-1-0.4-3.1,0.7-2.9-1.4c0.1-1.4,1.5-2.7,3.1-2.6c1.5,0.1,3,1.3,3,2.8
	C108.5,553.6,106.5,552.5,105.4,552.9z"/>
<path class="st76" d="M57.1,449c1.4-0.4,2.9-0.5,4.5,0.1c-0.9,2.2-2.3,3.7-4.5,4.5C57.1,452.1,57.1,450.6,57.1,449z"/>
<path class="st77" d="M133.9,453.7c-1.7-1-3.1-2.3-3.7-4.3c1.2-1.1,2.5-0.5,3.8-0.5C133.9,450.5,133.9,452.1,133.9,453.7z"/>
<path class="st78" d="M75.6,475.2c-0.9,0-7.7-7.3-7.6-8.2c0.1-0.9,6.9-7.5,7.7-7.5c1.1,0.1,7.8,7.2,7.7,8.1
	C83.3,468.4,76.3,475.2,75.6,475.2z"/>
<path class="st79" d="M103.3,467.1c0.1,0.9-6.8,8.1-7.8,8.1c-0.6,0-7.6-7-7.6-7.7c-0.1-0.8,6.3-7.7,7.3-7.9
	C96.2,459.4,103.2,465.9,103.3,467.1z"/>
<path class="st80" d="M76.1,519.2c1,0.1,7.4,6.9,7.4,7.7c-0.1,1.2-7.1,7.7-8,7.5c-1-0.2-7.2-7.2-7.1-7.9
	C68.5,525.6,75.4,519.1,76.1,519.2z"/>
<path class="st81" d="M77.8,457.9c1-3.5,4.8-4.8,6.4-7.9c4.9-0.1,7.8,4,8.7,7.2c0.8,2.7-3.9,5.2-6.4,7.4c-1.9,1.7-2.7-1-3.7-1.9
	C81,461.3,79.4,459.5,77.8,457.9z"/>
<path class="st82" d="M98.2,458.7c0.3-2.3,5.5-9,7.2-9c1.8,0.1,2.7,1.8,3.8,2.9c4.8,4.6,4.8,4.7-0.1,9.5c-1.2,1.2-2.3,2.3-3.5,3.5
	C103.2,463.3,100.7,461,98.2,458.7z"/>
<path class="st83" d="M85.7,485c-1,0-7.8-7-7.7-7.9c0.1-0.8,6.8-7.6,7.6-7.6c1,0,7.9,7.1,7.8,8C93.4,478.2,86.5,485,85.7,485z"/>
<path class="st84" d="M107.7,487.9c1.2-3.5,4.5-5.2,6.7-7.8c0.6-0.7,1.5-0.8,2.1,0c2.2,2.6,5.6,4.2,6.6,7.8
	c-2.8,2.1-4.7,6.8-7.9,6.5C112.6,494.2,110.2,490.2,107.7,487.9z"/>
<path class="st85" d="M104.1,470.2c4.8-0.7,6.3,3.7,8.4,6.2c2,2.3-1.8,3.6-3.1,5.2c-1.2,1.5-2.3,3.3-4.5,3.6
	c-0.1-0.1-0.2-0.3-0.3-0.4C97.8,477.5,97.8,477.5,104.1,470.2z"/>
<path class="st86" d="M83.5,507.1c0,0.8-6.8,7.6-7.7,7.6c-0.9,0-7.6-6.7-7.6-7.6c0-0.9,6.7-7.6,7.6-7.6
	C76.8,499.5,83.5,506.2,83.5,507.1z"/>
<path class="st87" d="M93.4,497.1c0,0.9-6.6,7.6-7.6,7.6c-0.8,0-7.6-6.7-7.6-7.5c0-0.8,6.7-7.7,7.5-7.7
	C86.6,489.5,93.4,496.2,93.4,497.1z"/>
<path class="st88" d="M85.5,524.6c-0.8-0.1-7.4-7-7.3-7.8c0-0.8,6.8-7.6,7.5-7.6c1.1,0,7.8,7,7.6,8C93.2,518,86.1,524.7,85.5,524.6z
	"/>
<path class="st89" d="M83.5,487.2c0,0.9-6.7,7.6-7.6,7.6c-0.7,0-7.7-6.7-7.8-7.5c-0.1-0.7,6.4-7.8,7.3-7.9
	C76.4,479.3,83.5,486.2,83.5,487.2z"/>
<path class="st90" d="M133,495.8c-0.5,4.3-4.3,6.1-7,8.5c-1.6,1.4-2.7-1.2-3.8-2.2c-1.6-1.6-4.8-3-4.2-5.1c0.9-3.1,4.2-5,6.6-7.2
	c1.3-1.2,2,0.4,2.8,1C129.4,492.4,131.1,494.2,133,495.8L133,495.8z"/>
<path class="st79" d="M95.4,494.9c-0.8-0.1-7.4-7-7.4-7.8c0.1-1.2,7-7.7,8-7.5c1.1,0.2,7.2,7,7.1,7.9C103,488.6,96.3,495,95.4,494.9
	z"/>
<path class="st91" d="M85.9,529c1,0.1,7.4,6.8,7.3,7.7c0,0.9-6.6,7.6-7.5,7.6c-1,0-7.7-7.1-7.6-8C78.3,535.5,85.2,529,85.9,529z"/>
<path class="st92" d="M105.5,489.4c0.9,0,7.6,6.7,7.6,7.6c0,0.9-6.5,7.7-7.4,7.8c-0.8,0-7.6-6.7-7.7-7.6
	C97.9,496.4,104.6,489.4,105.5,489.4z"/>
<path class="st93" d="M95.5,499.3c0.9-0.1,7.6,6.5,7.7,7.5c0.1,0.9-6.3,7.7-7.3,7.8c-0.8,0.1-7.7-6.5-7.7-7.4
	C88,506.4,94.7,499.4,95.5,499.3z"/>
<path class="st94" d="M123,506.9c0.1,0.9-6.4,7.7-7.3,7.8c-0.8,0.1-7.7-6.6-7.7-7.5c-0.1-0.8,6.5-7.7,7.4-7.8
	C116.2,499.3,122.9,505.9,123,506.9z"/>
<path class="st95" d="M133.8,513.6c-0.5-0.4-1-0.8-1.5-1.3c-5.9-5.8-5.9-5.8,1.5-11.5C133.8,505.3,133.8,509.5,133.8,513.6
	C133.8,513.6,133.8,513.6,133.8,513.6z"/>
<path class="st96" d="M90.2,450.8c-0.4-1.6,0.5-2,1.9-2c3,0,5.9,0,9.3,0c-1,3.3-4,4.6-5.7,6.8C93.9,454,92,452.4,90.2,450.8z"/>
<path class="st97" d="M69.8,449.9c3.6-2,7.5-0.7,12.1-0.9c-2.5,2.8-3.9,5.3-7,6.2C73.2,453.4,71.5,451.7,69.8,449.9z"/>
<path class="st98" d="M82.1,552.6c3.6-5.4,4-5.4,7.2,0C87,552.6,84.8,552.6,82.1,552.6z"/>
<path class="st99" d="M70.7,552.7c-3.5,0-6.1,1.1-7.9-0.5c-0.9-0.8,1.1-2.3,2.1-2.9C67.9,547.6,68.3,550.6,70.7,552.7z"/>
<path class="st100" d="M465.7,441c0,40.2,0,80.5,0,120.7c-17.1,0.1-34.1,0.2-51.2,0.3c-12.4,0-24.9,0-37.3,0c-2.5,0-4-0.2-2.1-3
	c3.6-5,1-10.7,2-16c0.6-0.3,1.1-0.2,1.5,0.4c0.8,0.8,1.4,2.2,2.8,1.8c5-1.6,10.2-3.1,14.5-6.2c1.6-1.1,1.6-3.2,1.5-5.1
	c-0.2-17.9,0.6-35.8-0.4-53.7c-0.2-2.9,0-5.6,1.5-8.2c0.4-0.4,1-0.8,1.6-1c2.2-0.5,4.4-0.6,6.3,1.1c1.5,2.4,1.1,5.1,1.1,7.8
	c0,16.8,0,33.6,0,50.3c0,1.2-0.1,2.3,0.1,3.5c0.2,1.9,0,4.3,2.9,4.2c2.9-0.1,2.7-2.6,2.7-4.4c0.1-15.6,0-31.2,0.1-46.9
	c0-4.8-0.9-9.6,0.9-14.3c2-2.2,4.6-1.8,7.1-1.4c0.6,0.2,1.1,0.6,1.5,1.1c0,21.5,0,42.9,0,64.4c0,1.9-0.5,3.8,2.2,4.8
	c12.4,4.7,24.7,9.8,37,14.6c0.7,0.3,1.6,0.3,2.8,0.4c0-2.1,0-3.9,0-5.7c0-34.6,0-69.2,0-103.8C464.9,444.8,464.2,442.7,465.7,441z"
	/>
<path class="st101" d="M377.8,542.8c-0.2,0.1-0.5,0.1-0.7,0.1c-0.9-2.8-3.3-1.8-5.1-1.8c-16.7,0.1-33.4,0.4-50.2,0.6
	c0.7-7-1.9-13.7-2.4-20.6c-0.4-4.8-1.7-9.4-1.6-14.3c1.4-0.8,2.9-0.7,4.4-0.7c16.2,0.1,32.5,0,48.7,0.1c2.5,0,5-0.3,7.2,1.4
	c1,1.2,1.3,2.7,1.3,4.2c0.2,8.8,0.2,17.6,0,26.5C379.4,539.9,379.2,541.6,377.8,542.8z"/>
<path class="st36" d="M152.8,190c0,5.8,0,11.6,0.2,17.5c0.1,2.8-0.9,3.7-3.7,3.7c-20.5-0.1-40.9-0.1-61.4,0c-2.8,0-3.9-0.8-3.8-3.7
	c0.2-4.5,0.3-9,0-13.5c-0.2-3.5,1.3-4.1,4.4-4.1C109.9,190.1,131.4,190,152.8,190C152.8,190.1,152.8,190,152.8,190z"/>
<path class="st22" d="M491.4,98.5c-1.2-0.3-1.7-1.3-2.2-2.1c-3.4-5.7-6.7-11.5-10.3-17.1c-1.4-2.3-1.2-3.7,1.2-5.3
	c8.4-5.4,16-11.9,23.1-19c1.6-1.6,2.8-2.5,4.9-0.5c4.8,4.6,9.9,8.9,14.9,13.3c1.8,1.5,2.5,2.8,0.5,4.9c-9.3,9.3-19.5,17.7-30.5,24.9
	C492.5,97.9,491.9,98.2,491.4,98.5z"/>
<path class="st22" d="M75,248.9c-0.5-5.3-2.2-11.9,0.4-15.6c2.9-4.1,9.8-1.3,15-1.4c16.1-0.3,32.3,0,48.4-0.2c3.5,0,4.5,1,4.5,4.5
	c0,12.5,0.2,12.5-12.4,12.5C112.3,248.8,93.6,248.9,75,248.9C75,248.9,75,248.9,75,248.9z"/>
<path class="st102" d="M593,358.9c2,0.2,2.9,1.4,2.7,3.4c-0.2,1.5-1,2.5-2.6,2.4c-1.8-0.2-3.1-1.4-3.1-3.3
	C590,359.6,591.4,359,593,358.9z"/>
<path class="st22" d="M454.9,260.1c24,0,47.9,0,71.9,0c1.2,1.1,1.5,2.6,1.4,4.1c-1.3,13.2-1.3,26.6-2.4,39.8
	c-0.6,7.3-0.7,14.6-1.2,21.9c-1.4,20-15.6,34.6-35.6,35.3c-10,0.4-20,0.3-30,0c-11.3-0.4-17.5-6.8-17.5-18c0-17.8,1.7-35.5,2.8-53.3
	c0.2-3.2-0.1-6.4,0.3-9.5C445.6,272.6,446.9,264.6,454.9,260.1z"/>
<path class="st100" d="M454.9,260.1c-6.2,6.8-8.9,14.8-9.1,24.1c-0.6,19.2-2.7,38.4-2.9,57.6c-0.1,12.8,5.3,18.2,18.2,18
	c11.5-0.2,23,1,34.4-0.9c15.2-2.6,26.9-16.9,27.6-32.3c0.9-20.5,2.5-41,3.8-61.5c0.1-1.7,0-3.3,0-5c2.4,0,4.8,0,7.2,0
	c-0.7,16.9-0.9,33.8-2.3,50.7c-0.7,8.4,0.1,16.9-2.3,25.2c-3.8,13.4-12.1,22.7-24.9,28c-2.7,1.1-3.6,2.5-3.7,5.5
	c-0.2,9.1-7,15.4-16.2,15.4c-9,0.1-18,0.2-27-0.1c-3.7-0.1-5.4,1-4.8,4.8c0.8,4.9-0.9,7.1-6.2,6.4c-2.9-0.4-6,0-9-0.1
	c-5-0.1-10.4-1.3-12.6,5.2c-0.2-0.2-0.4-0.4-0.6-0.5c-0.5-2.6-2.3-3.3-4.7-3.3c-6.1,0-12.2,0.1-18.3,0c-2.5,0-4.1,1-5,3.2
	c-0.3,0.5-0.8,0.7-1.3,0.6c-2.1-3.1-5-4.1-8.7-3.8c-2.4,0.2-4.9,0.4-7-1.3c-0.7-1-1-2.2-1-3.4c0.5-4.9-1.3-10,1.1-14.8
	c2.5-1.9,5.4-1.4,8.2-1.4c30.5,0,60.9,0,91.4,0c3.3,0,6.7,0.2,9.6-2c1.4-1,2.7-2.4,2.4-4.1c-0.4-2.3-2.6-1.6-4.1-1.7
	c-9.2-0.1-18.3-0.1-27.5,0c-6.5,0.1-12.5-1.6-17.8-5.4c-2.6-1.9-5.3-2.6-8.4-2.6c-14.8,0-29.6,0.2-44.4-0.1
	c-4.1-0.1-6.2,2.1-8.5,4.7c-3.1-4.3-2.4-8.7-0.3-13.2c0.5-0.4,1-0.8,1.6-1c5.3-1.5,10.5,0.5,15.8,0.4c11.6,0,23.1-0.1,34.7,0.1
	c2.4-0.3,2.4-2.1,2.4-3.8c0-12.9,0.1-25.8,0.9-38.6c0.1-1.8,0-3.7,1.5-5.1c1.9-3.4,0.5-7.1,1-10.7c0.9-7.8,0.1-15.8,2.8-23.5
	C444.2,260.1,444.7,259.6,454.9,260.1z"/>
<path class="st103" d="M234.7,364.8c7.1-10.8,14.2-21.7,21.3-32.5c1.3-1.9,2.6-3.9,3-6.2c1.8-6.1,5.9-11.1,8.8-16.6
	c1-1.5,1.4-3.7,3.9-3.6c3-1.6,6.2-2,9.6-1.9c8.6,0.2,17.3,0.1,25.9,0.2c0.8,2.5-1,4-2.1,5.8c-3.8,6.5-6.1,13.4-5.3,21.1
	c0.3,2.8-0.8,5.5-1.1,8.3c-1.3,6.3-2.7,12.6-4,18.9c-0.5,2.5-0.9,5.3-3.6,6.7c-1.9,0.7-3.9,0.7-5.9,0.7c-15.6,0.2-31.2-0.4-46.9,0.4
	C237,365.9,235.7,365.9,234.7,364.8z"/>
<path class="st104" d="M436.9,303.9c-0.4,15-0.7,30-1.1,45c-3.3-1.1-2.2-4-2.3-6.2c-0.3-7.3-0.2-7.4-7.2-9.7c-11.3-3.7-22.8-7-34-11
	c-10.9-6.6-21.6-13.5-32.3-20.5c-1.2-0.8-2.5-1.7-2.6-3.4c25.1-0.1,50.3,0,75.4-0.2C438.2,297.8,436.6,301.3,436.9,303.9z"/>
<path class="st17" d="M277,260.2c-9.6,10.5-7.8,23.9-9.1,36.4c-0.4,3.9,0.5,7.9-0.6,11.8c-0.3,1.1,0.7,1.3,1.5,1.5
	c-3.3,5.4-5.9,11.1-9.8,16.1c0.9-14.5,2.1-28.9,2.6-43.4c0.2-8.2,2.3-15.5,6.2-22.5C270.9,260.1,274,260.1,277,260.2z"/>
<path class="st105" d="M357.5,298.1c11.5,7.6,23,15.2,34.5,22.7c-0.1,0.9,0.7,2.1-0.8,2.6c-1.2,0.2-2.2-0.2-3.3-0.7
	c-12.9-7.2-25.1-15.7-37.1-24.3c-11.8-8.5-24.2-5.4-32.7,1.1c-7.7,5.8-13.8,13-15.4,23c-0.4,4.4-1.1,8.9-0.6,13.4
	c0.2,1.7,0.2,3.3-0.8,4.8c-2.1-1.1-2.1-1.1-1.8-3.9c-0.4,0.8,0.4,2.7-1.7,2.1c0.5-5.8,0.6-11.7,1.5-17.5c1-6.5,4.5-12,8.1-17.3
	c7.9-8.2,17-14.2,29-15.1c-1.4-3.5-5-5.1-5.6-9.1C337.9,288.6,348.3,292.5,357.5,298.1z"/>
<path class="st106" d="M364.6,226.9c4.1-7.1,6.3-14.5,2.8-22.7c4.4,4.8,4.3,10.2,2.9,15.6c-0.8,3.1-1.3,6.7-5.4,7.6
	C365,227.1,364.8,226.9,364.6,226.9z"/>
<path class="st0" d="M235.7,462.9c-7.9,1.7-15.7,1.6-23.6,0.1c-2,0.5-3.1-0.9-4.2-2.1c-7.5-8-16.1-14.8-23.8-22.7
	c-1.6-1.7-3.3-3.3-4.1-5.6c0-6.9,0-13.9-0.1-20.8c2.6-1.5,4.7,0.5,6.8,1.3c3.5,1.3,6.8,3.2,10.1,4.8c4.4,2.2,7.5,6.1,11,9.3
	c10,9.3,20,18.5,29.6,28.1c1.2,1.2,2.3,2.5,1.9,4.4C238.7,461.4,237.6,462.6,235.7,462.9z"/>
<path class="st107" d="M197.6,419.4c-5.9-2.4-11.4-5.7-17.6-7.5c0-9.6,0-19.3,0-28.9c11.6,2.3,21.7,7.9,31,15c0.6,1.2,0,2.3-0.4,3.3
	c-2.4,4.4-5.8,8.2-7.9,12.8C201.3,416.1,200.9,419.2,197.6,419.4z"/>
<path class="st108" d="M180.1,432.7c10.7,10.1,21.3,20.2,32,30.3c-1.6,1.7-3.8,0.9-5.7,1c-8.8,0-17.6-0.1-26.5-0.1
	C180,453.4,180,443.1,180.1,432.7z"/>
<path class="st30" d="M449.9,191c0.8-1.8,2.4-2.1,4.1-2c13.6,0.4,27.3-1,41,1.3c-1.6,1.4-3.8-0.1-5.1,1.5c-3.9,3.7-9.2,2.3-13.7,3.2
	c-3.7,0.8-7.6,0.8-11.4,1c-3.8,0.3-7.7,0.1-11.2,1.9c-0.9,0-1.7-0.1-2.6-0.1c0-0.2,0-0.5,0-0.7C451.5,194.8,448.9,193.2,449.9,191z"
	/>
<path class="st109" d="M507.9,192c0,3,0,5.9,0,8.9c-12.4,0-24.8,0.1-37.2,0.1c-1.6-1.3-3.2-2.6-4.8-3.9c3.7-2.8,8.2-1.7,12.3-2.4
	c6-1,12-1.5,18.1-1.9c1.7-0.1,3.3-0.4,4.6,1C503.3,193.8,505.1,191,507.9,192z"/>
<path class="st110" d="M449.9,191c-0.2,2.1,4.9,3.3,1.1,6c-1-1-2-2.1-3-3.1c0-1,0-2,0-2.9C448.6,191,449.2,191,449.9,191z"/>
<path class="st111" d="M500.8,193.8c-11.7,1.1-23.4,2.2-35,3.3c-0.4-0.4-0.7-0.7-1.1-1.1c4.7-3.6,10.6-1.6,15.8-3
	c3-0.8,6.2-0.9,9.4-1.2c3.1,0.3,6.1-0.3,9.2-0.7C501.2,190.8,502.9,191.1,500.8,193.8z"/>
<path class="st7" d="M400.2,471.7c-0.5,0.1-0.9,0.2-1.4,0.3c-3.7-2.1-4.3-5.9-4.3-9.4c-0.3-19-0.2-38-0.1-56.9
	c0-1.7,0.1-3.4,1.4-4.7l0.3-0.3c1.3-1.2,3-1.3,4.7-1.4c6.5-0.1,13-0.1,19.5,0c1.7,0,3.4,0.1,4.6,1.5c0,0,0.3,0.2,0.3,0.2
	c-0.1,20.1-0.2,40.2-0.2,60.3c0,3.6-0.5,7.2-2,10.5c-0.5-0.1-0.9-0.1-1.4-0.2c-0.4-2.6-1.9-3.6-4.5-3.5c-4.1,0.1-8.3,0.1-12.4,0
	C402.1,468.1,400.6,469.2,400.2,471.7z"/>
<path class="st112" d="M485.6,517.8c3.6,0,7.3,0,10.9,0c0.8,0,1.8,0.1,1.8,1.2c0,1-0.8,1.5-1.6,1.5c-7.8,0.1-15.6,0.1-23.4,0
	c-0.9,0-1.8-0.5-1.8-1.4c-0.1-1.4,1.2-1.4,2.1-1.4C477.6,517.8,481.6,517.8,485.6,517.8z"/>
<path class="st113" d="M505.4,485.7c-7,0-14,0-20.9,0c0-0.4,0-0.8,0-1.3c6.9-1.3,14-0.4,20.9-0.5
	C505.3,484.5,505.3,485.1,505.4,485.7z"/>
<path class="st113" d="M494.4,536.2c7,0,14,0,20.9,0c-6.9,2.6-13.9,1.7-20.9,1.8C494.4,537.4,494.4,536.8,494.4,536.2z"/>
<path class="st113" d="M474.6,492c5-0.2,9.4-0.5,14.6,0.2C485.1,494.8,477.7,494.7,474.6,492z"/>
<path class="st35" d="M475.2,546.9c4.4-1.4,8.8-1.4,13.3-0.1C484,548.4,479.6,548,475.2,546.9z"/>
<path class="st36" d="M499,248.8c0-5.3,0.1-10.6,0-16c-0.1-2.9,0.7-4.1,3.9-4.1c24.4,0.1,48.9,0.2,73.3,0.1c3.1,0,4.1,1,4,4
	c-0.2,4-0.2,8,0,12c0.1,2.9-0.6,4.2-3.8,4.1C550.5,248.9,524.7,248.9,499,248.8C498.9,248.8,499,248.8,499,248.8z"/>
<path class="st22" d="M202.5,560.7c-12.5,0-24.9-0.1-37.4,0.1c-3.1,0-4.4-0.7-4.3-4.1c0.2-7.5,0.2-15,0-22.4
	c-0.1-2.9,0.6-4.1,3.8-4.1c25.3,0.2,50.5,0.4,75.8,0.4c3.2,0,3.9,1.3,3.8,4.2c-0.1,7.3-0.2,14.6,0,21.9c0.1,3.4-1.2,4.2-4.4,4.1
	C227.4,560.6,214.9,560.7,202.5,560.7z"/>
<path class="st22" d="M214.4,514.3c-12.5,0-25-0.1-37.4,0c-3.4,0-4.6-1.2-4.4-4.7c0.3-5.3,0.2-10.7,0-16c-0.1-3.2,0.8-4.3,4.2-4.3
	c21.6,0.1,43.3,0.1,64.9,0.1c0.8,0,1.7,0.1,2.5,0.1c11.8-0.3,11.8-0.3,11.8,11.2c0,1.8,0,3.7,0,5.5c-0.2,8.7,1.3,7.9-7.6,7.7
	C237,513.7,225.7,514.4,214.4,514.3z"/>
<path class="st22" d="M200.8,487c-12.5,0-25-0.1-37.5,0.1c-3.4,0.1-4.8-0.9-4.5-4.5c0.3-4.1,0.2-8.3,0-12.5
	c-0.1-2.4,0.5-3.7,3.3-3.7c25.8,0.1,51.6,0.1,77.4,0c2.4,0,3.3,0.9,3.2,3.2c-0.1,4.5-0.2,9,0,13.5c0.2,3.2-1.1,3.9-4,3.9
	C226.1,486.9,213.5,487,200.8,487z"/>
<path class="st22" d="M193.4,527.8c-10.1,0-20.3-0.2-30.4,0.1c-4.6,0.2-4.2-2.5-4-5.3c0.2-2.7-1.4-6.1,3.9-6
	c20.6,0.2,41.2,0.3,61.8,0c4.9-0.1,4.4,2.6,4.3,5.6c-0.1,2.9,0.9,5.9-4.2,5.7C214.4,527.6,203.9,527.8,193.4,527.8z"/>
<path class="st114" d="M235.7,462.9c1.2-1.2,2.4-2.4,3.6-3.6c2.8-5.5,5.6-10.8,11.5-13.7c2.9,6.3,6.4,12.3,10.2,18.1
	c-7.4,0.1-14.7,0.2-22.1,0.2C237.7,464,236.5,464.1,235.7,462.9z"/>
<path class="st36" d="M157.9,561.6c-7,0.6-14,0.4-21,0.1c0-10,0.1-19.9,0-29.9c0-3,0.9-4.4,4-4c1.1,0.1,2.3,0,3.5,0
	c11.9,0,13.1,1.1,13.5,13.4C158.1,548,157.9,554.8,157.9,561.6z"/>
<path class="st78" d="M123.1,467.1c0.1,0.8-6.3,7.6-7.3,7.8c-1.1,0.2-8-6.4-7.9-7.6c0-0.8,6.8-7.6,7.6-7.7
	C116.4,459.6,123.1,466.1,123.1,467.1z"/>
<path class="st115" d="M109.8,449c4.2,0,7.7,0,11.3,0C116.8,456.7,115.8,456.7,109.8,449z"/>
<path class="st116" d="M312,456.9c-1.7-10.9-2.7-21.8-3.2-32.8c-0.7-3.3-0.1-6.6-0.3-9.9c-0.2-2.7,1.2-4,3.6-4.5
	c1.8-0.4,3.6-0.4,5.5-0.4c18,0,36,0,53.9,0c2.5,0,5-0.2,7.3,1.1c1.7,1.5,1.4,3.6,1.7,5.6c-0.1,11.6,0.6,23.3-0.3,34.9
	c-0.8,2.4-0.7,4.9-0.8,7.4c-0.1,6.2-1.1,7.2-7.3,7.2c-10.6,0.1-21.2,0-31.8,0c-6,0-11.9,0-17.9,0C313.3,465.4,313.3,465.4,312,456.9
	z"/>
<path class="st117" d="M312,456.9c0.3,7,4.9,7.2,10.4,7.1c16.9-0.3,33.8-0.2,50.8,0c3.7,0,5-1,4.8-4.8c-0.1-2.7-0.9-5.6,0.7-8.3
	c2.2,1.9,1.7,4.5,1.8,6.9c0.7,15-1.1,30-1,45.1c0,1.8-0.1,3.7-1.6,5c-17.9,0-35.8,0-53.6,0c-2.1,0-4.3,0.2-6.3-1
	c-2.6-12.6-3.4-25.3-4.9-38C312.6,464.9,311.5,460.9,312,456.9z"/>
<path class="st118" d="M250.8,445.6c-3.8,4.6-7.6,9.2-11.5,13.7c-1.3-2.6-3.7-4.3-5.7-6.2c-12-11.3-24-22.5-36-33.8
	c2.4-1.1,2.4-4,4.2-5.6c2-1.5,4.3-1.5,6.7-1.5c19.3,0,38.6,0,57.9,0c1.7,0,3.3,0,4.9,0.6c1.8,0.7,2.8,1.8,1.6,3.8
	C265.5,426.3,258.1,435.9,250.8,445.6z"/>
<path class="st119" d="M380.1,377.8c-0.1,5-0.3,10-0.4,15c-1.6,0-1.8-1.3-2.2-2.4c-0.7-2.7-3-2.9-5.2-2.9c-20-0.1-40,0.1-59.9-0.1
	c-4.4,0-4.7,3.4-6.6,5.6c-1.5-2.8-0.5-5.8-0.9-8.7c-0.2-1.9,0.5-4.1-1.8-5.3c-1.2-5.2-1.3-10.6-1.5-15.9c0-1.3,0.3-2.6,1.6-3.4
	c1.5,0.5,2,1.8,2,3.1c0.2,4.7,3.1,5.5,7.1,5.5c19.9-0.1,39.8,0,59.8,0c2.6,0,5.3-0.3,7.8,1.2C381.8,372.2,381.9,375,380.1,377.8z"/>
<path class="st120" d="M272.9,416.6c0.1-3.6-2.6-2.7-4.6-2.7c-22.2-0.1-44.4-0.1-66.5-0.1c1.9-4.8,5.1-8.8,8.1-12.9
	c2.2-3.5,5.7-3.5,9.2-3.6c21.4,0,42.8,0.1,64.2-0.1c3.7,0.5,1.3,3,1.4,4.6C280.9,406.8,277.4,412.1,272.9,416.6z"/>
<path class="st121" d="M378.8,410.9c-21.3,0-42.5,0.1-63.8-0.1c-4.9-0.1-6.7,1.6-6.2,6.3c0.2,2.3-0.1,4.6-0.1,7
	c-1.3-7-1.7-14-1.9-21c-0.5-1.6-0.9-3.2,0.4-4.6c1.1-0.8,2.5-1,3.8-1.1c20.9-1.2,41.8-1.3,62.7-1c5.5,0.1,6.6,1.3,6.5,7
	C380.3,405.9,381,408.7,378.8,410.9z"/>
<path class="st8" d="M284.7,401.8c-1.3-1.3,0.4-2.6,0-3.8c-2.1-4.2,1.2-7.8,1.2-11.8c0.7-4.2,2.2-8.2,2.6-12.4
	c0.4-3.5,0.9-7,3.4-9.8c2-8.3,3.9-16.7,5.9-25c1.3-0.5,0.9-1.9,1.6-3c1.3,1.5-0.2,3.8,1.5,5c3.2,6.1,3.1,12.5,2.1,19
	c-0.4,4.3,0.5,8.5,0.9,12.8c0.2,2.1,0.4,4.3-0.7,6.3C297,386.6,290.9,394.2,284.7,401.8z"/>
<path class="st122" d="M306.9,398.9c0,1.4-0.1,2.7-0.1,4.1c-1.6-3.2-0.4-6.7-1-10c0.2-7.1,0.2-7.1,7.4-7.1c20.3,0,40.5,0.1,60.8-0.1
	c4,0,5.5,1.3,4.9,5.1c-1.5,1.3-3.3,1.5-5.1,1.5c-19.4,0.8-38.8,2.6-58.3,2C311.6,394.3,308.6,395.2,306.9,398.9z"/>
<path class="st123" d="M444.8,557.4c-22.6,0-44.4,0-66.9,0C395.2,546.3,418,542.4,444.8,557.4z"/>
<path class="st124" d="M414.9,471.7c-3-0.5-6-0.5-9,0c-1.9-0.4-3.8-0.4-5.7,0c-1.6-0.8-1.9-2.2-1.5-3.7c0.5-1.8,2.1-1.2,3.3-1.2
	c5.8-0.1,11.5,0,17.3,0c4.6-0.1,4.7,1.9,2.4,5C419.4,471.3,417.1,471.3,414.9,471.7z"/>
<path class="st125" d="M287.1,385.9c0,4.2-1.8,8-2.4,12c-1.9,1.3-4.1,0.9-6.3,0.9c-20.5,0-41.1,0-61.6,0c-2.6,0-4.9,0.4-6.9,2
	c0.4-1,0.7-1.9,1.1-2.9c3-4,6-8,9-12.1c1.9-1.2,4-1.6,6.2-1.6c18.5,0,36.9-0.1,55.4,0C283.5,384.3,285.5,384.3,287.1,385.9z"/>
<path class="st126" d="M291.9,363.9c-0.7,3.3-1.4,6.7-2.1,10c-0.7,2.8-2.8,3.5-5.3,3.5c-17.7,0.2-35.5,0.1-53.2,0
	c-1.7,0-3.3-0.2-4.5-1.6c2.5-3.8,4.6-7.8,7.9-11C253.7,362.9,272.8,364.4,291.9,363.9z"/>
<path class="st127" d="M226.8,375.8c19.3,0,38.5,0,57.8,0.1c2.1,0,4-0.1,5.2-2c-0.6,4.1-1.3,8.1-2.7,12c-22.4,0-44.8,0-67.1,0
	C221.9,382.3,223.8,378.7,226.8,375.8z"/>
<path class="st20" d="M303,359.9c-0.7-6.3-1.4-12.7-2.1-19c0-6.4-1-12.9,1-19.2c26.7,1.3,53.4,0.3,80.1,0.5c2.3,0,4.6,0.4,6.9-0.2
	c1,0.4,2,0.7,2.9,1.1c1.4-0.1,2.5,0.6,3.6,1.4c12,8.5,24.1,16.8,36.2,25.3c1,0.7,2.4,1.2,2.4,2.9c-17.8,0.1-35.6,0.6-53.3-1
	c-1.7-3.5-0.3-7.2-0.9-10.7c0.6,3.5-0.8,7.3,1,10.7c-1.4,4.3-0.7,8.7-0.7,13.1c1.3,1.8,1.3,3.5-0.3,5.1c-22.7,0-45.4,0-68.1,0
	c-7.2,0-7.3,0-7.8-7.3C303.9,361.6,303.9,360.6,303,359.9z"/>
<path class="st22" d="M379.8,369.9c0.1-1.7,0.2-3.4,0.3-5.1c0.1-5.9,3.8-6.2,8.6-6.1c15.5,0.3,31,0.1,46.5,0.1
	c2.6,0,4.7,0.5,6.7,2.4c4.4,3.9,9.7,5.6,15.6,5.6c10.7,0,21.3,0,32,0c4.7,0,5.3,1,3.3,5.3c-2,4.4-5.7,5.7-10.2,5.7
	c-34.2,0-68.3,0-102.5-0.1C380,375.2,379.9,372.5,379.8,369.9z"/>
<path class="st8" d="M434,352.7c-14.3-9.6-28.5-19.3-42.2-29.6c0-0.8-0.9-1.6,0.2-2.3c13.6,4.3,27.1,8.6,40.7,12.8
	c2.3,0.7,2.5,2.1,2.5,4.1c0,3.7-1.1,7.6,0.6,11.2C435.8,350.4,437.1,352.6,434,352.7z"/>
<path class="st128" d="M380,395.9c-1,6.6,0.7,13.4-0.9,20c-0.1-1.7-0.2-3.3-0.3-5c0.4-13,0.4-13-12.8-13c-3.8,0-7.6,0.1-11.4,0
	c-15.9-0.7-31.8,1.2-47.7,1c-0.9-4.8,1-6.4,5.9-6.1c15.6,0.9,31.2-0.5,46.7-1.1c6.4-0.2,12.9-0.7,19.3-0.8c0.3,0.6,0.6,1.3,0.8,1.9
	C379.8,393.8,379.9,394.9,380,395.9z"/>
<path class="st129" d="M424.8,400.8c-9.6,0-19.2-0.1-28.8-0.1c-0.9-3.6,0-5.4,4.3-5.2c6.9,0.4,13.9,0.3,20.8,0
	C425.7,395.3,426.3,397.2,424.8,400.8z"/>
<path class="st130" d="M388.9,322c-1,2-2.9,1.9-4.7,1.9c-25.8,0-51.5,0-77.3,0c-2,0-4.1,0.1-5.1-2.2c1.4-15.6,21.8-32.3,37.8-29.7
	c8.2,1.3,14.1,7.2,20.8,11.3C370,309.3,379.4,315.7,388.9,322z"/>
<path class="st131" d="M380.8,351.7c-0.6-0.3-1.5-0.6-1.6-0.9c-0.5-4.9-0.7-9.9,0.7-14.7C381.4,341.2,381.2,346.5,380.8,351.7
	C380.7,351.7,380.8,351.7,380.8,351.7z"/>
</svg>
